<?xml version="1.0" encoding="utf-8" standalone="no"?>
<!DOCTYPE svg PUBLIC "-//W3C//DTD SVG 1.1//EN"
  "http://www.w3.org/Graphics/SVG/1.1/DTD/svg11.dtd">
<svg xmlns:xlink="http://www.w3.org/1999/xlink" width="453.810133pt" height="259.62175pt" viewBox="0 0 453.810133 259.62175" xmlns="http://www.w3.org/2000/svg" version="1.1">
 <metadata>
  <rdf:RDF xmlns:dc="http://purl.org/dc/elements/1.1/" xmlns:cc="http://creativecommons.org/ns#" xmlns:rdf="http://www.w3.org/1999/02/22-rdf-syntax-ns#">
   <cc:Work>
    <dc:type rdf:resource="http://purl.org/dc/dcmitype/StillImage"/>
    <dc:date>2023-03-17T16:48:37.741137</dc:date>
    <dc:format>image/svg+xml</dc:format>
    <dc:creator>
     <cc:Agent>
      <dc:title>Matplotlib v3.5.3, https://matplotlib.org/</dc:title>
     </cc:Agent>
    </dc:creator>
   </cc:Work>
  </rdf:RDF>
 </metadata>
 <defs>
  <style type="text/css">*{stroke-linejoin: round; stroke-linecap: butt}</style>
 </defs>
 <g id="figure_1">
  <g id="patch_1">
   <path d="M 0 259.62175 
L 453.810133 259.62175 
L 453.810133 0 
L 0 0 
z
" style="fill: #ffffff"/>
  </g>
  <g id="axes_1">
   <g id="patch_2">
    <path d="M 42.216875 190.46175 
L 230.306763 190.46175 
L 230.306763 24.14175 
L 42.216875 24.14175 
z
" style="fill: #eeeeee"/>
   </g>
   <g id="matplotlib.axis_1">
    <g id="xtick_1">
     <g id="line2d_1">
      <path d="M 50.766415 190.46175 
L 50.766415 24.14175 
" clip-path="url(#p53a68c342f)" style="fill: none; stroke-dasharray: 1.85,0.8; stroke-dashoffset: 0; stroke: #b2b2b2; stroke-width: 0.5"/>
     </g>
     <g id="line2d_2">
      <defs>
       <path id="m76d70b5801" d="M 0 0 
L 0 -3.5 
" style="stroke: #000000; stroke-width: 0.8"/>
      </defs>
      <g>
       <use xlink:href="#m76d70b5801" x="50.766415" y="190.46175" style="stroke: #000000; stroke-width: 0.8"/>
      </g>
     </g>
     <g id="text_1">
      <!-- 0 -->
      <g transform="translate(47.585165 201.560188)scale(0.1 -0.1)">
       <defs>
        <path id="DejaVuSans-30" d="M 2034 4250 
Q 1547 4250 1301 3770 
Q 1056 3291 1056 2328 
Q 1056 1369 1301 889 
Q 1547 409 2034 409 
Q 2525 409 2770 889 
Q 3016 1369 3016 2328 
Q 3016 3291 2770 3770 
Q 2525 4250 2034 4250 
z
M 2034 4750 
Q 2819 4750 3233 4129 
Q 3647 3509 3647 2328 
Q 3647 1150 3233 529 
Q 2819 -91 2034 -91 
Q 1250 -91 836 529 
Q 422 1150 422 2328 
Q 422 3509 836 4129 
Q 1250 4750 2034 4750 
z
" transform="scale(0.015625)"/>
       </defs>
       <use xlink:href="#DejaVuSans-30"/>
      </g>
     </g>
    </g>
    <g id="xtick_2">
     <g id="line2d_3">
      <path d="M 85.136427 190.46175 
L 85.136427 24.14175 
" clip-path="url(#p53a68c342f)" style="fill: none; stroke-dasharray: 1.85,0.8; stroke-dashoffset: 0; stroke: #b2b2b2; stroke-width: 0.5"/>
     </g>
     <g id="line2d_4">
      <g>
       <use xlink:href="#m76d70b5801" x="85.136427" y="190.46175" style="stroke: #000000; stroke-width: 0.8"/>
      </g>
     </g>
     <g id="text_2">
      <!-- 2 -->
      <g transform="translate(81.955177 201.560188)scale(0.1 -0.1)">
       <defs>
        <path id="DejaVuSans-32" d="M 1228 531 
L 3431 531 
L 3431 0 
L 469 0 
L 469 531 
Q 828 903 1448 1529 
Q 2069 2156 2228 2338 
Q 2531 2678 2651 2914 
Q 2772 3150 2772 3378 
Q 2772 3750 2511 3984 
Q 2250 4219 1831 4219 
Q 1534 4219 1204 4116 
Q 875 4013 500 3803 
L 500 4441 
Q 881 4594 1212 4672 
Q 1544 4750 1819 4750 
Q 2544 4750 2975 4387 
Q 3406 4025 3406 3419 
Q 3406 3131 3298 2873 
Q 3191 2616 2906 2266 
Q 2828 2175 2409 1742 
Q 1991 1309 1228 531 
z
" transform="scale(0.015625)"/>
       </defs>
       <use xlink:href="#DejaVuSans-32"/>
      </g>
     </g>
    </g>
    <g id="xtick_3">
     <g id="line2d_5">
      <path d="M 119.506438 190.46175 
L 119.506438 24.14175 
" clip-path="url(#p53a68c342f)" style="fill: none; stroke-dasharray: 1.85,0.8; stroke-dashoffset: 0; stroke: #b2b2b2; stroke-width: 0.5"/>
     </g>
     <g id="line2d_6">
      <g>
       <use xlink:href="#m76d70b5801" x="119.506438" y="190.46175" style="stroke: #000000; stroke-width: 0.8"/>
      </g>
     </g>
     <g id="text_3">
      <!-- 4 -->
      <g transform="translate(116.325188 201.560188)scale(0.1 -0.1)">
       <defs>
        <path id="DejaVuSans-34" d="M 2419 4116 
L 825 1625 
L 2419 1625 
L 2419 4116 
z
M 2253 4666 
L 3047 4666 
L 3047 1625 
L 3713 1625 
L 3713 1100 
L 3047 1100 
L 3047 0 
L 2419 0 
L 2419 1100 
L 313 1100 
L 313 1709 
L 2253 4666 
z
" transform="scale(0.015625)"/>
       </defs>
       <use xlink:href="#DejaVuSans-34"/>
      </g>
     </g>
    </g>
    <g id="xtick_4">
     <g id="line2d_7">
      <path d="M 153.87645 190.46175 
L 153.87645 24.14175 
" clip-path="url(#p53a68c342f)" style="fill: none; stroke-dasharray: 1.85,0.8; stroke-dashoffset: 0; stroke: #b2b2b2; stroke-width: 0.5"/>
     </g>
     <g id="line2d_8">
      <g>
       <use xlink:href="#m76d70b5801" x="153.87645" y="190.46175" style="stroke: #000000; stroke-width: 0.8"/>
      </g>
     </g>
     <g id="text_4">
      <!-- 6 -->
      <g transform="translate(150.6952 201.560188)scale(0.1 -0.1)">
       <defs>
        <path id="DejaVuSans-36" d="M 2113 2584 
Q 1688 2584 1439 2293 
Q 1191 2003 1191 1497 
Q 1191 994 1439 701 
Q 1688 409 2113 409 
Q 2538 409 2786 701 
Q 3034 994 3034 1497 
Q 3034 2003 2786 2293 
Q 2538 2584 2113 2584 
z
M 3366 4563 
L 3366 3988 
Q 3128 4100 2886 4159 
Q 2644 4219 2406 4219 
Q 1781 4219 1451 3797 
Q 1122 3375 1075 2522 
Q 1259 2794 1537 2939 
Q 1816 3084 2150 3084 
Q 2853 3084 3261 2657 
Q 3669 2231 3669 1497 
Q 3669 778 3244 343 
Q 2819 -91 2113 -91 
Q 1303 -91 875 529 
Q 447 1150 447 2328 
Q 447 3434 972 4092 
Q 1497 4750 2381 4750 
Q 2619 4750 2861 4703 
Q 3103 4656 3366 4563 
z
" transform="scale(0.015625)"/>
       </defs>
       <use xlink:href="#DejaVuSans-36"/>
      </g>
     </g>
    </g>
    <g id="xtick_5">
     <g id="line2d_9">
      <path d="M 188.246461 190.46175 
L 188.246461 24.14175 
" clip-path="url(#p53a68c342f)" style="fill: none; stroke-dasharray: 1.85,0.8; stroke-dashoffset: 0; stroke: #b2b2b2; stroke-width: 0.5"/>
     </g>
     <g id="line2d_10">
      <g>
       <use xlink:href="#m76d70b5801" x="188.246461" y="190.46175" style="stroke: #000000; stroke-width: 0.8"/>
      </g>
     </g>
     <g id="text_5">
      <!-- 8 -->
      <g transform="translate(185.065211 201.560188)scale(0.1 -0.1)">
       <defs>
        <path id="DejaVuSans-38" d="M 2034 2216 
Q 1584 2216 1326 1975 
Q 1069 1734 1069 1313 
Q 1069 891 1326 650 
Q 1584 409 2034 409 
Q 2484 409 2743 651 
Q 3003 894 3003 1313 
Q 3003 1734 2745 1975 
Q 2488 2216 2034 2216 
z
M 1403 2484 
Q 997 2584 770 2862 
Q 544 3141 544 3541 
Q 544 4100 942 4425 
Q 1341 4750 2034 4750 
Q 2731 4750 3128 4425 
Q 3525 4100 3525 3541 
Q 3525 3141 3298 2862 
Q 3072 2584 2669 2484 
Q 3125 2378 3379 2068 
Q 3634 1759 3634 1313 
Q 3634 634 3220 271 
Q 2806 -91 2034 -91 
Q 1263 -91 848 271 
Q 434 634 434 1313 
Q 434 1759 690 2068 
Q 947 2378 1403 2484 
z
M 1172 3481 
Q 1172 3119 1398 2916 
Q 1625 2713 2034 2713 
Q 2441 2713 2670 2916 
Q 2900 3119 2900 3481 
Q 2900 3844 2670 4047 
Q 2441 4250 2034 4250 
Q 1625 4250 1398 4047 
Q 1172 3844 1172 3481 
z
" transform="scale(0.015625)"/>
       </defs>
       <use xlink:href="#DejaVuSans-38"/>
      </g>
     </g>
    </g>
    <g id="xtick_6">
     <g id="line2d_11">
      <path d="M 222.616473 190.46175 
L 222.616473 24.14175 
" clip-path="url(#p53a68c342f)" style="fill: none; stroke-dasharray: 1.85,0.8; stroke-dashoffset: 0; stroke: #b2b2b2; stroke-width: 0.5"/>
     </g>
     <g id="line2d_12">
      <g>
       <use xlink:href="#m76d70b5801" x="222.616473" y="190.46175" style="stroke: #000000; stroke-width: 0.8"/>
      </g>
     </g>
     <g id="text_6">
      <!-- 10 -->
      <g transform="translate(216.253973 201.560188)scale(0.1 -0.1)">
       <defs>
        <path id="DejaVuSans-31" d="M 794 531 
L 1825 531 
L 1825 4091 
L 703 3866 
L 703 4441 
L 1819 4666 
L 2450 4666 
L 2450 531 
L 3481 531 
L 3481 0 
L 794 0 
L 794 531 
z
" transform="scale(0.015625)"/>
       </defs>
       <use xlink:href="#DejaVuSans-31"/>
       <use xlink:href="#DejaVuSans-30" x="63.623047"/>
      </g>
     </g>
    </g>
    <g id="text_7">
     <!-- Threshold -->
     <g transform="translate(106.695881 216.758)scale(0.12 -0.12)">
      <defs>
       <path id="DejaVuSans-54" d="M -19 4666 
L 3928 4666 
L 3928 4134 
L 2272 4134 
L 2272 0 
L 1638 0 
L 1638 4134 
L -19 4134 
L -19 4666 
z
" transform="scale(0.015625)"/>
       <path id="DejaVuSans-68" d="M 3513 2113 
L 3513 0 
L 2938 0 
L 2938 2094 
Q 2938 2591 2744 2837 
Q 2550 3084 2163 3084 
Q 1697 3084 1428 2787 
Q 1159 2491 1159 1978 
L 1159 0 
L 581 0 
L 581 4863 
L 1159 4863 
L 1159 2956 
Q 1366 3272 1645 3428 
Q 1925 3584 2291 3584 
Q 2894 3584 3203 3211 
Q 3513 2838 3513 2113 
z
" transform="scale(0.015625)"/>
       <path id="DejaVuSans-72" d="M 2631 2963 
Q 2534 3019 2420 3045 
Q 2306 3072 2169 3072 
Q 1681 3072 1420 2755 
Q 1159 2438 1159 1844 
L 1159 0 
L 581 0 
L 581 3500 
L 1159 3500 
L 1159 2956 
Q 1341 3275 1631 3429 
Q 1922 3584 2338 3584 
Q 2397 3584 2469 3576 
Q 2541 3569 2628 3553 
L 2631 2963 
z
" transform="scale(0.015625)"/>
       <path id="DejaVuSans-65" d="M 3597 1894 
L 3597 1613 
L 953 1613 
Q 991 1019 1311 708 
Q 1631 397 2203 397 
Q 2534 397 2845 478 
Q 3156 559 3463 722 
L 3463 178 
Q 3153 47 2828 -22 
Q 2503 -91 2169 -91 
Q 1331 -91 842 396 
Q 353 884 353 1716 
Q 353 2575 817 3079 
Q 1281 3584 2069 3584 
Q 2775 3584 3186 3129 
Q 3597 2675 3597 1894 
z
M 3022 2063 
Q 3016 2534 2758 2815 
Q 2500 3097 2075 3097 
Q 1594 3097 1305 2825 
Q 1016 2553 972 2059 
L 3022 2063 
z
" transform="scale(0.015625)"/>
       <path id="DejaVuSans-73" d="M 2834 3397 
L 2834 2853 
Q 2591 2978 2328 3040 
Q 2066 3103 1784 3103 
Q 1356 3103 1142 2972 
Q 928 2841 928 2578 
Q 928 2378 1081 2264 
Q 1234 2150 1697 2047 
L 1894 2003 
Q 2506 1872 2764 1633 
Q 3022 1394 3022 966 
Q 3022 478 2636 193 
Q 2250 -91 1575 -91 
Q 1294 -91 989 -36 
Q 684 19 347 128 
L 347 722 
Q 666 556 975 473 
Q 1284 391 1588 391 
Q 1994 391 2212 530 
Q 2431 669 2431 922 
Q 2431 1156 2273 1281 
Q 2116 1406 1581 1522 
L 1381 1569 
Q 847 1681 609 1914 
Q 372 2147 372 2553 
Q 372 3047 722 3315 
Q 1072 3584 1716 3584 
Q 2034 3584 2315 3537 
Q 2597 3491 2834 3397 
z
" transform="scale(0.015625)"/>
       <path id="DejaVuSans-6f" d="M 1959 3097 
Q 1497 3097 1228 2736 
Q 959 2375 959 1747 
Q 959 1119 1226 758 
Q 1494 397 1959 397 
Q 2419 397 2687 759 
Q 2956 1122 2956 1747 
Q 2956 2369 2687 2733 
Q 2419 3097 1959 3097 
z
M 1959 3584 
Q 2709 3584 3137 3096 
Q 3566 2609 3566 1747 
Q 3566 888 3137 398 
Q 2709 -91 1959 -91 
Q 1206 -91 779 398 
Q 353 888 353 1747 
Q 353 2609 779 3096 
Q 1206 3584 1959 3584 
z
" transform="scale(0.015625)"/>
       <path id="DejaVuSans-6c" d="M 603 4863 
L 1178 4863 
L 1178 0 
L 603 0 
L 603 4863 
z
" transform="scale(0.015625)"/>
       <path id="DejaVuSans-64" d="M 2906 2969 
L 2906 4863 
L 3481 4863 
L 3481 0 
L 2906 0 
L 2906 525 
Q 2725 213 2448 61 
Q 2172 -91 1784 -91 
Q 1150 -91 751 415 
Q 353 922 353 1747 
Q 353 2572 751 3078 
Q 1150 3584 1784 3584 
Q 2172 3584 2448 3432 
Q 2725 3281 2906 2969 
z
M 947 1747 
Q 947 1113 1208 752 
Q 1469 391 1925 391 
Q 2381 391 2643 752 
Q 2906 1113 2906 1747 
Q 2906 2381 2643 2742 
Q 2381 3103 1925 3103 
Q 1469 3103 1208 2742 
Q 947 2381 947 1747 
z
" transform="scale(0.015625)"/>
      </defs>
      <use xlink:href="#DejaVuSans-54"/>
      <use xlink:href="#DejaVuSans-68" x="61.083984"/>
      <use xlink:href="#DejaVuSans-72" x="124.462891"/>
      <use xlink:href="#DejaVuSans-65" x="163.326172"/>
      <use xlink:href="#DejaVuSans-73" x="224.849609"/>
      <use xlink:href="#DejaVuSans-68" x="276.949219"/>
      <use xlink:href="#DejaVuSans-6f" x="340.328125"/>
      <use xlink:href="#DejaVuSans-6c" x="401.509766"/>
      <use xlink:href="#DejaVuSans-64" x="429.292969"/>
     </g>
    </g>
   </g>
   <g id="matplotlib.axis_2">
    <g id="ytick_1">
     <g id="line2d_13">
      <path d="M 42.216875 185.75458 
L 230.306763 185.75458 
" clip-path="url(#p53a68c342f)" style="fill: none; stroke-dasharray: 1.85,0.8; stroke-dashoffset: 0; stroke: #b2b2b2; stroke-width: 0.5"/>
     </g>
     <g id="line2d_14">
      <defs>
       <path id="m8bf317d565" d="M 0 0 
L 3.5 0 
" style="stroke: #000000; stroke-width: 0.8"/>
      </defs>
      <g>
       <use xlink:href="#m8bf317d565" x="42.216875" y="185.75458" style="stroke: #000000; stroke-width: 0.8"/>
      </g>
     </g>
     <g id="text_8">
      <!-- 0.0 -->
      <g transform="translate(22.81375 189.553799)scale(0.1 -0.1)">
       <defs>
        <path id="DejaVuSans-2e" d="M 684 794 
L 1344 794 
L 1344 0 
L 684 0 
L 684 794 
z
" transform="scale(0.015625)"/>
       </defs>
       <use xlink:href="#DejaVuSans-30"/>
       <use xlink:href="#DejaVuSans-2e" x="63.623047"/>
       <use xlink:href="#DejaVuSans-30" x="95.410156"/>
      </g>
     </g>
    </g>
    <g id="ytick_2">
     <g id="line2d_15">
      <path d="M 42.216875 154.373448 
L 230.306763 154.373448 
" clip-path="url(#p53a68c342f)" style="fill: none; stroke-dasharray: 1.85,0.8; stroke-dashoffset: 0; stroke: #b2b2b2; stroke-width: 0.5"/>
     </g>
     <g id="line2d_16">
      <g>
       <use xlink:href="#m8bf317d565" x="42.216875" y="154.373448" style="stroke: #000000; stroke-width: 0.8"/>
      </g>
     </g>
     <g id="text_9">
      <!-- 0.2 -->
      <g transform="translate(22.81375 158.172667)scale(0.1 -0.1)">
       <use xlink:href="#DejaVuSans-30"/>
       <use xlink:href="#DejaVuSans-2e" x="63.623047"/>
       <use xlink:href="#DejaVuSans-32" x="95.410156"/>
      </g>
     </g>
    </g>
    <g id="ytick_3">
     <g id="line2d_17">
      <path d="M 42.216875 122.992316 
L 230.306763 122.992316 
" clip-path="url(#p53a68c342f)" style="fill: none; stroke-dasharray: 1.85,0.8; stroke-dashoffset: 0; stroke: #b2b2b2; stroke-width: 0.5"/>
     </g>
     <g id="line2d_18">
      <g>
       <use xlink:href="#m8bf317d565" x="42.216875" y="122.992316" style="stroke: #000000; stroke-width: 0.8"/>
      </g>
     </g>
     <g id="text_10">
      <!-- 0.4 -->
      <g transform="translate(22.81375 126.791535)scale(0.1 -0.1)">
       <use xlink:href="#DejaVuSans-30"/>
       <use xlink:href="#DejaVuSans-2e" x="63.623047"/>
       <use xlink:href="#DejaVuSans-34" x="95.410156"/>
      </g>
     </g>
    </g>
    <g id="ytick_4">
     <g id="line2d_19">
      <path d="M 42.216875 91.611184 
L 230.306763 91.611184 
" clip-path="url(#p53a68c342f)" style="fill: none; stroke-dasharray: 1.85,0.8; stroke-dashoffset: 0; stroke: #b2b2b2; stroke-width: 0.5"/>
     </g>
     <g id="line2d_20">
      <g>
       <use xlink:href="#m8bf317d565" x="42.216875" y="91.611184" style="stroke: #000000; stroke-width: 0.8"/>
      </g>
     </g>
     <g id="text_11">
      <!-- 0.6 -->
      <g transform="translate(22.81375 95.410403)scale(0.1 -0.1)">
       <use xlink:href="#DejaVuSans-30"/>
       <use xlink:href="#DejaVuSans-2e" x="63.623047"/>
       <use xlink:href="#DejaVuSans-36" x="95.410156"/>
      </g>
     </g>
    </g>
    <g id="ytick_5">
     <g id="line2d_21">
      <path d="M 42.216875 60.230052 
L 230.306763 60.230052 
" clip-path="url(#p53a68c342f)" style="fill: none; stroke-dasharray: 1.85,0.8; stroke-dashoffset: 0; stroke: #b2b2b2; stroke-width: 0.5"/>
     </g>
     <g id="line2d_22">
      <g>
       <use xlink:href="#m8bf317d565" x="42.216875" y="60.230052" style="stroke: #000000; stroke-width: 0.8"/>
      </g>
     </g>
     <g id="text_12">
      <!-- 0.8 -->
      <g transform="translate(22.81375 64.029271)scale(0.1 -0.1)">
       <use xlink:href="#DejaVuSans-30"/>
       <use xlink:href="#DejaVuSans-2e" x="63.623047"/>
       <use xlink:href="#DejaVuSans-38" x="95.410156"/>
      </g>
     </g>
    </g>
    <g id="ytick_6">
     <g id="line2d_23">
      <path d="M 42.216875 28.84892 
L 230.306763 28.84892 
" clip-path="url(#p53a68c342f)" style="fill: none; stroke-dasharray: 1.85,0.8; stroke-dashoffset: 0; stroke: #b2b2b2; stroke-width: 0.5"/>
     </g>
     <g id="line2d_24">
      <g>
       <use xlink:href="#m8bf317d565" x="42.216875" y="28.84892" style="stroke: #000000; stroke-width: 0.8"/>
      </g>
     </g>
     <g id="text_13">
      <!-- 1.0 -->
      <g transform="translate(22.81375 32.648139)scale(0.1 -0.1)">
       <use xlink:href="#DejaVuSans-31"/>
       <use xlink:href="#DejaVuSans-2e" x="63.623047"/>
       <use xlink:href="#DejaVuSans-30" x="95.410156"/>
      </g>
     </g>
    </g>
    <g id="text_14">
     <!-- Neutrality -->
     <g transform="translate(16.318125 137.017688)rotate(-90)scale(0.12 -0.12)">
      <defs>
       <path id="DejaVuSans-4e" d="M 628 4666 
L 1478 4666 
L 3547 763 
L 3547 4666 
L 4159 4666 
L 4159 0 
L 3309 0 
L 1241 3903 
L 1241 0 
L 628 0 
L 628 4666 
z
" transform="scale(0.015625)"/>
       <path id="DejaVuSans-75" d="M 544 1381 
L 544 3500 
L 1119 3500 
L 1119 1403 
Q 1119 906 1312 657 
Q 1506 409 1894 409 
Q 2359 409 2629 706 
Q 2900 1003 2900 1516 
L 2900 3500 
L 3475 3500 
L 3475 0 
L 2900 0 
L 2900 538 
Q 2691 219 2414 64 
Q 2138 -91 1772 -91 
Q 1169 -91 856 284 
Q 544 659 544 1381 
z
M 1991 3584 
L 1991 3584 
z
" transform="scale(0.015625)"/>
       <path id="DejaVuSans-74" d="M 1172 4494 
L 1172 3500 
L 2356 3500 
L 2356 3053 
L 1172 3053 
L 1172 1153 
Q 1172 725 1289 603 
Q 1406 481 1766 481 
L 2356 481 
L 2356 0 
L 1766 0 
Q 1100 0 847 248 
Q 594 497 594 1153 
L 594 3053 
L 172 3053 
L 172 3500 
L 594 3500 
L 594 4494 
L 1172 4494 
z
" transform="scale(0.015625)"/>
       <path id="DejaVuSans-61" d="M 2194 1759 
Q 1497 1759 1228 1600 
Q 959 1441 959 1056 
Q 959 750 1161 570 
Q 1363 391 1709 391 
Q 2188 391 2477 730 
Q 2766 1069 2766 1631 
L 2766 1759 
L 2194 1759 
z
M 3341 1997 
L 3341 0 
L 2766 0 
L 2766 531 
Q 2569 213 2275 61 
Q 1981 -91 1556 -91 
Q 1019 -91 701 211 
Q 384 513 384 1019 
Q 384 1609 779 1909 
Q 1175 2209 1959 2209 
L 2766 2209 
L 2766 2266 
Q 2766 2663 2505 2880 
Q 2244 3097 1772 3097 
Q 1472 3097 1187 3025 
Q 903 2953 641 2809 
L 641 3341 
Q 956 3463 1253 3523 
Q 1550 3584 1831 3584 
Q 2591 3584 2966 3190 
Q 3341 2797 3341 1997 
z
" transform="scale(0.015625)"/>
       <path id="DejaVuSans-69" d="M 603 3500 
L 1178 3500 
L 1178 0 
L 603 0 
L 603 3500 
z
M 603 4863 
L 1178 4863 
L 1178 4134 
L 603 4134 
L 603 4863 
z
" transform="scale(0.015625)"/>
       <path id="DejaVuSans-79" d="M 2059 -325 
Q 1816 -950 1584 -1140 
Q 1353 -1331 966 -1331 
L 506 -1331 
L 506 -850 
L 844 -850 
Q 1081 -850 1212 -737 
Q 1344 -625 1503 -206 
L 1606 56 
L 191 3500 
L 800 3500 
L 1894 763 
L 2988 3500 
L 3597 3500 
L 2059 -325 
z
" transform="scale(0.015625)"/>
      </defs>
      <use xlink:href="#DejaVuSans-4e"/>
      <use xlink:href="#DejaVuSans-65" x="74.804688"/>
      <use xlink:href="#DejaVuSans-75" x="136.328125"/>
      <use xlink:href="#DejaVuSans-74" x="199.707031"/>
      <use xlink:href="#DejaVuSans-72" x="238.916016"/>
      <use xlink:href="#DejaVuSans-61" x="280.029297"/>
      <use xlink:href="#DejaVuSans-6c" x="341.308594"/>
      <use xlink:href="#DejaVuSans-69" x="369.091797"/>
      <use xlink:href="#DejaVuSans-74" x="396.875"/>
      <use xlink:href="#DejaVuSans-79" x="436.083984"/>
     </g>
    </g>
   </g>
   <g id="line2d_25">
    <path d="M 50.766415 168.081697 
L 53.344166 160.669916 
L 55.062667 156.625889 
L 55.921917 154.873601 
L 57.640418 151.801401 
L 58.499668 149.961538 
L 59.358918 147.754817 
L 60.218168 146.145603 
L 64.51442 139.779454 
L 65.37367 138.72503 
L 68.810671 133.827794 
L 70.529172 131.890416 
L 73.106923 128.356772 
L 73.966173 127.375004 
L 74.825423 126.135895 
L 75.684674 125.202277 
L 76.543924 124.018845 
L 77.403174 123.184145 
L 79.121675 120.912082 
L 80.840175 118.775868 
L 82.558676 116.81722 
L 83.417926 115.592331 
L 86.854927 112.046589 
L 87.714178 110.988307 
L 89.432678 109.240185 
L 90.291929 108.267123 
L 91.151179 107.623143 
L 92.010429 106.785879 
L 92.869679 106.123041 
L 95.44743 103.724683 
L 98.884431 100.584959 
L 99.743682 99.961778 
L 100.602932 99.190583 
L 101.462182 98.772122 
L 104.039933 96.776515 
L 106.617684 95.083205 
L 107.476934 94.368682 
L 111.773186 91.646796 
L 112.632436 91.235945 
L 113.491686 90.45072 
L 116.928687 88.457073 
L 117.787938 88.040689 
L 121.224939 85.880458 
L 122.084189 85.128463 
L 125.52119 82.91117 
L 127.239691 82.134781 
L 128.098941 81.422467 
L 128.958191 81.100454 
L 129.817442 80.501755 
L 130.676692 80.202241 
L 133.254443 78.92808 
L 134.972943 78.232689 
L 135.832194 77.907748 
L 136.691444 77.306333 
L 137.550694 76.866532 
L 139.269195 76.209325 
L 140.987695 75.578993 
L 141.846946 74.660287 
L 144.424697 73.770549 
L 146.143197 73.183967 
L 147.002447 72.994458 
L 149.580198 72.10635 
L 150.439449 71.873395 
L 152.157949 70.931833 
L 167.624454 66.64814 
L 175.357707 64.804183 
L 179.653958 63.874821 
L 180.513209 63.54842 
L 181.372459 63.4372 
L 182.231709 63.017603 
L 183.95021 62.623678 
L 184.80946 62.500928 
L 188.246461 61.548453 
L 193.401963 60.763627 
L 196.838964 59.992446 
L 198.557465 59.652214 
L 200.275965 59.163646 
L 201.994466 58.949868 
L 205.431467 58.23431 
L 210.586969 57.506654 
L 221.757222 55.531854 
L 221.757222 55.531854 
" clip-path="url(#p53a68c342f)" style="fill: none; stroke: #348abd; stroke-width: 2; stroke-linecap: square"/>
   </g>
   <g id="line2d_26">
    <path d="M 50.766415 166.394188 
L 51.625666 163.176318 
L 52.484916 160.389495 
L 55.921917 151.035225 
L 57.640418 147.297556 
L 59.358918 143.12843 
L 61.077419 139.86386 
L 64.51442 133.871354 
L 66.23292 131.261562 
L 68.810671 127.464654 
L 75.684674 117.983138 
L 77.403174 116.077188 
L 79.121675 113.666308 
L 80.840175 111.626247 
L 81.699426 110.705793 
L 83.417926 108.622846 
L 85.136427 106.682084 
L 86.854927 104.84344 
L 87.714178 103.750047 
L 89.432678 102.118341 
L 91.151179 100.545712 
L 92.869679 99.193251 
L 93.72893 98.235538 
L 96.306681 95.977632 
L 98.884431 93.970834 
L 99.743682 93.442201 
L 101.462182 92.15016 
L 110.913935 86.002203 
L 115.210187 83.582971 
L 116.069437 83.134431 
L 116.928687 82.509503 
L 122.084189 79.850648 
L 125.52119 78.184094 
L 127.239691 77.344154 
L 128.098941 76.876106 
L 128.958191 76.541114 
L 129.817442 76.002738 
L 135.832194 73.761879 
L 137.550694 72.873185 
L 140.987695 71.785789 
L 141.846946 71.202951 
L 151.298699 68.145952 
L 152.157949 67.766401 
L 159.031951 65.810825 
L 173.639206 62.524062 
L 177.935458 61.731068 
L 180.513209 61.116444 
L 181.372459 60.986537 
L 183.090959 60.553359 
L 186.527961 59.872324 
L 187.387211 59.628531 
L 191.683462 58.919531 
L 194.261213 58.422438 
L 195.979714 58.041624 
L 203.712966 56.851022 
L 205.431467 56.515812 
L 214.88322 55.287523 
L 216.601721 54.984643 
L 219.179471 54.695998 
L 221.757222 54.367586 
L 221.757222 54.367586 
" clip-path="url(#p53a68c342f)" style="fill: none; stroke-dasharray: 7.4,3.2; stroke-dashoffset: 0; stroke: #a60628; stroke-width: 2"/>
   </g>
   <g id="line2d_27">
    <path d="M 50.766415 164.915726 
L 52.484916 158.446829 
L 55.062667 151.096583 
L 57.640418 145.05122 
L 60.218168 139.030264 
L 61.936669 135.905189 
L 66.23292 128.915244 
L 67.951421 126.226662 
L 73.106923 119.06462 
L 78.262425 112.732492 
L 79.980925 110.693243 
L 83.417926 106.67056 
L 85.136427 104.866169 
L 87.714178 102.103237 
L 96.306681 94.727924 
L 101.462182 90.910784 
L 108.336185 86.368794 
L 111.773186 84.361392 
L 112.632436 83.967885 
L 113.491686 83.370506 
L 116.069437 82.073108 
L 119.506438 80.122039 
L 128.098941 76.063738 
L 128.958191 75.716834 
L 129.817442 75.233318 
L 133.254443 73.918253 
L 140.128445 71.389433 
L 140.987695 71.103885 
L 141.846946 70.587104 
L 156.454201 66.148899 
L 164.187453 64.317521 
L 171.920706 62.584618 
L 189.964962 59.094098 
L 208.009218 56.139179 
L 214.88322 55.130204 
L 217.460971 54.724204 
L 221.757222 54.160168 
L 221.757222 54.160168 
" clip-path="url(#p53a68c342f)" style="fill: none; stroke-dasharray: 2,3.3; stroke-dashoffset: 0; stroke: #7a68a6; stroke-width: 2"/>
   </g>
   <g id="patch_3">
    <path d="M 42.216875 190.46175 
L 42.216875 24.14175 
" style="fill: none; stroke: #bcbcbc; stroke-width: 0.8; stroke-linejoin: miter; stroke-linecap: square"/>
   </g>
   <g id="patch_4">
    <path d="M 230.306763 190.46175 
L 230.306763 24.14175 
" style="fill: none; stroke: #bcbcbc; stroke-width: 0.8; stroke-linejoin: miter; stroke-linecap: square"/>
   </g>
   <g id="patch_5">
    <path d="M 42.216875 190.46175 
L 230.306763 190.46175 
" style="fill: none; stroke: #bcbcbc; stroke-width: 0.8; stroke-linejoin: miter; stroke-linecap: square"/>
   </g>
   <g id="patch_6">
    <path d="M 42.216875 24.14175 
L 230.306763 24.14175 
" style="fill: none; stroke: #bcbcbc; stroke-width: 0.8; stroke-linejoin: miter; stroke-linecap: square"/>
   </g>
   <g id="text_15">
    <!-- Nguyen 2 -->
    <g transform="translate(101.617444 18.14175)scale(0.144 -0.144)">
     <defs>
      <path id="DejaVuSans-67" d="M 2906 1791 
Q 2906 2416 2648 2759 
Q 2391 3103 1925 3103 
Q 1463 3103 1205 2759 
Q 947 2416 947 1791 
Q 947 1169 1205 825 
Q 1463 481 1925 481 
Q 2391 481 2648 825 
Q 2906 1169 2906 1791 
z
M 3481 434 
Q 3481 -459 3084 -895 
Q 2688 -1331 1869 -1331 
Q 1566 -1331 1297 -1286 
Q 1028 -1241 775 -1147 
L 775 -588 
Q 1028 -725 1275 -790 
Q 1522 -856 1778 -856 
Q 2344 -856 2625 -561 
Q 2906 -266 2906 331 
L 2906 616 
Q 2728 306 2450 153 
Q 2172 0 1784 0 
Q 1141 0 747 490 
Q 353 981 353 1791 
Q 353 2603 747 3093 
Q 1141 3584 1784 3584 
Q 2172 3584 2450 3431 
Q 2728 3278 2906 2969 
L 2906 3500 
L 3481 3500 
L 3481 434 
z
" transform="scale(0.015625)"/>
      <path id="DejaVuSans-6e" d="M 3513 2113 
L 3513 0 
L 2938 0 
L 2938 2094 
Q 2938 2591 2744 2837 
Q 2550 3084 2163 3084 
Q 1697 3084 1428 2787 
Q 1159 2491 1159 1978 
L 1159 0 
L 581 0 
L 581 3500 
L 1159 3500 
L 1159 2956 
Q 1366 3272 1645 3428 
Q 1925 3584 2291 3584 
Q 2894 3584 3203 3211 
Q 3513 2838 3513 2113 
z
" transform="scale(0.015625)"/>
      <path id="DejaVuSans-20" transform="scale(0.015625)"/>
     </defs>
     <use xlink:href="#DejaVuSans-4e"/>
     <use xlink:href="#DejaVuSans-67" x="74.804688"/>
     <use xlink:href="#DejaVuSans-75" x="138.28125"/>
     <use xlink:href="#DejaVuSans-79" x="201.660156"/>
     <use xlink:href="#DejaVuSans-65" x="260.839844"/>
     <use xlink:href="#DejaVuSans-6e" x="322.363281"/>
     <use xlink:href="#DejaVuSans-20" x="385.742188"/>
     <use xlink:href="#DejaVuSans-32" x="417.529297"/>
    </g>
   </g>
  </g>
  <g id="axes_2">
   <g id="patch_7">
    <path d="M 258.520246 190.46175 
L 446.610133 190.46175 
L 446.610133 24.14175 
L 258.520246 24.14175 
z
" style="fill: #eeeeee"/>
   </g>
   <g id="matplotlib.axis_3">
    <g id="xtick_7">
     <g id="line2d_28">
      <path d="M 267.069786 190.46175 
L 267.069786 24.14175 
" clip-path="url(#pf87464feb3)" style="fill: none; stroke-dasharray: 1.85,0.8; stroke-dashoffset: 0; stroke: #b2b2b2; stroke-width: 0.5"/>
     </g>
     <g id="line2d_29">
      <g>
       <use xlink:href="#m76d70b5801" x="267.069786" y="190.46175" style="stroke: #000000; stroke-width: 0.8"/>
      </g>
     </g>
     <g id="text_16">
      <!-- 0 -->
      <g transform="translate(263.888536 201.560188)scale(0.1 -0.1)">
       <use xlink:href="#DejaVuSans-30"/>
      </g>
     </g>
    </g>
    <g id="xtick_8">
     <g id="line2d_30">
      <path d="M 301.439798 190.46175 
L 301.439798 24.14175 
" clip-path="url(#pf87464feb3)" style="fill: none; stroke-dasharray: 1.85,0.8; stroke-dashoffset: 0; stroke: #b2b2b2; stroke-width: 0.5"/>
     </g>
     <g id="line2d_31">
      <g>
       <use xlink:href="#m76d70b5801" x="301.439798" y="190.46175" style="stroke: #000000; stroke-width: 0.8"/>
      </g>
     </g>
     <g id="text_17">
      <!-- 2 -->
      <g transform="translate(298.258548 201.560188)scale(0.1 -0.1)">
       <use xlink:href="#DejaVuSans-32"/>
      </g>
     </g>
    </g>
    <g id="xtick_9">
     <g id="line2d_32">
      <path d="M 335.809809 190.46175 
L 335.809809 24.14175 
" clip-path="url(#pf87464feb3)" style="fill: none; stroke-dasharray: 1.85,0.8; stroke-dashoffset: 0; stroke: #b2b2b2; stroke-width: 0.5"/>
     </g>
     <g id="line2d_33">
      <g>
       <use xlink:href="#m76d70b5801" x="335.809809" y="190.46175" style="stroke: #000000; stroke-width: 0.8"/>
      </g>
     </g>
     <g id="text_18">
      <!-- 4 -->
      <g transform="translate(332.628559 201.560188)scale(0.1 -0.1)">
       <use xlink:href="#DejaVuSans-34"/>
      </g>
     </g>
    </g>
    <g id="xtick_10">
     <g id="line2d_34">
      <path d="M 370.17982 190.46175 
L 370.17982 24.14175 
" clip-path="url(#pf87464feb3)" style="fill: none; stroke-dasharray: 1.85,0.8; stroke-dashoffset: 0; stroke: #b2b2b2; stroke-width: 0.5"/>
     </g>
     <g id="line2d_35">
      <g>
       <use xlink:href="#m76d70b5801" x="370.17982" y="190.46175" style="stroke: #000000; stroke-width: 0.8"/>
      </g>
     </g>
     <g id="text_19">
      <!-- 6 -->
      <g transform="translate(366.99857 201.560188)scale(0.1 -0.1)">
       <use xlink:href="#DejaVuSans-36"/>
      </g>
     </g>
    </g>
    <g id="xtick_11">
     <g id="line2d_36">
      <path d="M 404.549832 190.46175 
L 404.549832 24.14175 
" clip-path="url(#pf87464feb3)" style="fill: none; stroke-dasharray: 1.85,0.8; stroke-dashoffset: 0; stroke: #b2b2b2; stroke-width: 0.5"/>
     </g>
     <g id="line2d_37">
      <g>
       <use xlink:href="#m76d70b5801" x="404.549832" y="190.46175" style="stroke: #000000; stroke-width: 0.8"/>
      </g>
     </g>
     <g id="text_20">
      <!-- 8 -->
      <g transform="translate(401.368582 201.560188)scale(0.1 -0.1)">
       <use xlink:href="#DejaVuSans-38"/>
      </g>
     </g>
    </g>
    <g id="xtick_12">
     <g id="line2d_38">
      <path d="M 438.919843 190.46175 
L 438.919843 24.14175 
" clip-path="url(#pf87464feb3)" style="fill: none; stroke-dasharray: 1.85,0.8; stroke-dashoffset: 0; stroke: #b2b2b2; stroke-width: 0.5"/>
     </g>
     <g id="line2d_39">
      <g>
       <use xlink:href="#m76d70b5801" x="438.919843" y="190.46175" style="stroke: #000000; stroke-width: 0.8"/>
      </g>
     </g>
     <g id="text_21">
      <!-- 10 -->
      <g transform="translate(432.557343 201.560188)scale(0.1 -0.1)">
       <use xlink:href="#DejaVuSans-31"/>
       <use xlink:href="#DejaVuSans-30" x="63.623047"/>
      </g>
     </g>
    </g>
    <g id="text_22">
     <!-- Threshold -->
     <g transform="translate(322.999252 216.758)scale(0.12 -0.12)">
      <use xlink:href="#DejaVuSans-54"/>
      <use xlink:href="#DejaVuSans-68" x="61.083984"/>
      <use xlink:href="#DejaVuSans-72" x="124.462891"/>
      <use xlink:href="#DejaVuSans-65" x="163.326172"/>
      <use xlink:href="#DejaVuSans-73" x="224.849609"/>
      <use xlink:href="#DejaVuSans-68" x="276.949219"/>
      <use xlink:href="#DejaVuSans-6f" x="340.328125"/>
      <use xlink:href="#DejaVuSans-6c" x="401.509766"/>
      <use xlink:href="#DejaVuSans-64" x="429.292969"/>
     </g>
    </g>
   </g>
   <g id="matplotlib.axis_4">
    <g id="ytick_7">
     <g id="line2d_40">
      <path d="M 258.520246 185.75458 
L 446.610133 185.75458 
" clip-path="url(#pf87464feb3)" style="fill: none; stroke-dasharray: 1.85,0.8; stroke-dashoffset: 0; stroke: #b2b2b2; stroke-width: 0.5"/>
     </g>
     <g id="line2d_41">
      <g>
       <use xlink:href="#m8bf317d565" x="258.520246" y="185.75458" style="stroke: #000000; stroke-width: 0.8"/>
      </g>
     </g>
     <g id="text_23">
      <!-- 0.0 -->
      <g transform="translate(239.117121 189.553799)scale(0.1 -0.1)">
       <use xlink:href="#DejaVuSans-30"/>
       <use xlink:href="#DejaVuSans-2e" x="63.623047"/>
       <use xlink:href="#DejaVuSans-30" x="95.410156"/>
      </g>
     </g>
    </g>
    <g id="ytick_8">
     <g id="line2d_42">
      <path d="M 258.520246 154.373448 
L 446.610133 154.373448 
" clip-path="url(#pf87464feb3)" style="fill: none; stroke-dasharray: 1.85,0.8; stroke-dashoffset: 0; stroke: #b2b2b2; stroke-width: 0.5"/>
     </g>
     <g id="line2d_43">
      <g>
       <use xlink:href="#m8bf317d565" x="258.520246" y="154.373448" style="stroke: #000000; stroke-width: 0.8"/>
      </g>
     </g>
     <g id="text_24">
      <!-- 0.2 -->
      <g transform="translate(239.117121 158.172667)scale(0.1 -0.1)">
       <use xlink:href="#DejaVuSans-30"/>
       <use xlink:href="#DejaVuSans-2e" x="63.623047"/>
       <use xlink:href="#DejaVuSans-32" x="95.410156"/>
      </g>
     </g>
    </g>
    <g id="ytick_9">
     <g id="line2d_44">
      <path d="M 258.520246 122.992316 
L 446.610133 122.992316 
" clip-path="url(#pf87464feb3)" style="fill: none; stroke-dasharray: 1.85,0.8; stroke-dashoffset: 0; stroke: #b2b2b2; stroke-width: 0.5"/>
     </g>
     <g id="line2d_45">
      <g>
       <use xlink:href="#m8bf317d565" x="258.520246" y="122.992316" style="stroke: #000000; stroke-width: 0.8"/>
      </g>
     </g>
     <g id="text_25">
      <!-- 0.4 -->
      <g transform="translate(239.117121 126.791535)scale(0.1 -0.1)">
       <use xlink:href="#DejaVuSans-30"/>
       <use xlink:href="#DejaVuSans-2e" x="63.623047"/>
       <use xlink:href="#DejaVuSans-34" x="95.410156"/>
      </g>
     </g>
    </g>
    <g id="ytick_10">
     <g id="line2d_46">
      <path d="M 258.520246 91.611184 
L 446.610133 91.611184 
" clip-path="url(#pf87464feb3)" style="fill: none; stroke-dasharray: 1.85,0.8; stroke-dashoffset: 0; stroke: #b2b2b2; stroke-width: 0.5"/>
     </g>
     <g id="line2d_47">
      <g>
       <use xlink:href="#m8bf317d565" x="258.520246" y="91.611184" style="stroke: #000000; stroke-width: 0.8"/>
      </g>
     </g>
     <g id="text_26">
      <!-- 0.6 -->
      <g transform="translate(239.117121 95.410403)scale(0.1 -0.1)">
       <use xlink:href="#DejaVuSans-30"/>
       <use xlink:href="#DejaVuSans-2e" x="63.623047"/>
       <use xlink:href="#DejaVuSans-36" x="95.410156"/>
      </g>
     </g>
    </g>
    <g id="ytick_11">
     <g id="line2d_48">
      <path d="M 258.520246 60.230052 
L 446.610133 60.230052 
" clip-path="url(#pf87464feb3)" style="fill: none; stroke-dasharray: 1.85,0.8; stroke-dashoffset: 0; stroke: #b2b2b2; stroke-width: 0.5"/>
     </g>
     <g id="line2d_49">
      <g>
       <use xlink:href="#m8bf317d565" x="258.520246" y="60.230052" style="stroke: #000000; stroke-width: 0.8"/>
      </g>
     </g>
     <g id="text_27">
      <!-- 0.8 -->
      <g transform="translate(239.117121 64.029271)scale(0.1 -0.1)">
       <use xlink:href="#DejaVuSans-30"/>
       <use xlink:href="#DejaVuSans-2e" x="63.623047"/>
       <use xlink:href="#DejaVuSans-38" x="95.410156"/>
      </g>
     </g>
    </g>
    <g id="ytick_12">
     <g id="line2d_50">
      <path d="M 258.520246 28.84892 
L 446.610133 28.84892 
" clip-path="url(#pf87464feb3)" style="fill: none; stroke-dasharray: 1.85,0.8; stroke-dashoffset: 0; stroke: #b2b2b2; stroke-width: 0.5"/>
     </g>
     <g id="line2d_51">
      <g>
       <use xlink:href="#m8bf317d565" x="258.520246" y="28.84892" style="stroke: #000000; stroke-width: 0.8"/>
      </g>
     </g>
     <g id="text_28">
      <!-- 1.0 -->
      <g transform="translate(239.117121 32.648139)scale(0.1 -0.1)">
       <use xlink:href="#DejaVuSans-31"/>
       <use xlink:href="#DejaVuSans-2e" x="63.623047"/>
       <use xlink:href="#DejaVuSans-30" x="95.410156"/>
      </g>
     </g>
    </g>
   </g>
   <g id="line2d_52">
    <path d="M 267.069786 183.272691 
L 270.506787 179.241035 
L 272.225288 177.431701 
L 273.943788 175.792326 
L 276.521539 173.027071 
L 277.38079 172.321027 
L 279.09929 170.690946 
L 279.95854 170.02265 
L 281.677041 168.500689 
L 284.254792 166.574407 
L 285.114042 165.711316 
L 289.410294 162.642081 
L 291.128794 161.101279 
L 304.876799 151.491408 
L 309.17305 148.938748 
L 315.187802 145.329388 
L 319.484054 143.00702 
L 326.358056 139.327059 
L 331.513558 136.809417 
L 334.950559 135.120901 
L 336.669059 134.253945 
L 338.38756 133.563108 
L 340.965311 132.313673 
L 341.824561 131.756238 
L 352.135564 127.076703 
L 353.854065 126.128211 
L 357.291066 124.756015 
L 363.305818 122.280047 
L 371.898321 119.372365 
L 373.616822 118.778663 
L 388.224076 113.804391 
L 389.942577 113.23222 
L 395.098079 111.583426 
L 397.67583 110.767777 
L 404.549832 108.399272 
L 411.423834 106.51331 
L 417.438586 104.662411 
L 419.157087 104.12099 
L 434.623592 100.231835 
L 436.342093 99.870099 
L 438.060593 99.403113 
L 438.060593 99.403113 
" clip-path="url(#pf87464feb3)" style="fill: none; stroke: #348abd; stroke-width: 2; stroke-linecap: square"/>
   </g>
   <g id="line2d_53">
    <path d="M 267.069786 182.768149 
L 267.929036 181.084453 
L 272.225288 175.248124 
L 277.38079 169.305381 
L 279.09929 167.506005 
L 279.95854 166.628366 
L 280.817791 165.563951 
L 283.395542 163.131327 
L 285.114042 161.338072 
L 286.832543 159.850274 
L 288.551043 158.267126 
L 290.269544 156.790286 
L 291.988044 155.295647 
L 295.425046 152.591627 
L 305.736049 144.620672 
L 310.891551 141.442493 
L 314.328552 139.382368 
L 316.047052 138.221742 
L 319.484054 136.198467 
L 328.076556 131.336543 
L 332.372808 129.157207 
L 337.52831 126.50663 
L 340.10606 125.266645 
L 343.543062 123.645747 
L 348.698563 121.349088 
L 351.276314 120.222443 
L 356.431816 117.901298 
L 365.883569 114.111869 
L 368.46132 113.179159 
L 373.616822 111.405503 
L 379.631574 109.32402 
L 380.490824 108.891133 
L 385.646326 107.301538 
L 388.224076 106.413649 
L 396.816579 103.705459 
L 401.112831 102.421008 
L 406.268332 100.969751 
L 419.157087 97.331796 
L 424.312589 96.065 
L 428.60884 95.052393 
L 438.060593 92.875567 
L 438.060593 92.875567 
" clip-path="url(#pf87464feb3)" style="fill: none; stroke-dasharray: 7.4,3.2; stroke-dashoffset: 0; stroke: #a60628; stroke-width: 2"/>
   </g>
   <g id="line2d_54">
    <path d="M 267.069786 182.226071 
L 268.788287 179.41101 
L 270.506787 176.939457 
L 275.662289 170.391203 
L 280.817791 164.607181 
L 290.269544 155.728915 
L 291.988044 154.254493 
L 303.158298 145.458835 
L 310.891551 140.156263 
L 314.328552 137.941101 
L 318.624803 135.378758 
L 327.217306 130.48566 
L 343.543062 122.459324 
L 347.839313 120.540731 
L 356.431816 116.822486 
L 359.868817 115.433864 
L 368.46132 112.196982 
L 382.209324 107.365219 
L 397.67583 102.701054 
L 400.25358 101.974466 
L 402.831331 101.192512 
L 410.564584 99.102714 
L 420.016337 96.705338 
L 437.201343 92.684267 
L 438.060593 92.504337 
L 438.060593 92.504337 
" clip-path="url(#pf87464feb3)" style="fill: none; stroke-dasharray: 2,3.3; stroke-dashoffset: 0; stroke: #7a68a6; stroke-width: 2"/>
   </g>
   <g id="patch_8">
    <path d="M 258.520246 190.46175 
L 258.520246 24.14175 
" style="fill: none; stroke: #bcbcbc; stroke-width: 0.8; stroke-linejoin: miter; stroke-linecap: square"/>
   </g>
   <g id="patch_9">
    <path d="M 446.610133 190.46175 
L 446.610133 24.14175 
" style="fill: none; stroke: #bcbcbc; stroke-width: 0.8; stroke-linejoin: miter; stroke-linecap: square"/>
   </g>
   <g id="patch_10">
    <path d="M 258.520246 190.46175 
L 446.610133 190.46175 
" style="fill: none; stroke: #bcbcbc; stroke-width: 0.8; stroke-linejoin: miter; stroke-linecap: square"/>
   </g>
   <g id="patch_11">
    <path d="M 258.520246 24.14175 
L 446.610133 24.14175 
" style="fill: none; stroke: #bcbcbc; stroke-width: 0.8; stroke-linejoin: miter; stroke-linecap: square"/>
   </g>
   <g id="text_29">
    <!-- Nguyen 9 -->
    <g transform="translate(317.920815 18.14175)scale(0.144 -0.144)">
     <defs>
      <path id="DejaVuSans-39" d="M 703 97 
L 703 672 
Q 941 559 1184 500 
Q 1428 441 1663 441 
Q 2288 441 2617 861 
Q 2947 1281 2994 2138 
Q 2813 1869 2534 1725 
Q 2256 1581 1919 1581 
Q 1219 1581 811 2004 
Q 403 2428 403 3163 
Q 403 3881 828 4315 
Q 1253 4750 1959 4750 
Q 2769 4750 3195 4129 
Q 3622 3509 3622 2328 
Q 3622 1225 3098 567 
Q 2575 -91 1691 -91 
Q 1453 -91 1209 -44 
Q 966 3 703 97 
z
M 1959 2075 
Q 2384 2075 2632 2365 
Q 2881 2656 2881 3163 
Q 2881 3666 2632 3958 
Q 2384 4250 1959 4250 
Q 1534 4250 1286 3958 
Q 1038 3666 1038 3163 
Q 1038 2656 1286 2365 
Q 1534 2075 1959 2075 
z
" transform="scale(0.015625)"/>
     </defs>
     <use xlink:href="#DejaVuSans-4e"/>
     <use xlink:href="#DejaVuSans-67" x="74.804688"/>
     <use xlink:href="#DejaVuSans-75" x="138.28125"/>
     <use xlink:href="#DejaVuSans-79" x="201.660156"/>
     <use xlink:href="#DejaVuSans-65" x="260.839844"/>
     <use xlink:href="#DejaVuSans-6e" x="322.363281"/>
     <use xlink:href="#DejaVuSans-20" x="385.742188"/>
     <use xlink:href="#DejaVuSans-39" x="417.529297"/>
    </g>
   </g>
  </g>
  <g id="legend_1">
   <g id="line2d_55">
    <path d="M 61.433817 242.842063 
L 71.433817 242.842063 
L 81.433817 242.842063 
" style="fill: none; stroke: #348abd; stroke-width: 2; stroke-linecap: square"/>
   </g>
   <g id="text_30">
    <!-- Max Height=5 -->
    <g transform="translate(89.433817 246.342063)scale(0.1 -0.1)">
     <defs>
      <path id="DejaVuSans-4d" d="M 628 4666 
L 1569 4666 
L 2759 1491 
L 3956 4666 
L 4897 4666 
L 4897 0 
L 4281 0 
L 4281 4097 
L 3078 897 
L 2444 897 
L 1241 4097 
L 1241 0 
L 628 0 
L 628 4666 
z
" transform="scale(0.015625)"/>
      <path id="DejaVuSans-78" d="M 3513 3500 
L 2247 1797 
L 3578 0 
L 2900 0 
L 1881 1375 
L 863 0 
L 184 0 
L 1544 1831 
L 300 3500 
L 978 3500 
L 1906 2253 
L 2834 3500 
L 3513 3500 
z
" transform="scale(0.015625)"/>
      <path id="DejaVuSans-48" d="M 628 4666 
L 1259 4666 
L 1259 2753 
L 3553 2753 
L 3553 4666 
L 4184 4666 
L 4184 0 
L 3553 0 
L 3553 2222 
L 1259 2222 
L 1259 0 
L 628 0 
L 628 4666 
z
" transform="scale(0.015625)"/>
      <path id="DejaVuSans-3d" d="M 678 2906 
L 4684 2906 
L 4684 2381 
L 678 2381 
L 678 2906 
z
M 678 1631 
L 4684 1631 
L 4684 1100 
L 678 1100 
L 678 1631 
z
" transform="scale(0.015625)"/>
      <path id="DejaVuSans-35" d="M 691 4666 
L 3169 4666 
L 3169 4134 
L 1269 4134 
L 1269 2991 
Q 1406 3038 1543 3061 
Q 1681 3084 1819 3084 
Q 2600 3084 3056 2656 
Q 3513 2228 3513 1497 
Q 3513 744 3044 326 
Q 2575 -91 1722 -91 
Q 1428 -91 1123 -41 
Q 819 9 494 109 
L 494 744 
Q 775 591 1075 516 
Q 1375 441 1709 441 
Q 2250 441 2565 725 
Q 2881 1009 2881 1497 
Q 2881 1984 2565 2268 
Q 2250 2553 1709 2553 
Q 1456 2553 1204 2497 
Q 953 2441 691 2322 
L 691 4666 
z
" transform="scale(0.015625)"/>
     </defs>
     <use xlink:href="#DejaVuSans-4d"/>
     <use xlink:href="#DejaVuSans-61" x="86.279297"/>
     <use xlink:href="#DejaVuSans-78" x="147.558594"/>
     <use xlink:href="#DejaVuSans-20" x="206.738281"/>
     <use xlink:href="#DejaVuSans-48" x="238.525391"/>
     <use xlink:href="#DejaVuSans-65" x="313.720703"/>
     <use xlink:href="#DejaVuSans-69" x="375.244141"/>
     <use xlink:href="#DejaVuSans-67" x="403.027344"/>
     <use xlink:href="#DejaVuSans-68" x="466.503906"/>
     <use xlink:href="#DejaVuSans-74" x="529.882812"/>
     <use xlink:href="#DejaVuSans-3d" x="569.091797"/>
     <use xlink:href="#DejaVuSans-35" x="652.880859"/>
    </g>
   </g>
   <g id="line2d_56">
    <path d="M 181.086942 242.842063 
L 191.086942 242.842063 
L 201.086942 242.842063 
" style="fill: none; stroke-dasharray: 7.4,3.2; stroke-dashoffset: 0; stroke: #a60628; stroke-width: 2"/>
   </g>
   <g id="text_31">
    <!-- Max Height=7 -->
    <g transform="translate(209.086942 246.342063)scale(0.1 -0.1)">
     <defs>
      <path id="DejaVuSans-37" d="M 525 4666 
L 3525 4666 
L 3525 4397 
L 1831 0 
L 1172 0 
L 2766 4134 
L 525 4134 
L 525 4666 
z
" transform="scale(0.015625)"/>
     </defs>
     <use xlink:href="#DejaVuSans-4d"/>
     <use xlink:href="#DejaVuSans-61" x="86.279297"/>
     <use xlink:href="#DejaVuSans-78" x="147.558594"/>
     <use xlink:href="#DejaVuSans-20" x="206.738281"/>
     <use xlink:href="#DejaVuSans-48" x="238.525391"/>
     <use xlink:href="#DejaVuSans-65" x="313.720703"/>
     <use xlink:href="#DejaVuSans-69" x="375.244141"/>
     <use xlink:href="#DejaVuSans-67" x="403.027344"/>
     <use xlink:href="#DejaVuSans-68" x="466.503906"/>
     <use xlink:href="#DejaVuSans-74" x="529.882812"/>
     <use xlink:href="#DejaVuSans-3d" x="569.091797"/>
     <use xlink:href="#DejaVuSans-37" x="652.880859"/>
    </g>
   </g>
   <g id="line2d_57">
    <path d="M 300.740067 242.842063 
L 310.740067 242.842063 
L 320.740067 242.842063 
" style="fill: none; stroke-dasharray: 2,3.3; stroke-dashoffset: 0; stroke: #7a68a6; stroke-width: 2"/>
   </g>
   <g id="text_32">
    <!-- Max Height=9 -->
    <g transform="translate(328.740067 246.342063)scale(0.1 -0.1)">
     <use xlink:href="#DejaVuSans-4d"/>
     <use xlink:href="#DejaVuSans-61" x="86.279297"/>
     <use xlink:href="#DejaVuSans-78" x="147.558594"/>
     <use xlink:href="#DejaVuSans-20" x="206.738281"/>
     <use xlink:href="#DejaVuSans-48" x="238.525391"/>
     <use xlink:href="#DejaVuSans-65" x="313.720703"/>
     <use xlink:href="#DejaVuSans-69" x="375.244141"/>
     <use xlink:href="#DejaVuSans-67" x="403.027344"/>
     <use xlink:href="#DejaVuSans-68" x="466.503906"/>
     <use xlink:href="#DejaVuSans-74" x="529.882812"/>
     <use xlink:href="#DejaVuSans-3d" x="569.091797"/>
     <use xlink:href="#DejaVuSans-39" x="652.880859"/>
    </g>
   </g>
  </g>
 </g>
 <defs>
  <clipPath id="p53a68c342f">
   <rect x="42.216875" y="24.14175" width="188.089888" height="166.32"/>
  </clipPath>
  <clipPath id="pf87464feb3">
   <rect x="258.520246" y="24.14175" width="188.089888" height="166.32"/>
  </clipPath>
 </defs>
</svg>
