<?xml version="1.0" encoding="utf-8" standalone="no"?>
<!DOCTYPE svg PUBLIC "-//W3C//DTD SVG 1.1//EN"
  "http://www.w3.org/Graphics/SVG/1.1/DTD/svg11.dtd">
<svg xmlns:xlink="http://www.w3.org/1999/xlink" width="457.92pt" height="457.92pt" viewBox="0 0 457.92 457.92" xmlns="http://www.w3.org/2000/svg" version="1.1">
 <metadata>
  <rdf:RDF xmlns:dc="http://purl.org/dc/elements/1.1/" xmlns:cc="http://creativecommons.org/ns#" xmlns:rdf="http://www.w3.org/1999/02/22-rdf-syntax-ns#">
   <cc:Work>
    <dc:type rdf:resource="http://purl.org/dc/dcmitype/StillImage"/>
    <dc:date>2023-03-17T16:13:04.706607</dc:date>
    <dc:format>image/svg+xml</dc:format>
    <dc:creator>
     <cc:Agent>
      <dc:title>Matplotlib v3.5.3, https://matplotlib.org/</dc:title>
     </cc:Agent>
    </dc:creator>
   </cc:Work>
  </rdf:RDF>
 </metadata>
 <defs>
  <style type="text/css">*{stroke-linejoin: round; stroke-linecap: butt}</style>
 </defs>
 <g id="figure_1">
  <g id="patch_1">
   <path d="M 0 457.92 
L 457.92 457.92 
L 457.92 0 
L 0 0 
z
" style="fill: #ffffff"/>
  </g>
  <g id="patch_2">
   <path d="M 7.2 450.72 
L 450.72 450.72 
L 450.72 7.2 
L 7.2 7.2 
z
" style="fill: #ffffff"/>
  </g>
  <g id="pane3d_1">
   <g id="patch_3">
    <path d="M 283.099126 305.582973 
L 44.882892 322.486616 
L 43.429694 113.740038 
L 283.446962 108.206228 
" style="fill: none; opacity: 0.5; stroke: #000000; stroke-linejoin: miter"/>
   </g>
  </g>
  <g id="pane3d_2">
   <g id="patch_4">
    <path d="M 433.424481 336.154908 
L 283.099126 305.582973 
L 283.446962 108.206228 
L 435.009504 118.218062 
" style="fill: none; opacity: 0.5; stroke: #000000; stroke-linejoin: miter"/>
   </g>
  </g>
  <g id="pane3d_3">
   <g id="patch_5">
    <path d="M 433.424481 336.154908 
L 283.099126 305.582973 
L 44.882892 322.486616 
L 178.356458 356.904016 
" style="fill: none; opacity: 0.5; stroke: #000000; stroke-linejoin: miter"/>
   </g>
  </g>
  <g id="axis3d_1">
   <g id="line2d_1">
    <path d="M 44.882892 322.486616 
L 178.356458 356.904016 
" style="fill: none; stroke: #000000; stroke-width: 0.8; stroke-linecap: square"/>
   </g>
  </g>
  <g id="axis3d_2">
   <g id="line2d_2">
    <path d="M 433.424481 336.154908 
L 178.356458 356.904016 
" style="fill: none; stroke: #000000; stroke-width: 0.8; stroke-linecap: square"/>
   </g>
  </g>
  <g id="axis3d_3">
   <g id="line2d_3">
    <path d="M 433.424481 336.154908 
L 435.009504 118.218062 
" style="fill: none; stroke: #000000; stroke-width: 0.8; stroke-linecap: square"/>
   </g>
  </g>
  <g id="axes_1">
   <g id="line2d_4">
    <path d="M 102.166864 130.635724 
L 121.822582 194.194056 
" clip-path="url(#p19796d7601)" style="fill: none; stroke: #ff0000; stroke-width: 1.005; stroke-linecap: square"/>
   </g>
   <g id="line2d_5">
    <path d="M 121.822582 194.194056 
L 143.301572 313.636637 
" clip-path="url(#p19796d7601)" style="fill: none; stroke: #ff0000; stroke-width: 1.005; stroke-linecap: square"/>
   </g>
   <g id="line2d_6">
    <path d="M 143.301572 313.636637 
L 143.224654 313.593767 
" clip-path="url(#p19796d7601)" style="fill: none; stroke: #ff0000; stroke-width: 1.025; stroke-linecap: square"/>
   </g>
   <g id="line2d_7">
    <path d="M 143.301572 313.636637 
L 144.553968 311.280679 
" clip-path="url(#p19796d7601)" style="fill: none; stroke: #ff0000; stroke-width: 1.005; stroke-linecap: square"/>
   </g>
   <g id="line2d_8">
    <path d="M 143.301572 313.636637 
L 156.861978 315.964259 
" clip-path="url(#p19796d7601)" style="fill: none; stroke: #ff0000; stroke-width: 1.01; stroke-linecap: square"/>
   </g>
   <g id="line2d_9">
    <path d="M 143.301572 313.636637 
L 125.946345 313.246818 
" clip-path="url(#p19796d7601)" style="fill: none; stroke: #ff0000; stroke-width: 1.005; stroke-linecap: square"/>
   </g>
   <g id="line2d_10">
    <path d="M 143.301572 313.636637 
L 148.035586 311.727067 
" clip-path="url(#p19796d7601)" style="fill: none; stroke: #ff0000; stroke-width: 1.01; stroke-linecap: square"/>
   </g>
   <g id="line2d_11">
    <path d="M 143.301572 313.636637 
L 136.125498 316.679821 
" clip-path="url(#p19796d7601)" style="fill: none; stroke: #ff0000; stroke-width: 1.005; stroke-linecap: square"/>
   </g>
   <g id="line2d_12">
    <path d="M 143.301572 313.636637 
L 124.740814 313.055549 
" clip-path="url(#p19796d7601)" style="fill: none; stroke: #ff0000; stroke-width: 1.005; stroke-linecap: square"/>
   </g>
   <g id="line2d_13">
    <path d="M 143.224654 313.593767 
L 172.973097 314.261886 
" clip-path="url(#p19796d7601)" style="fill: none; stroke: #ff0000; stroke-width: 1.005; stroke-linecap: square"/>
   </g>
   <g id="line2d_14">
    <path d="M 143.224654 313.593767 
L 165.155869 315.643768 
" clip-path="url(#p19796d7601)" style="fill: none; stroke: #ff0000; stroke-width: 1.005; stroke-linecap: square"/>
   </g>
   <g id="line2d_15">
    <path d="M 143.224654 313.593767 
L 126.930378 311.556174 
" clip-path="url(#p19796d7601)" style="fill: none; stroke: #ff0000; stroke-width: 1.005; stroke-linecap: square"/>
   </g>
   <g id="line2d_16">
    <path d="M 143.224654 313.593767 
L 137.393246 315.308259 
" clip-path="url(#p19796d7601)" style="fill: none; stroke: #ff0000; stroke-width: 1.005; stroke-linecap: square"/>
   </g>
   <g id="line2d_17">
    <path d="M 143.224654 313.593767 
L 142.843687 310.391043 
" clip-path="url(#p19796d7601)" style="fill: none; stroke: #0000ff; stroke-width: 1.01; stroke-linecap: square"/>
   </g>
   <g id="line2d_18">
    <path d="M 172.973097 314.261886 
L 166.340041 311.438186 
" clip-path="url(#p19796d7601)" style="fill: none; stroke: #0000ff; stroke-width: 1.005; stroke-linecap: square"/>
   </g>
   <g id="line2d_19">
    <path d="M 166.340041 311.438186 
L 190.920263 311.418413 
" clip-path="url(#p19796d7601)" style="fill: none; stroke: #ff0000; stroke-width: 1.005; stroke-linecap: square"/>
   </g>
   <g id="line2d_20">
    <path d="M 166.340041 311.438186 
L 143.301572 313.636637 
" clip-path="url(#p19796d7601)" style="fill: none; stroke: #0000ff; stroke-width: 1.015; stroke-linecap: square"/>
   </g>
   <g id="line2d_21">
    <path d="M 166.340041 311.438186 
L 142.843687 310.391043 
" clip-path="url(#p19796d7601)" style="fill: none; stroke: #0000ff; stroke-width: 1.01; stroke-linecap: square"/>
   </g>
   <g id="line2d_22">
    <path d="M 190.920263 311.418413 
L 166.340041 311.438186 
" clip-path="url(#p19796d7601)" style="fill: none; stroke: #0000ff; stroke-width: 1.005; stroke-linecap: square"/>
   </g>
   <g id="line2d_23">
    <path d="M 144.553968 311.280679 
L 143.301572 313.636637 
" clip-path="url(#p19796d7601)" style="fill: none; stroke: #0000ff; stroke-width: 1.01; stroke-linecap: square"/>
   </g>
   <g id="line2d_24">
    <path d="M 144.553968 311.280679 
L 142.843687 310.391043 
" clip-path="url(#p19796d7601)" style="fill: none; stroke: #0000ff; stroke-width: 1.005; stroke-linecap: square"/>
   </g>
   <g id="line2d_25">
    <path d="M 156.861978 315.964259 
L 143.301572 313.636637 
" clip-path="url(#p19796d7601)" style="fill: none; stroke: #0000ff; stroke-width: 1.01; stroke-linecap: square"/>
   </g>
   <g id="line2d_26">
    <path d="M 165.155869 315.643768 
L 166.340041 311.438186 
" clip-path="url(#p19796d7601)" style="fill: none; stroke: #0000ff; stroke-width: 1.005; stroke-linecap: square"/>
   </g>
   <g id="line2d_27">
    <path d="M 125.946345 313.246818 
L 143.301572 313.636637 
" clip-path="url(#p19796d7601)" style="fill: none; stroke: #0000ff; stroke-width: 1.01; stroke-linecap: square"/>
   </g>
   <g id="line2d_28">
    <path d="M 126.930378 311.556174 
L 132.713957 308.664332 
" clip-path="url(#p19796d7601)" style="fill: none; stroke: #0000ff; stroke-width: 1.005; stroke-linecap: square"/>
   </g>
   <g id="line2d_29">
    <path d="M 132.713957 308.664332 
L 142.843687 310.391043 
" clip-path="url(#p19796d7601)" style="fill: none; stroke: #0000ff; stroke-width: 1.005; stroke-linecap: square"/>
   </g>
   <g id="line2d_30">
    <path d="M 132.713957 308.664332 
L 147.805757 306.281959 
" clip-path="url(#p19796d7601)" style="fill: none; stroke: #ff0000; stroke-width: 1.01; stroke-linecap: square"/>
   </g>
   <g id="line2d_31">
    <path d="M 142.843687 310.391043 
L 129.8125 307.948968 
" clip-path="url(#p19796d7601)" style="fill: none; stroke: #ff0000; stroke-width: 1.005; stroke-linecap: square"/>
   </g>
   <g id="line2d_32">
    <path d="M 142.843687 310.391043 
L 159.750236 307.299388 
" clip-path="url(#p19796d7601)" style="fill: none; stroke: #ff0000; stroke-width: 1.01; stroke-linecap: square"/>
   </g>
   <g id="line2d_33">
    <path d="M 142.843687 310.391043 
L 144.553968 311.280679 
" clip-path="url(#p19796d7601)" style="fill: none; stroke: #ff0000; stroke-width: 1.01; stroke-linecap: square"/>
   </g>
   <g id="line2d_34">
    <path d="M 142.843687 310.391043 
L 125.946345 313.246818 
" clip-path="url(#p19796d7601)" style="fill: none; stroke: #ff0000; stroke-width: 1.005; stroke-linecap: square"/>
   </g>
   <g id="line2d_35">
    <path d="M 142.843687 310.391043 
L 166.340041 311.438186 
" clip-path="url(#p19796d7601)" style="fill: none; stroke: #ff0000; stroke-width: 1.005; stroke-linecap: square"/>
   </g>
   <g id="line2d_36">
    <path d="M 142.843687 310.391043 
L 116.425979 311.686516 
" clip-path="url(#p19796d7601)" style="fill: none; stroke: #ff0000; stroke-width: 1.01; stroke-linecap: square"/>
   </g>
   <g id="line2d_37">
    <path d="M 129.8125 307.948968 
L 142.843687 310.391043 
" clip-path="url(#p19796d7601)" style="fill: none; stroke: #0000ff; stroke-width: 1.005; stroke-linecap: square"/>
   </g>
   <g id="line2d_38">
    <path d="M 159.750236 307.299388 
L 176.37734 307.319633 
" clip-path="url(#p19796d7601)" style="fill: none; stroke: #ff0000; stroke-width: 1.005; stroke-linecap: square"/>
   </g>
   <g id="line2d_39">
    <path d="M 159.750236 307.299388 
L 147.805757 306.281959 
" clip-path="url(#p19796d7601)" style="fill: none; stroke: #ff0000; stroke-width: 1.005; stroke-linecap: square"/>
   </g>
   <g id="line2d_40">
    <path d="M 159.750236 307.299388 
L 182.362334 308.408773 
" clip-path="url(#p19796d7601)" style="fill: none; stroke: #ff0000; stroke-width: 1.005; stroke-linecap: square"/>
   </g>
   <g id="line2d_41">
    <path d="M 176.37734 307.319633 
L 166.340041 311.438186 
" clip-path="url(#p19796d7601)" style="fill: none; stroke: #0000ff; stroke-width: 1.005; stroke-linecap: square"/>
   </g>
   <g id="line2d_42">
    <path d="M 148.035586 311.727067 
L 148.211162 314.091002 
" clip-path="url(#p19796d7601)" style="fill: none; stroke: #0000ff; stroke-width: 1.005; stroke-linecap: square"/>
   </g>
   <g id="line2d_43">
    <path d="M 148.035586 311.727067 
L 142.843687 310.391043 
" clip-path="url(#p19796d7601)" style="fill: none; stroke: #0000ff; stroke-width: 1.005; stroke-linecap: square"/>
   </g>
   <g id="line2d_44">
    <path d="M 148.035586 311.727067 
L 146.91014 311.047585 
" clip-path="url(#p19796d7601)" style="fill: none; stroke: #0000ff; stroke-width: 1.005; stroke-linecap: square"/>
   </g>
   <g id="line2d_45">
    <path d="M 148.211162 314.091002 
L 141.551339 317.246731 
" clip-path="url(#p19796d7601)" style="fill: none; stroke: #ff0000; stroke-width: 1.01; stroke-linecap: square"/>
   </g>
   <g id="line2d_46">
    <path d="M 148.211162 314.091002 
L 161.549016 312.412791 
" clip-path="url(#p19796d7601)" style="fill: none; stroke: #ff0000; stroke-width: 1.005; stroke-linecap: square"/>
   </g>
   <g id="line2d_47">
    <path d="M 148.211162 314.091002 
L 135.312562 314.634178 
" clip-path="url(#p19796d7601)" style="fill: none; stroke: #ff0000; stroke-width: 1.01; stroke-linecap: square"/>
   </g>
   <g id="line2d_48">
    <path d="M 148.211162 314.091002 
L 151.600075 312.588014 
" clip-path="url(#p19796d7601)" style="fill: none; stroke: #ff0000; stroke-width: 1.005; stroke-linecap: square"/>
   </g>
   <g id="line2d_49">
    <path d="M 148.211162 314.091002 
L 128.910863 310.326837 
" clip-path="url(#p19796d7601)" style="fill: none; stroke: #ff0000; stroke-width: 1.005; stroke-linecap: square"/>
   </g>
   <g id="line2d_50">
    <path d="M 148.211162 314.091002 
L 171.36439 311.864128 
" clip-path="url(#p19796d7601)" style="fill: none; stroke: #ff0000; stroke-width: 1.01; stroke-linecap: square"/>
   </g>
   <g id="line2d_51">
    <path d="M 148.211162 314.091002 
L 165.960401 316.252564 
" clip-path="url(#p19796d7601)" style="fill: none; stroke: #ff0000; stroke-width: 1.005; stroke-linecap: square"/>
   </g>
   <g id="line2d_52">
    <path d="M 141.551339 317.246731 
L 129.560672 319.17208 
" clip-path="url(#p19796d7601)" style="fill: none; stroke: #ff0000; stroke-width: 1.01; stroke-linecap: square"/>
   </g>
   <g id="line2d_53">
    <path d="M 141.551339 317.246731 
L 112.202016 317.829769 
" clip-path="url(#p19796d7601)" style="fill: none; stroke: #ff0000; stroke-width: 1.005; stroke-linecap: square"/>
   </g>
   <g id="line2d_54">
    <path d="M 141.551339 317.246731 
L 148.211162 314.091002 
" clip-path="url(#p19796d7601)" style="fill: none; stroke: #0000ff; stroke-width: 1.005; stroke-linecap: square"/>
   </g>
   <g id="line2d_55">
    <path d="M 129.560672 319.17208 
L 141.551339 317.246731 
" clip-path="url(#p19796d7601)" style="fill: none; stroke: #0000ff; stroke-width: 1.005; stroke-linecap: square"/>
   </g>
   <g id="line2d_56">
    <path d="M 129.560672 319.17208 
L 135.312562 314.634178 
" clip-path="url(#p19796d7601)" style="fill: none; stroke: #0000ff; stroke-width: 1.005; stroke-linecap: square"/>
   </g>
   <g id="line2d_57">
    <path d="M 112.202016 317.829769 
L 135.312562 314.634178 
" clip-path="url(#p19796d7601)" style="fill: none; stroke: #0000ff; stroke-width: 1.005; stroke-linecap: square"/>
   </g>
   <g id="line2d_58">
    <path d="M 135.312562 314.634178 
L 138.734641 318.01528 
" clip-path="url(#p19796d7601)" style="fill: none; stroke: #ff0000; stroke-width: 1.005; stroke-linecap: square"/>
   </g>
   <g id="line2d_59">
    <path d="M 135.312562 314.634178 
L 148.211162 314.091002 
" clip-path="url(#p19796d7601)" style="fill: none; stroke: #0000ff; stroke-width: 1.015; stroke-linecap: square"/>
   </g>
   <g id="line2d_60">
    <path d="M 135.312562 314.634178 
L 146.91014 311.047585 
" clip-path="url(#p19796d7601)" style="fill: none; stroke: #0000ff; stroke-width: 1.005; stroke-linecap: square"/>
   </g>
   <g id="line2d_61">
    <path d="M 138.734641 318.01528 
L 141.551339 317.246731 
" clip-path="url(#p19796d7601)" style="fill: none; stroke: #0000ff; stroke-width: 1.005; stroke-linecap: square"/>
   </g>
   <g id="line2d_62">
    <path d="M 161.549016 312.412791 
L 148.211162 314.091002 
" clip-path="url(#p19796d7601)" style="fill: none; stroke: #0000ff; stroke-width: 1.005; stroke-linecap: square"/>
   </g>
   <g id="line2d_63">
    <path d="M 161.549016 312.412791 
L 146.91014 311.047585 
" clip-path="url(#p19796d7601)" style="fill: none; stroke: #0000ff; stroke-width: 1.005; stroke-linecap: square"/>
   </g>
   <g id="line2d_64">
    <path d="M 146.91014 311.047585 
L 126.843234 312.927837 
" clip-path="url(#p19796d7601)" style="fill: none; stroke: #ff0000; stroke-width: 1.005; stroke-linecap: square"/>
   </g>
   <g id="line2d_65">
    <path d="M 146.91014 311.047585 
L 128.910863 310.326837 
" clip-path="url(#p19796d7601)" style="fill: none; stroke: #ff0000; stroke-width: 1.005; stroke-linecap: square"/>
   </g>
   <g id="line2d_66">
    <path d="M 146.91014 311.047585 
L 133.606713 307.093658 
" clip-path="url(#p19796d7601)" style="fill: none; stroke: #ff0000; stroke-width: 1.005; stroke-linecap: square"/>
   </g>
   <g id="line2d_67">
    <path d="M 146.91014 311.047585 
L 135.312562 314.634178 
" clip-path="url(#p19796d7601)" style="fill: none; stroke: #ff0000; stroke-width: 1.005; stroke-linecap: square"/>
   </g>
   <g id="line2d_68">
    <path d="M 146.91014 311.047585 
L 151.083572 307.738338 
" clip-path="url(#p19796d7601)" style="fill: none; stroke: #ff0000; stroke-width: 1.005; stroke-linecap: square"/>
   </g>
   <g id="line2d_69">
    <path d="M 146.91014 311.047585 
L 162.627085 308.917099 
" clip-path="url(#p19796d7601)" style="fill: none; stroke: #ff0000; stroke-width: 1.005; stroke-linecap: square"/>
   </g>
   <g id="line2d_70">
    <path d="M 146.91014 311.047585 
L 151.600075 312.588014 
" clip-path="url(#p19796d7601)" style="fill: none; stroke: #ff0000; stroke-width: 1.005; stroke-linecap: square"/>
   </g>
   <g id="line2d_71">
    <path d="M 146.91014 311.047585 
L 171.36439 311.864128 
" clip-path="url(#p19796d7601)" style="fill: none; stroke: #ff0000; stroke-width: 1.005; stroke-linecap: square"/>
   </g>
   <g id="line2d_72">
    <path d="M 146.91014 311.047585 
L 161.549016 312.412791 
" clip-path="url(#p19796d7601)" style="fill: none; stroke: #ff0000; stroke-width: 1.005; stroke-linecap: square"/>
   </g>
   <g id="line2d_73">
    <path d="M 146.91014 311.047585 
L 128.083596 313.600181 
" clip-path="url(#p19796d7601)" style="fill: none; stroke: #ff0000; stroke-width: 1.005; stroke-linecap: square"/>
   </g>
   <g id="line2d_74">
    <path d="M 126.843234 312.927837 
L 148.211162 314.091002 
" clip-path="url(#p19796d7601)" style="fill: none; stroke: #0000ff; stroke-width: 1.005; stroke-linecap: square"/>
   </g>
   <g id="line2d_75">
    <path d="M 151.600075 312.588014 
L 146.91014 311.047585 
" clip-path="url(#p19796d7601)" style="fill: none; stroke: #0000ff; stroke-width: 1.005; stroke-linecap: square"/>
   </g>
   <g id="line2d_76">
    <path d="M 151.600075 312.588014 
L 148.211162 314.091002 
" clip-path="url(#p19796d7601)" style="fill: none; stroke: #0000ff; stroke-width: 1.005; stroke-linecap: square"/>
   </g>
   <g id="line2d_77">
    <path d="M 128.910863 310.326837 
L 103.396993 309.888678 
" clip-path="url(#p19796d7601)" style="fill: none; stroke: #ff0000; stroke-width: 1.01; stroke-linecap: square"/>
   </g>
   <g id="line2d_78">
    <path d="M 128.910863 310.326837 
L 119.838431 309.009172 
" clip-path="url(#p19796d7601)" style="fill: none; stroke: #ff0000; stroke-width: 1.005; stroke-linecap: square"/>
   </g>
   <g id="line2d_79">
    <path d="M 128.910863 310.326837 
L 146.91014 311.047585 
" clip-path="url(#p19796d7601)" style="fill: none; stroke: #0000ff; stroke-width: 1.015; stroke-linecap: square"/>
   </g>
   <g id="line2d_80">
    <path d="M 103.396993 309.888678 
L 128.910863 310.326837 
" clip-path="url(#p19796d7601)" style="fill: none; stroke: #0000ff; stroke-width: 1.01; stroke-linecap: square"/>
   </g>
   <g id="line2d_81">
    <path d="M 119.838431 309.009172 
L 128.910863 310.326837 
" clip-path="url(#p19796d7601)" style="fill: none; stroke: #0000ff; stroke-width: 1.005; stroke-linecap: square"/>
   </g>
   <g id="line2d_82">
    <path d="M 133.606713 307.093658 
L 124.756685 306.247331 
" clip-path="url(#p19796d7601)" style="fill: none; stroke: #ff0000; stroke-width: 1.005; stroke-linecap: square"/>
   </g>
   <g id="line2d_83">
    <path d="M 124.756685 306.247331 
L 128.910863 310.326837 
" clip-path="url(#p19796d7601)" style="fill: none; stroke: #0000ff; stroke-width: 1.005; stroke-linecap: square"/>
   </g>
   <g id="line2d_84">
    <path d="M 151.083572 307.738338 
L 165.832208 308.547783 
" clip-path="url(#p19796d7601)" style="fill: none; stroke: #ff0000; stroke-width: 1.005; stroke-linecap: square"/>
   </g>
   <g id="line2d_85">
    <path d="M 165.832208 308.547783 
L 148.035586 311.727067 
" clip-path="url(#p19796d7601)" style="fill: none; stroke: #0000ff; stroke-width: 1.005; stroke-linecap: square"/>
   </g>
   <g id="line2d_86">
    <path d="M 147.805757 306.281959 
L 132.713957 308.664332 
" clip-path="url(#p19796d7601)" style="fill: none; stroke: #0000ff; stroke-width: 1.01; stroke-linecap: square"/>
   </g>
   <g id="line2d_87">
    <path d="M 147.805757 306.281959 
L 159.750236 307.299388 
" clip-path="url(#p19796d7601)" style="fill: none; stroke: #0000ff; stroke-width: 1.005; stroke-linecap: square"/>
   </g>
   <g id="line2d_88">
    <path d="M 182.362334 308.408773 
L 166.340041 311.438186 
" clip-path="url(#p19796d7601)" style="fill: none; stroke: #0000ff; stroke-width: 1.005; stroke-linecap: square"/>
   </g>
   <g id="line2d_89">
    <path d="M 137.393246 315.308259 
L 143.224654 313.593767 
" clip-path="url(#p19796d7601)" style="fill: none; stroke: #0000ff; stroke-width: 1.005; stroke-linecap: square"/>
   </g>
   <g id="line2d_90">
    <path d="M 116.425979 311.686516 
L 90.13883 311.802175 
" clip-path="url(#p19796d7601)" style="fill: none; stroke: #ff0000; stroke-width: 1.005; stroke-linecap: square"/>
   </g>
   <g id="line2d_91">
    <path d="M 116.425979 311.686516 
L 143.301572 313.636637 
" clip-path="url(#p19796d7601)" style="fill: none; stroke: #0000ff; stroke-width: 1.01; stroke-linecap: square"/>
   </g>
   <g id="line2d_92">
    <path d="M 90.13883 311.802175 
L 116.425979 311.686516 
" clip-path="url(#p19796d7601)" style="fill: none; stroke: #0000ff; stroke-width: 1.005; stroke-linecap: square"/>
   </g>
   <g id="line2d_93">
    <path d="M 136.125498 316.679821 
L 143.301572 313.636637 
" clip-path="url(#p19796d7601)" style="fill: none; stroke: #0000ff; stroke-width: 1.005; stroke-linecap: square"/>
   </g>
   <g id="line2d_94">
    <path d="M 124.740814 313.055549 
L 142.843687 310.391043 
" clip-path="url(#p19796d7601)" style="fill: none; stroke: #0000ff; stroke-width: 1.005; stroke-linecap: square"/>
   </g>
   <g id="line2d_95">
    <path d="M 162.627085 308.917099 
L 146.91014 311.047585 
" clip-path="url(#p19796d7601)" style="fill: none; stroke: #0000ff; stroke-width: 1.005; stroke-linecap: square"/>
   </g>
   <g id="line2d_96">
    <path d="M 171.36439 311.864128 
L 180.917958 308.95472 
" clip-path="url(#p19796d7601)" style="fill: none; stroke: #ff0000; stroke-width: 1.005; stroke-linecap: square"/>
   </g>
   <g id="line2d_97">
    <path d="M 171.36439 311.864128 
L 146.91014 311.047585 
" clip-path="url(#p19796d7601)" style="fill: none; stroke: #0000ff; stroke-width: 1.005; stroke-linecap: square"/>
   </g>
   <g id="line2d_98">
    <path d="M 171.36439 311.864128 
L 196.027168 313.509159 
" clip-path="url(#p19796d7601)" style="fill: none; stroke: #0000ff; stroke-width: 1.005; stroke-linecap: square"/>
   </g>
   <g id="line2d_99">
    <path d="M 180.917958 308.95472 
L 160.070057 308.252944 
" clip-path="url(#p19796d7601)" style="fill: none; stroke: #0000ff; stroke-width: 1.005; stroke-linecap: square"/>
   </g>
   <g id="line2d_100">
    <path d="M 160.070057 308.252944 
L 163.543386 305.953801 
" clip-path="url(#p19796d7601)" style="fill: none; stroke: #ff0000; stroke-width: 1.005; stroke-linecap: square"/>
   </g>
   <g id="line2d_101">
    <path d="M 160.070057 308.252944 
L 146.91014 311.047585 
" clip-path="url(#p19796d7601)" style="fill: none; stroke: #0000ff; stroke-width: 1.005; stroke-linecap: square"/>
   </g>
   <g id="line2d_102">
    <path d="M 163.543386 305.953801 
L 160.070057 308.252944 
" clip-path="url(#p19796d7601)" style="fill: none; stroke: #0000ff; stroke-width: 1.005; stroke-linecap: square"/>
   </g>
   <g id="line2d_103">
    <path d="M 128.083596 313.600181 
L 90.165226 313.831004 
" clip-path="url(#p19796d7601)" style="fill: none; stroke: #ff0000; stroke-width: 1.005; stroke-linecap: square"/>
   </g>
   <g id="line2d_104">
    <path d="M 128.083596 313.600181 
L 148.211162 314.091002 
" clip-path="url(#p19796d7601)" style="fill: none; stroke: #0000ff; stroke-width: 1.005; stroke-linecap: square"/>
   </g>
   <g id="line2d_105">
    <path d="M 90.165226 313.831004 
L 89.941175 315.290847 
" clip-path="url(#p19796d7601)" style="fill: none; stroke: #0000ff; stroke-width: 1.005; stroke-linecap: square"/>
   </g>
   <g id="line2d_106">
    <path d="M 89.941175 315.290847 
L 115.415335 315.519399 
" clip-path="url(#p19796d7601)" style="fill: none; stroke: #ff0000; stroke-width: 1.005; stroke-linecap: square"/>
   </g>
   <g id="line2d_107">
    <path d="M 115.415335 315.519399 
L 128.083596 313.600181 
" clip-path="url(#p19796d7601)" style="fill: none; stroke: #0000ff; stroke-width: 1.005; stroke-linecap: square"/>
   </g>
   <g id="line2d_108">
    <path d="M 165.960401 316.252564 
L 148.211162 314.091002 
" clip-path="url(#p19796d7601)" style="fill: none; stroke: #0000ff; stroke-width: 1.005; stroke-linecap: square"/>
   </g>
   <g id="line2d_109">
    <path d="M 196.027168 313.509159 
L 218.027652 314.46067 
" clip-path="url(#p19796d7601)" style="fill: none; stroke: #ff0000; stroke-width: 1.005; stroke-linecap: square"/>
   </g>
   <g id="line2d_110">
    <path d="M 218.027652 314.46067 
L 238.871317 315.303272 
" clip-path="url(#p19796d7601)" style="fill: none; stroke: #ff0000; stroke-width: 1.005; stroke-linecap: square"/>
   </g>
   <g id="line2d_111">
    <path d="M 238.871317 315.303272 
L 259.561646 316.110598 
" clip-path="url(#p19796d7601)" style="fill: none; stroke: #0000ff; stroke-width: 1.005; stroke-linecap: square"/>
   </g>
   <g id="line2d_112">
    <path d="M 259.561646 316.110598 
L 280.847652 316.928152 
" clip-path="url(#p19796d7601)" style="fill: none; stroke: #0000ff; stroke-width: 1.005; stroke-linecap: square"/>
   </g>
   <g id="line2d_113">
    <path d="M 280.847652 316.928152 
L 299.624429 318.32858 
" clip-path="url(#p19796d7601)" style="fill: none; stroke: #ff0000; stroke-width: 1.005; stroke-linecap: square"/>
   </g>
   <g id="line2d_114">
    <path d="M 299.624429 318.32858 
L 321.841761 315.747313 
" clip-path="url(#p19796d7601)" style="fill: none; stroke: #0000ff; stroke-width: 1.005; stroke-linecap: square"/>
   </g>
   <g id="line2d_115">
    <path d="M 299.624429 318.32858 
L 327.389577 320.292948 
" clip-path="url(#p19796d7601)" style="fill: none; stroke: #0000ff; stroke-width: 1.005; stroke-linecap: square"/>
   </g>
   <g id="line2d_116">
    <path d="M 321.841761 315.747313 
L 308.356645 313.566764 
" clip-path="url(#p19796d7601)" style="fill: none; stroke: #ff0000; stroke-width: 1.005; stroke-linecap: square"/>
   </g>
   <g id="line2d_117">
    <path d="M 321.841761 315.747313 
L 306.149316 318.741373 
" clip-path="url(#p19796d7601)" style="fill: none; stroke: #ff0000; stroke-width: 1.005; stroke-linecap: square"/>
   </g>
   <g id="line2d_118">
    <path d="M 321.841761 315.747313 
L 327.393979 311.392906 
" clip-path="url(#p19796d7601)" style="fill: none; stroke: #ff0000; stroke-width: 1.005; stroke-linecap: square"/>
   </g>
   <g id="line2d_119">
    <path d="M 321.841761 315.747313 
L 328.233045 314.843865 
" clip-path="url(#p19796d7601)" style="fill: none; stroke: #ff0000; stroke-width: 1.01; stroke-linecap: square"/>
   </g>
   <g id="line2d_120">
    <path d="M 321.841761 315.747313 
L 338.002989 318.664491 
" clip-path="url(#p19796d7601)" style="fill: none; stroke: #ff0000; stroke-width: 1.005; stroke-linecap: square"/>
   </g>
   <g id="line2d_121">
    <path d="M 308.356645 313.566764 
L 321.841761 315.747313 
" clip-path="url(#p19796d7601)" style="fill: none; stroke: #0000ff; stroke-width: 1.005; stroke-linecap: square"/>
   </g>
   <g id="line2d_122">
    <path d="M 306.149316 318.741373 
L 288.096956 318.118265 
" clip-path="url(#p19796d7601)" style="fill: none; stroke: #ff0000; stroke-width: 1.005; stroke-linecap: square"/>
   </g>
   <g id="line2d_123">
    <path d="M 306.149316 318.741373 
L 298.927341 320.63356 
" clip-path="url(#p19796d7601)" style="fill: none; stroke: #ff0000; stroke-width: 1.005; stroke-linecap: square"/>
   </g>
   <g id="line2d_124">
    <path d="M 306.149316 318.741373 
L 327.389577 320.292948 
" clip-path="url(#p19796d7601)" style="fill: none; stroke: #0000ff; stroke-width: 1.005; stroke-linecap: square"/>
   </g>
   <g id="line2d_125">
    <path d="M 288.096956 318.118265 
L 306.149316 318.741373 
" clip-path="url(#p19796d7601)" style="fill: none; stroke: #0000ff; stroke-width: 1.005; stroke-linecap: square"/>
   </g>
   <g id="line2d_126">
    <path d="M 298.927341 320.63356 
L 306.149316 318.741373 
" clip-path="url(#p19796d7601)" style="fill: none; stroke: #0000ff; stroke-width: 1.005; stroke-linecap: square"/>
   </g>
   <g id="line2d_127">
    <path d="M 327.389577 320.292948 
L 327.466565 324.05322 
" clip-path="url(#p19796d7601)" style="fill: none; stroke: #ff0000; stroke-width: 1.005; stroke-linecap: square"/>
   </g>
   <g id="line2d_128">
    <path d="M 327.389577 320.292948 
L 336.028268 320.150687 
" clip-path="url(#p19796d7601)" style="fill: none; stroke: #ff0000; stroke-width: 1.01; stroke-linecap: square"/>
   </g>
   <g id="line2d_129">
    <path d="M 327.389577 320.292948 
L 349.66636 315.681732 
" clip-path="url(#p19796d7601)" style="fill: none; stroke: #ff0000; stroke-width: 1.005; stroke-linecap: square"/>
   </g>
   <g id="line2d_130">
    <path d="M 327.389577 320.292948 
L 303.321076 323.984434 
" clip-path="url(#p19796d7601)" style="fill: none; stroke: #ff0000; stroke-width: 1.005; stroke-linecap: square"/>
   </g>
   <g id="line2d_131">
    <path d="M 327.466565 324.05322 
L 349.527677 326.015401 
" clip-path="url(#p19796d7601)" style="fill: none; stroke: #ff0000; stroke-width: 1.005; stroke-linecap: square"/>
   </g>
   <g id="line2d_132">
    <path d="M 349.527677 326.015401 
L 359.179412 323.870697 
" clip-path="url(#p19796d7601)" style="fill: none; stroke: #0000ff; stroke-width: 1.005; stroke-linecap: square"/>
   </g>
   <g id="line2d_133">
    <path d="M 359.179412 323.870697 
L 327.389577 320.292948 
" clip-path="url(#p19796d7601)" style="fill: none; stroke: #0000ff; stroke-width: 1.005; stroke-linecap: square"/>
   </g>
   <g id="line2d_134">
    <path d="M 336.028268 320.150687 
L 327.389577 320.292948 
" clip-path="url(#p19796d7601)" style="fill: none; stroke: #0000ff; stroke-width: 1.005; stroke-linecap: square"/>
   </g>
   <g id="line2d_135">
    <path d="M 336.028268 320.150687 
L 347.466455 316.289815 
" clip-path="url(#p19796d7601)" style="fill: none; stroke: #ff0000; stroke-width: 1.005; stroke-linecap: square"/>
   </g>
   <g id="line2d_136">
    <path d="M 336.028268 320.150687 
L 334.642196 322.977423 
" clip-path="url(#p19796d7601)" style="fill: none; stroke: #ff0000; stroke-width: 1.005; stroke-linecap: square"/>
   </g>
   <g id="line2d_137">
    <path d="M 349.66636 315.681732 
L 369.959912 314.060838 
" clip-path="url(#p19796d7601)" style="fill: none; stroke: #ff0000; stroke-width: 1.005; stroke-linecap: square"/>
   </g>
   <g id="line2d_138">
    <path d="M 349.66636 315.681732 
L 321.841761 315.747313 
" clip-path="url(#p19796d7601)" style="fill: none; stroke: #0000ff; stroke-width: 1.01; stroke-linecap: square"/>
   </g>
   <g id="line2d_139">
    <path d="M 349.66636 315.681732 
L 375.661639 316.350158 
" clip-path="url(#p19796d7601)" style="fill: none; stroke: #ff0000; stroke-width: 1.005; stroke-linecap: square"/>
   </g>
   <g id="line2d_140">
    <path d="M 349.66636 315.681732 
L 363.552748 314.417553 
" clip-path="url(#p19796d7601)" style="fill: none; stroke: #ff0000; stroke-width: 1.005; stroke-linecap: square"/>
   </g>
   <g id="line2d_141">
    <path d="M 369.959912 314.060838 
L 349.66636 315.681732 
" clip-path="url(#p19796d7601)" style="fill: none; stroke: #0000ff; stroke-width: 1.005; stroke-linecap: square"/>
   </g>
   <g id="line2d_142">
    <path d="M 327.393979 311.392906 
L 352.399697 311.11553 
" clip-path="url(#p19796d7601)" style="fill: none; stroke: #ff0000; stroke-width: 1.005; stroke-linecap: square"/>
   </g>
   <g id="line2d_143">
    <path d="M 352.399697 311.11553 
L 349.66636 315.681732 
" clip-path="url(#p19796d7601)" style="fill: none; stroke: #0000ff; stroke-width: 1.005; stroke-linecap: square"/>
   </g>
   <g id="line2d_144">
    <path d="M 375.661639 316.350158 
L 349.66636 315.681732 
" clip-path="url(#p19796d7601)" style="fill: none; stroke: #0000ff; stroke-width: 1.005; stroke-linecap: square"/>
   </g>
   <g id="line2d_145">
    <path d="M 363.552748 314.417553 
L 349.66636 315.681732 
" clip-path="url(#p19796d7601)" style="fill: none; stroke: #0000ff; stroke-width: 1.005; stroke-linecap: square"/>
   </g>
   <g id="line2d_146">
    <path d="M 328.233045 314.843865 
L 317.338254 313.20008 
" clip-path="url(#p19796d7601)" style="fill: none; stroke: #ff0000; stroke-width: 1.005; stroke-linecap: square"/>
   </g>
   <g id="line2d_147">
    <path d="M 328.233045 314.843865 
L 338.469401 312.295693 
" clip-path="url(#p19796d7601)" style="fill: none; stroke: #ff0000; stroke-width: 1.005; stroke-linecap: square"/>
   </g>
   <g id="line2d_148">
    <path d="M 328.233045 314.843865 
L 321.841761 315.747313 
" clip-path="url(#p19796d7601)" style="fill: none; stroke: #0000ff; stroke-width: 1.01; stroke-linecap: square"/>
   </g>
   <g id="line2d_149">
    <path d="M 328.233045 314.843865 
L 347.466455 316.289815 
" clip-path="url(#p19796d7601)" style="fill: none; stroke: #ff0000; stroke-width: 1.005; stroke-linecap: square"/>
   </g>
   <g id="line2d_150">
    <path d="M 328.233045 314.843865 
L 334.076908 318.111823 
" clip-path="url(#p19796d7601)" style="fill: none; stroke: #ff0000; stroke-width: 1.005; stroke-linecap: square"/>
   </g>
   <g id="line2d_151">
    <path d="M 317.338254 313.20008 
L 328.233045 314.843865 
" clip-path="url(#p19796d7601)" style="fill: none; stroke: #0000ff; stroke-width: 1.005; stroke-linecap: square"/>
   </g>
   <g id="line2d_152">
    <path d="M 338.469401 312.295693 
L 328.233045 314.843865 
" clip-path="url(#p19796d7601)" style="fill: none; stroke: #0000ff; stroke-width: 1.005; stroke-linecap: square"/>
   </g>
   <g id="line2d_153">
    <path d="M 338.002989 318.664491 
L 343.362802 318.481742 
" clip-path="url(#p19796d7601)" style="fill: none; stroke: #ff0000; stroke-width: 1.005; stroke-linecap: square"/>
   </g>
   <g id="line2d_154">
    <path d="M 338.002989 318.664491 
L 359.873112 319.978475 
" clip-path="url(#p19796d7601)" style="fill: none; stroke: #ff0000; stroke-width: 1.005; stroke-linecap: square"/>
   </g>
   <g id="line2d_155">
    <path d="M 338.002989 318.664491 
L 327.389577 320.292948 
" clip-path="url(#p19796d7601)" style="fill: none; stroke: #0000ff; stroke-width: 1.005; stroke-linecap: square"/>
   </g>
   <g id="line2d_156">
    <path d="M 343.362802 318.481742 
L 338.002989 318.664491 
" clip-path="url(#p19796d7601)" style="fill: none; stroke: #0000ff; stroke-width: 1.005; stroke-linecap: square"/>
   </g>
   <g id="line2d_157">
    <path d="M 359.873112 319.978475 
L 338.002989 318.664491 
" clip-path="url(#p19796d7601)" style="fill: none; stroke: #0000ff; stroke-width: 1.005; stroke-linecap: square"/>
   </g>
   <g id="line2d_158">
    <path d="M 303.321076 323.984434 
L 294.271859 327.139059 
" clip-path="url(#p19796d7601)" style="fill: none; stroke: #ff0000; stroke-width: 1.005; stroke-linecap: square"/>
   </g>
   <g id="line2d_159">
    <path d="M 303.321076 323.984434 
L 291.647299 321.981376 
" clip-path="url(#p19796d7601)" style="fill: none; stroke: #ff0000; stroke-width: 1.005; stroke-linecap: square"/>
   </g>
   <g id="line2d_160">
    <path d="M 294.271859 327.139059 
L 303.321076 323.984434 
" clip-path="url(#p19796d7601)" style="fill: none; stroke: #0000ff; stroke-width: 1.005; stroke-linecap: square"/>
   </g>
   <g id="line2d_161">
    <path d="M 291.647299 321.981376 
L 299.624429 318.32858 
" clip-path="url(#p19796d7601)" style="fill: none; stroke: #0000ff; stroke-width: 1.005; stroke-linecap: square"/>
   </g>
   <g id="line2d_162">
    <path d="M 347.466455 316.289815 
L 328.233045 314.843865 
" clip-path="url(#p19796d7601)" style="fill: none; stroke: #0000ff; stroke-width: 1.01; stroke-linecap: square"/>
   </g>
   <g id="line2d_163">
    <path d="M 334.076908 318.111823 
L 336.028268 320.150687 
" clip-path="url(#p19796d7601)" style="fill: none; stroke: #0000ff; stroke-width: 1.005; stroke-linecap: square"/>
   </g>
   <g id="line2d_164">
    <path d="M 334.642196 322.977423 
L 335.984079 325.183454 
" clip-path="url(#p19796d7601)" style="fill: none; stroke: #0000ff; stroke-width: 1.005; stroke-linecap: square"/>
   </g>
   <g id="line2d_165">
    <path d="M 207.103513 159.408948 
L 215.403935 179.281064 
" clip-path="url(#p19796d7601)" style="fill: none; stroke: #ff0000; stroke-width: 1.005; stroke-linecap: square"/>
   </g>
   <g id="line2d_166">
    <path d="M 215.403935 179.281064 
L 222.930686 188.414892 
" clip-path="url(#p19796d7601)" style="fill: none; stroke: #ff0000; stroke-width: 1.005; stroke-linecap: square"/>
   </g>
   <g id="Path3DCollection_1">
    <path d="M 163.543386 308.015354 
C 164.090116 308.015354 164.614527 307.798136 165.001124 307.411539 
C 165.38772 307.024942 165.604939 306.500531 165.604939 305.953801 
C 165.604939 305.407071 165.38772 304.88266 165.001124 304.496063 
C 164.614527 304.109466 164.090116 303.892248 163.543386 303.892248 
C 162.996656 303.892248 162.472244 304.109466 162.085648 304.496063 
C 161.699051 304.88266 161.481833 305.407071 161.481833 305.953801 
C 161.481833 306.500531 161.699051 307.024942 162.085648 307.411539 
C 162.472244 307.798136 162.996656 308.015354 163.543386 308.015354 
z
" clip-path="url(#p19796d7601)" style="fill: #d3d3d3; stroke: #000000"/>
    <path d="M 124.756685 308.308883 
C 125.303415 308.308883 125.827826 308.091665 126.214423 307.705069 
C 126.601019 307.318472 126.818237 306.794061 126.818237 306.247331 
C 126.818237 305.7006 126.601019 305.176189 126.214423 304.789593 
C 125.827826 304.402996 125.303415 304.185778 124.756685 304.185778 
C 124.209954 304.185778 123.685543 304.402996 123.298947 304.789593 
C 122.91235 305.176189 122.695132 305.7006 122.695132 306.247331 
C 122.695132 306.794061 122.91235 307.318472 123.298947 307.705069 
C 123.685543 308.091665 124.209954 308.308883 124.756685 308.308883 
z
" clip-path="url(#p19796d7601)" style="fill: #d3d3d3; stroke: #000000"/>
    <path d="M 147.805757 308.573247 
C 148.413414 308.573247 148.996264 308.331822 149.425942 307.902144 
C 149.85562 307.472466 150.097045 306.889616 150.097045 306.281959 
C 150.097045 305.674302 149.85562 305.091452 149.425942 304.661774 
C 148.996264 304.232096 148.413414 303.990671 147.805757 303.990671 
C 147.1981 303.990671 146.61525 304.232096 146.185572 304.661774 
C 145.755894 305.091452 145.514469 305.674302 145.514469 306.281959 
C 145.514469 306.889616 145.755894 307.472466 146.185572 307.902144 
C 146.61525 308.331822 147.1981 308.573247 147.805757 308.573247 
z
" clip-path="url(#p19796d7601)" style="fill: #d3d3d3; stroke: #000000"/>
    <path d="M 133.606713 309.155211 
C 134.153443 309.155211 134.677854 308.937993 135.064451 308.551396 
C 135.451048 308.1648 135.668266 307.640389 135.668266 307.093658 
C 135.668266 306.546928 135.451048 306.022517 135.064451 305.63592 
C 134.677854 305.249324 134.153443 305.032106 133.606713 305.032106 
C 133.059983 305.032106 132.535572 305.249324 132.148975 305.63592 
C 131.762378 306.022517 131.54516 306.546928 131.54516 307.093658 
C 131.54516 307.640389 131.762378 308.1648 132.148975 308.551396 
C 132.535572 308.937993 133.059983 309.155211 133.606713 309.155211 
z
" clip-path="url(#p19796d7601)" style="fill: #d3d3d3; stroke: #000000"/>
    <path d="M 159.750236 309.590676 
C 160.357892 309.590676 160.940743 309.349251 161.370421 308.919573 
C 161.800099 308.489895 162.041524 307.907044 162.041524 307.299388 
C 162.041524 306.691731 161.800099 306.108881 161.370421 305.679203 
C 160.940743 305.249525 160.357892 305.0081 159.750236 305.0081 
C 159.142579 305.0081 158.559729 305.249525 158.130051 305.679203 
C 157.700373 306.108881 157.458948 306.691731 157.458948 307.299388 
C 157.458948 307.907044 157.700373 308.489895 158.130051 308.919573 
C 158.559729 309.349251 159.142579 309.590676 159.750236 309.590676 
z
" clip-path="url(#p19796d7601)" style="fill: #d3d3d3; stroke: #000000"/>
    <path d="M 176.37734 309.381186 
C 176.92407 309.381186 177.448482 309.163968 177.835078 308.777371 
C 178.221675 308.390775 178.438893 307.866363 178.438893 307.319633 
C 178.438893 306.772903 178.221675 306.248492 177.835078 305.861895 
C 177.448482 305.475299 176.92407 305.25808 176.37734 305.25808 
C 175.83061 305.25808 175.306199 305.475299 174.919602 305.861895 
C 174.533006 306.248492 174.315787 306.772903 174.315787 307.319633 
C 174.315787 307.866363 174.533006 308.390775 174.919602 308.777371 
C 175.306199 309.163968 175.83061 309.381186 176.37734 309.381186 
z
" clip-path="url(#p19796d7601)" style="fill: #d3d3d3; stroke: #000000"/>
    <path d="M 151.083572 309.799891 
C 151.630303 309.799891 152.154714 309.582673 152.54131 309.196076 
C 152.927907 308.80948 153.145125 308.285069 153.145125 307.738338 
C 153.145125 307.191608 152.927907 306.667197 152.54131 306.280601 
C 152.154714 305.894004 151.630303 305.676786 151.083572 305.676786 
C 150.536842 305.676786 150.012431 305.894004 149.625834 306.280601 
C 149.239238 306.667197 149.02202 307.191608 149.02202 307.738338 
C 149.02202 308.285069 149.239238 308.80948 149.625834 309.196076 
C 150.012431 309.582673 150.536842 309.799891 151.083572 309.799891 
z
" clip-path="url(#p19796d7601)" style="fill: #d3d3d3; stroke: #000000"/>
    <path d="M 129.8125 310.01052 
C 130.35923 310.01052 130.883641 309.793302 131.270238 309.406706 
C 131.656835 309.020109 131.874053 308.495698 131.874053 307.948968 
C 131.874053 307.402237 131.656835 306.877826 131.270238 306.49123 
C 130.883641 306.104633 130.35923 305.887415 129.8125 305.887415 
C 129.26577 305.887415 128.741359 306.104633 128.354762 306.49123 
C 127.968165 306.877826 127.750947 307.402237 127.750947 307.948968 
C 127.750947 308.495698 127.968165 309.020109 128.354762 309.406706 
C 128.741359 309.793302 129.26577 310.01052 129.8125 310.01052 
z
" clip-path="url(#p19796d7601)" style="fill: #d3d3d3; stroke: #000000"/>
    <path d="M 160.070057 310.432393 
C 160.648054 310.432393 161.202455 310.202753 161.611161 309.794047 
C 162.019866 309.385342 162.249507 308.830941 162.249507 308.252944 
C 162.249507 307.674947 162.019866 307.120546 161.611161 306.71184 
C 161.202455 306.303135 160.648054 306.073494 160.070057 306.073494 
C 159.492061 306.073494 158.937659 306.303135 158.528954 306.71184 
C 158.120248 307.120546 157.890608 307.674947 157.890608 308.252944 
C 157.890608 308.830941 158.120248 309.385342 158.528954 309.794047 
C 158.937659 310.202753 159.492061 310.432393 160.070057 310.432393 
z
" clip-path="url(#p19796d7601)" style="fill: #d3d3d3; stroke: #000000"/>
    <path d="M 182.362334 310.470326 
C 182.909064 310.470326 183.433475 310.253107 183.820072 309.866511 
C 184.206668 309.479914 184.423887 308.955503 184.423887 308.408773 
C 184.423887 307.862043 184.206668 307.337632 183.820072 306.951035 
C 183.433475 306.564438 182.909064 306.34722 182.362334 306.34722 
C 181.815604 306.34722 181.291193 306.564438 180.904596 306.951035 
C 180.517999 307.337632 180.300781 307.862043 180.300781 308.408773 
C 180.300781 308.955503 180.517999 309.479914 180.904596 309.866511 
C 181.291193 310.253107 181.815604 310.470326 182.362334 310.470326 
z
" clip-path="url(#p19796d7601)" style="fill: #d3d3d3; stroke: #000000"/>
    <path d="M 165.832208 310.609336 
C 166.378938 310.609336 166.903349 310.392118 167.289946 310.005521 
C 167.676542 309.618925 167.893761 309.094513 167.893761 308.547783 
C 167.893761 308.001053 167.676542 307.476642 167.289946 307.090045 
C 166.903349 306.703449 166.378938 306.48623 165.832208 306.48623 
C 165.285478 306.48623 164.761067 306.703449 164.37447 307.090045 
C 163.987873 307.476642 163.770655 308.001053 163.770655 308.547783 
C 163.770655 309.094513 163.987873 309.618925 164.37447 310.005521 
C 164.761067 310.392118 165.285478 310.609336 165.832208 310.609336 
z
" clip-path="url(#p19796d7601)" style="fill: #d3d3d3; stroke: #000000"/>
    <path d="M 132.713957 310.95562 
C 133.321613 310.95562 133.904464 310.714195 134.334142 310.284517 
C 134.76382 309.854839 135.005245 309.271989 135.005245 308.664332 
C 135.005245 308.056675 134.76382 307.473825 134.334142 307.044147 
C 133.904464 306.614469 133.321613 306.373044 132.713957 306.373044 
C 132.1063 306.373044 131.52345 306.614469 131.093772 307.044147 
C 130.664093 307.473825 130.422669 308.056675 130.422669 308.664332 
C 130.422669 309.271989 130.664093 309.854839 131.093772 310.284517 
C 131.52345 310.714195 132.1063 310.95562 132.713957 310.95562 
z
" clip-path="url(#p19796d7601)" style="fill: #d3d3d3; stroke: #000000"/>
    <path d="M 162.627085 310.978652 
C 163.173815 310.978652 163.698226 310.761434 164.084823 310.374837 
C 164.471419 309.98824 164.688638 309.463829 164.688638 308.917099 
C 164.688638 308.370369 164.471419 307.845958 164.084823 307.459361 
C 163.698226 307.072764 163.173815 306.855546 162.627085 306.855546 
C 162.080355 306.855546 161.555943 307.072764 161.169347 307.459361 
C 160.78275 307.845958 160.565532 308.370369 160.565532 308.917099 
C 160.565532 309.463829 160.78275 309.98824 161.169347 310.374837 
C 161.555943 310.761434 162.080355 310.978652 162.627085 310.978652 
z
" clip-path="url(#p19796d7601)" style="fill: #d3d3d3; stroke: #000000"/>
    <path d="M 180.917958 311.016273 
C 181.464688 311.016273 181.9891 310.799055 182.375696 310.412458 
C 182.762293 310.025861 182.979511 309.50145 182.979511 308.95472 
C 182.979511 308.40799 182.762293 307.883579 182.375696 307.496982 
C 181.9891 307.110385 181.464688 306.893167 180.917958 306.893167 
C 180.371228 306.893167 179.846817 307.110385 179.46022 307.496982 
C 179.073624 307.883579 178.856405 308.40799 178.856405 308.95472 
C 178.856405 309.50145 179.073624 310.025861 179.46022 310.412458 
C 179.846817 310.799055 180.371228 311.016273 180.917958 311.016273 
z
" clip-path="url(#p19796d7601)" style="fill: #d3d3d3; stroke: #000000"/>
    <path d="M 119.838431 311.070724 
C 120.385161 311.070724 120.909572 310.853506 121.296169 310.466909 
C 121.682765 310.080313 121.899983 309.555902 121.899983 309.009172 
C 121.899983 308.462441 121.682765 307.93803 121.296169 307.551434 
C 120.909572 307.164837 120.385161 306.947619 119.838431 306.947619 
C 119.2917 306.947619 118.767289 307.164837 118.380693 307.551434 
C 117.994096 307.93803 117.776878 308.462441 117.776878 309.009172 
C 117.776878 309.555902 117.994096 310.080313 118.380693 310.466909 
C 118.767289 310.853506 119.2917 311.070724 119.838431 311.070724 
z
" clip-path="url(#p19796d7601)" style="fill: #d3d3d3; stroke: #000000"/>
    <path d="M 103.396993 312.068128 
C 103.97499 312.068128 104.529391 311.838487 104.938097 311.429782 
C 105.346802 311.021076 105.576443 310.466675 105.576443 309.888678 
C 105.576443 309.310682 105.346802 308.75628 104.938097 308.347575 
C 104.529391 307.938869 103.97499 307.709229 103.396993 307.709229 
C 102.818996 307.709229 102.264595 307.938869 101.85589 308.347575 
C 101.447184 308.75628 101.217544 309.310682 101.217544 309.888678 
C 101.217544 310.466675 101.447184 311.021076 101.85589 311.429782 
C 102.264595 311.838487 102.818996 312.068128 103.396993 312.068128 
z
" clip-path="url(#p19796d7601)" style="fill: #d3d3d3; stroke: #000000"/>
    <path d="M 128.910863 312.924913 
C 129.59988 312.924913 130.260771 312.651163 130.74798 312.163954 
C 131.235189 311.676745 131.508939 311.015855 131.508939 310.326837 
C 131.508939 309.637819 131.235189 308.976929 130.74798 308.489719 
C 130.260771 308.00251 129.59988 307.728761 128.910863 307.728761 
C 128.221845 307.728761 127.560954 308.00251 127.073745 308.489719 
C 126.586536 308.976929 126.312786 309.637819 126.312786 310.326837 
C 126.312786 311.015855 126.586536 311.676745 127.073745 312.163954 
C 127.560954 312.651163 128.221845 312.924913 128.910863 312.924913 
z
" clip-path="url(#p19796d7601)" style="fill: #d3d3d3; stroke: #000000"/>
    <path d="M 142.843687 313.263324 
C 143.605425 313.263324 144.336066 312.960683 144.874696 312.422052 
C 145.413326 311.883422 145.715968 311.152781 145.715968 310.391043 
C 145.715968 309.629305 145.413326 308.898663 144.874696 308.360033 
C 144.336066 307.821403 143.605425 307.518762 142.843687 307.518762 
C 142.081949 307.518762 141.351307 307.821403 140.812677 308.360033 
C 140.274047 308.898663 139.971405 309.629305 139.971405 310.391043 
C 139.971405 311.152781 140.274047 311.883422 140.812677 312.422052 
C 141.351307 312.960683 142.081949 313.263324 142.843687 313.263324 
z
" clip-path="url(#p19796d7601)" style="fill: #d3d3d3; stroke: #000000"/>
    <path d="M 146.91014 314.005624 
C 147.694621 314.005624 148.447078 313.693947 149.00179 313.139235 
C 149.556502 312.584523 149.86818 311.832066 149.86818 311.047585 
C 149.86818 310.263103 149.556502 309.510647 149.00179 308.955935 
C 148.447078 308.401222 147.694621 308.089545 146.91014 308.089545 
C 146.125659 308.089545 145.373202 308.401222 144.81849 308.955935 
C 144.263778 309.510647 143.9521 310.263103 143.9521 311.047585 
C 143.9521 311.832066 144.263778 312.584523 144.81849 313.139235 
C 145.373202 313.693947 146.125659 314.005624 146.91014 314.005624 
z
" clip-path="url(#p19796d7601)" style="fill: #d3d3d3; stroke: #000000"/>
    <path d="M 352.399697 313.177083 
C 352.946427 313.177083 353.470838 312.959865 353.857435 312.573268 
C 354.244031 312.186671 354.46125 311.66226 354.46125 311.11553 
C 354.46125 310.5688 354.244031 310.044389 353.857435 309.657792 
C 353.470838 309.271195 352.946427 309.053977 352.399697 309.053977 
C 351.852967 309.053977 351.328555 309.271195 350.941959 309.657792 
C 350.555362 310.044389 350.338144 310.5688 350.338144 311.11553 
C 350.338144 311.66226 350.555362 312.186671 350.941959 312.573268 
C 351.328555 312.959865 351.852967 313.177083 352.399697 313.177083 
z
" clip-path="url(#p19796d7601)" style="fill: #d3d3d3; stroke: #000000"/>
    <path d="M 144.553968 313.571967 
C 145.161625 313.571967 145.744475 313.330542 146.174153 312.900864 
C 146.603832 312.471186 146.845256 311.888336 146.845256 311.280679 
C 146.845256 310.673022 146.603832 310.090172 146.174153 309.660494 
C 145.744475 309.230816 145.161625 308.989391 144.553968 308.989391 
C 143.946312 308.989391 143.363461 309.230816 142.933783 309.660494 
C 142.504105 310.090172 142.26268 310.673022 142.26268 311.280679 
C 142.26268 311.888336 142.504105 312.471186 142.933783 312.900864 
C 143.363461 313.330542 143.946312 313.571967 144.553968 313.571967 
z
" clip-path="url(#p19796d7601)" style="fill: #d3d3d3; stroke: #000000"/>
    <path d="M 327.393979 313.454459 
C 327.940709 313.454459 328.465121 313.237241 328.851717 312.850644 
C 329.238314 312.464047 329.455532 311.939636 329.455532 311.392906 
C 329.455532 310.846176 329.238314 310.321765 328.851717 309.935168 
C 328.465121 309.548571 327.940709 309.331353 327.393979 309.331353 
C 326.847249 309.331353 326.322838 309.548571 325.936241 309.935168 
C 325.549645 310.321765 325.332426 310.846176 325.332426 311.392906 
C 325.332426 311.939636 325.549645 312.464047 325.936241 312.850644 
C 326.322838 313.237241 326.847249 313.454459 327.393979 313.454459 
z
" clip-path="url(#p19796d7601)" style="fill: #d3d3d3; stroke: #000000"/>
    <path d="M 190.920263 313.479966 
C 191.466994 313.479966 191.991405 313.262748 192.378001 312.876151 
C 192.764598 312.489555 192.981816 311.965144 192.981816 311.418413 
C 192.981816 310.871683 192.764598 310.347272 192.378001 309.960676 
C 191.991405 309.574079 191.466994 309.356861 190.920263 309.356861 
C 190.373533 309.356861 189.849122 309.574079 189.462525 309.960676 
C 189.075929 310.347272 188.858711 310.871683 188.858711 311.418413 
C 188.858711 311.965144 189.075929 312.489555 189.462525 312.876151 
C 189.849122 313.262748 190.373533 313.479966 190.920263 313.479966 
z
" clip-path="url(#p19796d7601)" style="fill: #d3d3d3; stroke: #000000"/>
    <path d="M 166.340041 314.036262 
C 167.029059 314.036262 167.689949 313.762512 168.177158 313.275303 
C 168.664367 312.788094 168.938117 312.127204 168.938117 311.438186 
C 168.938117 310.749168 168.664367 310.088278 168.177158 309.601069 
C 167.689949 309.113859 167.029059 308.84011 166.340041 308.84011 
C 165.651023 308.84011 164.990133 309.113859 164.502924 309.601069 
C 164.015714 310.088278 163.741965 310.749168 163.741965 311.438186 
C 163.741965 312.127204 164.015714 312.788094 164.502924 313.275303 
C 164.990133 313.762512 165.651023 314.036262 166.340041 314.036262 
z
" clip-path="url(#p19796d7601)" style="fill: #d3d3d3; stroke: #000000"/>
    <path d="M 126.930378 313.617727 
C 127.477108 313.617727 128.001519 313.400509 128.388116 313.013912 
C 128.774713 312.627316 128.991931 312.102904 128.991931 311.556174 
C 128.991931 311.009444 128.774713 310.485033 128.388116 310.098436 
C 128.001519 309.71184 127.477108 309.494621 126.930378 309.494621 
C 126.383648 309.494621 125.859237 309.71184 125.47264 310.098436 
C 125.086043 310.485033 124.868825 311.009444 124.868825 311.556174 
C 124.868825 312.102904 125.086043 312.627316 125.47264 313.013912 
C 125.859237 313.400509 126.383648 313.617727 126.930378 313.617727 
z
" clip-path="url(#p19796d7601)" style="fill: #d3d3d3; stroke: #000000"/>
    <path d="M 116.425979 313.977803 
C 117.033635 313.977803 117.616486 313.736379 118.046164 313.306701 
C 118.475842 312.877023 118.717267 312.294172 118.717267 311.686516 
C 118.717267 311.078859 118.475842 310.496009 118.046164 310.06633 
C 117.616486 309.636652 117.033635 309.395228 116.425979 309.395228 
C 115.818322 309.395228 115.235472 309.636652 114.805794 310.06633 
C 114.376116 310.496009 114.134691 311.078859 114.134691 311.686516 
C 114.134691 312.294172 114.376116 312.877023 114.805794 313.306701 
C 115.235472 313.736379 115.818322 313.977803 116.425979 313.977803 
z
" clip-path="url(#p19796d7601)" style="fill: #d3d3d3; stroke: #000000"/>
    <path d="M 148.035586 314.018354 
C 148.643243 314.018354 149.226093 313.77693 149.655771 313.347252 
C 150.085449 312.917574 150.326874 312.334723 150.326874 311.727067 
C 150.326874 311.11941 150.085449 310.53656 149.655771 310.106881 
C 149.226093 309.677203 148.643243 309.435779 148.035586 309.435779 
C 147.427929 309.435779 146.845079 309.677203 146.415401 310.106881 
C 145.985723 310.53656 145.744298 311.11941 145.744298 311.727067 
C 145.744298 312.334723 145.985723 312.917574 146.415401 313.347252 
C 146.845079 313.77693 147.427929 314.018354 148.035586 314.018354 
z
" clip-path="url(#p19796d7601)" style="fill: #d3d3d3; stroke: #000000"/>
    <path d="M 90.13883 313.863728 
C 90.68556 313.863728 91.209971 313.64651 91.596568 313.259913 
C 91.983164 312.873317 92.200383 312.348905 92.200383 311.802175 
C 92.200383 311.255445 91.983164 310.731034 91.596568 310.344437 
C 91.209971 309.957841 90.68556 309.740622 90.13883 309.740622 
C 89.5921 309.740622 89.067688 309.957841 88.681092 310.344437 
C 88.294495 310.731034 88.077277 311.255445 88.077277 311.802175 
C 88.077277 312.348905 88.294495 312.873317 88.681092 313.259913 
C 89.067688 313.64651 89.5921 313.863728 90.13883 313.863728 
z
" clip-path="url(#p19796d7601)" style="fill: #d3d3d3; stroke: #000000"/>
    <path d="M 171.36439 314.155416 
C 171.972047 314.155416 172.554897 313.913991 172.984575 313.484313 
C 173.414253 313.054635 173.655678 312.471785 173.655678 311.864128 
C 173.655678 311.256471 173.414253 310.673621 172.984575 310.243943 
C 172.554897 309.814265 171.972047 309.57284 171.36439 309.57284 
C 170.756733 309.57284 170.173883 309.814265 169.744205 310.243943 
C 169.314527 310.673621 169.073102 311.256471 169.073102 311.864128 
C 169.073102 312.471785 169.314527 313.054635 169.744205 313.484313 
C 170.173883 313.913991 170.756733 314.155416 171.36439 314.155416 
z
" clip-path="url(#p19796d7601)" style="fill: #d3d3d3; stroke: #000000"/>
    <path d="M 338.469401 314.357245 
C 339.016131 314.357245 339.540542 314.140027 339.927139 313.753431 
C 340.313735 313.366834 340.530953 312.842423 340.530953 312.295693 
C 340.530953 311.748962 340.313735 311.224551 339.927139 310.837955 
C 339.540542 310.451358 339.016131 310.23414 338.469401 310.23414 
C 337.92267 310.23414 337.398259 310.451358 337.011663 310.837955 
C 336.625066 311.224551 336.407848 311.748962 336.407848 312.295693 
C 336.407848 312.842423 336.625066 313.366834 337.011663 313.753431 
C 337.398259 314.140027 337.92267 314.357245 338.469401 314.357245 
z
" clip-path="url(#p19796d7601)" style="fill: #d3d3d3; stroke: #000000"/>
    <path d="M 161.549016 314.592241 
C 162.127013 314.592241 162.681414 314.3626 163.090119 313.953895 
C 163.498825 313.545189 163.728465 312.990788 163.728465 312.412791 
C 163.728465 311.834794 163.498825 311.280393 163.090119 310.871688 
C 162.681414 310.462982 162.127013 310.233342 161.549016 310.233342 
C 160.971019 310.233342 160.416618 310.462982 160.007912 310.871688 
C 159.599207 311.280393 159.369566 311.834794 159.369566 312.412791 
C 159.369566 312.990788 159.599207 313.545189 160.007912 313.953895 
C 160.416618 314.3626 160.971019 314.592241 161.549016 314.592241 
z
" clip-path="url(#p19796d7601)" style="fill: #d3d3d3; stroke: #000000"/>
    <path d="M 151.600075 314.767463 
C 152.178072 314.767463 152.732473 314.537823 153.141179 314.129117 
C 153.549884 313.720412 153.779525 313.16601 153.779525 312.588014 
C 153.779525 312.010017 153.549884 311.455615 153.141179 311.04691 
C 152.732473 310.638205 152.178072 310.408564 151.600075 310.408564 
C 151.022079 310.408564 150.467677 310.638205 150.058972 311.04691 
C 149.650266 311.455615 149.420626 312.010017 149.420626 312.588014 
C 149.420626 313.16601 149.650266 313.720412 150.058972 314.129117 
C 150.467677 314.537823 151.022079 314.767463 151.600075 314.767463 
z
" clip-path="url(#p19796d7601)" style="fill: #d3d3d3; stroke: #000000"/>
    <path d="M 126.843234 314.989389 
C 127.389964 314.989389 127.914375 314.772171 128.300972 314.385575 
C 128.687569 313.998978 128.904787 313.474567 128.904787 312.927837 
C 128.904787 312.381106 128.687569 311.856695 128.300972 311.470099 
C 127.914375 311.083502 127.389964 310.866284 126.843234 310.866284 
C 126.296504 310.866284 125.772093 311.083502 125.385496 311.470099 
C 124.998899 311.856695 124.781681 312.381106 124.781681 312.927837 
C 124.781681 313.474567 124.998899 313.998978 125.385496 314.385575 
C 125.772093 314.772171 126.296504 314.989389 126.843234 314.989389 
z
" clip-path="url(#p19796d7601)" style="fill: #d3d3d3; stroke: #000000"/>
    <path d="M 124.740814 315.117101 
C 125.287545 315.117101 125.811956 314.899883 126.198552 314.513287 
C 126.585149 314.12669 126.802367 313.602279 126.802367 313.055549 
C 126.802367 312.508818 126.585149 311.984407 126.198552 311.597811 
C 125.811956 311.211214 125.287545 310.993996 124.740814 310.993996 
C 124.194084 310.993996 123.669673 311.211214 123.283076 311.597811 
C 122.89648 311.984407 122.679262 312.508818 122.679262 313.055549 
C 122.679262 313.602279 122.89648 314.12669 123.283076 314.513287 
C 123.669673 314.899883 124.194084 315.117101 124.740814 315.117101 
z
" clip-path="url(#p19796d7601)" style="fill: #d3d3d3; stroke: #000000"/>
    <path d="M 317.338254 315.261633 
C 317.884984 315.261633 318.409395 315.044415 318.795992 314.657818 
C 319.182589 314.271221 319.399807 313.74681 319.399807 313.20008 
C 319.399807 312.65335 319.182589 312.128939 318.795992 311.742342 
C 318.409395 311.355745 317.884984 311.138527 317.338254 311.138527 
C 316.791524 311.138527 316.267113 311.355745 315.880516 311.742342 
C 315.49392 312.128939 315.276701 312.65335 315.276701 313.20008 
C 315.276701 313.74681 315.49392 314.271221 315.880516 314.657818 
C 316.267113 315.044415 316.791524 315.261633 317.338254 315.261633 
z
" clip-path="url(#p19796d7601)" style="fill: #d3d3d3; stroke: #000000"/>
    <path d="M 125.946345 315.426267 
C 126.524341 315.426267 127.078743 315.196626 127.487448 314.787921 
C 127.896153 314.379216 128.125794 313.824814 128.125794 313.246818 
C 128.125794 312.668821 127.896153 312.114419 127.487448 311.705714 
C 127.078743 311.297009 126.524341 311.067368 125.946345 311.067368 
C 125.368348 311.067368 124.813946 311.297009 124.405241 311.705714 
C 123.996536 312.114419 123.766895 312.668821 123.766895 313.246818 
C 123.766895 313.824814 123.996536 314.379216 124.405241 314.787921 
C 124.813946 315.196626 125.368348 315.426267 125.946345 315.426267 
z
" clip-path="url(#p19796d7601)" style="fill: #d3d3d3; stroke: #000000"/>
    <path d="M 196.027168 315.570712 
C 196.573898 315.570712 197.09831 315.353494 197.484906 314.966897 
C 197.871503 314.580301 198.088721 314.05589 198.088721 313.509159 
C 198.088721 312.962429 197.871503 312.438018 197.484906 312.051421 
C 197.09831 311.664825 196.573898 311.447607 196.027168 311.447607 
C 195.480438 311.447607 194.956027 311.664825 194.56943 312.051421 
C 194.182834 312.438018 193.965615 312.962429 193.965615 313.509159 
C 193.965615 314.05589 194.182834 314.580301 194.56943 314.966897 
C 194.956027 315.353494 195.480438 315.570712 196.027168 315.570712 
z
" clip-path="url(#p19796d7601)" style="fill: #d3d3d3; stroke: #000000"/>
    <path d="M 308.356645 315.628316 
C 308.903375 315.628316 309.427786 315.411098 309.814383 315.024502 
C 310.200979 314.637905 310.418197 314.113494 310.418197 313.566764 
C 310.418197 313.020033 310.200979 312.495622 309.814383 312.109026 
C 309.427786 311.722429 308.903375 311.505211 308.356645 311.505211 
C 307.809914 311.505211 307.285503 311.722429 306.898907 312.109026 
C 306.51231 312.495622 306.295092 313.020033 306.295092 313.566764 
C 306.295092 314.113494 306.51231 314.637905 306.898907 315.024502 
C 307.285503 315.411098 307.809914 315.628316 308.356645 315.628316 
z
" clip-path="url(#p19796d7601)" style="fill: #d3d3d3; stroke: #000000"/>
    <path d="M 143.224654 316.191843 
C 143.913672 316.191843 144.574562 315.918093 145.061772 315.430884 
C 145.548981 314.943675 145.82273 314.282785 145.82273 313.593767 
C 145.82273 312.904749 145.548981 312.243859 145.061772 311.75665 
C 144.574562 311.26944 143.913672 310.995691 143.224654 310.995691 
C 142.535636 310.995691 141.874746 311.26944 141.387537 311.75665 
C 140.900328 312.243859 140.626578 312.904749 140.626578 313.593767 
C 140.626578 314.282785 140.900328 314.943675 141.387537 315.430884 
C 141.874746 315.918093 142.535636 316.191843 143.224654 316.191843 
z
" clip-path="url(#p19796d7601)" style="fill: #d3d3d3; stroke: #000000"/>
    <path d="M 128.083596 315.779631 
C 128.661593 315.779631 129.215994 315.54999 129.624699 315.141285 
C 130.033405 314.73258 130.263045 314.178178 130.263045 313.600181 
C 130.263045 313.022185 130.033405 312.467783 129.624699 312.059078 
C 129.215994 311.650373 128.661593 311.420732 128.083596 311.420732 
C 127.505599 311.420732 126.951198 311.650373 126.542492 312.059078 
C 126.133787 312.467783 125.904147 313.022185 125.904147 313.600181 
C 125.904147 314.178178 126.133787 314.73258 126.542492 315.141285 
C 126.951198 315.54999 127.505599 315.779631 128.083596 315.779631 
z
" clip-path="url(#p19796d7601)" style="fill: #d3d3d3; stroke: #000000"/>
    <path d="M 143.301572 316.838199 
C 144.150636 316.838199 144.965039 316.500862 145.565418 315.900483 
C 146.165797 315.300104 146.503134 314.485701 146.503134 313.636637 
C 146.503134 312.787573 146.165797 311.97317 145.565418 311.372791 
C 144.965039 310.772411 144.150636 310.435075 143.301572 310.435075 
C 142.452507 310.435075 141.638104 310.772411 141.037725 311.372791 
C 140.437346 311.97317 140.100009 312.787573 140.100009 313.636637 
C 140.100009 314.485701 140.437346 315.300104 141.037725 315.900483 
C 141.638104 316.500862 142.452507 316.838199 143.301572 316.838199 
z
" clip-path="url(#p19796d7601)" style="fill: #d3d3d3; stroke: #000000"/>
    <path d="M 90.165226 315.892557 
C 90.711956 315.892557 91.236367 315.675339 91.622964 315.288742 
C 92.00956 314.902145 92.226779 314.377734 92.226779 313.831004 
C 92.226779 313.284274 92.00956 312.759863 91.622964 312.373266 
C 91.236367 311.986669 90.711956 311.769451 90.165226 311.769451 
C 89.618496 311.769451 89.094084 311.986669 88.707488 312.373266 
C 88.320891 312.759863 88.103673 313.284274 88.103673 313.831004 
C 88.103673 314.377734 88.320891 314.902145 88.707488 315.288742 
C 89.094084 315.675339 89.618496 315.892557 90.165226 315.892557 
z
" clip-path="url(#p19796d7601)" style="fill: #d3d3d3; stroke: #000000"/>
    <path d="M 369.959912 316.122391 
C 370.506643 316.122391 371.031054 315.905172 371.41765 315.518576 
C 371.804247 315.131979 372.021465 314.607568 372.021465 314.060838 
C 372.021465 313.514108 371.804247 312.989696 371.41765 312.6031 
C 371.031054 312.216503 370.506643 311.999285 369.959912 311.999285 
C 369.413182 311.999285 368.888771 312.216503 368.502174 312.6031 
C 368.115578 312.989696 367.89836 313.514108 367.89836 314.060838 
C 367.89836 314.607568 368.115578 315.131979 368.502174 315.518576 
C 368.888771 315.905172 369.413182 316.122391 369.959912 316.122391 
z
" clip-path="url(#p19796d7601)" style="fill: #d3d3d3; stroke: #000000"/>
    <path d="M 207.103513 161.408948 
C 207.633919 161.408948 208.142672 161.198216 208.517726 160.823162 
C 208.89278 160.448108 209.103513 159.939355 209.103513 159.408948 
C 209.103513 158.878542 208.89278 158.369789 208.517726 157.994735 
C 208.142672 157.619681 207.633919 157.408948 207.103513 157.408948 
C 206.573106 157.408948 206.064353 157.619681 205.689299 157.994735 
C 205.314245 158.369789 205.103513 158.878542 205.103513 159.408948 
C 205.103513 159.939355 205.314245 160.448108 205.689299 160.823162 
C 206.064353 161.198216 206.573106 161.408948 207.103513 161.408948 
z
" clip-path="url(#p19796d7601)" style="fill: #d3d3d3; stroke: #000000"/>
    <path d="M 148.211162 317.049041 
C 148.995643 317.049041 149.7481 316.737364 150.302812 316.182652 
C 150.857524 315.62794 151.169201 314.875483 151.169201 314.091002 
C 151.169201 313.30652 150.857524 312.554064 150.302812 311.999352 
C 149.7481 311.444639 148.995643 311.132962 148.211162 311.132962 
C 147.42668 311.132962 146.674224 311.444639 146.119511 311.999352 
C 145.564799 312.554064 145.253122 313.30652 145.253122 314.091002 
C 145.253122 314.875483 145.564799 315.62794 146.119511 316.182652 
C 146.674224 316.737364 147.42668 317.049041 148.211162 317.049041 
z
" clip-path="url(#p19796d7601)" style="fill: #d3d3d3; stroke: #000000"/>
    <path d="M 172.973097 316.323438 
C 173.519827 316.323438 174.044238 316.10622 174.430835 315.719624 
C 174.817432 315.333027 175.03465 314.808616 175.03465 314.261886 
C 175.03465 313.715155 174.817432 313.190744 174.430835 312.804148 
C 174.044238 312.417551 173.519827 312.200333 172.973097 312.200333 
C 172.426367 312.200333 171.901956 312.417551 171.515359 312.804148 
C 171.128762 313.190744 170.911544 313.715155 170.911544 314.261886 
C 170.911544 314.808616 171.128762 315.333027 171.515359 315.719624 
C 171.901956 316.10622 172.426367 316.323438 172.973097 316.323438 
z
" clip-path="url(#p19796d7601)" style="fill: #d3d3d3; stroke: #000000"/>
    <path d="M 363.552748 316.479106 
C 364.099478 316.479106 364.62389 316.261888 365.010486 315.875291 
C 365.397083 315.488694 365.614301 314.964283 365.614301 314.417553 
C 365.614301 313.870823 365.397083 313.346412 365.010486 312.959815 
C 364.62389 312.573218 364.099478 312.356 363.552748 312.356 
C 363.006018 312.356 362.481607 312.573218 362.09501 312.959815 
C 361.708414 313.346412 361.491195 313.870823 361.491195 314.417553 
C 361.491195 314.964283 361.708414 315.488694 362.09501 315.875291 
C 362.481607 316.261888 363.006018 316.479106 363.552748 316.479106 
z
" clip-path="url(#p19796d7601)" style="fill: #d3d3d3; stroke: #000000"/>
    <path d="M 218.027652 316.522223 
C 218.574383 316.522223 219.098794 316.305005 219.48539 315.918408 
C 219.871987 315.531812 220.089205 315.007401 220.089205 314.46067 
C 220.089205 313.91394 219.871987 313.389529 219.48539 313.002932 
C 219.098794 312.616336 218.574383 312.399118 218.027652 312.399118 
C 217.480922 312.399118 216.956511 312.616336 216.569914 313.002932 
C 216.183318 313.389529 215.9661 313.91394 215.9661 314.46067 
C 215.9661 315.007401 216.183318 315.531812 216.569914 315.918408 
C 216.956511 316.305005 217.480922 316.522223 218.027652 316.522223 
z
" clip-path="url(#p19796d7601)" style="fill: #d3d3d3; stroke: #000000"/>
    <path d="M 135.312562 317.134178 
C 135.97557 317.134178 136.611512 316.870762 137.080329 316.401945 
C 137.549147 315.933128 137.812562 315.297186 137.812562 314.634178 
C 137.812562 313.97117 137.549147 313.335228 137.080329 312.866411 
C 136.611512 312.397594 135.97557 312.134178 135.312562 312.134178 
C 134.649555 312.134178 134.013613 312.397594 133.544795 312.866411 
C 133.075978 313.335228 132.812562 313.97117 132.812562 314.634178 
C 132.812562 315.297186 133.075978 315.933128 133.544795 316.401945 
C 134.013613 316.870762 134.649555 317.134178 135.312562 317.134178 
z
" clip-path="url(#p19796d7601)" style="fill: #d3d3d3; stroke: #000000"/>
    <path d="M 328.233045 317.441941 
C 328.922063 317.441941 329.582953 317.168192 330.070162 316.680982 
C 330.557371 316.193773 330.831121 315.532883 330.831121 314.843865 
C 330.831121 314.154847 330.557371 313.493957 330.070162 313.006748 
C 329.582953 312.519538 328.922063 312.245789 328.233045 312.245789 
C 327.544027 312.245789 326.883137 312.519538 326.395928 313.006748 
C 325.908718 313.493957 325.634969 314.154847 325.634969 314.843865 
C 325.634969 315.532883 325.908718 316.193773 326.395928 316.680982 
C 326.883137 317.168192 327.544027 317.441941 328.233045 317.441941 
z
" clip-path="url(#p19796d7601)" style="fill: #d3d3d3; stroke: #000000"/>
    <path d="M 89.941175 317.352399 
C 90.487905 317.352399 91.012316 317.135181 91.398913 316.748585 
C 91.78551 316.361988 92.002728 315.837577 92.002728 315.290847 
C 92.002728 314.744116 91.78551 314.219705 91.398913 313.833109 
C 91.012316 313.446512 90.487905 313.229294 89.941175 313.229294 
C 89.394445 313.229294 88.870034 313.446512 88.483437 313.833109 
C 88.09684 314.219705 87.879622 314.744116 87.879622 315.290847 
C 87.879622 315.837577 88.09684 316.361988 88.483437 316.748585 
C 88.870034 317.135181 89.394445 317.352399 89.941175 317.352399 
z
" clip-path="url(#p19796d7601)" style="fill: #d3d3d3; stroke: #000000"/>
    <path d="M 238.871317 317.364825 
C 239.418047 317.364825 239.942458 317.147607 240.329055 316.76101 
C 240.715652 316.374414 240.93287 315.850002 240.93287 315.303272 
C 240.93287 314.756542 240.715652 314.232131 240.329055 313.845534 
C 239.942458 313.458938 239.418047 313.241719 238.871317 313.241719 
C 238.324587 313.241719 237.800176 313.458938 237.413579 313.845534 
C 237.026982 314.232131 236.809764 314.756542 236.809764 315.303272 
C 236.809764 315.850002 237.026982 316.374414 237.413579 316.76101 
C 237.800176 317.147607 238.324587 317.364825 238.871317 317.364825 
z
" clip-path="url(#p19796d7601)" style="fill: #d3d3d3; stroke: #000000"/>
    <path d="M 137.393246 317.369812 
C 137.939976 317.369812 138.464387 317.152594 138.850984 316.765997 
C 139.23758 316.3794 139.454798 315.854989 139.454798 315.308259 
C 139.454798 314.761529 139.23758 314.237118 138.850984 313.850521 
C 138.464387 313.463925 137.939976 313.246706 137.393246 313.246706 
C 136.846515 313.246706 136.322104 313.463925 135.935508 313.850521 
C 135.548911 314.237118 135.331693 314.761529 135.331693 315.308259 
C 135.331693 315.854989 135.548911 316.3794 135.935508 316.765997 
C 136.322104 317.152594 136.846515 317.369812 137.393246 317.369812 
z
" clip-path="url(#p19796d7601)" style="fill: #d3d3d3; stroke: #000000"/>
    <path d="M 115.415335 317.580952 
C 115.962065 317.580952 116.486477 317.363734 116.873073 316.977137 
C 117.25967 316.590541 117.476888 316.066129 117.476888 315.519399 
C 117.476888 314.972669 117.25967 314.448258 116.873073 314.061661 
C 116.486477 313.675065 115.962065 313.457846 115.415335 313.457846 
C 114.868605 313.457846 114.344194 313.675065 113.957597 314.061661 
C 113.571001 314.448258 113.353782 314.972669 113.353782 315.519399 
C 113.353782 316.066129 113.571001 316.590541 113.957597 316.977137 
C 114.344194 317.363734 114.868605 317.580952 115.415335 317.580952 
z
" clip-path="url(#p19796d7601)" style="fill: #d3d3d3; stroke: #000000"/>
    <path d="M 165.155869 317.70532 
C 165.702599 317.70532 166.22701 317.488102 166.613607 317.101506 
C 167.000204 316.714909 167.217422 316.190498 167.217422 315.643768 
C 167.217422 315.097037 167.000204 314.572626 166.613607 314.18603 
C 166.22701 313.799433 165.702599 313.582215 165.155869 313.582215 
C 164.609139 313.582215 164.084728 313.799433 163.698131 314.18603 
C 163.311534 314.572626 163.094316 315.097037 163.094316 315.643768 
C 163.094316 316.190498 163.311534 316.714909 163.698131 317.101506 
C 164.084728 317.488102 164.609139 317.70532 165.155869 317.70532 
z
" clip-path="url(#p19796d7601)" style="fill: #d3d3d3; stroke: #000000"/>
    <path d="M 349.66636 318.181732 
C 350.329368 318.181732 350.96531 317.918316 351.434127 317.449499 
C 351.902944 316.980682 352.16636 316.34474 352.16636 315.681732 
C 352.16636 315.018724 351.902944 314.382782 351.434127 313.913965 
C 350.96531 313.445148 350.329368 313.181732 349.66636 313.181732 
C 349.003352 313.181732 348.36741 313.445148 347.898593 313.913965 
C 347.429776 314.382782 347.16636 315.018724 347.16636 315.681732 
C 347.16636 316.34474 347.429776 316.980682 347.898593 317.449499 
C 348.36741 317.918316 349.003352 318.181732 349.66636 318.181732 
z
" clip-path="url(#p19796d7601)" style="fill: #d3d3d3; stroke: #000000"/>
    <path d="M 321.841761 318.345389 
C 322.530779 318.345389 323.191669 318.071639 323.678879 317.58443 
C 324.166088 317.097221 324.439838 316.436331 324.439838 315.747313 
C 324.439838 315.058295 324.166088 314.397405 323.678879 313.910195 
C 323.191669 313.422986 322.530779 313.149236 321.841761 313.149236 
C 321.152743 313.149236 320.491853 313.422986 320.004644 313.910195 
C 319.517435 314.397405 319.243685 315.058295 319.243685 315.747313 
C 319.243685 316.436331 319.517435 317.097221 320.004644 317.58443 
C 320.491853 318.071639 321.152743 318.345389 321.841761 318.345389 
z
" clip-path="url(#p19796d7601)" style="fill: #d3d3d3; stroke: #000000"/>
    <path d="M 215.403935 181.342617 
C 215.950665 181.342617 216.475076 181.125398 216.861673 180.738802 
C 217.24827 180.352205 217.465488 179.827794 217.465488 179.281064 
C 217.465488 178.734334 217.24827 178.209922 216.861673 177.823326 
C 216.475076 177.436729 215.950665 177.219511 215.403935 177.219511 
C 214.857205 177.219511 214.332794 177.436729 213.946197 177.823326 
C 213.5596 178.209922 213.342382 178.734334 213.342382 179.281064 
C 213.342382 179.827794 213.5596 180.352205 213.946197 180.738802 
C 214.332794 181.125398 214.857205 181.342617 215.403935 181.342617 
z
" clip-path="url(#p19796d7601)" style="fill: #d3d3d3; stroke: #000000"/>
    <path d="M 156.861978 318.143709 
C 157.439975 318.143709 157.994376 317.914068 158.403082 317.505363 
C 158.811787 317.096658 159.041428 316.542256 159.041428 315.964259 
C 159.041428 315.386263 158.811787 314.831861 158.403082 314.423156 
C 157.994376 314.014451 157.439975 313.78481 156.861978 313.78481 
C 156.283982 313.78481 155.72958 314.014451 155.320875 314.423156 
C 154.912169 314.831861 154.682529 315.386263 154.682529 315.964259 
C 154.682529 316.542256 154.912169 317.096658 155.320875 317.505363 
C 155.72958 317.914068 156.283982 318.143709 156.861978 318.143709 
z
" clip-path="url(#p19796d7601)" style="fill: #d3d3d3; stroke: #000000"/>
    <path d="M 259.561646 318.172151 
C 260.108376 318.172151 260.632788 317.954932 261.019384 317.568336 
C 261.405981 317.181739 261.623199 316.657328 261.623199 316.110598 
C 261.623199 315.563868 261.405981 315.039456 261.019384 314.65286 
C 260.632788 314.266263 260.108376 314.049045 259.561646 314.049045 
C 259.014916 314.049045 258.490505 314.266263 258.103908 314.65286 
C 257.717312 315.039456 257.500093 315.563868 257.500093 316.110598 
C 257.500093 316.657328 257.717312 317.181739 258.103908 317.568336 
C 258.490505 317.954932 259.014916 318.172151 259.561646 318.172151 
z
" clip-path="url(#p19796d7601)" style="fill: #d3d3d3; stroke: #000000"/>
    <path d="M 165.960401 318.314117 
C 166.507131 318.314117 167.031542 318.096899 167.418139 317.710302 
C 167.804736 317.323705 168.021954 316.799294 168.021954 316.252564 
C 168.021954 315.705834 167.804736 315.181423 167.418139 314.794826 
C 167.031542 314.408229 166.507131 314.191011 165.960401 314.191011 
C 165.413671 314.191011 164.88926 314.408229 164.502663 314.794826 
C 164.116066 315.181423 163.898848 315.705834 163.898848 316.252564 
C 163.898848 316.799294 164.116066 317.323705 164.502663 317.710302 
C 164.88926 318.096899 165.413671 318.314117 165.960401 318.314117 
z
" clip-path="url(#p19796d7601)" style="fill: #d3d3d3; stroke: #000000"/>
    <path d="M 347.466455 318.469265 
C 348.044452 318.469265 348.598853 318.239624 349.007559 317.830919 
C 349.416264 317.422213 349.645905 316.867812 349.645905 316.289815 
C 349.645905 315.711818 349.416264 315.157417 349.007559 314.748712 
C 348.598853 314.340006 348.044452 314.110366 347.466455 314.110366 
C 346.888459 314.110366 346.334057 314.340006 345.925352 314.748712 
C 345.516646 315.157417 345.287006 315.711818 345.287006 316.289815 
C 345.287006 316.867812 345.516646 317.422213 345.925352 317.830919 
C 346.334057 318.239624 346.888459 318.469265 347.466455 318.469265 
z
" clip-path="url(#p19796d7601)" style="fill: #d3d3d3; stroke: #000000"/>
    <path d="M 375.661639 318.411711 
C 376.208369 318.411711 376.73278 318.194493 377.119377 317.807896 
C 377.505973 317.4213 377.723191 316.896888 377.723191 316.350158 
C 377.723191 315.803428 377.505973 315.279017 377.119377 314.89242 
C 376.73278 314.505824 376.208369 314.288605 375.661639 314.288605 
C 375.114908 314.288605 374.590497 314.505824 374.203901 314.89242 
C 373.817304 315.279017 373.600086 315.803428 373.600086 316.350158 
C 373.600086 316.896888 373.817304 317.4213 374.203901 317.807896 
C 374.590497 318.194493 375.114908 318.411711 375.661639 318.411711 
z
" clip-path="url(#p19796d7601)" style="fill: #d3d3d3; stroke: #000000"/>
    <path d="M 136.125498 318.741373 
C 136.672228 318.741373 137.196639 318.524155 137.583236 318.137559 
C 137.969833 317.750962 138.187051 317.226551 138.187051 316.679821 
C 138.187051 316.13309 137.969833 315.608679 137.583236 315.222083 
C 137.196639 314.835486 136.672228 314.618268 136.125498 314.618268 
C 135.578768 314.618268 135.054357 314.835486 134.66776 315.222083 
C 134.281163 315.608679 134.063945 316.13309 134.063945 316.679821 
C 134.063945 317.226551 134.281163 317.750962 134.66776 318.137559 
C 135.054357 318.524155 135.578768 318.741373 136.125498 318.741373 
z
" clip-path="url(#p19796d7601)" style="fill: #d3d3d3; stroke: #000000"/>
    <path d="M 280.847652 318.989704 
C 281.394383 318.989704 281.918794 318.772486 282.30539 318.38589 
C 282.691987 317.999293 282.909205 317.474882 282.909205 316.928152 
C 282.909205 316.381421 282.691987 315.85701 282.30539 315.470414 
C 281.918794 315.083817 281.394383 314.866599 280.847652 314.866599 
C 280.300922 314.866599 279.776511 315.083817 279.389914 315.470414 
C 279.003318 315.85701 278.7861 316.381421 278.7861 316.928152 
C 278.7861 317.474882 279.003318 317.999293 279.389914 318.38589 
C 279.776511 318.772486 280.300922 318.989704 280.847652 318.989704 
z
" clip-path="url(#p19796d7601)" style="fill: #d3d3d3; stroke: #000000"/>
    <path d="M 121.822582 196.255609 
C 122.369312 196.255609 122.893723 196.038391 123.28032 195.651794 
C 123.666917 195.265198 123.884135 194.740787 123.884135 194.194056 
C 123.884135 193.647326 123.666917 193.122915 123.28032 192.736318 
C 122.893723 192.349722 122.369312 192.132504 121.822582 192.132504 
C 121.275852 192.132504 120.751441 192.349722 120.364844 192.736318 
C 119.978247 193.122915 119.761029 193.647326 119.761029 194.194056 
C 119.761029 194.740787 119.978247 195.265198 120.364844 195.651794 
C 120.751441 196.038391 121.275852 196.255609 121.822582 196.255609 
z
" clip-path="url(#p19796d7601)" style="fill: #d3d3d3; stroke: #000000"/>
    <path d="M 141.551339 319.644646 
C 142.187273 319.644646 142.797247 319.391987 143.246921 318.942313 
C 143.696595 318.492639 143.949254 317.882665 143.949254 317.246731 
C 143.949254 316.610796 143.696595 316.000822 143.246921 315.551148 
C 142.797247 315.101474 142.187273 314.848815 141.551339 314.848815 
C 140.915404 314.848815 140.30543 315.101474 139.855756 315.551148 
C 139.406082 316.000822 139.153423 316.610796 139.153423 317.246731 
C 139.153423 317.882665 139.406082 318.492639 139.855756 318.942313 
C 140.30543 319.391987 140.915404 319.644646 141.551339 319.644646 
z
" clip-path="url(#p19796d7601)" style="fill: #d3d3d3; stroke: #000000"/>
    <path d="M 112.202016 319.891322 
C 112.748746 319.891322 113.273157 319.674104 113.659754 319.287507 
C 114.046351 318.900911 114.263569 318.376499 114.263569 317.829769 
C 114.263569 317.283039 114.046351 316.758628 113.659754 316.372031 
C 113.273157 315.985435 112.748746 315.768216 112.202016 315.768216 
C 111.655286 315.768216 111.130875 315.985435 110.744278 316.372031 
C 110.357681 316.758628 110.140463 317.283039 110.140463 317.829769 
C 110.140463 318.376499 110.357681 318.900911 110.744278 319.287507 
C 111.130875 319.674104 111.655286 319.891322 112.202016 319.891322 
z
" clip-path="url(#p19796d7601)" style="fill: #d3d3d3; stroke: #000000"/>
    <path d="M 222.930686 190.414892 
C 223.461092 190.414892 223.969845 190.204159 224.344899 189.829105 
C 224.719953 189.454052 224.930686 188.945298 224.930686 188.414892 
C 224.930686 187.884486 224.719953 187.375732 224.344899 187.000678 
C 223.969845 186.625624 223.461092 186.414892 222.930686 186.414892 
C 222.40028 186.414892 221.891526 186.625624 221.516472 187.000678 
C 221.141418 187.375732 220.930686 187.884486 220.930686 188.414892 
C 220.930686 188.945298 221.141418 189.454052 221.516472 189.829105 
C 221.891526 190.204159 222.40028 190.414892 222.930686 190.414892 
z
" clip-path="url(#p19796d7601)" style="fill: #d3d3d3; stroke: #000000"/>
    <path d="M 138.734641 320.076833 
C 139.281371 320.076833 139.805782 319.859615 140.192379 319.473018 
C 140.578976 319.086422 140.796194 318.56201 140.796194 318.01528 
C 140.796194 317.46855 140.578976 316.944139 140.192379 316.557542 
C 139.805782 316.170946 139.281371 315.953727 138.734641 315.953727 
C 138.187911 315.953727 137.6635 316.170946 137.276903 316.557542 
C 136.890306 316.944139 136.673088 317.46855 136.673088 318.01528 
C 136.673088 318.56201 136.890306 319.086422 137.276903 319.473018 
C 137.6635 319.859615 138.187911 320.076833 138.734641 320.076833 
z
" clip-path="url(#p19796d7601)" style="fill: #d3d3d3; stroke: #000000"/>
    <path d="M 334.076908 320.173376 
C 334.623638 320.173376 335.148049 319.956158 335.534646 319.569561 
C 335.921242 319.182964 336.138461 318.658553 336.138461 318.111823 
C 336.138461 317.565093 335.921242 317.040682 335.534646 316.654085 
C 335.148049 316.267488 334.623638 316.05027 334.076908 316.05027 
C 333.530178 316.05027 333.005767 316.267488 332.61917 316.654085 
C 332.232573 317.040682 332.015355 317.565093 332.015355 318.111823 
C 332.015355 318.658553 332.232573 319.182964 332.61917 319.569561 
C 333.005767 319.956158 333.530178 320.173376 334.076908 320.173376 
z
" clip-path="url(#p19796d7601)" style="fill: #d3d3d3; stroke: #000000"/>
    <path d="M 288.096956 320.179818 
C 288.643686 320.179818 289.168097 319.9626 289.554694 319.576003 
C 289.94129 319.189407 290.158508 318.664996 290.158508 318.118265 
C 290.158508 317.571535 289.94129 317.047124 289.554694 316.660527 
C 289.168097 316.273931 288.643686 316.056713 288.096956 316.056713 
C 287.550225 316.056713 287.025814 316.273931 286.639218 316.660527 
C 286.252621 317.047124 286.035403 317.571535 286.035403 318.118265 
C 286.035403 318.664996 286.252621 319.189407 286.639218 319.576003 
C 287.025814 319.9626 287.550225 320.179818 288.096956 320.179818 
z
" clip-path="url(#p19796d7601)" style="fill: #d3d3d3; stroke: #000000"/>
    <path d="M 299.624429 320.508029 
C 300.202425 320.508029 300.756827 320.278388 301.165532 319.869683 
C 301.574238 319.460978 301.803878 318.906576 301.803878 318.32858 
C 301.803878 317.750583 301.574238 317.196181 301.165532 316.787476 
C 300.756827 316.378771 300.202425 316.14913 299.624429 316.14913 
C 299.046432 316.14913 298.492031 316.378771 298.083325 316.787476 
C 297.67462 317.196181 297.444979 317.750583 297.444979 318.32858 
C 297.444979 318.906576 297.67462 319.460978 298.083325 319.869683 
C 298.492031 320.278388 299.046432 320.508029 299.624429 320.508029 
z
" clip-path="url(#p19796d7601)" style="fill: #d3d3d3; stroke: #000000"/>
    <path d="M 343.362802 320.543295 
C 343.909532 320.543295 344.433943 320.326076 344.82054 319.93948 
C 345.207136 319.552883 345.424355 319.028472 345.424355 318.481742 
C 345.424355 317.935012 345.207136 317.4106 344.82054 317.024004 
C 344.433943 316.637407 343.909532 316.420189 343.362802 316.420189 
C 342.816072 316.420189 342.291661 316.637407 341.905064 317.024004 
C 341.518467 317.4106 341.301249 317.935012 341.301249 318.481742 
C 341.301249 319.028472 341.518467 319.552883 341.905064 319.93948 
C 342.291661 320.326076 342.816072 320.543295 343.362802 320.543295 
z
" clip-path="url(#p19796d7601)" style="fill: #d3d3d3; stroke: #000000"/>
    <path d="M 338.002989 320.955779 
C 338.610646 320.955779 339.193496 320.714354 339.623174 320.284676 
C 340.052852 319.854998 340.294277 319.272147 340.294277 318.664491 
C 340.294277 318.056834 340.052852 317.473984 339.623174 317.044305 
C 339.193496 316.614627 338.610646 316.373203 338.002989 316.373203 
C 337.395333 316.373203 336.812482 316.614627 336.382804 317.044305 
C 335.953126 317.473984 335.711701 318.056834 335.711701 318.664491 
C 335.711701 319.272147 335.953126 319.854998 336.382804 320.284676 
C 336.812482 320.714354 337.395333 320.955779 338.002989 320.955779 
z
" clip-path="url(#p19796d7601)" style="fill: #d3d3d3; stroke: #000000"/>
    <path d="M 306.149316 321.032661 
C 306.756973 321.032661 307.339823 320.791236 307.769501 320.361558 
C 308.19918 319.93188 308.440604 319.34903 308.440604 318.741373 
C 308.440604 318.133717 308.19918 317.550866 307.769501 317.121188 
C 307.339823 316.69151 306.756973 316.450085 306.149316 316.450085 
C 305.54166 316.450085 304.958809 316.69151 304.529131 317.121188 
C 304.099453 317.550866 303.858028 318.133717 303.858028 318.741373 
C 303.858028 319.34903 304.099453 319.93188 304.529131 320.361558 
C 304.958809 320.791236 305.54166 321.032661 306.149316 321.032661 
z
" clip-path="url(#p19796d7601)" style="fill: #d3d3d3; stroke: #000000"/>
    <path d="M 129.560672 321.351529 
C 130.138669 321.351529 130.69307 321.121889 131.101776 320.713183 
C 131.510481 320.304478 131.740122 319.750077 131.740122 319.17208 
C 131.740122 318.594083 131.510481 318.039682 131.101776 317.630976 
C 130.69307 317.222271 130.138669 316.99263 129.560672 316.99263 
C 128.982675 316.99263 128.428274 317.222271 128.019569 317.630976 
C 127.610863 318.039682 127.381223 318.594083 127.381223 319.17208 
C 127.381223 319.750077 127.610863 320.304478 128.019569 320.713183 
C 128.428274 321.121889 128.982675 321.351529 129.560672 321.351529 
z
" clip-path="url(#p19796d7601)" style="fill: #d3d3d3; stroke: #000000"/>
    <path d="M 359.873112 322.040028 
C 360.419842 322.040028 360.944253 321.82281 361.33085 321.436213 
C 361.717446 321.049617 361.934665 320.525205 361.934665 319.978475 
C 361.934665 319.431745 361.717446 318.907334 361.33085 318.520737 
C 360.944253 318.134141 360.419842 317.916922 359.873112 317.916922 
C 359.326382 317.916922 358.80197 318.134141 358.415374 318.520737 
C 358.028777 318.907334 357.811559 319.431745 357.811559 319.978475 
C 357.811559 320.525205 358.028777 321.049617 358.415374 321.436213 
C 358.80197 321.82281 359.326382 322.040028 359.873112 322.040028 
z
" clip-path="url(#p19796d7601)" style="fill: #d3d3d3; stroke: #000000"/>
    <path d="M 336.028268 322.441975 
C 336.635925 322.441975 337.218775 322.200551 337.648454 321.770873 
C 338.078132 321.341194 338.319556 320.758344 338.319556 320.150687 
C 338.319556 319.543031 338.078132 318.96018 337.648454 318.530502 
C 337.218775 318.100824 336.635925 317.8594 336.028268 317.8594 
C 335.420612 317.8594 334.837761 318.100824 334.408083 318.530502 
C 333.978405 318.96018 333.736981 319.543031 333.736981 320.150687 
C 333.736981 320.758344 333.978405 321.341194 334.408083 321.770873 
C 334.837761 322.200551 335.420612 322.441975 336.028268 322.441975 
z
" clip-path="url(#p19796d7601)" style="fill: #d3d3d3; stroke: #000000"/>
    <path d="M 327.389577 322.792948 
C 328.052584 322.792948 328.688526 322.529532 329.157344 322.060715 
C 329.626161 321.591898 329.889577 320.955956 329.889577 320.292948 
C 329.889577 319.62994 329.626161 318.993999 329.157344 318.525181 
C 328.688526 318.056364 328.052584 317.792948 327.389577 317.792948 
C 326.726569 317.792948 326.090627 318.056364 325.62181 318.525181 
C 325.152992 318.993999 324.889577 319.62994 324.889577 320.292948 
C 324.889577 320.955956 325.152992 321.591898 325.62181 322.060715 
C 326.090627 322.529532 326.726569 322.792948 327.389577 322.792948 
z
" clip-path="url(#p19796d7601)" style="fill: #d3d3d3; stroke: #000000"/>
    <path d="M 102.166864 132.635724 
C 102.69727 132.635724 103.206024 132.424992 103.581077 132.049938 
C 103.956131 131.674884 104.166864 131.16613 104.166864 130.635724 
C 104.166864 130.105318 103.956131 129.596564 103.581077 129.221511 
C 103.206024 128.846457 102.69727 128.635724 102.166864 128.635724 
C 101.636458 128.635724 101.127704 128.846457 100.75265 129.221511 
C 100.377596 129.596564 100.166864 130.105318 100.166864 130.635724 
C 100.166864 131.16613 100.377596 131.674884 100.75265 132.049938 
C 101.127704 132.424992 101.636458 132.635724 102.166864 132.635724 
z
" clip-path="url(#p19796d7601)" style="fill: #d3d3d3; stroke: #000000"/>
    <path d="M 298.927341 322.695112 
C 299.474071 322.695112 299.998482 322.477894 300.385079 322.091298 
C 300.771675 321.704701 300.988894 321.18029 300.988894 320.63356 
C 300.988894 320.086829 300.771675 319.562418 300.385079 319.175822 
C 299.998482 318.789225 299.474071 318.572007 298.927341 318.572007 
C 298.380611 318.572007 297.856199 318.789225 297.469603 319.175822 
C 297.083006 319.562418 296.865788 320.086829 296.865788 320.63356 
C 296.865788 321.18029 297.083006 321.704701 297.469603 322.091298 
C 297.856199 322.477894 298.380611 322.695112 298.927341 322.695112 
z
" clip-path="url(#p19796d7601)" style="fill: #d3d3d3; stroke: #000000"/>
    <path d="M 291.647299 324.042929 
C 292.194029 324.042929 292.71844 323.825711 293.105036 323.439114 
C 293.491633 323.052518 293.708851 322.528107 293.708851 321.981376 
C 293.708851 321.434646 293.491633 320.910235 293.105036 320.523638 
C 292.71844 320.137042 292.194029 319.919824 291.647299 319.919824 
C 291.100568 319.919824 290.576157 320.137042 290.189561 320.523638 
C 289.802964 320.910235 289.585746 321.434646 289.585746 321.981376 
C 289.585746 322.528107 289.802964 323.052518 290.189561 323.439114 
C 290.576157 323.825711 291.100568 324.042929 291.647299 324.042929 
z
" clip-path="url(#p19796d7601)" style="fill: #d3d3d3; stroke: #000000"/>
    <path d="M 334.642196 325.038976 
C 335.188926 325.038976 335.713337 324.821757 336.099934 324.435161 
C 336.486531 324.048564 336.703749 323.524153 336.703749 322.977423 
C 336.703749 322.430693 336.486531 321.906281 336.099934 321.519685 
C 335.713337 321.133088 335.188926 320.91587 334.642196 320.91587 
C 334.095466 320.91587 333.571055 321.133088 333.184458 321.519685 
C 332.797861 321.906281 332.580643 322.430693 332.580643 322.977423 
C 332.580643 323.524153 332.797861 324.048564 333.184458 324.435161 
C 333.571055 324.821757 334.095466 325.038976 334.642196 325.038976 
z
" clip-path="url(#p19796d7601)" style="fill: #d3d3d3; stroke: #000000"/>
    <path d="M 359.179412 325.93225 
C 359.726142 325.93225 360.250554 325.715032 360.63715 325.328435 
C 361.023747 324.941839 361.240965 324.417428 361.240965 323.870697 
C 361.240965 323.323967 361.023747 322.799556 360.63715 322.412959 
C 360.250554 322.026363 359.726142 321.809145 359.179412 321.809145 
C 358.632682 321.809145 358.108271 322.026363 357.721674 322.412959 
C 357.335078 322.799556 357.117859 323.323967 357.117859 323.870697 
C 357.117859 324.417428 357.335078 324.941839 357.721674 325.328435 
C 358.108271 325.715032 358.632682 325.93225 359.179412 325.93225 
z
" clip-path="url(#p19796d7601)" style="fill: #d3d3d3; stroke: #000000"/>
    <path d="M 303.321076 326.163883 
C 303.899073 326.163883 304.453474 325.934243 304.86218 325.525537 
C 305.270885 325.116832 305.500526 324.562431 305.500526 323.984434 
C 305.500526 323.406437 305.270885 322.852036 304.86218 322.44333 
C 304.453474 322.034625 303.899073 321.804984 303.321076 321.804984 
C 302.743079 321.804984 302.188678 322.034625 301.779973 322.44333 
C 301.371267 322.852036 301.141627 323.406437 301.141627 323.984434 
C 301.141627 324.562431 301.371267 325.116832 301.779973 325.525537 
C 302.188678 325.934243 302.743079 326.163883 303.321076 326.163883 
z
" clip-path="url(#p19796d7601)" style="fill: #d3d3d3; stroke: #000000"/>
    <path d="M 327.466565 326.114773 
C 328.013295 326.114773 328.537706 325.897555 328.924303 325.510958 
C 329.310899 325.124361 329.528117 324.59995 329.528117 324.05322 
C 329.528117 323.50649 329.310899 322.982079 328.924303 322.595482 
C 328.537706 322.208885 328.013295 321.991667 327.466565 321.991667 
C 326.919834 321.991667 326.395423 322.208885 326.008827 322.595482 
C 325.62223 322.982079 325.405012 323.50649 325.405012 324.05322 
C 325.405012 324.59995 325.62223 325.124361 326.008827 325.510958 
C 326.395423 325.897555 326.919834 326.114773 327.466565 326.114773 
z
" clip-path="url(#p19796d7601)" style="fill: #d3d3d3; stroke: #000000"/>
    <path d="M 335.984079 327.183454 
C 336.514486 327.183454 337.023239 326.972721 337.398293 326.597667 
C 337.773347 326.222613 337.984079 325.71386 337.984079 325.183454 
C 337.984079 324.653047 337.773347 324.144294 337.398293 323.76924 
C 337.023239 323.394186 336.514486 323.183454 335.984079 323.183454 
C 335.453673 323.183454 334.94492 323.394186 334.569866 323.76924 
C 334.194812 324.144294 333.984079 324.653047 333.984079 325.183454 
C 333.984079 325.71386 334.194812 326.222613 334.569866 326.597667 
C 334.94492 326.972721 335.453673 327.183454 335.984079 327.183454 
z
" clip-path="url(#p19796d7601)" style="fill: #d3d3d3; stroke: #000000"/>
    <path d="M 349.527677 328.076954 
C 350.074408 328.076954 350.598819 327.859736 350.985415 327.473139 
C 351.372012 327.086543 351.58923 326.562132 351.58923 326.015401 
C 351.58923 325.468671 351.372012 324.94426 350.985415 324.557663 
C 350.598819 324.171067 350.074408 323.953849 349.527677 323.953849 
C 348.980947 323.953849 348.456536 324.171067 348.069939 324.557663 
C 347.683343 324.94426 347.466124 325.468671 347.466124 326.015401 
C 347.466124 326.562132 347.683343 327.086543 348.069939 327.473139 
C 348.456536 327.859736 348.980947 328.076954 349.527677 328.076954 
z
" clip-path="url(#p19796d7601)" style="fill: #d3d3d3; stroke: #000000"/>
    <path d="M 294.271859 329.200612 
C 294.818589 329.200612 295.343 328.983394 295.729597 328.596797 
C 296.116194 328.210201 296.333412 327.685789 296.333412 327.139059 
C 296.333412 326.592329 296.116194 326.067918 295.729597 325.681321 
C 295.343 325.294725 294.818589 325.077506 294.271859 325.077506 
C 293.725129 325.077506 293.200718 325.294725 292.814121 325.681321 
C 292.427525 326.067918 292.210306 326.592329 292.210306 327.139059 
C 292.210306 327.685789 292.427525 328.210201 292.814121 328.596797 
C 293.200718 328.983394 293.725129 329.200612 294.271859 329.200612 
z
" clip-path="url(#p19796d7601)" style="fill: #d3d3d3; stroke: #000000"/>
   </g>
  </g>
 </g>
 <defs>
  <clipPath id="p19796d7601">
   <rect x="7.2" y="7.2" width="443.52" height="443.52"/>
  </clipPath>
 </defs>
</svg>
