<?xml version="1.0" encoding="UTF-8"?>
<svg xmlns="http://www.w3.org/2000/svg" xmlns:xlink="http://www.w3.org/1999/xlink" width="600pt" height="600pt" viewBox="0 0 600 600" version="1.1">
<g id="surface121">
<rect x="0" y="0" width="600" height="600" style="fill:rgb(100%,100%,100%);fill-opacity:1;stroke:none;"/>
<path style="fill:none;stroke-width:1.01;stroke-linecap:butt;stroke-linejoin:miter;stroke:rgb(100%,0%,0%);stroke-opacity:1;stroke-miterlimit:10;" d="M 283.414062 441.574219 L 255.214844 453.3125 "/>
<path style=" stroke:none;fill-rule:nonzero;fill:rgb(100%,0%,0%);fill-opacity:1;" d="M 251.269531 454.953125 L 254.675781 452.015625 L 255.753906 454.605469 L 251.269531 454.953125 "/>
<path style="fill:none;stroke-width:1.01;stroke-linecap:butt;stroke-linejoin:miter;stroke:rgb(100%,0%,0%);stroke-opacity:1;stroke-miterlimit:10;" d="M 248.683594 456.03125 L 217.042969 473.363281 "/>
<path style=" stroke:none;fill-rule:nonzero;fill:rgb(100%,0%,0%);fill-opacity:1;" d="M 213.292969 475.417969 L 216.367188 472.132812 L 217.71875 474.597656 L 213.292969 475.417969 "/>
<path style="fill:none;stroke-width:1.05;stroke-linecap:butt;stroke-linejoin:miter;stroke:rgb(100%,0%,0%);stroke-opacity:1;stroke-miterlimit:10;" d="M 207.679688 478.496094 L 224.472656 509.308594 "/>
<path style=" stroke:none;fill-rule:nonzero;fill:rgb(100%,0%,0%);fill-opacity:1;" d="M 226.511719 513.046875 L 223.195312 510.007812 L 225.753906 508.613281 L 226.511719 513.046875 "/>
<path style="fill:none;stroke-width:1.01;stroke-linecap:butt;stroke-linejoin:miter;stroke:rgb(100%,0%,0%);stroke-opacity:1;stroke-miterlimit:10;" d="M 228.566406 516.824219 L 239.101562 550.101562 "/>
<path style=" stroke:none;fill-rule:nonzero;fill:rgb(100%,0%,0%);fill-opacity:1;" d="M 240.394531 554.175781 L 237.765625 550.523438 L 240.441406 549.675781 L 240.394531 554.175781 "/>
<path style="fill:none;stroke-width:1.01;stroke-linecap:butt;stroke-linejoin:miter;stroke:rgb(0%,0%,100%);stroke-opacity:1;stroke-miterlimit:10;" d="M 241.238281 556.84375 L 224.199219 535.269531 "/>
<path style=" stroke:none;fill-rule:nonzero;fill:rgb(0%,0%,100%);fill-opacity:1;" d="M 221.546875 531.914062 L 225.300781 534.398438 L 223.09375 536.136719 L 221.546875 531.914062 "/>
<path style="fill:none;stroke-width:1.01;stroke-linecap:butt;stroke-linejoin:miter;stroke:rgb(100%,0%,0%);stroke-opacity:1;stroke-miterlimit:10;" d="M 218.882812 528.539062 C 234.878906 542.527344 250.570312 535.160156 269.738281 532.363281 "/>
<path style=" stroke:none;fill-rule:nonzero;fill:rgb(100%,0%,0%);fill-opacity:1;" d="M 265.507812 532.980469 L 269.539062 530.976562 L 269.941406 533.753906 L 265.507812 532.980469 "/>
<path style="fill:none;stroke-width:1.01;stroke-linecap:butt;stroke-linejoin:miter;stroke:rgb(0%,0%,100%);stroke-opacity:1;stroke-miterlimit:10;" d="M 262.746094 533.386719 C 252.546875 522.15625 241.394531 522.914062 226.996094 526.511719 "/>
<path style=" stroke:none;fill-rule:nonzero;fill:rgb(0%,0%,100%);fill-opacity:1;" d="M 222.847656 527.546875 L 226.65625 525.148438 L 227.335938 527.871094 L 222.847656 527.546875 "/>
<path style="fill:none;stroke-width:1.03;stroke-linecap:butt;stroke-linejoin:miter;stroke:rgb(0%,0%,100%);stroke-opacity:1;stroke-miterlimit:10;" d="M 218.882812 528.539062 L 210.011719 488.902344 "/>
<path style=" stroke:none;fill-rule:nonzero;fill:rgb(0%,0%,100%);fill-opacity:1;" d="M 209.078125 484.738281 L 211.40625 488.589844 L 208.613281 489.214844 L 209.078125 484.738281 "/>
<path style="fill:none;stroke-width:1.01;stroke-linecap:butt;stroke-linejoin:miter;stroke:rgb(100%,0%,0%);stroke-opacity:1;stroke-miterlimit:10;" d="M 207.679688 478.496094 C 194.839844 483.054688 193.027344 504.582031 189.59375 505.742188 "/>
<path style=" stroke:none;fill-rule:nonzero;fill:rgb(100%,0%,0%);fill-opacity:1;" d="M 185.542969 507.117188 L 189.140625 504.414062 L 190.042969 507.074219 L 185.542969 507.117188 "/>
<path style="fill:none;stroke-width:1.02;stroke-linecap:butt;stroke-linejoin:miter;stroke:rgb(0%,0%,100%);stroke-opacity:1;stroke-miterlimit:10;" d="M 182.296875 508.214844 C 201.984375 507.027344 212.421875 478.089844 218.386719 477.582031 "/>
<path style=" stroke:none;fill-rule:nonzero;fill:rgb(0%,0%,100%);fill-opacity:1;" d="M 214.132812 477.945312 L 218.265625 476.171875 L 218.507812 478.996094 L 214.132812 477.945312 "/>
<path style="fill:none;stroke-width:1.02;stroke-linecap:butt;stroke-linejoin:miter;stroke:rgb(100%,0%,0%);stroke-opacity:1;stroke-miterlimit:10;" d="M 207.679688 478.496094 C 225.742188 478.386719 236.273438 452.617188 242.207031 452.277344 "/>
<path style=" stroke:none;fill-rule:nonzero;fill:rgb(100%,0%,0%);fill-opacity:1;" d="M 237.941406 452.523438 L 242.125 450.863281 L 242.289062 453.691406 L 237.941406 452.523438 "/>
<path style="fill:none;stroke-width:1.02;stroke-linecap:butt;stroke-linejoin:miter;stroke:rgb(0%,0%,100%);stroke-opacity:1;stroke-miterlimit:10;" d="M 234.941406 452.695312 C 223.683594 455.773438 221.6875 473.390625 217.761719 474.820312 "/>
<path style=" stroke:none;fill-rule:nonzero;fill:rgb(0%,0%,100%);fill-opacity:1;" d="M 213.75 476.285156 L 217.277344 473.488281 L 218.246094 476.152344 L 213.75 476.285156 "/>
<path style="fill:none;stroke-width:1.01;stroke-linecap:butt;stroke-linejoin:miter;stroke:rgb(100%,0%,0%);stroke-opacity:1;stroke-miterlimit:10;" d="M 228.566406 516.824219 L 246.230469 540.066406 "/>
<path style=" stroke:none;fill-rule:nonzero;fill:rgb(100%,0%,0%);fill-opacity:1;" d="M 248.816406 543.46875 L 245.109375 540.914062 L 247.347656 539.214844 L 248.816406 543.46875 "/>
<path style="fill:none;stroke-width:1.01;stroke-linecap:butt;stroke-linejoin:miter;stroke:rgb(0%,0%,100%);stroke-opacity:1;stroke-miterlimit:10;" d="M 250.507812 545.699219 L 226.421875 532.628906 "/>
<path style=" stroke:none;fill-rule:nonzero;fill:rgb(0%,0%,100%);fill-opacity:1;" d="M 222.664062 530.589844 L 227.089844 531.394531 L 225.75 533.863281 L 222.664062 530.589844 "/>
<path style="fill:none;stroke-width:1.01;stroke-linecap:butt;stroke-linejoin:miter;stroke:rgb(100%,0%,0%);stroke-opacity:1;stroke-miterlimit:10;" d="M 207.679688 478.496094 C 202.945312 488.925781 207.871094 507.164062 213.609375 505.339844 "/>
<path style=" stroke:none;fill-rule:nonzero;fill:rgb(100%,0%,0%);fill-opacity:1;" d="M 209.535156 506.636719 L 213.183594 504.003906 L 214.035156 506.679688 L 209.535156 506.636719 "/>
<path style="fill:none;stroke-width:1.02;stroke-linecap:butt;stroke-linejoin:miter;stroke:rgb(0%,0%,100%);stroke-opacity:1;stroke-miterlimit:10;" d="M 206.660156 507.546875 C 218.222656 500.367188 220.46875 476.863281 218.515625 477.113281 "/>
<path style=" stroke:none;fill-rule:nonzero;fill:rgb(0%,0%,100%);fill-opacity:1;" d="M 214.28125 477.652344 L 218.339844 475.707031 L 218.695312 478.519531 L 214.28125 477.652344 "/>
<path style="fill:none;stroke-width:1.01;stroke-linecap:butt;stroke-linejoin:miter;stroke:rgb(100%,0%,0%);stroke-opacity:1;stroke-miterlimit:10;" d="M 228.566406 516.824219 L 211.453125 552.765625 "/>
<path style=" stroke:none;fill-rule:nonzero;fill:rgb(100%,0%,0%);fill-opacity:1;" d="M 209.617188 556.625 L 210.1875 552.160156 L 212.722656 553.367188 L 209.617188 556.625 "/>
<path style="fill:none;stroke-width:1.01;stroke-linecap:butt;stroke-linejoin:miter;stroke:rgb(0%,0%,100%);stroke-opacity:1;stroke-miterlimit:10;" d="M 208.410156 559.152344 L 178.746094 543.113281 "/>
<path style=" stroke:none;fill-rule:nonzero;fill:rgb(0%,0%,100%);fill-opacity:1;" d="M 174.984375 541.082031 L 179.414062 541.878906 L 178.078125 544.347656 L 174.984375 541.082031 "/>
<path style="fill:none;stroke-width:1.01;stroke-linecap:butt;stroke-linejoin:miter;stroke:rgb(0%,0%,100%);stroke-opacity:1;stroke-miterlimit:10;" d="M 171.996094 539.464844 L 188.722656 507.273438 "/>
<path style=" stroke:none;fill-rule:nonzero;fill:rgb(0%,0%,100%);fill-opacity:1;" d="M 190.695312 503.480469 L 189.96875 507.921875 L 187.476562 506.625 L 190.695312 503.480469 "/>
<path style="fill:none;stroke-width:1.01;stroke-linecap:butt;stroke-linejoin:miter;stroke:rgb(100%,0%,0%);stroke-opacity:1;stroke-miterlimit:10;" d="M 193.089844 498.863281 C 210.332031 495.871094 218.621094 468.535156 221.878906 468.289062 "/>
<path style=" stroke:none;fill-rule:nonzero;fill:rgb(100%,0%,0%);fill-opacity:1;" d="M 217.613281 468.613281 L 221.769531 466.890625 L 221.984375 469.6875 L 217.613281 468.613281 "/>
<path style="fill:none;stroke-width:1.01;stroke-linecap:butt;stroke-linejoin:miter;stroke:rgb(0%,0%,100%);stroke-opacity:1;stroke-miterlimit:10;" d="M 214.710938 468.832031 C 203.863281 474.652344 203.777344 495.097656 202.265625 495.628906 "/>
<path style=" stroke:none;fill-rule:nonzero;fill:rgb(0%,0%,100%);fill-opacity:1;" d="M 198.234375 497.050781 L 201.800781 494.304688 L 202.734375 496.953125 L 198.234375 497.050781 "/>
<path style="fill:none;stroke-width:1.02;stroke-linecap:butt;stroke-linejoin:miter;stroke:rgb(100%,0%,0%);stroke-opacity:1;stroke-miterlimit:10;" d="M 193.089844 498.863281 L 184.328125 538.542969 "/>
<path style=" stroke:none;fill-rule:nonzero;fill:rgb(100%,0%,0%);fill-opacity:1;" d="M 183.40625 542.714844 L 182.941406 538.238281 L 185.710938 538.851562 L 183.40625 542.714844 "/>
<path style="fill:none;stroke-width:1.01;stroke-linecap:butt;stroke-linejoin:miter;stroke:rgb(100%,0%,0%);stroke-opacity:1;stroke-miterlimit:10;" d="M 182.671875 546.035156 L 196.644531 566.074219 "/>
<path style=" stroke:none;fill-rule:nonzero;fill:rgb(100%,0%,0%);fill-opacity:1;" d="M 199.089844 569.582031 L 195.492188 566.878906 L 197.796875 565.273438 L 199.089844 569.582031 "/>
<path style="fill:none;stroke-width:1.01;stroke-linecap:butt;stroke-linejoin:miter;stroke:rgb(0%,0%,100%);stroke-opacity:1;stroke-miterlimit:10;" d="M 200.691406 571.878906 L 215.5625 536.445312 "/>
<path style=" stroke:none;fill-rule:nonzero;fill:rgb(0%,0%,100%);fill-opacity:1;" d="M 217.21875 532.503906 L 216.859375 536.988281 L 214.269531 535.902344 L 217.21875 532.503906 "/>
<path style="fill:none;stroke-width:1.02;stroke-linecap:butt;stroke-linejoin:miter;stroke:rgb(0%,0%,100%);stroke-opacity:1;stroke-miterlimit:10;" d="M 218.882812 528.539062 C 221.238281 514.035156 214.40625 495.328125 202.515625 497.300781 "/>
<path style=" stroke:none;fill-rule:nonzero;fill:rgb(0%,0%,100%);fill-opacity:1;" d="M 198.304688 498 L 202.285156 495.902344 L 202.75 498.699219 L 198.304688 498 "/>
<path style="fill:none;stroke-width:1.02;stroke-linecap:butt;stroke-linejoin:miter;stroke:rgb(100%,0%,0%);stroke-opacity:1;stroke-miterlimit:10;" d="M 193.089844 498.863281 C 192.976562 501.699219 191.078125 502.710938 188.792969 504.144531 "/>
<path style=" stroke:none;fill-rule:nonzero;fill:rgb(100%,0%,0%);fill-opacity:1;" d="M 185.175781 506.410156 L 188.039062 502.941406 L 189.546875 505.34375 L 185.175781 506.410156 "/>
<path style="fill:none;stroke-width:1.02;stroke-linecap:butt;stroke-linejoin:miter;stroke:rgb(100%,0%,0%);stroke-opacity:1;stroke-miterlimit:10;" d="M 207.679688 478.496094 L 177.007812 465.34375 "/>
<path style=" stroke:none;fill-rule:nonzero;fill:rgb(100%,0%,0%);fill-opacity:1;" d="M 173.082031 463.660156 L 177.566406 464.039062 L 176.449219 466.644531 L 173.082031 463.660156 "/>
<path style="fill:none;stroke-width:1.01;stroke-linecap:butt;stroke-linejoin:miter;stroke:rgb(0%,0%,100%);stroke-opacity:1;stroke-miterlimit:10;" d="M 169.957031 462.320312 L 140.839844 452.03125 "/>
<path style=" stroke:none;fill-rule:nonzero;fill:rgb(0%,0%,100%);fill-opacity:1;" d="M 136.808594 450.605469 L 141.308594 450.707031 L 140.375 453.355469 L 136.808594 450.605469 "/>
<path style="fill:none;stroke-width:1.02;stroke-linecap:butt;stroke-linejoin:miter;stroke:rgb(100%,0%,0%);stroke-opacity:1;stroke-miterlimit:10;" d="M 131.625 448.773438 C 118.78125 457.496094 119.773438 483.929688 119.523438 484.015625 "/>
<path style=" stroke:none;fill-rule:nonzero;fill:rgb(100%,0%,0%);fill-opacity:1;" d="M 115.484375 485.398438 L 119.066406 482.675781 L 119.984375 485.355469 L 115.484375 485.398438 "/>
<path style="fill:none;stroke-width:1.02;stroke-linecap:butt;stroke-linejoin:miter;stroke:rgb(100%,0%,0%);stroke-opacity:1;stroke-miterlimit:10;" d="M 111.910156 486.621094 C 104.339844 494.675781 106.328125 513.742188 108.976562 512.980469 "/>
<path style=" stroke:none;fill-rule:nonzero;fill:rgb(100%,0%,0%);fill-opacity:1;" d="M 104.871094 514.164062 L 108.582031 511.617188 L 109.367188 514.339844 L 104.871094 514.164062 "/>
<path style="fill:none;stroke-width:1.01;stroke-linecap:butt;stroke-linejoin:miter;stroke:rgb(0%,0%,100%);stroke-opacity:1;stroke-miterlimit:10;" d="M 101.886719 515.023438 C 115.222656 509.691406 119.316406 485.644531 119.808594 485.578125 "/>
<path style=" stroke:none;fill-rule:nonzero;fill:rgb(0%,0%,100%);fill-opacity:1;" d="M 115.570312 486.136719 L 119.625 484.1875 L 119.992188 486.972656 L 115.570312 486.136719 "/>
<path style="fill:none;stroke-width:1.01;stroke-linecap:butt;stroke-linejoin:miter;stroke:rgb(100%,0%,0%);stroke-opacity:1;stroke-miterlimit:10;" d="M 111.910156 486.621094 L 85.285156 491.347656 "/>
<path style=" stroke:none;fill-rule:nonzero;fill:rgb(100%,0%,0%);fill-opacity:1;" d="M 81.078125 492.09375 L 85.042969 489.964844 L 85.53125 492.730469 L 81.078125 492.09375 "/>
<path style="fill:none;stroke-width:1.01;stroke-linecap:butt;stroke-linejoin:miter;stroke:rgb(0%,0%,100%);stroke-opacity:1;stroke-miterlimit:10;" d="M 78.320312 492.582031 L 104.023438 475.578125 "/>
<path style=" stroke:none;fill-rule:nonzero;fill:rgb(0%,0%,100%);fill-opacity:1;" d="M 107.589844 473.21875 L 104.800781 476.75 L 103.25 474.410156 L 107.589844 473.21875 "/>
<path style="fill:none;stroke-width:1.01;stroke-linecap:butt;stroke-linejoin:miter;stroke:rgb(100%,0%,0%);stroke-opacity:1;stroke-miterlimit:10;" d="M 110.925781 471.015625 L 90.671875 501.269531 "/>
<path style=" stroke:none;fill-rule:nonzero;fill:rgb(100%,0%,0%);fill-opacity:1;" d="M 88.292969 504.824219 L 89.503906 500.488281 L 91.839844 502.050781 L 88.292969 504.824219 "/>
<path style="fill:none;stroke-width:1.01;stroke-linecap:butt;stroke-linejoin:miter;stroke:rgb(0%,0%,100%);stroke-opacity:1;stroke-miterlimit:10;" d="M 86.738281 507.148438 L 105.726562 491.660156 "/>
<path style=" stroke:none;fill-rule:nonzero;fill:rgb(0%,0%,100%);fill-opacity:1;" d="M 109.042969 488.960938 L 106.617188 492.75 L 104.839844 490.574219 L 109.042969 488.960938 "/>
<path style="fill:none;stroke-width:1.01;stroke-linecap:butt;stroke-linejoin:miter;stroke:rgb(0%,0%,100%);stroke-opacity:1;stroke-miterlimit:10;" d="M 111.910156 486.621094 C 131.359375 481.050781 139.34375 448.085938 141.230469 447.917969 "/>
<path style=" stroke:none;fill-rule:nonzero;fill:rgb(0%,0%,100%);fill-opacity:1;" d="M 136.96875 448.296875 L 141.105469 446.519531 L 141.355469 449.316406 L 136.96875 448.296875 "/>
<path style="fill:none;stroke-width:1.01;stroke-linecap:butt;stroke-linejoin:miter;stroke:rgb(100%,0%,0%);stroke-opacity:1;stroke-miterlimit:10;" d="M 131.625 448.773438 C 143.53125 452.164062 151.425781 439.292969 159.371094 438.132812 "/>
<path style=" stroke:none;fill-rule:nonzero;fill:rgb(100%,0%,0%);fill-opacity:1;" d="M 155.140625 438.75 L 159.167969 436.746094 L 159.574219 439.523438 L 155.140625 438.75 "/>
<path style="fill:none;stroke-width:1.01;stroke-linecap:butt;stroke-linejoin:miter;stroke:rgb(0%,0%,100%);stroke-opacity:1;stroke-miterlimit:10;" d="M 152.128906 439.1875 C 146.621094 438.746094 144.046875 445.425781 140.917969 446.269531 "/>
<path style=" stroke:none;fill-rule:nonzero;fill:rgb(0%,0%,100%);fill-opacity:1;" d="M 136.789062 447.382812 L 140.554688 444.914062 L 141.28125 447.625 L 136.789062 447.382812 "/>
<path style="fill:none;stroke-width:1.01;stroke-linecap:butt;stroke-linejoin:miter;stroke:rgb(0%,0%,100%);stroke-opacity:1;stroke-miterlimit:10;" d="M 101.886719 515.023438 L 109.261719 479.121094 "/>
<path style=" stroke:none;fill-rule:nonzero;fill:rgb(0%,0%,100%);fill-opacity:1;" d="M 110.121094 474.933594 L 110.636719 479.402344 L 107.886719 478.835938 L 110.121094 474.933594 "/>
<path style="fill:none;stroke-width:1.03;stroke-linecap:butt;stroke-linejoin:miter;stroke:rgb(0%,0%,100%);stroke-opacity:1;stroke-miterlimit:10;" d="M 110.925781 471.015625 C 113.609375 454.683594 127.214844 451.675781 139.589844 443.527344 "/>
<path style=" stroke:none;fill-rule:nonzero;fill:rgb(0%,0%,100%);fill-opacity:1;" d="M 136.027344 445.871094 L 138.804688 442.332031 L 140.378906 444.722656 L 136.027344 445.871094 "/>
<path style="fill:none;stroke-width:1.02;stroke-linecap:butt;stroke-linejoin:miter;stroke:rgb(100%,0%,0%);stroke-opacity:1;stroke-miterlimit:10;" d="M 131.625 448.773438 C 131.546875 458.121094 125.652344 461.875 118.019531 466.613281 "/>
<path style=" stroke:none;fill-rule:nonzero;fill:rgb(100%,0%,0%);fill-opacity:1;" d="M 114.390625 468.863281 L 117.269531 465.40625 L 118.765625 467.816406 L 114.390625 468.863281 "/>
<path style="fill:none;stroke-width:1.01;stroke-linecap:butt;stroke-linejoin:miter;stroke:rgb(0%,0%,100%);stroke-opacity:1;stroke-miterlimit:10;" d="M 110.925781 471.015625 C 130.46875 466.617188 139.144531 434.6875 142.117188 434.425781 "/>
<path style=" stroke:none;fill-rule:nonzero;fill:rgb(0%,0%,100%);fill-opacity:1;" d="M 137.859375 434.800781 L 141.996094 433.027344 L 142.238281 435.828125 L 137.859375 434.800781 "/>
<path style="fill:none;stroke-width:1.01;stroke-linecap:butt;stroke-linejoin:miter;stroke:rgb(100%,0%,0%);stroke-opacity:1;stroke-miterlimit:10;" d="M 132.238281 435.289062 L 129.597656 423.804688 "/>
<path style=" stroke:none;fill-rule:nonzero;fill:rgb(100%,0%,0%);fill-opacity:1;" d="M 128.640625 419.636719 L 130.964844 423.488281 L 128.230469 424.117188 L 128.640625 419.636719 "/>
<path style="fill:none;stroke-width:1.01;stroke-linecap:butt;stroke-linejoin:miter;stroke:rgb(0%,0%,100%);stroke-opacity:1;stroke-miterlimit:10;" d="M 128.011719 416.90625 L 130.523438 439.058594 "/>
<path style=" stroke:none;fill-rule:nonzero;fill:rgb(0%,0%,100%);fill-opacity:1;" d="M 131.003906 443.308594 L 129.128906 439.21875 L 131.917969 438.902344 L 131.003906 443.308594 "/>
<path style="fill:none;stroke-width:1.01;stroke-linecap:butt;stroke-linejoin:miter;stroke:rgb(100%,0%,0%);stroke-opacity:1;stroke-miterlimit:10;" d="M 131.625 448.773438 C 146.664062 445.734375 153.320312 421.570312 156.125 421.289062 "/>
<path style=" stroke:none;fill-rule:nonzero;fill:rgb(100%,0%,0%);fill-opacity:1;" d="M 151.871094 421.714844 L 155.984375 419.890625 L 156.265625 422.683594 L 151.871094 421.714844 "/>
<path style="fill:none;stroke-width:1.01;stroke-linecap:butt;stroke-linejoin:miter;stroke:rgb(0%,0%,100%);stroke-opacity:1;stroke-miterlimit:10;" d="M 148.75 422.027344 C 148.023438 426.835938 144.203125 427.871094 140.433594 430.210938 "/>
<path style=" stroke:none;fill-rule:nonzero;fill:rgb(0%,0%,100%);fill-opacity:1;" d="M 136.800781 432.460938 L 139.691406 429.015625 L 141.171875 431.402344 L 136.800781 432.460938 "/>
<path style="fill:none;stroke-width:1.01;stroke-linecap:butt;stroke-linejoin:miter;stroke:rgb(100%,0%,0%);stroke-opacity:1;stroke-miterlimit:10;" d="M 132.238281 435.289062 C 120.816406 433.191406 114.863281 445.523438 107.289062 447.710938 "/>
<path style=" stroke:none;fill-rule:nonzero;fill:rgb(100%,0%,0%);fill-opacity:1;" d="M 103.179688 448.898438 L 106.898438 446.363281 L 107.675781 449.058594 L 103.179688 448.898438 "/>
<path style="fill:none;stroke-width:1.02;stroke-linecap:butt;stroke-linejoin:miter;stroke:rgb(100%,0%,0%);stroke-opacity:1;stroke-miterlimit:10;" d="M 99.144531 450.0625 C 86.605469 445.679688 78.683594 457.003906 68.757812 459.703125 "/>
<path style=" stroke:none;fill-rule:nonzero;fill:rgb(100%,0%,0%);fill-opacity:1;" d="M 64.636719 460.824219 L 68.382812 458.335938 L 69.128906 461.070312 L 64.636719 460.824219 "/>
<path style="fill:none;stroke-width:1.02;stroke-linecap:butt;stroke-linejoin:miter;stroke:rgb(0%,0%,100%);stroke-opacity:1;stroke-miterlimit:10;" d="M 61.503906 461.675781 C 80.058594 468.972656 93.628906 450.777344 107.636719 448.964844 "/>
<path style=" stroke:none;fill-rule:nonzero;fill:rgb(0%,0%,100%);fill-opacity:1;" d="M 103.402344 449.511719 L 107.453125 447.558594 L 107.816406 450.371094 L 103.402344 449.511719 "/>
<path style="fill:none;stroke-width:1.01;stroke-linecap:butt;stroke-linejoin:miter;stroke:rgb(100%,0%,0%);stroke-opacity:1;stroke-miterlimit:10;" d="M 99.144531 450.0625 C 83.269531 453.414062 79.257812 477.53125 73.492188 479.355469 "/>
<path style=" stroke:none;fill-rule:nonzero;fill:rgb(100%,0%,0%);fill-opacity:1;" d="M 69.417969 480.644531 L 73.070312 478.015625 L 73.917969 480.695312 L 69.417969 480.644531 "/>
<path style="fill:none;stroke-width:1.01;stroke-linecap:butt;stroke-linejoin:miter;stroke:rgb(0%,0%,100%);stroke-opacity:1;stroke-miterlimit:10;" d="M 66.835938 481.460938 C 88.445312 480.910156 100.136719 449.972656 107.53125 449.285156 "/>
<path style=" stroke:none;fill-rule:nonzero;fill:rgb(0%,0%,100%);fill-opacity:1;" d="M 103.273438 449.679688 L 107.398438 447.890625 L 107.660156 450.683594 L 103.273438 449.679688 "/>
<path style="fill:none;stroke-width:1.03;stroke-linecap:butt;stroke-linejoin:miter;stroke:rgb(0%,0%,100%);stroke-opacity:1;stroke-miterlimit:10;" d="M 99.144531 450.0625 C 117.292969 455.394531 129.738281 435.589844 141.667969 434.164062 "/>
<path style=" stroke:none;fill-rule:nonzero;fill:rgb(0%,0%,100%);fill-opacity:1;" d="M 137.433594 434.671875 L 141.5 432.746094 L 141.835938 435.585938 L 137.433594 434.671875 "/>
<path style="fill:none;stroke-width:1.01;stroke-linecap:butt;stroke-linejoin:miter;stroke:rgb(100%,0%,0%);stroke-opacity:1;stroke-miterlimit:10;" d="M 132.238281 435.289062 L 111.894531 422.042969 "/>
<path style=" stroke:none;fill-rule:nonzero;fill:rgb(100%,0%,0%);fill-opacity:1;" d="M 108.3125 419.710938 L 112.660156 420.867188 L 111.128906 423.21875 L 108.3125 419.710938 "/>
<path style="fill:none;stroke-width:1.01;stroke-linecap:butt;stroke-linejoin:miter;stroke:rgb(100%,0%,0%);stroke-opacity:1;stroke-miterlimit:10;" d="M 105.964844 418.179688 L 77.597656 420.183594 "/>
<path style=" stroke:none;fill-rule:nonzero;fill:rgb(100%,0%,0%);fill-opacity:1;" d="M 73.332031 420.484375 L 77.5 418.78125 L 77.695312 421.582031 L 73.332031 420.484375 "/>
<path style="fill:none;stroke-width:1.01;stroke-linecap:butt;stroke-linejoin:miter;stroke:rgb(0%,0%,100%);stroke-opacity:1;stroke-miterlimit:10;" d="M 70.539062 420.679688 L 93.164062 443.917969 "/>
<path style=" stroke:none;fill-rule:nonzero;fill:rgb(0%,0%,100%);fill-opacity:1;" d="M 96.144531 446.980469 L 92.15625 444.898438 L 94.167969 442.9375 L 96.144531 446.980469 "/>
<path style="fill:none;stroke-width:1.01;stroke-linecap:butt;stroke-linejoin:miter;stroke:rgb(100%,0%,0%);stroke-opacity:1;stroke-miterlimit:10;" d="M 132.238281 435.289062 C 119.507812 442.9375 119.84375 467.953125 118.808594 468.308594 "/>
<path style=" stroke:none;fill-rule:nonzero;fill:rgb(100%,0%,0%);fill-opacity:1;" d="M 114.765625 469.695312 L 118.355469 466.980469 L 119.265625 469.636719 L 114.765625 469.695312 "/>
<path style="fill:none;stroke-width:1.01;stroke-linecap:butt;stroke-linejoin:miter;stroke:rgb(100%,0%,0%);stroke-opacity:1;stroke-miterlimit:10;" d="M 131.625 448.773438 L 107.714844 449.722656 "/>
<path style=" stroke:none;fill-rule:nonzero;fill:rgb(100%,0%,0%);fill-opacity:1;" d="M 103.441406 449.890625 L 107.65625 448.320312 L 107.769531 451.125 L 103.441406 449.890625 "/>
<path style="fill:none;stroke-width:1.01;stroke-linecap:butt;stroke-linejoin:miter;stroke:rgb(100%,0%,0%);stroke-opacity:1;stroke-miterlimit:10;" d="M 132.238281 435.289062 L 159.328125 414.722656 "/>
<path style=" stroke:none;fill-rule:nonzero;fill:rgb(100%,0%,0%);fill-opacity:1;" d="M 162.734375 412.140625 L 160.175781 415.84375 L 158.480469 413.605469 L 162.734375 412.140625 "/>
<path style="fill:none;stroke-width:1.01;stroke-linecap:butt;stroke-linejoin:miter;stroke:rgb(100%,0%,0%);stroke-opacity:1;stroke-miterlimit:10;" d="M 164.964844 410.445312 L 185.195312 425.144531 "/>
<path style=" stroke:none;fill-rule:nonzero;fill:rgb(100%,0%,0%);fill-opacity:1;" d="M 188.652344 427.65625 L 184.371094 426.28125 L 186.019531 424.007812 L 188.652344 427.65625 "/>
<path style="fill:none;stroke-width:1.01;stroke-linecap:butt;stroke-linejoin:miter;stroke:rgb(0%,0%,100%);stroke-opacity:1;stroke-miterlimit:10;" d="M 190.917969 429.300781 L 174.070312 455.839844 "/>
<path style=" stroke:none;fill-rule:nonzero;fill:rgb(0%,0%,100%);fill-opacity:1;" d="M 171.777344 459.449219 L 172.886719 455.085938 L 175.253906 456.589844 L 171.777344 459.449219 "/>
<path style="fill:none;stroke-width:1.01;stroke-linecap:butt;stroke-linejoin:miter;stroke:rgb(0%,0%,100%);stroke-opacity:1;stroke-miterlimit:10;" d="M 169.957031 462.320312 L 188.023438 490.859375 "/>
<path style=" stroke:none;fill-rule:nonzero;fill:rgb(0%,0%,100%);fill-opacity:1;" d="M 190.308594 494.472656 L 186.835938 491.609375 L 189.210938 490.109375 L 190.308594 494.472656 "/>
<path style="fill:none;stroke-width:1.01;stroke-linecap:butt;stroke-linejoin:miter;stroke:rgb(100%,0%,0%);stroke-opacity:1;stroke-miterlimit:10;" d="M 182.671875 546.035156 C 170.34375 553.300781 170.214844 577.5 169.464844 577.734375 "/>
<path style=" stroke:none;fill-rule:nonzero;fill:rgb(100%,0%,0%);fill-opacity:1;" d="M 165.382812 579.015625 L 169.042969 576.394531 L 169.882812 579.074219 L 165.382812 579.015625 "/>
<path style="fill:none;stroke-width:1.02;stroke-linecap:butt;stroke-linejoin:miter;stroke:rgb(0%,0%,100%);stroke-opacity:1;stroke-miterlimit:10;" d="M 162.242188 580 C 156.476562 561.121094 161.664062 545.980469 178.355469 535.453125 "/>
<path style=" stroke:none;fill-rule:nonzero;fill:rgb(0%,0%,100%);fill-opacity:1;" d="M 174.742188 537.730469 L 177.597656 534.253906 L 179.109375 536.652344 L 174.742188 537.730469 "/>
<path style="fill:none;stroke-width:1.02;stroke-linecap:butt;stroke-linejoin:miter;stroke:rgb(100%,0%,0%);stroke-opacity:1;stroke-miterlimit:10;" d="M 171.996094 539.464844 C 179.964844 552.472656 180.953125 567.929688 168.566406 575.917969 "/>
<path style=" stroke:none;fill-rule:nonzero;fill:rgb(100%,0%,0%);fill-opacity:1;" d="M 164.976562 578.234375 L 167.796875 574.730469 L 169.335938 577.109375 L 164.976562 578.234375 "/>
<path style="fill:none;stroke-width:1.01;stroke-linecap:butt;stroke-linejoin:miter;stroke:rgb(0%,0%,100%);stroke-opacity:1;stroke-miterlimit:10;" d="M 162.242188 580 C 180.265625 575.414062 187.675781 545.507812 190.246094 545.238281 "/>
<path style=" stroke:none;fill-rule:nonzero;fill:rgb(0%,0%,100%);fill-opacity:1;" d="M 185.992188 545.6875 L 190.097656 543.84375 L 190.390625 546.636719 L 185.992188 545.6875 "/>
<path style="fill:none;stroke-width:1.01;stroke-linecap:butt;stroke-linejoin:miter;stroke:rgb(100%,0%,0%);stroke-opacity:1;stroke-miterlimit:10;" d="M 182.671875 546.035156 L 209.742188 565.921875 "/>
<path style=" stroke:none;fill-rule:nonzero;fill:rgb(100%,0%,0%);fill-opacity:1;" d="M 213.1875 568.453125 L 208.914062 567.054688 L 210.574219 564.789062 L 213.1875 568.453125 "/>
<path style="fill:none;stroke-width:1.01;stroke-linecap:butt;stroke-linejoin:miter;stroke:rgb(0%,0%,100%);stroke-opacity:1;stroke-miterlimit:10;" d="M 215.445312 570.109375 L 218.175781 537.085938 "/>
<path style=" stroke:none;fill-rule:nonzero;fill:rgb(0%,0%,100%);fill-opacity:1;" d="M 218.527344 532.824219 L 219.574219 537.199219 L 216.777344 536.96875 L 218.527344 532.824219 "/>
<path style="fill:none;stroke-width:1.01;stroke-linecap:butt;stroke-linejoin:miter;stroke:rgb(100%,0%,0%);stroke-opacity:1;stroke-miterlimit:10;" d="M 228.566406 516.824219 C 245.546875 528.257812 260.601562 516.316406 277.628906 514.328125 "/>
<path style=" stroke:none;fill-rule:nonzero;fill:rgb(100%,0%,0%);fill-opacity:1;" d="M 273.382812 514.824219 L 277.464844 512.933594 L 277.789062 515.722656 L 273.382812 514.824219 "/>
<path style="fill:none;stroke-width:1.01;stroke-linecap:butt;stroke-linejoin:miter;stroke:rgb(0%,0%,100%);stroke-opacity:1;stroke-miterlimit:10;" d="M 270.671875 515.140625 C 259.503906 506.480469 249.511719 511.125 236.761719 514.59375 "/>
<path style=" stroke:none;fill-rule:nonzero;fill:rgb(0%,0%,100%);fill-opacity:1;" d="M 232.636719 515.71875 L 236.390625 513.242188 L 237.128906 515.949219 L 232.636719 515.71875 "/>
<path style="fill:none;stroke-width:1.02;stroke-linecap:butt;stroke-linejoin:miter;stroke:rgb(0%,0%,100%);stroke-opacity:1;stroke-miterlimit:10;" d="M 228.566406 516.824219 L 201.542969 503.144531 "/>
<path style=" stroke:none;fill-rule:nonzero;fill:rgb(0%,0%,100%);fill-opacity:1;" d="M 197.730469 501.214844 L 202.179688 501.878906 L 200.902344 504.40625 L 197.730469 501.214844 "/>
<path style="fill:none;stroke-width:1.01;stroke-linecap:butt;stroke-linejoin:miter;stroke:rgb(0%,0%,100%);stroke-opacity:1;stroke-miterlimit:10;" d="M 182.296875 508.214844 C 184.882812 498.765625 193.917969 498.328125 200.871094 493.800781 "/>
<path style=" stroke:none;fill-rule:nonzero;fill:rgb(0%,0%,100%);fill-opacity:1;" d="M 197.289062 496.132812 L 200.105469 492.621094 L 201.636719 494.976562 L 197.289062 496.132812 "/>
<path style="fill:none;stroke-width:1.01;stroke-linecap:butt;stroke-linejoin:miter;stroke:rgb(100%,0%,0%);stroke-opacity:1;stroke-miterlimit:10;" d="M 193.089844 498.863281 L 200.449219 503.574219 "/>
<path style=" stroke:none;fill-rule:nonzero;fill:rgb(100%,0%,0%);fill-opacity:1;" d="M 204.050781 505.878906 L 199.691406 504.753906 L 201.207031 502.390625 L 204.050781 505.878906 "/>
<path style="fill:none;stroke-width:1.01;stroke-linecap:butt;stroke-linejoin:miter;stroke:rgb(100%,0%,0%);stroke-opacity:1;stroke-miterlimit:10;" d="M 193.089844 498.863281 C 197.558594 516.464844 210.386719 530.949219 227.011719 526.230469 "/>
<path style=" stroke:none;fill-rule:nonzero;fill:rgb(100%,0%,0%);fill-opacity:1;" d="M 222.898438 527.398438 L 226.625 524.878906 L 227.394531 527.582031 L 222.898438 527.398438 "/>
<path style="fill:none;stroke-width:1.02;stroke-linecap:butt;stroke-linejoin:miter;stroke:rgb(100%,0%,0%);stroke-opacity:1;stroke-miterlimit:10;" d="M 193.089844 498.863281 L 229.378906 487.496094 "/>
<path style=" stroke:none;fill-rule:nonzero;fill:rgb(100%,0%,0%);fill-opacity:1;" d="M 233.453125 486.21875 L 229.800781 488.851562 L 228.953125 486.144531 L 233.453125 486.21875 "/>
<path style="fill:none;stroke-width:1.01;stroke-linecap:butt;stroke-linejoin:miter;stroke:rgb(100%,0%,0%);stroke-opacity:1;stroke-miterlimit:10;" d="M 236.699219 485.203125 C 253.859375 495.855469 268.863281 482.40625 284.988281 480.941406 "/>
<path style=" stroke:none;fill-rule:nonzero;fill:rgb(100%,0%,0%);fill-opacity:1;" d="M 280.734375 481.328125 L 284.863281 479.542969 L 285.117188 482.339844 L 280.734375 481.328125 "/>
<path style="fill:none;stroke-width:1.01;stroke-linecap:butt;stroke-linejoin:miter;stroke:rgb(0%,0%,100%);stroke-opacity:1;stroke-miterlimit:10;" d="M 278.019531 481.574219 C 266.324219 473.59375 256.558594 479.511719 244.070312 483.089844 "/>
<path style=" stroke:none;fill-rule:nonzero;fill:rgb(0%,0%,100%);fill-opacity:1;" d="M 239.960938 484.269531 L 243.683594 481.742188 L 244.457031 484.441406 L 239.960938 484.269531 "/>
<path style="fill:none;stroke-width:1.02;stroke-linecap:butt;stroke-linejoin:miter;stroke:rgb(0%,0%,100%);stroke-opacity:1;stroke-miterlimit:10;" d="M 236.699219 485.203125 L 218.078125 480.898438 "/>
<path style=" stroke:none;fill-rule:nonzero;fill:rgb(0%,0%,100%);fill-opacity:1;" d="M 213.917969 479.9375 L 218.398438 479.515625 L 217.757812 482.28125 L 213.917969 479.9375 "/>
<path style="fill:none;stroke-width:1.01;stroke-linecap:butt;stroke-linejoin:miter;stroke:rgb(100%,0%,0%);stroke-opacity:1;stroke-miterlimit:10;" d="M 207.679688 478.496094 C 225.398438 473.003906 233.25 442.460938 233.792969 442.4375 "/>
<path style=" stroke:none;fill-rule:nonzero;fill:rgb(100%,0%,0%);fill-opacity:1;" d="M 229.523438 442.632812 L 233.726562 441.035156 L 233.855469 443.839844 L 229.523438 442.632812 "/>
<path style="fill:none;stroke-width:1.01;stroke-linecap:butt;stroke-linejoin:miter;stroke:rgb(0%,0%,100%);stroke-opacity:1;stroke-miterlimit:10;" d="M 226.78125 442.757812 C 215.863281 451.042969 218.03125 474.269531 217.75 474.382812 "/>
<path style=" stroke:none;fill-rule:nonzero;fill:rgb(0%,0%,100%);fill-opacity:1;" d="M 213.792969 476 L 217.21875 473.085938 L 218.28125 475.683594 L 213.792969 476 "/>
<path style="fill:none;stroke-width:1.01;stroke-linecap:butt;stroke-linejoin:miter;stroke:rgb(100%,0%,0%);stroke-opacity:1;stroke-miterlimit:10;" d="M 207.679688 478.496094 L 217.308594 487.960938 "/>
<path style=" stroke:none;fill-rule:nonzero;fill:rgb(100%,0%,0%);fill-opacity:1;" d="M 220.355469 490.957031 L 216.324219 488.960938 L 218.292969 486.957031 L 220.355469 490.957031 "/>
<path style="fill:none;stroke-width:1.01;stroke-linecap:butt;stroke-linejoin:miter;stroke:rgb(0%,0%,100%);stroke-opacity:1;stroke-miterlimit:10;" d="M 222.351562 492.917969 L 202.378906 496.976562 "/>
<path style=" stroke:none;fill-rule:nonzero;fill:rgb(0%,0%,100%);fill-opacity:1;" d="M 198.1875 497.828125 L 202.097656 495.601562 L 202.65625 498.355469 L 198.1875 497.828125 "/>
<path style="fill:none;stroke-width:1.01;stroke-linecap:butt;stroke-linejoin:miter;stroke:rgb(0%,0%,100%);stroke-opacity:1;stroke-miterlimit:10;" d="M 169.957031 462.320312 L 140.183594 440.984375 "/>
<path style=" stroke:none;fill-rule:nonzero;fill:rgb(0%,0%,100%);fill-opacity:1;" d="M 136.710938 438.496094 L 141.003906 439.84375 L 139.367188 442.125 L 136.710938 438.496094 "/>
<path style="fill:none;stroke-width:1.01;stroke-linecap:butt;stroke-linejoin:miter;stroke:rgb(100%,0%,0%);stroke-opacity:1;stroke-miterlimit:10;" d="M 132.238281 435.289062 C 150.574219 430.234375 158.753906 399.265625 160.160156 399.179688 "/>
<path style=" stroke:none;fill-rule:nonzero;fill:rgb(100%,0%,0%);fill-opacity:1;" d="M 155.890625 399.433594 L 160.078125 397.777344 L 160.242188 400.582031 L 155.890625 399.433594 "/>
<path style="fill:none;stroke-width:1.01;stroke-linecap:butt;stroke-linejoin:miter;stroke:rgb(0%,0%,100%);stroke-opacity:1;stroke-miterlimit:10;" d="M 153.085938 399.601562 C 141.199219 407.433594 142.394531 431.429688 141.539062 431.757812 "/>
<path style=" stroke:none;fill-rule:nonzero;fill:rgb(0%,0%,100%);fill-opacity:1;" d="M 137.542969 433.273438 L 141.039062 430.445312 L 142.035156 433.070312 L 137.542969 433.273438 "/>
<path style="fill:none;stroke-width:1.01;stroke-linecap:butt;stroke-linejoin:miter;stroke:rgb(100%,0%,0%);stroke-opacity:1;stroke-miterlimit:10;" d="M 132.238281 435.289062 C 135.464844 423.84375 146.582031 423.457031 154.917969 417.960938 "/>
<path style=" stroke:none;fill-rule:nonzero;fill:rgb(100%,0%,0%);fill-opacity:1;" d="M 151.347656 420.3125 L 154.144531 416.789062 L 155.691406 419.132812 L 151.347656 420.3125 "/>
<path style="fill:none;stroke-width:1.01;stroke-linecap:butt;stroke-linejoin:miter;stroke:rgb(0%,0%,100%);stroke-opacity:1;stroke-miterlimit:10;" d="M 148.75 422.027344 C 140.210938 427.964844 140.839844 445.746094 140.90625 445.722656 "/>
<path style=" stroke:none;fill-rule:nonzero;fill:rgb(0%,0%,100%);fill-opacity:1;" d="M 136.84375 447.058594 L 140.46875 444.390625 L 141.34375 447.058594 L 136.84375 447.058594 "/>
<path style="fill:none;stroke-width:1.02;stroke-linecap:butt;stroke-linejoin:miter;stroke:rgb(100%,0%,0%);stroke-opacity:1;stroke-miterlimit:10;" d="M 131.625 448.773438 L 134.800781 399.132812 "/>
<path style=" stroke:none;fill-rule:nonzero;fill:rgb(100%,0%,0%);fill-opacity:1;" d="M 135.074219 394.871094 L 136.214844 399.226562 L 133.386719 399.042969 L 135.074219 394.871094 "/>
<path style="fill:none;stroke-width:1.01;stroke-linecap:butt;stroke-linejoin:miter;stroke:rgb(100%,0%,0%);stroke-opacity:1;stroke-miterlimit:10;" d="M 135.289062 391.480469 L 117.039062 371.546875 "/>
<path style=" stroke:none;fill-rule:nonzero;fill:rgb(100%,0%,0%);fill-opacity:1;" d="M 114.152344 368.390625 L 118.074219 370.597656 L 116.003906 372.492188 L 114.152344 368.390625 "/>
<path style="fill:none;stroke-width:1.01;stroke-linecap:butt;stroke-linejoin:miter;stroke:rgb(0%,0%,100%);stroke-opacity:1;stroke-miterlimit:10;" d="M 112.261719 366.328125 L 112.308594 391.894531 "/>
<path style=" stroke:none;fill-rule:nonzero;fill:rgb(0%,0%,100%);fill-opacity:1;" d="M 112.316406 396.167969 L 110.90625 391.894531 L 113.714844 391.890625 L 112.316406 396.167969 "/>
<path style="fill:none;stroke-width:1.01;stroke-linecap:butt;stroke-linejoin:miter;stroke:rgb(100%,0%,0%);stroke-opacity:1;stroke-miterlimit:10;" d="M 112.324219 399.269531 C 106.457031 386.246094 96.246094 379.773438 82.304688 382.71875 "/>
<path style=" stroke:none;fill-rule:nonzero;fill:rgb(100%,0%,0%);fill-opacity:1;" d="M 78.125 383.605469 L 82.015625 381.34375 L 82.597656 384.09375 L 78.125 383.605469 "/>
<path style="fill:none;stroke-width:1.01;stroke-linecap:butt;stroke-linejoin:miter;stroke:rgb(0%,0%,100%);stroke-opacity:1;stroke-miterlimit:10;" d="M 75.417969 384.175781 C 86.753906 399.765625 100.9375 401.578125 119.628906 397.785156 "/>
<path style=" stroke:none;fill-rule:nonzero;fill:rgb(0%,0%,100%);fill-opacity:1;" d="M 115.441406 398.636719 L 119.351562 396.410156 L 119.910156 399.160156 L 115.441406 398.636719 "/>
<path style="fill:none;stroke-width:1.01;stroke-linecap:butt;stroke-linejoin:miter;stroke:rgb(0%,0%,100%);stroke-opacity:1;stroke-miterlimit:10;" d="M 112.324219 399.269531 L 127.507812 426.734375 "/>
<path style=" stroke:none;fill-rule:nonzero;fill:rgb(0%,0%,100%);fill-opacity:1;" d="M 129.578125 430.476562 L 126.28125 427.414062 L 128.738281 426.054688 L 129.578125 430.476562 "/>
<path style="fill:none;stroke-width:1.01;stroke-linecap:butt;stroke-linejoin:miter;stroke:rgb(100%,0%,0%);stroke-opacity:1;stroke-miterlimit:10;" d="M 132.238281 435.289062 C 146.902344 423.164062 149.082031 390.414062 142.929688 390.890625 "/>
<path style=" stroke:none;fill-rule:nonzero;fill:rgb(100%,0%,0%);fill-opacity:1;" d="M 138.667969 391.21875 L 142.824219 389.488281 L 143.039062 392.289062 L 138.667969 391.21875 "/>
<path style="fill:none;stroke-width:1.01;stroke-linecap:butt;stroke-linejoin:miter;stroke:rgb(0%,0%,100%);stroke-opacity:1;stroke-miterlimit:10;" d="M 135.289062 391.480469 C 127.214844 406.363281 134.980469 434.191406 141.21875 431.6875 "/>
<path style=" stroke:none;fill-rule:nonzero;fill:rgb(0%,0%,100%);fill-opacity:1;" d="M 137.25 433.277344 L 140.695312 430.382812 L 141.742188 432.988281 L 137.25 433.277344 "/>
<path style="fill:none;stroke-width:1.01;stroke-linecap:butt;stroke-linejoin:miter;stroke:rgb(100%,0%,0%);stroke-opacity:1;stroke-miterlimit:10;" d="M 132.238281 435.289062 C 140.832031 428.746094 155.1875 437.117188 158.160156 435.101562 "/>
<path style=" stroke:none;fill-rule:nonzero;fill:rgb(100%,0%,0%);fill-opacity:1;" d="M 154.621094 437.5 L 157.375 433.941406 L 158.949219 436.265625 L 154.621094 437.5 "/>
<path style="fill:none;stroke-width:1.01;stroke-linecap:butt;stroke-linejoin:miter;stroke:rgb(0%,0%,100%);stroke-opacity:1;stroke-miterlimit:10;" d="M 152.128906 439.1875 C 146.015625 439.164062 139.0625 431.164062 140.429688 430.335938 "/>
<path style=" stroke:none;fill-rule:nonzero;fill:rgb(0%,0%,100%);fill-opacity:1;" d="M 136.769531 432.550781 L 139.703125 429.136719 L 141.15625 431.539062 L 136.769531 432.550781 "/>
<path style="fill:none;stroke-width:1.01;stroke-linecap:butt;stroke-linejoin:miter;stroke:rgb(100%,0%,0%);stroke-opacity:1;stroke-miterlimit:10;" d="M 132.238281 435.289062 L 103.171875 436.679688 "/>
<path style=" stroke:none;fill-rule:nonzero;fill:rgb(100%,0%,0%);fill-opacity:1;" d="M 98.898438 436.882812 L 103.101562 435.277344 L 103.238281 438.082031 L 98.898438 436.882812 "/>
<path style="fill:none;stroke-width:1.01;stroke-linecap:butt;stroke-linejoin:miter;stroke:rgb(100%,0%,0%);stroke-opacity:1;stroke-miterlimit:10;" d="M 95.804688 437.03125 L 61.351562 448.726562 "/>
<path style=" stroke:none;fill-rule:nonzero;fill:rgb(100%,0%,0%);fill-opacity:1;" d="M 57.304688 450.101562 L 60.902344 447.394531 L 61.804688 450.054688 L 57.304688 450.101562 "/>
<path style="fill:none;stroke-width:1.01;stroke-linecap:butt;stroke-linejoin:miter;stroke:rgb(0%,0%,100%);stroke-opacity:1;stroke-miterlimit:10;" d="M 54.652344 451 L 27.066406 452.230469 "/>
<path style=" stroke:none;fill-rule:nonzero;fill:rgb(0%,0%,100%);fill-opacity:1;" d="M 22.796875 452.421875 L 27.003906 450.828125 L 27.132812 453.632812 L 22.796875 452.421875 "/>
<path style="fill:none;stroke-width:1.01;stroke-linecap:butt;stroke-linejoin:miter;stroke:rgb(100%,0%,0%);stroke-opacity:1;stroke-miterlimit:10;" d="M 20 452.546875 L 47.953125 434.1875 "/>
<path style=" stroke:none;fill-rule:nonzero;fill:rgb(100%,0%,0%);fill-opacity:1;" d="M 51.527344 431.839844 L 48.726562 435.359375 L 47.183594 433.015625 L 51.527344 431.839844 "/>
<path style="fill:none;stroke-width:1.01;stroke-linecap:butt;stroke-linejoin:miter;stroke:rgb(0%,0%,100%);stroke-opacity:1;stroke-miterlimit:10;" d="M 53.867188 430.304688 L 88.519531 435.863281 "/>
<path style=" stroke:none;fill-rule:nonzero;fill:rgb(0%,0%,100%);fill-opacity:1;" d="M 92.742188 436.539062 L 88.296875 437.25 L 88.742188 434.476562 L 92.742188 436.539062 "/>
<path style="fill:none;stroke-width:1.01;stroke-linecap:butt;stroke-linejoin:miter;stroke:rgb(0%,0%,100%);stroke-opacity:1;stroke-miterlimit:10;" d="M 95.804688 437.03125 L 122.335938 445.726562 "/>
<path style=" stroke:none;fill-rule:nonzero;fill:rgb(0%,0%,100%);fill-opacity:1;" d="M 126.398438 447.058594 L 121.898438 447.0625 L 122.773438 444.394531 L 126.398438 447.058594 "/>
<path style="fill:none;stroke-width:1.01;stroke-linecap:butt;stroke-linejoin:miter;stroke:rgb(100%,0%,0%);stroke-opacity:1;stroke-miterlimit:10;" d="M 131.625 448.773438 C 128.003906 459.746094 133.484375 477.113281 140.476562 475.058594 "/>
<path style=" stroke:none;fill-rule:nonzero;fill:rgb(100%,0%,0%);fill-opacity:1;" d="M 136.375 476.261719 L 140.082031 473.710938 L 140.875 476.402344 L 136.375 476.261719 "/>
<path style="fill:none;stroke-width:1.01;stroke-linecap:butt;stroke-linejoin:miter;stroke:rgb(0%,0%,100%);stroke-opacity:1;stroke-miterlimit:10;" d="M 133.558594 477.089844 C 143.542969 469.125 144.382812 446.980469 141.25 447.421875 "/>
<path style=" stroke:none;fill-rule:nonzero;fill:rgb(0%,0%,100%);fill-opacity:1;" d="M 137.019531 448.015625 L 141.054688 446.03125 L 141.445312 448.808594 L 137.019531 448.015625 "/>
<path style="fill:none;stroke-width:1.01;stroke-linecap:butt;stroke-linejoin:miter;stroke:rgb(0%,0%,100%);stroke-opacity:1;stroke-miterlimit:10;" d="M 135.289062 391.480469 L 143.246094 354.414062 "/>
<path style=" stroke:none;fill-rule:nonzero;fill:rgb(0%,0%,100%);fill-opacity:1;" d="M 144.144531 350.234375 L 144.621094 354.707031 L 141.875 354.117188 L 144.144531 350.234375 "/>
<path style="fill:none;stroke-width:1.01;stroke-linecap:butt;stroke-linejoin:miter;stroke:rgb(100%,0%,0%);stroke-opacity:1;stroke-miterlimit:10;" d="M 144.734375 347.496094 L 143.515625 314.671875 "/>
<path style=" stroke:none;fill-rule:nonzero;fill:rgb(100%,0%,0%);fill-opacity:1;" d="M 143.355469 310.398438 L 144.917969 314.617188 L 142.109375 314.722656 L 143.355469 310.398438 "/>
<path style="fill:none;stroke-width:1.01;stroke-linecap:butt;stroke-linejoin:miter;stroke:rgb(100%,0%,0%);stroke-opacity:1;stroke-miterlimit:10;" d="M 143.25 307.601562 L 140.386719 276.429688 "/>
<path style=" stroke:none;fill-rule:nonzero;fill:rgb(100%,0%,0%);fill-opacity:1;" d="M 139.996094 272.171875 L 141.785156 276.300781 L 138.988281 276.558594 L 139.996094 272.171875 "/>
<path style="fill:none;stroke-width:1.01;stroke-linecap:butt;stroke-linejoin:miter;stroke:rgb(0%,0%,100%);stroke-opacity:1;stroke-miterlimit:10;" d="M 139.742188 269.382812 L 136.507812 238.40625 "/>
<path style=" stroke:none;fill-rule:nonzero;fill:rgb(0%,0%,100%);fill-opacity:1;" d="M 136.0625 234.15625 L 137.902344 238.261719 L 135.109375 238.550781 L 136.0625 234.15625 "/>
<path style="fill:none;stroke-width:1.01;stroke-linecap:butt;stroke-linejoin:miter;stroke:rgb(0%,0%,100%);stroke-opacity:1;stroke-miterlimit:10;" d="M 135.769531 231.371094 L 132.5625 199.261719 "/>
<path style=" stroke:none;fill-rule:nonzero;fill:rgb(0%,0%,100%);fill-opacity:1;" d="M 132.136719 195.007812 L 133.960938 199.121094 L 131.167969 199.402344 L 132.136719 195.007812 "/>
<path style="fill:none;stroke-width:1.01;stroke-linecap:butt;stroke-linejoin:miter;stroke:rgb(100%,0%,0%);stroke-opacity:1;stroke-miterlimit:10;" d="M 131.859375 192.222656 L 131.972656 156.347656 "/>
<path style=" stroke:none;fill-rule:nonzero;fill:rgb(100%,0%,0%);fill-opacity:1;" d="M 131.988281 152.070312 L 133.378906 156.351562 L 130.570312 156.339844 L 131.988281 152.070312 "/>
<path style="fill:none;stroke-width:1.01;stroke-linecap:butt;stroke-linejoin:miter;stroke:rgb(0%,0%,100%);stroke-opacity:1;stroke-miterlimit:10;" d="M 131.996094 148.972656 L 125.839844 106.820312 "/>
<path style=" stroke:none;fill-rule:nonzero;fill:rgb(0%,0%,100%);fill-opacity:1;" d="M 125.222656 102.589844 L 127.230469 106.617188 L 124.449219 107.023438 L 125.222656 102.589844 "/>
<path style="fill:none;stroke-width:1.01;stroke-linecap:butt;stroke-linejoin:miter;stroke:rgb(100%,0%,0%);stroke-opacity:1;stroke-miterlimit:10;" d="M 124.601562 98.335938 C 128.253906 106.835938 134.949219 111.625 143.855469 109.390625 "/>
<path style=" stroke:none;fill-rule:nonzero;fill:rgb(100%,0%,0%);fill-opacity:1;" d="M 148 108.351562 L 144.195312 110.753906 L 143.511719 108.027344 L 148 108.351562 "/>
<path style="fill:none;stroke-width:1.01;stroke-linecap:butt;stroke-linejoin:miter;stroke:rgb(0%,0%,100%);stroke-opacity:1;stroke-miterlimit:10;" d="M 150.703125 107.671875 C 147.109375 100.257812 141.195312 98.867188 133.121094 98.609375 "/>
<path style=" stroke:none;fill-rule:nonzero;fill:rgb(0%,0%,100%);fill-opacity:1;" d="M 128.847656 98.472656 L 133.167969 97.207031 L 133.078125 100.011719 L 128.847656 98.472656 "/>
<path style="fill:none;stroke-width:1.01;stroke-linecap:butt;stroke-linejoin:miter;stroke:rgb(100%,0%,0%);stroke-opacity:1;stroke-miterlimit:10;" d="M 124.601562 98.335938 L 100.015625 104.945312 "/>
<path style=" stroke:none;fill-rule:nonzero;fill:rgb(100%,0%,0%);fill-opacity:1;" d="M 95.886719 106.054688 L 99.652344 103.589844 L 100.378906 106.300781 L 95.886719 106.054688 "/>
<path style="fill:none;stroke-width:1.01;stroke-linecap:butt;stroke-linejoin:miter;stroke:rgb(100%,0%,0%);stroke-opacity:1;stroke-miterlimit:10;" d="M 92.601562 106.9375 C 80.230469 100.257812 71.082031 105.65625 59.230469 111.925781 "/>
<path style=" stroke:none;fill-rule:nonzero;fill:rgb(100%,0%,0%);fill-opacity:1;" d="M 55.449219 113.925781 L 58.574219 110.683594 L 59.886719 113.167969 L 55.449219 113.925781 "/>
<path style="fill:none;stroke-width:1.01;stroke-linecap:butt;stroke-linejoin:miter;stroke:rgb(0%,0%,100%);stroke-opacity:1;stroke-miterlimit:10;" d="M 52.910156 115.269531 C 65.464844 124.039062 84.460938 126.445312 89.640625 114.035156 "/>
<path style=" stroke:none;fill-rule:nonzero;fill:rgb(0%,0%,100%);fill-opacity:1;" d="M 91.289062 110.089844 L 90.9375 114.574219 L 88.347656 113.492188 L 91.289062 110.089844 "/>
<path style="fill:none;stroke-width:1.01;stroke-linecap:butt;stroke-linejoin:miter;stroke:rgb(100%,0%,0%);stroke-opacity:1;stroke-miterlimit:10;" d="M 92.601562 106.9375 C 85.503906 93.542969 74.335938 87.636719 59.683594 91.445312 "/>
<path style=" stroke:none;fill-rule:nonzero;fill:rgb(100%,0%,0%);fill-opacity:1;" d="M 55.542969 92.519531 L 59.328125 90.085938 L 60.035156 92.804688 L 55.542969 92.519531 "/>
<path style="fill:none;stroke-width:1.01;stroke-linecap:butt;stroke-linejoin:miter;stroke:rgb(0%,0%,100%);stroke-opacity:1;stroke-miterlimit:10;" d="M 52.921875 93.203125 C 59.753906 106.570312 70.914062 113.132812 85.292969 109.023438 "/>
<path style=" stroke:none;fill-rule:nonzero;fill:rgb(0%,0%,100%);fill-opacity:1;" d="M 89.402344 107.851562 L 85.679688 110.375 L 84.90625 107.675781 L 89.402344 107.851562 "/>
<path style="fill:none;stroke-width:1.01;stroke-linecap:butt;stroke-linejoin:miter;stroke:rgb(0%,0%,100%);stroke-opacity:1;stroke-miterlimit:10;" d="M 92.601562 106.9375 L 113.730469 112.792969 "/>
<path style=" stroke:none;fill-rule:nonzero;fill:rgb(0%,0%,100%);fill-opacity:1;" d="M 117.847656 113.9375 L 113.355469 114.148438 L 114.105469 111.441406 L 117.847656 113.9375 "/>
<path style="fill:none;stroke-width:1.01;stroke-linecap:butt;stroke-linejoin:miter;stroke:rgb(100%,0%,0%);stroke-opacity:1;stroke-miterlimit:10;" d="M 121.703125 115.007812 L 94.679688 129.011719 "/>
<path style=" stroke:none;fill-rule:nonzero;fill:rgb(100%,0%,0%);fill-opacity:1;" d="M 90.882812 130.980469 L 94.035156 127.765625 L 95.324219 130.257812 L 90.882812 130.980469 "/>
<path style="fill:none;stroke-width:1.01;stroke-linecap:butt;stroke-linejoin:miter;stroke:rgb(100%,0%,0%);stroke-opacity:1;stroke-miterlimit:10;" d="M 88.398438 132.269531 L 61.691406 141.851562 "/>
<path style=" stroke:none;fill-rule:nonzero;fill:rgb(100%,0%,0%);fill-opacity:1;" d="M 57.667969 143.292969 L 61.21875 140.527344 L 62.167969 143.171875 L 57.667969 143.292969 "/>
<path style="fill:none;stroke-width:1.01;stroke-linecap:butt;stroke-linejoin:miter;stroke:rgb(0%,0%,100%);stroke-opacity:1;stroke-miterlimit:10;" d="M 55.035156 144.238281 L 89.023438 142.726562 "/>
<path style=" stroke:none;fill-rule:nonzero;fill:rgb(0%,0%,100%);fill-opacity:1;" d="M 93.292969 142.535156 L 89.085938 144.128906 L 88.960938 141.324219 L 93.292969 142.535156 "/>
<path style="fill:none;stroke-width:1.01;stroke-linecap:butt;stroke-linejoin:miter;stroke:rgb(0%,0%,100%);stroke-opacity:1;stroke-miterlimit:10;" d="M 96.089844 142.410156 L 116.054688 121.050781 "/>
<path style=" stroke:none;fill-rule:nonzero;fill:rgb(0%,0%,100%);fill-opacity:1;" d="M 118.972656 117.929688 L 117.078125 122.011719 L 115.027344 120.09375 L 118.972656 117.929688 "/>
<path style="fill:none;stroke-width:1.02;stroke-linecap:butt;stroke-linejoin:miter;stroke:rgb(100%,0%,0%);stroke-opacity:1;stroke-miterlimit:10;" d="M 121.703125 115.007812 C 137.355469 120.449219 146.730469 111.601562 159.59375 102.914062 "/>
<path style=" stroke:none;fill-rule:nonzero;fill:rgb(100%,0%,0%);fill-opacity:1;" d="M 163.132812 100.523438 L 160.386719 104.089844 L 158.796875 101.738281 L 163.132812 100.523438 "/>
<path style="fill:none;stroke-width:1.01;stroke-linecap:butt;stroke-linejoin:miter;stroke:rgb(0%,0%,100%);stroke-opacity:1;stroke-miterlimit:10;" d="M 166.042969 98.554688 C 149.730469 90.769531 127.039062 91.671875 123.511719 107.097656 "/>
<path style=" stroke:none;fill-rule:nonzero;fill:rgb(0%,0%,100%);fill-opacity:1;" d="M 122.558594 111.265625 L 122.140625 106.785156 L 124.878906 107.410156 L 122.558594 111.265625 "/>
<path style="fill:none;stroke-width:1.01;stroke-linecap:butt;stroke-linejoin:miter;stroke:rgb(100%,0%,0%);stroke-opacity:1;stroke-miterlimit:10;" d="M 121.703125 115.007812 L 99.523438 87.246094 "/>
<path style=" stroke:none;fill-rule:nonzero;fill:rgb(100%,0%,0%);fill-opacity:1;" d="M 96.855469 83.90625 L 100.621094 86.367188 L 98.425781 88.121094 L 96.855469 83.90625 "/>
<path style="fill:none;stroke-width:1.01;stroke-linecap:butt;stroke-linejoin:miter;stroke:rgb(100%,0%,0%);stroke-opacity:1;stroke-miterlimit:10;" d="M 94.359375 80.78125 C 91.246094 66.746094 82.253906 56.792969 68.175781 58.3125 "/>
<path style=" stroke:none;fill-rule:nonzero;fill:rgb(100%,0%,0%);fill-opacity:1;" d="M 63.925781 58.773438 L 68.023438 56.917969 L 68.324219 59.710938 L 63.925781 58.773438 "/>
<path style="fill:none;stroke-width:1.01;stroke-linecap:butt;stroke-linejoin:miter;stroke:rgb(0%,0%,100%);stroke-opacity:1;stroke-miterlimit:10;" d="M 61.078125 59.078125 C 63.742188 72.957031 72.539062 83.722656 86.179688 81.882812 "/>
<path style=" stroke:none;fill-rule:nonzero;fill:rgb(0%,0%,100%);fill-opacity:1;" d="M 90.414062 81.3125 L 86.367188 83.273438 L 85.992188 80.492188 L 90.414062 81.3125 "/>
<path style="fill:none;stroke-width:1.02;stroke-linecap:butt;stroke-linejoin:miter;stroke:rgb(0%,0%,100%);stroke-opacity:1;stroke-miterlimit:10;" d="M 94.359375 80.78125 L 117.1875 94.035156 "/>
<path style=" stroke:none;fill-rule:nonzero;fill:rgb(0%,0%,100%);fill-opacity:1;" d="M 120.882812 96.175781 L 116.476562 95.257812 L 117.898438 92.808594 L 120.882812 96.175781 "/>
<path style="fill:none;stroke-width:1.01;stroke-linecap:butt;stroke-linejoin:miter;stroke:rgb(100%,0%,0%);stroke-opacity:1;stroke-miterlimit:10;" d="M 124.601562 98.335938 L 112.984375 73.148438 "/>
<path style=" stroke:none;fill-rule:nonzero;fill:rgb(100%,0%,0%);fill-opacity:1;" d="M 111.195312 69.265625 L 114.261719 72.5625 L 111.710938 73.738281 L 111.195312 69.265625 "/>
<path style="fill:none;stroke-width:1.01;stroke-linecap:butt;stroke-linejoin:miter;stroke:rgb(100%,0%,0%);stroke-opacity:1;stroke-miterlimit:10;" d="M 110.023438 66.722656 L 97.273438 45.378906 "/>
<path style=" stroke:none;fill-rule:nonzero;fill:rgb(100%,0%,0%);fill-opacity:1;" d="M 95.078125 41.707031 L 98.476562 44.660156 L 96.066406 46.097656 L 95.078125 41.707031 "/>
<path style="fill:none;stroke-width:1.01;stroke-linecap:butt;stroke-linejoin:miter;stroke:rgb(0%,0%,100%);stroke-opacity:1;stroke-miterlimit:10;" d="M 93.644531 39.304688 L 94.214844 72.507812 "/>
<path style=" stroke:none;fill-rule:nonzero;fill:rgb(0%,0%,100%);fill-opacity:1;" d="M 94.289062 76.78125 L 92.8125 72.53125 L 95.617188 72.480469 L 94.289062 76.78125 "/>
<path style="fill:none;stroke-width:1.01;stroke-linecap:butt;stroke-linejoin:miter;stroke:rgb(100%,0%,0%);stroke-opacity:1;stroke-miterlimit:10;" d="M 94.359375 80.78125 C 84.980469 70.675781 74.34375 69.179688 61.804688 74.882812 "/>
<path style=" stroke:none;fill-rule:nonzero;fill:rgb(100%,0%,0%);fill-opacity:1;" d="M 57.914062 76.648438 L 61.226562 73.601562 L 62.386719 76.160156 L 57.914062 76.648438 "/>
<path style="fill:none;stroke-width:1.01;stroke-linecap:butt;stroke-linejoin:miter;stroke:rgb(0%,0%,100%);stroke-opacity:1;stroke-miterlimit:10;" d="M 55.375 77.804688 C 64.308594 87.917969 74.984375 90.316406 87.085938 84.359375 "/>
<path style=" stroke:none;fill-rule:nonzero;fill:rgb(0%,0%,100%);fill-opacity:1;" d="M 90.921875 82.472656 L 87.707031 85.617188 L 86.464844 83.097656 L 90.921875 82.472656 "/>
<path style="fill:none;stroke-width:1.01;stroke-linecap:butt;stroke-linejoin:miter;stroke:rgb(100%,0%,0%);stroke-opacity:1;stroke-miterlimit:10;" d="M 94.359375 80.78125 C 98.585938 65.699219 95.105469 51.304688 80.757812 45.730469 "/>
<path style=" stroke:none;fill-rule:nonzero;fill:rgb(100%,0%,0%);fill-opacity:1;" d="M 76.773438 44.183594 L 81.265625 44.421875 L 80.25 47.039062 L 76.773438 44.183594 "/>
<path style="fill:none;stroke-width:1.01;stroke-linecap:butt;stroke-linejoin:miter;stroke:rgb(0%,0%,100%);stroke-opacity:1;stroke-miterlimit:10;" d="M 74.082031 43.136719 C 68.824219 58.441406 72.128906 78.949219 86.023438 80.09375 "/>
<path style=" stroke:none;fill-rule:nonzero;fill:rgb(0%,0%,100%);fill-opacity:1;" d="M 90.285156 80.445312 L 85.910156 81.492188 L 86.140625 78.695312 L 90.285156 80.445312 "/>
<path style="fill:none;stroke-width:1.02;stroke-linecap:butt;stroke-linejoin:miter;stroke:rgb(100%,0%,0%);stroke-opacity:1;stroke-miterlimit:10;" d="M 124.601562 98.335938 C 141.070312 95.65625 143.027344 78.453125 152.359375 69.472656 "/>
<path style=" stroke:none;fill-rule:nonzero;fill:rgb(100%,0%,0%);fill-opacity:1;" d="M 155.4375 66.511719 L 153.339844 70.496094 L 151.375 68.453125 L 155.4375 66.511719 "/>
<path style="fill:none;stroke-width:1.01;stroke-linecap:butt;stroke-linejoin:miter;stroke:rgb(100%,0%,0%);stroke-opacity:1;stroke-miterlimit:10;" d="M 158.492188 63.570312 C 173.511719 60.574219 175.621094 40.164062 183.015625 36.1875 "/>
<path style=" stroke:none;fill-rule:nonzero;fill:rgb(100%,0%,0%);fill-opacity:1;" d="M 186.78125 34.160156 L 183.679688 37.421875 L 182.351562 34.949219 L 186.78125 34.160156 "/>
<path style="fill:none;stroke-width:1.01;stroke-linecap:butt;stroke-linejoin:miter;stroke:rgb(0%,0%,100%);stroke-opacity:1;stroke-miterlimit:10;" d="M 189.363281 32.773438 C 168.8125 32.796875 152.9375 62.816406 149.9375 62.410156 "/>
<path style=" stroke:none;fill-rule:nonzero;fill:rgb(0%,0%,100%);fill-opacity:1;" d="M 154.175781 62.984375 L 149.75 63.800781 L 150.128906 61.019531 L 154.175781 62.984375 "/>
<path style="fill:none;stroke-width:1.01;stroke-linecap:butt;stroke-linejoin:miter;stroke:rgb(100%,0%,0%);stroke-opacity:1;stroke-miterlimit:10;" d="M 158.492188 63.570312 C 168.726562 50.867188 159.148438 24.988281 159.847656 24.441406 "/>
<path style=" stroke:none;fill-rule:nonzero;fill:rgb(100%,0%,0%);fill-opacity:1;" d="M 163.21875 21.808594 L 160.714844 25.546875 L 158.984375 23.335938 L 163.21875 21.808594 "/>
<path style="fill:none;stroke-width:1.01;stroke-linecap:butt;stroke-linejoin:miter;stroke:rgb(0%,0%,100%);stroke-opacity:1;stroke-miterlimit:10;" d="M 165.53125 20 C 149.636719 30.503906 143.398438 62.628906 150.144531 63.050781 "/>
<path style=" stroke:none;fill-rule:nonzero;fill:rgb(0%,0%,100%);fill-opacity:1;" d="M 154.410156 63.316406 L 150.054688 64.449219 L 150.230469 61.648438 L 154.410156 63.316406 "/>
<path style="fill:none;stroke-width:1.02;stroke-linecap:butt;stroke-linejoin:miter;stroke:rgb(0%,0%,100%);stroke-opacity:1;stroke-miterlimit:10;" d="M 158.492188 63.570312 C 137.371094 63.273438 112.234375 89.746094 117.515625 93.414062 "/>
<path style=" stroke:none;fill-rule:nonzero;fill:rgb(0%,0%,100%);fill-opacity:1;" d="M 121.023438 95.851562 L 116.707031 94.578125 L 118.324219 92.25 L 121.023438 95.851562 "/>
<path style="fill:none;stroke-width:1.01;stroke-linecap:butt;stroke-linejoin:miter;stroke:rgb(100%,0%,0%);stroke-opacity:1;stroke-miterlimit:10;" d="M 124.601562 98.335938 L 127.808594 80.074219 "/>
<path style=" stroke:none;fill-rule:nonzero;fill:rgb(100%,0%,0%);fill-opacity:1;" d="M 128.546875 75.863281 L 129.191406 80.316406 L 126.425781 79.832031 L 128.546875 75.863281 "/>
<path style="fill:none;stroke-width:1.01;stroke-linecap:butt;stroke-linejoin:miter;stroke:rgb(100%,0%,0%);stroke-opacity:1;stroke-miterlimit:10;" d="M 129.136719 72.515625 C 133.535156 56.589844 114.25 43.550781 114.652344 35.601562 "/>
<path style=" stroke:none;fill-rule:nonzero;fill:rgb(100%,0%,0%);fill-opacity:1;" d="M 114.871094 31.332031 L 116.054688 35.671875 L 113.25 35.53125 L 114.871094 31.332031 "/>
<path style="fill:none;stroke-width:1.01;stroke-linecap:butt;stroke-linejoin:miter;stroke:rgb(0%,0%,100%);stroke-opacity:1;stroke-miterlimit:10;" d="M 115.015625 28.519531 C 106.222656 44.671875 107.835938 71.632812 121.398438 72.195312 "/>
<path style=" stroke:none;fill-rule:nonzero;fill:rgb(0%,0%,100%);fill-opacity:1;" d="M 125.667969 72.371094 L 121.339844 73.597656 L 121.453125 70.792969 L 125.667969 72.371094 "/>
<path style="fill:none;stroke-width:1.01;stroke-linecap:butt;stroke-linejoin:miter;stroke:rgb(100%,0%,0%);stroke-opacity:1;stroke-miterlimit:10;" d="M 129.136719 72.515625 C 139.980469 61.605469 130.738281 40.0625 134.246094 35.957031 "/>
<path style=" stroke:none;fill-rule:nonzero;fill:rgb(100%,0%,0%);fill-opacity:1;" d="M 137.027344 32.707031 L 135.3125 36.871094 L 133.179688 35.046875 L 137.027344 32.707031 "/>
<path style="fill:none;stroke-width:1.01;stroke-linecap:butt;stroke-linejoin:miter;stroke:rgb(0%,0%,100%);stroke-opacity:1;stroke-miterlimit:10;" d="M 138.890625 30.527344 C 122.910156 39.757812 114.367188 70.097656 121.496094 71.265625 "/>
<path style=" stroke:none;fill-rule:nonzero;fill:rgb(0%,0%,100%);fill-opacity:1;" d="M 125.714844 71.957031 L 121.269531 72.652344 L 121.722656 69.878906 L 125.714844 71.957031 "/>
<path style="fill:none;stroke-width:1.01;stroke-linecap:butt;stroke-linejoin:miter;stroke:rgb(0%,0%,100%);stroke-opacity:1;stroke-miterlimit:10;" d="M 129.136719 72.515625 L 123.128906 106.855469 "/>
<path style=" stroke:none;fill-rule:nonzero;fill:rgb(0%,0%,100%);fill-opacity:1;" d="M 122.394531 111.066406 L 121.746094 106.613281 L 124.511719 107.097656 L 122.394531 111.066406 "/>
<path style="fill:none;stroke-width:1.01;stroke-linecap:butt;stroke-linejoin:miter;stroke:rgb(100%,0%,0%);stroke-opacity:1;stroke-miterlimit:10;" d="M 121.703125 115.007812 L 147.1875 127.039062 "/>
<path style=" stroke:none;fill-rule:nonzero;fill:rgb(100%,0%,0%);fill-opacity:1;" d="M 151.050781 128.867188 L 146.585938 128.308594 L 147.785156 125.769531 L 151.050781 128.867188 "/>
<path style="fill:none;stroke-width:1.01;stroke-linecap:butt;stroke-linejoin:miter;stroke:rgb(100%,0%,0%);stroke-opacity:1;stroke-miterlimit:10;" d="M 153.855469 130.191406 C 165.527344 139.359375 176.125 136.585938 189.46875 130.992188 "/>
<path style=" stroke:none;fill-rule:nonzero;fill:rgb(100%,0%,0%);fill-opacity:1;" d="M 193.414062 129.339844 L 190.011719 132.289062 L 188.925781 129.699219 L 193.414062 129.339844 "/>
<path style="fill:none;stroke-width:1.01;stroke-linecap:butt;stroke-linejoin:miter;stroke:rgb(0%,0%,100%);stroke-opacity:1;stroke-miterlimit:10;" d="M 195.902344 128.296875 C 184.363281 117.492188 166.65625 112.414062 158.191406 124.167969 "/>
<path style=" stroke:none;fill-rule:nonzero;fill:rgb(0%,0%,100%);fill-opacity:1;" d="M 155.695312 127.636719 L 157.054688 123.347656 L 159.332031 124.988281 L 155.695312 127.636719 "/>
<path style="fill:none;stroke-width:1.01;stroke-linecap:butt;stroke-linejoin:miter;stroke:rgb(100%,0%,0%);stroke-opacity:1;stroke-miterlimit:10;" d="M 153.855469 130.191406 L 161.941406 153.582031 "/>
<path style=" stroke:none;fill-rule:nonzero;fill:rgb(100%,0%,0%);fill-opacity:1;" d="M 163.335938 157.621094 L 160.613281 154.039062 L 163.265625 153.121094 L 163.335938 157.621094 "/>
<path style="fill:none;stroke-width:1.01;stroke-linecap:butt;stroke-linejoin:miter;stroke:rgb(0%,0%,100%);stroke-opacity:1;stroke-miterlimit:10;" d="M 164.25 160.265625 L 138.957031 151.410156 "/>
<path style=" stroke:none;fill-rule:nonzero;fill:rgb(0%,0%,100%);fill-opacity:1;" d="M 134.921875 149.996094 L 139.421875 150.082031 L 138.492188 152.734375 L 134.921875 149.996094 "/>
<path style="fill:none;stroke-width:1.01;stroke-linecap:butt;stroke-linejoin:miter;stroke:rgb(0%,0%,100%);stroke-opacity:1;stroke-miterlimit:10;" d="M 131.996094 148.972656 L 124.105469 122.925781 "/>
<path style=" stroke:none;fill-rule:nonzero;fill:rgb(0%,0%,100%);fill-opacity:1;" d="M 122.863281 118.835938 L 125.449219 122.519531 L 122.761719 123.332031 L 122.863281 118.835938 "/>
<path style="fill:none;stroke-width:1.01;stroke-linecap:butt;stroke-linejoin:miter;stroke:rgb(100%,0%,0%);stroke-opacity:1;stroke-miterlimit:10;" d="M 166.042969 98.554688 L 183.445312 82.695312 "/>
<path style=" stroke:none;fill-rule:nonzero;fill:rgb(100%,0%,0%);fill-opacity:1;" d="M 186.605469 79.816406 L 184.390625 83.734375 L 182.5 81.660156 L 186.605469 79.816406 "/>
<path style="fill:none;stroke-width:1.02;stroke-linecap:butt;stroke-linejoin:miter;stroke:rgb(0%,0%,100%);stroke-opacity:1;stroke-miterlimit:10;" d="M 188.894531 77.730469 C 174.53125 84.09375 151.796875 69.574219 152.148438 69.257812 "/>
<path style=" stroke:none;fill-rule:nonzero;fill:rgb(0%,0%,100%);fill-opacity:1;" d="M 155.328125 66.40625 L 153.097656 70.3125 L 151.203125 68.203125 L 155.328125 66.40625 "/>
<path style="fill:none;stroke-width:1.01;stroke-linecap:butt;stroke-linejoin:miter;stroke:rgb(100%,0%,0%);stroke-opacity:1;stroke-miterlimit:10;" d="M 158.492188 63.570312 C 170.78125 63.484375 184.132812 80.128906 182.210938 81.097656 "/>
<path style=" stroke:none;fill-rule:nonzero;fill:rgb(100%,0%,0%);fill-opacity:1;" d="M 186.03125 79.171875 L 182.84375 82.351562 L 181.582031 79.84375 L 186.03125 79.171875 "/>
<path style="fill:none;stroke-width:1.01;stroke-linecap:butt;stroke-linejoin:miter;stroke:rgb(100%,0%,0%);stroke-opacity:1;stroke-miterlimit:10;" d="M 158.492188 63.570312 L 176.050781 62.574219 "/>
<path style=" stroke:none;fill-rule:nonzero;fill:rgb(100%,0%,0%);fill-opacity:1;" d="M 180.316406 62.328125 L 176.128906 63.972656 L 175.96875 61.171875 L 180.316406 62.328125 "/>
<path style="fill:none;stroke-width:1.01;stroke-linecap:butt;stroke-linejoin:miter;stroke:rgb(0%,0%,100%);stroke-opacity:1;stroke-miterlimit:10;" d="M 183.113281 62.171875 L 169.304688 91.605469 "/>
<path style=" stroke:none;fill-rule:nonzero;fill:rgb(0%,0%,100%);fill-opacity:1;" d="M 167.488281 95.476562 L 168.03125 91.007812 L 170.574219 92.203125 L 167.488281 95.476562 "/>
<path style="fill:none;stroke-width:1.01;stroke-linecap:butt;stroke-linejoin:miter;stroke:rgb(100%,0%,0%);stroke-opacity:1;stroke-miterlimit:10;" d="M 166.042969 98.554688 L 203.871094 92.875 "/>
<path style=" stroke:none;fill-rule:nonzero;fill:rgb(100%,0%,0%);fill-opacity:1;" d="M 208.101562 92.242188 L 204.082031 94.265625 L 203.664062 91.488281 L 208.101562 92.242188 "/>
<path style="fill:none;stroke-width:1.01;stroke-linecap:butt;stroke-linejoin:miter;stroke:rgb(0%,0%,100%);stroke-opacity:1;stroke-miterlimit:10;" d="M 210.871094 91.824219 L 236.9375 70.277344 "/>
<path style=" stroke:none;fill-rule:nonzero;fill:rgb(0%,0%,100%);fill-opacity:1;" d="M 240.230469 67.554688 L 237.832031 71.359375 L 236.042969 69.195312 L 240.230469 67.554688 "/>
<path style="fill:none;stroke-width:1.01;stroke-linecap:butt;stroke-linejoin:miter;stroke:rgb(100%,0%,0%);stroke-opacity:1;stroke-miterlimit:10;" d="M 566.277344 192.902344 L 572.390625 218.542969 "/>
<path style=" stroke:none;fill-rule:nonzero;fill:rgb(100%,0%,0%);fill-opacity:1;" d="M 573.382812 222.703125 L 571.027344 218.871094 L 573.757812 218.21875 L 573.382812 222.703125 "/>
<path style="fill:none;stroke-width:1.01;stroke-linecap:butt;stroke-linejoin:miter;stroke:rgb(100%,0%,0%);stroke-opacity:1;stroke-miterlimit:10;" d="M 574.03125 225.425781 L 578.765625 251.585938 "/>
<path style=" stroke:none;fill-rule:nonzero;fill:rgb(100%,0%,0%);fill-opacity:1;" d="M 579.527344 255.792969 L 577.386719 251.835938 L 580.148438 251.335938 L 579.527344 255.792969 "/>
<path style="fill-rule:nonzero;fill:rgb(82.745098%,82.745098%,82.745098%);fill-opacity:1;stroke-width:0.5;stroke-linecap:butt;stroke-linejoin:miter;stroke:rgb(0%,0%,0%);stroke-opacity:1;stroke-miterlimit:10;" d="M 286.066406 441.574219 C 286.066406 445.105469 280.765625 445.105469 280.765625 441.574219 C 280.765625 438.039062 286.066406 438.039062 286.066406 441.574219 "/>
<path style="fill-rule:nonzero;fill:rgb(82.745098%,82.745098%,82.745098%);fill-opacity:1;stroke-width:0.5;stroke-linecap:butt;stroke-linejoin:miter;stroke:rgb(0%,0%,0%);stroke-opacity:1;stroke-miterlimit:10;" d="M 251.484375 456.03125 C 251.484375 459.761719 245.882812 459.761719 245.882812 456.03125 C 245.882812 452.296875 251.484375 452.296875 251.484375 456.03125 "/>
<path style="fill-rule:nonzero;fill:rgb(82.745098%,82.745098%,82.745098%);fill-opacity:1;stroke-width:0.5;stroke-linecap:butt;stroke-linejoin:miter;stroke:rgb(0%,0%,0%);stroke-opacity:1;stroke-miterlimit:10;" d="M 214.082031 478.496094 C 214.082031 482.027344 211.214844 484.894531 207.679688 484.894531 C 204.148438 484.894531 201.28125 482.027344 201.28125 478.496094 C 201.28125 474.960938 204.148438 472.09375 207.679688 472.09375 C 211.214844 472.09375 214.082031 474.960938 214.082031 478.496094 "/>
<path style="fill-rule:nonzero;fill:rgb(82.745098%,82.745098%,82.745098%);fill-opacity:1;stroke-width:0.5;stroke-linecap:butt;stroke-linejoin:miter;stroke:rgb(0%,0%,0%);stroke-opacity:1;stroke-miterlimit:10;" d="M 232.867188 516.824219 C 232.867188 522.558594 224.269531 522.558594 224.269531 516.824219 C 224.269531 511.089844 232.867188 511.089844 232.867188 516.824219 "/>
<path style="fill-rule:nonzero;fill:rgb(82.745098%,82.745098%,82.745098%);fill-opacity:1;stroke-width:0.5;stroke-linecap:butt;stroke-linejoin:miter;stroke:rgb(0%,0%,0%);stroke-opacity:1;stroke-miterlimit:10;" d="M 244.039062 556.84375 C 244.039062 560.578125 238.4375 560.578125 238.4375 556.84375 C 238.4375 553.113281 244.039062 553.113281 244.039062 556.84375 "/>
<path style="fill-rule:nonzero;fill:rgb(82.745098%,82.745098%,82.745098%);fill-opacity:1;stroke-width:0.5;stroke-linecap:butt;stroke-linejoin:miter;stroke:rgb(0%,0%,0%);stroke-opacity:1;stroke-miterlimit:10;" d="M 223.183594 528.539062 C 223.183594 534.269531 214.582031 534.269531 214.582031 528.539062 C 214.582031 522.804688 223.183594 522.804688 223.183594 528.539062 "/>
<path style="fill-rule:nonzero;fill:rgb(82.745098%,82.745098%,82.745098%);fill-opacity:1;stroke-width:0.5;stroke-linecap:butt;stroke-linejoin:miter;stroke:rgb(0%,0%,0%);stroke-opacity:1;stroke-miterlimit:10;" d="M 265.542969 533.386719 C 265.542969 537.117188 259.945312 537.117188 259.945312 533.386719 C 259.945312 529.652344 265.542969 529.652344 265.542969 533.386719 "/>
<path style="fill-rule:nonzero;fill:rgb(82.745098%,82.745098%,82.745098%);fill-opacity:1;stroke-width:0.5;stroke-linecap:butt;stroke-linejoin:miter;stroke:rgb(0%,0%,0%);stroke-opacity:1;stroke-miterlimit:10;" d="M 185.695312 508.214844 C 185.695312 512.75 178.894531 512.75 178.894531 508.214844 C 178.894531 503.683594 185.695312 503.683594 185.695312 508.214844 "/>
<path style="fill-rule:nonzero;fill:rgb(82.745098%,82.745098%,82.745098%);fill-opacity:1;stroke-width:0.5;stroke-linecap:butt;stroke-linejoin:miter;stroke:rgb(0%,0%,0%);stroke-opacity:1;stroke-miterlimit:10;" d="M 238.042969 452.695312 C 238.042969 456.828125 231.839844 456.828125 231.839844 452.695312 C 231.839844 448.5625 238.042969 448.5625 238.042969 452.695312 "/>
<path style="fill-rule:nonzero;fill:rgb(82.745098%,82.745098%,82.745098%);fill-opacity:1;stroke-width:0.5;stroke-linecap:butt;stroke-linejoin:miter;stroke:rgb(0%,0%,0%);stroke-opacity:1;stroke-miterlimit:10;" d="M 253.308594 545.699219 C 253.308594 549.433594 247.710938 549.433594 247.710938 545.699219 C 247.710938 541.964844 253.308594 541.964844 253.308594 545.699219 "/>
<path style="fill-rule:nonzero;fill:rgb(82.745098%,82.745098%,82.745098%);fill-opacity:1;stroke-width:0.5;stroke-linecap:butt;stroke-linejoin:miter;stroke:rgb(0%,0%,0%);stroke-opacity:1;stroke-miterlimit:10;" d="M 209.761719 507.546875 C 209.761719 511.679688 203.5625 511.679688 203.5625 507.546875 C 203.5625 503.414062 209.761719 503.414062 209.761719 507.546875 "/>
<path style="fill-rule:nonzero;fill:rgb(82.745098%,82.745098%,82.745098%);fill-opacity:1;stroke-width:0.5;stroke-linecap:butt;stroke-linejoin:miter;stroke:rgb(0%,0%,0%);stroke-opacity:1;stroke-miterlimit:10;" d="M 211.210938 559.152344 C 211.210938 562.886719 205.613281 562.886719 205.613281 559.152344 C 205.613281 555.417969 211.210938 555.417969 211.210938 559.152344 "/>
<path style="fill-rule:nonzero;fill:rgb(82.745098%,82.745098%,82.745098%);fill-opacity:1;stroke-width:0.5;stroke-linecap:butt;stroke-linejoin:miter;stroke:rgb(0%,0%,0%);stroke-opacity:1;stroke-miterlimit:10;" d="M 175.394531 539.464844 C 175.394531 543.996094 168.59375 543.996094 168.59375 539.464844 C 168.59375 534.929688 175.394531 534.929688 175.394531 539.464844 "/>
<path style="fill-rule:nonzero;fill:rgb(82.745098%,82.745098%,82.745098%);fill-opacity:1;stroke-width:0.5;stroke-linecap:butt;stroke-linejoin:miter;stroke:rgb(0%,0%,0%);stroke-opacity:1;stroke-miterlimit:10;" d="M 198.292969 498.863281 C 198.292969 505.796875 187.890625 505.796875 187.890625 498.863281 C 187.890625 491.933594 198.292969 491.933594 198.292969 498.863281 "/>
<path style="fill-rule:nonzero;fill:rgb(82.745098%,82.745098%,82.745098%);fill-opacity:1;stroke-width:0.5;stroke-linecap:butt;stroke-linejoin:miter;stroke:rgb(0%,0%,0%);stroke-opacity:1;stroke-miterlimit:10;" d="M 217.511719 468.832031 C 217.511719 472.566406 211.914062 472.566406 211.914062 468.832031 C 211.914062 465.101562 217.511719 465.101562 217.511719 468.832031 "/>
<path style="fill-rule:nonzero;fill:rgb(82.745098%,82.745098%,82.745098%);fill-opacity:1;stroke-width:0.5;stroke-linecap:butt;stroke-linejoin:miter;stroke:rgb(0%,0%,0%);stroke-opacity:1;stroke-miterlimit:10;" d="M 186.074219 546.035156 C 186.074219 550.570312 179.273438 550.570312 179.273438 546.035156 C 179.273438 541.5 186.074219 541.5 186.074219 546.035156 "/>
<path style="fill-rule:nonzero;fill:rgb(82.745098%,82.745098%,82.745098%);fill-opacity:1;stroke-width:0.5;stroke-linecap:butt;stroke-linejoin:miter;stroke:rgb(0%,0%,0%);stroke-opacity:1;stroke-miterlimit:10;" d="M 203.492188 571.878906 C 203.492188 575.613281 197.890625 575.613281 197.890625 571.878906 C 197.890625 568.144531 203.492188 568.144531 203.492188 571.878906 "/>
<path style="fill-rule:nonzero;fill:rgb(82.745098%,82.745098%,82.745098%);fill-opacity:1;stroke-width:0.5;stroke-linecap:butt;stroke-linejoin:miter;stroke:rgb(0%,0%,0%);stroke-opacity:1;stroke-miterlimit:10;" d="M 173.355469 462.320312 C 173.355469 466.851562 166.554688 466.851562 166.554688 462.320312 C 166.554688 457.785156 173.355469 457.785156 173.355469 462.320312 "/>
<path style="fill-rule:nonzero;fill:rgb(82.745098%,82.745098%,82.745098%);fill-opacity:1;stroke-width:0.5;stroke-linecap:butt;stroke-linejoin:miter;stroke:rgb(0%,0%,0%);stroke-opacity:1;stroke-miterlimit:10;" d="M 137.125 448.773438 C 137.125 451.808594 134.660156 454.273438 131.625 454.273438 C 128.585938 454.273438 126.125 451.808594 126.125 448.773438 C 126.125 445.734375 128.585938 443.273438 131.625 443.273438 C 134.660156 443.273438 137.125 445.734375 137.125 448.773438 "/>
<path style="fill-rule:nonzero;fill:rgb(82.745098%,82.745098%,82.745098%);fill-opacity:1;stroke-width:0.5;stroke-linecap:butt;stroke-linejoin:miter;stroke:rgb(0%,0%,0%);stroke-opacity:1;stroke-miterlimit:10;" d="M 115.609375 486.621094 C 115.609375 491.554688 108.207031 491.554688 108.207031 486.621094 C 108.207031 481.6875 115.609375 481.6875 115.609375 486.621094 "/>
<path style="fill-rule:nonzero;fill:rgb(82.745098%,82.745098%,82.745098%);fill-opacity:1;stroke-width:0.5;stroke-linecap:butt;stroke-linejoin:miter;stroke:rgb(0%,0%,0%);stroke-opacity:1;stroke-miterlimit:10;" d="M 104.984375 515.023438 C 104.984375 519.15625 98.785156 519.15625 98.785156 515.023438 C 98.785156 510.890625 104.984375 510.890625 104.984375 515.023438 "/>
<path style="fill-rule:nonzero;fill:rgb(82.745098%,82.745098%,82.745098%);fill-opacity:1;stroke-width:0.5;stroke-linecap:butt;stroke-linejoin:miter;stroke:rgb(0%,0%,0%);stroke-opacity:1;stroke-miterlimit:10;" d="M 81.121094 492.582031 C 81.121094 496.316406 75.519531 496.316406 75.519531 492.582031 C 75.519531 488.851562 81.121094 488.851562 81.121094 492.582031 "/>
<path style="fill-rule:nonzero;fill:rgb(82.745098%,82.745098%,82.745098%);fill-opacity:1;stroke-width:0.5;stroke-linecap:butt;stroke-linejoin:miter;stroke:rgb(0%,0%,0%);stroke-opacity:1;stroke-miterlimit:10;" d="M 114.925781 471.015625 C 114.925781 476.347656 106.925781 476.347656 106.925781 471.015625 C 106.925781 465.679688 114.925781 465.679688 114.925781 471.015625 "/>
<path style="fill-rule:nonzero;fill:rgb(82.745098%,82.745098%,82.745098%);fill-opacity:1;stroke-width:0.5;stroke-linecap:butt;stroke-linejoin:miter;stroke:rgb(0%,0%,0%);stroke-opacity:1;stroke-miterlimit:10;" d="M 89.535156 507.148438 C 89.535156 510.882812 83.9375 510.882812 83.9375 507.148438 C 83.9375 503.414062 89.535156 503.414062 89.535156 507.148438 "/>
<path style="fill-rule:nonzero;fill:rgb(82.745098%,82.745098%,82.745098%);fill-opacity:1;stroke-width:0.5;stroke-linecap:butt;stroke-linejoin:miter;stroke:rgb(0%,0%,0%);stroke-opacity:1;stroke-miterlimit:10;" d="M 155.230469 439.1875 C 155.230469 443.320312 149.03125 443.320312 149.03125 439.1875 C 149.03125 435.054688 155.230469 435.054688 155.230469 439.1875 "/>
<path style="fill-rule:nonzero;fill:rgb(82.745098%,82.745098%,82.745098%);fill-opacity:1;stroke-width:0.5;stroke-linecap:butt;stroke-linejoin:miter;stroke:rgb(0%,0%,0%);stroke-opacity:1;stroke-miterlimit:10;" d="M 137.738281 435.289062 C 137.738281 438.328125 135.277344 440.789062 132.238281 440.789062 C 129.203125 440.789062 126.738281 438.328125 126.738281 435.289062 C 126.738281 432.253906 129.203125 429.789062 132.238281 429.789062 C 135.277344 429.789062 137.738281 432.253906 137.738281 435.289062 "/>
<path style="fill-rule:nonzero;fill:rgb(82.745098%,82.745098%,82.745098%);fill-opacity:1;stroke-width:0.5;stroke-linecap:butt;stroke-linejoin:miter;stroke:rgb(0%,0%,0%);stroke-opacity:1;stroke-miterlimit:10;" d="M 130.8125 416.90625 C 130.8125 420.640625 125.210938 420.640625 125.210938 416.90625 C 125.210938 413.175781 130.8125 413.175781 130.8125 416.90625 "/>
<path style="fill-rule:nonzero;fill:rgb(82.745098%,82.745098%,82.745098%);fill-opacity:1;stroke-width:0.5;stroke-linecap:butt;stroke-linejoin:miter;stroke:rgb(0%,0%,0%);stroke-opacity:1;stroke-miterlimit:10;" d="M 151.847656 422.027344 C 151.847656 426.164062 145.648438 426.164062 145.648438 422.027344 C 145.648438 417.894531 151.847656 417.894531 151.847656 422.027344 "/>
<path style="fill-rule:nonzero;fill:rgb(82.745098%,82.745098%,82.745098%);fill-opacity:1;stroke-width:0.5;stroke-linecap:butt;stroke-linejoin:miter;stroke:rgb(0%,0%,0%);stroke-opacity:1;stroke-miterlimit:10;" d="M 103.445312 450.0625 C 103.445312 455.796875 94.84375 455.796875 94.84375 450.0625 C 94.84375 444.328125 103.445312 444.328125 103.445312 450.0625 "/>
<path style="fill-rule:nonzero;fill:rgb(82.745098%,82.745098%,82.745098%);fill-opacity:1;stroke-width:0.5;stroke-linecap:butt;stroke-linejoin:miter;stroke:rgb(0%,0%,0%);stroke-opacity:1;stroke-miterlimit:10;" d="M 64.605469 461.675781 C 64.605469 465.808594 58.402344 465.808594 58.402344 461.675781 C 58.402344 457.542969 64.605469 457.542969 64.605469 461.675781 "/>
<path style="fill-rule:nonzero;fill:rgb(82.745098%,82.745098%,82.745098%);fill-opacity:1;stroke-width:0.5;stroke-linecap:butt;stroke-linejoin:miter;stroke:rgb(0%,0%,0%);stroke-opacity:1;stroke-miterlimit:10;" d="M 69.636719 481.460938 C 69.636719 485.195312 64.035156 485.195312 64.035156 481.460938 C 64.035156 477.726562 69.636719 477.726562 69.636719 481.460938 "/>
<path style="fill-rule:nonzero;fill:rgb(82.745098%,82.745098%,82.745098%);fill-opacity:1;stroke-width:0.5;stroke-linecap:butt;stroke-linejoin:miter;stroke:rgb(0%,0%,0%);stroke-opacity:1;stroke-miterlimit:10;" d="M 108.765625 418.179688 C 108.765625 421.914062 103.164062 421.914062 103.164062 418.179688 C 103.164062 414.449219 108.765625 414.449219 108.765625 418.179688 "/>
<path style="fill-rule:nonzero;fill:rgb(82.745098%,82.745098%,82.745098%);fill-opacity:1;stroke-width:0.5;stroke-linecap:butt;stroke-linejoin:miter;stroke:rgb(0%,0%,0%);stroke-opacity:1;stroke-miterlimit:10;" d="M 73.339844 420.679688 C 73.339844 424.414062 67.738281 424.414062 67.738281 420.679688 C 67.738281 416.949219 73.339844 416.949219 73.339844 420.679688 "/>
<path style="fill-rule:nonzero;fill:rgb(82.745098%,82.745098%,82.745098%);fill-opacity:1;stroke-width:0.5;stroke-linecap:butt;stroke-linejoin:miter;stroke:rgb(0%,0%,0%);stroke-opacity:1;stroke-miterlimit:10;" d="M 167.765625 410.445312 C 167.765625 414.179688 162.164062 414.179688 162.164062 410.445312 C 162.164062 406.710938 167.765625 406.710938 167.765625 410.445312 "/>
<path style="fill-rule:nonzero;fill:rgb(82.745098%,82.745098%,82.745098%);fill-opacity:1;stroke-width:0.5;stroke-linecap:butt;stroke-linejoin:miter;stroke:rgb(0%,0%,0%);stroke-opacity:1;stroke-miterlimit:10;" d="M 193.71875 429.300781 C 193.71875 433.035156 188.117188 433.035156 188.117188 429.300781 C 188.117188 425.570312 193.71875 425.570312 193.71875 429.300781 "/>
<path style="fill-rule:nonzero;fill:rgb(82.745098%,82.745098%,82.745098%);fill-opacity:1;stroke-width:0.5;stroke-linecap:butt;stroke-linejoin:miter;stroke:rgb(0%,0%,0%);stroke-opacity:1;stroke-miterlimit:10;" d="M 165.640625 580 C 165.640625 584.535156 158.839844 584.535156 158.839844 580 C 158.839844 575.464844 165.640625 575.464844 165.640625 580 "/>
<path style="fill-rule:nonzero;fill:rgb(82.745098%,82.745098%,82.745098%);fill-opacity:1;stroke-width:0.5;stroke-linecap:butt;stroke-linejoin:miter;stroke:rgb(0%,0%,0%);stroke-opacity:1;stroke-miterlimit:10;" d="M 218.246094 570.109375 C 218.246094 573.84375 212.644531 573.84375 212.644531 570.109375 C 212.644531 566.378906 218.246094 566.378906 218.246094 570.109375 "/>
<path style="fill-rule:nonzero;fill:rgb(82.745098%,82.745098%,82.745098%);fill-opacity:1;stroke-width:0.5;stroke-linecap:butt;stroke-linejoin:miter;stroke:rgb(0%,0%,0%);stroke-opacity:1;stroke-miterlimit:10;" d="M 273.46875 515.140625 C 273.46875 518.871094 267.871094 518.871094 267.871094 515.140625 C 267.871094 511.40625 273.46875 511.40625 273.46875 515.140625 "/>
<path style="fill-rule:nonzero;fill:rgb(82.745098%,82.745098%,82.745098%);fill-opacity:1;stroke-width:0.5;stroke-linecap:butt;stroke-linejoin:miter;stroke:rgb(0%,0%,0%);stroke-opacity:1;stroke-miterlimit:10;" d="M 240.097656 485.203125 C 240.097656 489.738281 233.296875 489.738281 233.296875 485.203125 C 233.296875 480.671875 240.097656 480.671875 240.097656 485.203125 "/>
<path style="fill-rule:nonzero;fill:rgb(82.745098%,82.745098%,82.745098%);fill-opacity:1;stroke-width:0.5;stroke-linecap:butt;stroke-linejoin:miter;stroke:rgb(0%,0%,0%);stroke-opacity:1;stroke-miterlimit:10;" d="M 280.816406 481.574219 C 280.816406 485.308594 275.21875 485.308594 275.21875 481.574219 C 275.21875 477.84375 280.816406 477.84375 280.816406 481.574219 "/>
<path style="fill-rule:nonzero;fill:rgb(82.745098%,82.745098%,82.745098%);fill-opacity:1;stroke-width:0.5;stroke-linecap:butt;stroke-linejoin:miter;stroke:rgb(0%,0%,0%);stroke-opacity:1;stroke-miterlimit:10;" d="M 229.582031 442.757812 C 229.582031 446.492188 223.980469 446.492188 223.980469 442.757812 C 223.980469 439.027344 229.582031 439.027344 229.582031 442.757812 "/>
<path style="fill-rule:nonzero;fill:rgb(82.745098%,82.745098%,82.745098%);fill-opacity:1;stroke-width:0.5;stroke-linecap:butt;stroke-linejoin:miter;stroke:rgb(0%,0%,0%);stroke-opacity:1;stroke-miterlimit:10;" d="M 225.152344 492.917969 C 225.152344 496.652344 219.554688 496.652344 219.554688 492.917969 C 219.554688 489.1875 225.152344 489.1875 225.152344 492.917969 "/>
<path style="fill-rule:nonzero;fill:rgb(82.745098%,82.745098%,82.745098%);fill-opacity:1;stroke-width:0.5;stroke-linecap:butt;stroke-linejoin:miter;stroke:rgb(0%,0%,0%);stroke-opacity:1;stroke-miterlimit:10;" d="M 155.886719 399.601562 C 155.886719 403.335938 150.285156 403.335938 150.285156 399.601562 C 150.285156 395.867188 155.886719 395.867188 155.886719 399.601562 "/>
<path style="fill-rule:nonzero;fill:rgb(82.745098%,82.745098%,82.745098%);fill-opacity:1;stroke-width:0.5;stroke-linecap:butt;stroke-linejoin:miter;stroke:rgb(0%,0%,0%);stroke-opacity:1;stroke-miterlimit:10;" d="M 138.691406 391.480469 C 138.691406 396.011719 131.890625 396.011719 131.890625 391.480469 C 131.890625 386.945312 138.691406 386.945312 138.691406 391.480469 "/>
<path style="fill-rule:nonzero;fill:rgb(82.745098%,82.745098%,82.745098%);fill-opacity:1;stroke-width:0.5;stroke-linecap:butt;stroke-linejoin:miter;stroke:rgb(0%,0%,0%);stroke-opacity:1;stroke-miterlimit:10;" d="M 115.058594 366.328125 C 115.058594 370.058594 109.460938 370.058594 109.460938 366.328125 C 109.460938 362.59375 115.058594 362.59375 115.058594 366.328125 "/>
<path style="fill-rule:nonzero;fill:rgb(82.745098%,82.745098%,82.745098%);fill-opacity:1;stroke-width:0.5;stroke-linecap:butt;stroke-linejoin:miter;stroke:rgb(0%,0%,0%);stroke-opacity:1;stroke-miterlimit:10;" d="M 115.425781 399.269531 C 115.425781 403.402344 109.222656 403.402344 109.222656 399.269531 C 109.222656 395.132812 115.425781 395.132812 115.425781 399.269531 "/>
<path style="fill-rule:nonzero;fill:rgb(82.745098%,82.745098%,82.745098%);fill-opacity:1;stroke-width:0.5;stroke-linecap:butt;stroke-linejoin:miter;stroke:rgb(0%,0%,0%);stroke-opacity:1;stroke-miterlimit:10;" d="M 78.214844 384.175781 C 78.214844 387.910156 72.617188 387.910156 72.617188 384.175781 C 72.617188 380.441406 78.214844 380.441406 78.214844 384.175781 "/>
<path style="fill-rule:nonzero;fill:rgb(82.745098%,82.745098%,82.745098%);fill-opacity:1;stroke-width:0.5;stroke-linecap:butt;stroke-linejoin:miter;stroke:rgb(0%,0%,0%);stroke-opacity:1;stroke-miterlimit:10;" d="M 98.902344 437.03125 C 98.902344 441.164062 92.703125 441.164062 92.703125 437.03125 C 92.703125 432.898438 98.902344 432.898438 98.902344 437.03125 "/>
<path style="fill-rule:nonzero;fill:rgb(82.745098%,82.745098%,82.745098%);fill-opacity:1;stroke-width:0.5;stroke-linecap:butt;stroke-linejoin:miter;stroke:rgb(0%,0%,0%);stroke-opacity:1;stroke-miterlimit:10;" d="M 57.453125 451 C 57.453125 454.734375 51.851562 454.734375 51.851562 451 C 51.851562 447.265625 57.453125 447.265625 57.453125 451 "/>
<path style="fill-rule:nonzero;fill:rgb(82.745098%,82.745098%,82.745098%);fill-opacity:1;stroke-width:0.5;stroke-linecap:butt;stroke-linejoin:miter;stroke:rgb(0%,0%,0%);stroke-opacity:1;stroke-miterlimit:10;" d="M 22.800781 452.546875 C 22.800781 456.28125 17.199219 456.28125 17.199219 452.546875 C 17.199219 448.8125 22.800781 448.8125 22.800781 452.546875 "/>
<path style="fill-rule:nonzero;fill:rgb(82.745098%,82.745098%,82.745098%);fill-opacity:1;stroke-width:0.5;stroke-linecap:butt;stroke-linejoin:miter;stroke:rgb(0%,0%,0%);stroke-opacity:1;stroke-miterlimit:10;" d="M 56.667969 430.304688 C 56.667969 434.035156 51.070312 434.035156 51.070312 430.304688 C 51.070312 426.570312 56.667969 426.570312 56.667969 430.304688 "/>
<path style="fill-rule:nonzero;fill:rgb(82.745098%,82.745098%,82.745098%);fill-opacity:1;stroke-width:0.5;stroke-linecap:butt;stroke-linejoin:miter;stroke:rgb(0%,0%,0%);stroke-opacity:1;stroke-miterlimit:10;" d="M 136.359375 477.089844 C 136.359375 480.824219 130.757812 480.824219 130.757812 477.089844 C 130.757812 473.359375 136.359375 473.359375 136.359375 477.089844 "/>
<path style="fill-rule:nonzero;fill:rgb(82.745098%,82.745098%,82.745098%);fill-opacity:1;stroke-width:0.5;stroke-linecap:butt;stroke-linejoin:miter;stroke:rgb(0%,0%,0%);stroke-opacity:1;stroke-miterlimit:10;" d="M 147.53125 347.496094 C 147.53125 351.230469 141.933594 351.230469 141.933594 347.496094 C 141.933594 343.761719 147.53125 343.761719 147.53125 347.496094 "/>
<path style="fill-rule:nonzero;fill:rgb(82.745098%,82.745098%,82.745098%);fill-opacity:1;stroke-width:0.5;stroke-linecap:butt;stroke-linejoin:miter;stroke:rgb(0%,0%,0%);stroke-opacity:1;stroke-miterlimit:10;" d="M 146.050781 307.601562 C 146.050781 311.332031 140.453125 311.332031 140.453125 307.601562 C 140.453125 303.867188 146.050781 303.867188 146.050781 307.601562 "/>
<path style="fill-rule:nonzero;fill:rgb(82.745098%,82.745098%,82.745098%);fill-opacity:1;stroke-width:0.5;stroke-linecap:butt;stroke-linejoin:miter;stroke:rgb(0%,0%,0%);stroke-opacity:1;stroke-miterlimit:10;" d="M 142.539062 269.382812 C 142.539062 273.117188 136.941406 273.117188 136.941406 269.382812 C 136.941406 265.648438 142.539062 265.648438 142.539062 269.382812 "/>
<path style="fill-rule:nonzero;fill:rgb(82.745098%,82.745098%,82.745098%);fill-opacity:1;stroke-width:0.5;stroke-linecap:butt;stroke-linejoin:miter;stroke:rgb(0%,0%,0%);stroke-opacity:1;stroke-miterlimit:10;" d="M 138.570312 231.371094 C 138.570312 235.101562 132.972656 235.101562 132.972656 231.371094 C 132.972656 227.636719 138.570312 227.636719 138.570312 231.371094 "/>
<path style="fill-rule:nonzero;fill:rgb(82.745098%,82.745098%,82.745098%);fill-opacity:1;stroke-width:0.5;stroke-linecap:butt;stroke-linejoin:miter;stroke:rgb(0%,0%,0%);stroke-opacity:1;stroke-miterlimit:10;" d="M 134.660156 192.222656 C 134.660156 195.953125 129.058594 195.953125 129.058594 192.222656 C 129.058594 188.488281 134.660156 188.488281 134.660156 192.222656 "/>
<path style="fill-rule:nonzero;fill:rgb(82.745098%,82.745098%,82.745098%);fill-opacity:1;stroke-width:0.5;stroke-linecap:butt;stroke-linejoin:miter;stroke:rgb(0%,0%,0%);stroke-opacity:1;stroke-miterlimit:10;" d="M 135.097656 148.972656 C 135.097656 153.105469 128.898438 153.105469 128.898438 148.972656 C 128.898438 144.835938 135.097656 144.835938 135.097656 148.972656 "/>
<path style="fill-rule:nonzero;fill:rgb(82.745098%,82.745098%,82.745098%);fill-opacity:1;stroke-width:0.5;stroke-linecap:butt;stroke-linejoin:miter;stroke:rgb(0%,0%,0%);stroke-opacity:1;stroke-miterlimit:10;" d="M 128.898438 98.335938 C 128.898438 104.070312 120.300781 104.070312 120.300781 98.335938 C 120.300781 92.601562 128.898438 92.601562 128.898438 98.335938 "/>
<path style="fill-rule:nonzero;fill:rgb(82.745098%,82.745098%,82.745098%);fill-opacity:1;stroke-width:0.5;stroke-linecap:butt;stroke-linejoin:miter;stroke:rgb(0%,0%,0%);stroke-opacity:1;stroke-miterlimit:10;" d="M 153.503906 107.671875 C 153.503906 111.40625 147.902344 111.40625 147.902344 107.671875 C 147.902344 103.941406 153.503906 103.941406 153.503906 107.671875 "/>
<path style="fill-rule:nonzero;fill:rgb(82.745098%,82.745098%,82.745098%);fill-opacity:1;stroke-width:0.5;stroke-linecap:butt;stroke-linejoin:miter;stroke:rgb(0%,0%,0%);stroke-opacity:1;stroke-miterlimit:10;" d="M 96.003906 106.9375 C 96.003906 111.46875 89.203125 111.46875 89.203125 106.9375 C 89.203125 102.402344 96.003906 102.402344 96.003906 106.9375 "/>
<path style="fill-rule:nonzero;fill:rgb(82.745098%,82.745098%,82.745098%);fill-opacity:1;stroke-width:0.5;stroke-linecap:butt;stroke-linejoin:miter;stroke:rgb(0%,0%,0%);stroke-opacity:1;stroke-miterlimit:10;" d="M 55.710938 115.269531 C 55.710938 119 50.113281 119 50.113281 115.269531 C 50.113281 111.535156 55.710938 111.535156 55.710938 115.269531 "/>
<path style="fill-rule:nonzero;fill:rgb(82.745098%,82.745098%,82.745098%);fill-opacity:1;stroke-width:0.5;stroke-linecap:butt;stroke-linejoin:miter;stroke:rgb(0%,0%,0%);stroke-opacity:1;stroke-miterlimit:10;" d="M 55.71875 93.203125 C 55.71875 96.933594 50.121094 96.933594 50.121094 93.203125 C 50.121094 89.46875 55.71875 89.46875 55.71875 93.203125 "/>
<path style="fill-rule:nonzero;fill:rgb(82.745098%,82.745098%,82.745098%);fill-opacity:1;stroke-width:0.5;stroke-linecap:butt;stroke-linejoin:miter;stroke:rgb(0%,0%,0%);stroke-opacity:1;stroke-miterlimit:10;" d="M 125.703125 115.007812 C 125.703125 120.339844 117.703125 120.339844 117.703125 115.007812 C 117.703125 109.671875 125.703125 109.671875 125.703125 115.007812 "/>
<path style="fill-rule:nonzero;fill:rgb(82.745098%,82.745098%,82.745098%);fill-opacity:1;stroke-width:0.5;stroke-linecap:butt;stroke-linejoin:miter;stroke:rgb(0%,0%,0%);stroke-opacity:1;stroke-miterlimit:10;" d="M 91.199219 132.269531 C 91.199219 136.003906 85.597656 136.003906 85.597656 132.269531 C 85.597656 128.535156 91.199219 128.535156 91.199219 132.269531 "/>
<path style="fill-rule:nonzero;fill:rgb(82.745098%,82.745098%,82.745098%);fill-opacity:1;stroke-width:0.5;stroke-linecap:butt;stroke-linejoin:miter;stroke:rgb(0%,0%,0%);stroke-opacity:1;stroke-miterlimit:10;" d="M 57.832031 144.238281 C 57.832031 147.972656 52.234375 147.972656 52.234375 144.238281 C 52.234375 140.503906 57.832031 140.503906 57.832031 144.238281 "/>
<path style="fill-rule:nonzero;fill:rgb(82.745098%,82.745098%,82.745098%);fill-opacity:1;stroke-width:0.5;stroke-linecap:butt;stroke-linejoin:miter;stroke:rgb(0%,0%,0%);stroke-opacity:1;stroke-miterlimit:10;" d="M 98.890625 142.410156 C 98.890625 146.144531 93.292969 146.144531 93.292969 142.410156 C 93.292969 138.675781 98.890625 138.675781 98.890625 142.410156 "/>
<path style="fill-rule:nonzero;fill:rgb(82.745098%,82.745098%,82.745098%);fill-opacity:1;stroke-width:0.5;stroke-linecap:butt;stroke-linejoin:miter;stroke:rgb(0%,0%,0%);stroke-opacity:1;stroke-miterlimit:10;" d="M 169.445312 98.554688 C 169.445312 103.089844 162.644531 103.089844 162.644531 98.554688 C 162.644531 94.019531 169.445312 94.019531 169.445312 98.554688 "/>
<path style="fill-rule:nonzero;fill:rgb(82.745098%,82.745098%,82.745098%);fill-opacity:1;stroke-width:0.5;stroke-linecap:butt;stroke-linejoin:miter;stroke:rgb(0%,0%,0%);stroke-opacity:1;stroke-miterlimit:10;" d="M 98.359375 80.78125 C 98.359375 86.113281 90.359375 86.113281 90.359375 80.78125 C 90.359375 75.445312 98.359375 75.445312 98.359375 80.78125 "/>
<path style="fill-rule:nonzero;fill:rgb(82.745098%,82.745098%,82.745098%);fill-opacity:1;stroke-width:0.5;stroke-linecap:butt;stroke-linejoin:miter;stroke:rgb(0%,0%,0%);stroke-opacity:1;stroke-miterlimit:10;" d="M 63.878906 59.078125 C 63.878906 62.8125 58.277344 62.8125 58.277344 59.078125 C 58.277344 55.347656 63.878906 55.347656 63.878906 59.078125 "/>
<path style="fill-rule:nonzero;fill:rgb(82.745098%,82.745098%,82.745098%);fill-opacity:1;stroke-width:0.5;stroke-linecap:butt;stroke-linejoin:miter;stroke:rgb(0%,0%,0%);stroke-opacity:1;stroke-miterlimit:10;" d="M 112.820312 66.722656 C 112.820312 70.457031 107.222656 70.457031 107.222656 66.722656 C 107.222656 62.992188 112.820312 62.992188 112.820312 66.722656 "/>
<path style="fill-rule:nonzero;fill:rgb(82.745098%,82.745098%,82.745098%);fill-opacity:1;stroke-width:0.5;stroke-linecap:butt;stroke-linejoin:miter;stroke:rgb(0%,0%,0%);stroke-opacity:1;stroke-miterlimit:10;" d="M 96.445312 39.304688 C 96.445312 43.039062 90.84375 43.039062 90.84375 39.304688 C 90.84375 35.570312 96.445312 35.570312 96.445312 39.304688 "/>
<path style="fill-rule:nonzero;fill:rgb(82.745098%,82.745098%,82.745098%);fill-opacity:1;stroke-width:0.5;stroke-linecap:butt;stroke-linejoin:miter;stroke:rgb(0%,0%,0%);stroke-opacity:1;stroke-miterlimit:10;" d="M 58.175781 77.804688 C 58.175781 81.535156 52.574219 81.535156 52.574219 77.804688 C 52.574219 74.070312 58.175781 74.070312 58.175781 77.804688 "/>
<path style="fill-rule:nonzero;fill:rgb(82.745098%,82.745098%,82.745098%);fill-opacity:1;stroke-width:0.5;stroke-linecap:butt;stroke-linejoin:miter;stroke:rgb(0%,0%,0%);stroke-opacity:1;stroke-miterlimit:10;" d="M 76.882812 43.136719 C 76.882812 46.871094 71.28125 46.871094 71.28125 43.136719 C 71.28125 39.40625 76.882812 39.40625 76.882812 43.136719 "/>
<path style="fill-rule:nonzero;fill:rgb(82.745098%,82.745098%,82.745098%);fill-opacity:1;stroke-width:0.5;stroke-linecap:butt;stroke-linejoin:miter;stroke:rgb(0%,0%,0%);stroke-opacity:1;stroke-miterlimit:10;" d="M 162.792969 63.570312 C 162.792969 69.304688 154.191406 69.304688 154.191406 63.570312 C 154.191406 57.835938 162.792969 57.835938 162.792969 63.570312 "/>
<path style="fill-rule:nonzero;fill:rgb(82.745098%,82.745098%,82.745098%);fill-opacity:1;stroke-width:0.5;stroke-linecap:butt;stroke-linejoin:miter;stroke:rgb(0%,0%,0%);stroke-opacity:1;stroke-miterlimit:10;" d="M 192.164062 32.773438 C 192.164062 36.507812 186.5625 36.507812 186.5625 32.773438 C 186.5625 29.039062 192.164062 29.039062 192.164062 32.773438 "/>
<path style="fill-rule:nonzero;fill:rgb(82.745098%,82.745098%,82.745098%);fill-opacity:1;stroke-width:0.5;stroke-linecap:butt;stroke-linejoin:miter;stroke:rgb(0%,0%,0%);stroke-opacity:1;stroke-miterlimit:10;" d="M 168.328125 20 C 168.328125 23.734375 162.730469 23.734375 162.730469 20 C 162.730469 16.265625 168.328125 16.265625 168.328125 20 "/>
<path style="fill-rule:nonzero;fill:rgb(82.745098%,82.745098%,82.745098%);fill-opacity:1;stroke-width:0.5;stroke-linecap:butt;stroke-linejoin:miter;stroke:rgb(0%,0%,0%);stroke-opacity:1;stroke-miterlimit:10;" d="M 132.535156 72.515625 C 132.535156 77.046875 125.734375 77.046875 125.734375 72.515625 C 125.734375 67.980469 132.535156 67.980469 132.535156 72.515625 "/>
<path style="fill-rule:nonzero;fill:rgb(82.745098%,82.745098%,82.745098%);fill-opacity:1;stroke-width:0.5;stroke-linecap:butt;stroke-linejoin:miter;stroke:rgb(0%,0%,0%);stroke-opacity:1;stroke-miterlimit:10;" d="M 117.8125 28.519531 C 117.8125 32.25 112.214844 32.25 112.214844 28.519531 C 112.214844 24.785156 117.8125 24.785156 117.8125 28.519531 "/>
<path style="fill-rule:nonzero;fill:rgb(82.745098%,82.745098%,82.745098%);fill-opacity:1;stroke-width:0.5;stroke-linecap:butt;stroke-linejoin:miter;stroke:rgb(0%,0%,0%);stroke-opacity:1;stroke-miterlimit:10;" d="M 141.691406 30.527344 C 141.691406 34.257812 136.09375 34.257812 136.09375 30.527344 C 136.09375 26.792969 141.691406 26.792969 141.691406 30.527344 "/>
<path style="fill-rule:nonzero;fill:rgb(82.745098%,82.745098%,82.745098%);fill-opacity:1;stroke-width:0.5;stroke-linecap:butt;stroke-linejoin:miter;stroke:rgb(0%,0%,0%);stroke-opacity:1;stroke-miterlimit:10;" d="M 156.957031 130.191406 C 156.957031 134.324219 150.753906 134.324219 150.753906 130.191406 C 150.753906 126.058594 156.957031 126.058594 156.957031 130.191406 "/>
<path style="fill-rule:nonzero;fill:rgb(82.745098%,82.745098%,82.745098%);fill-opacity:1;stroke-width:0.5;stroke-linecap:butt;stroke-linejoin:miter;stroke:rgb(0%,0%,0%);stroke-opacity:1;stroke-miterlimit:10;" d="M 198.703125 128.296875 C 198.703125 132.03125 193.101562 132.03125 193.101562 128.296875 C 193.101562 124.5625 198.703125 124.5625 198.703125 128.296875 "/>
<path style="fill-rule:nonzero;fill:rgb(82.745098%,82.745098%,82.745098%);fill-opacity:1;stroke-width:0.5;stroke-linecap:butt;stroke-linejoin:miter;stroke:rgb(0%,0%,0%);stroke-opacity:1;stroke-miterlimit:10;" d="M 167.050781 160.265625 C 167.050781 164 161.449219 164 161.449219 160.265625 C 161.449219 156.535156 167.050781 156.535156 167.050781 160.265625 "/>
<path style="fill-rule:nonzero;fill:rgb(82.745098%,82.745098%,82.745098%);fill-opacity:1;stroke-width:0.5;stroke-linecap:butt;stroke-linejoin:miter;stroke:rgb(0%,0%,0%);stroke-opacity:1;stroke-miterlimit:10;" d="M 191.996094 77.730469 C 191.996094 81.863281 185.796875 81.863281 185.796875 77.730469 C 185.796875 73.59375 191.996094 73.59375 191.996094 77.730469 "/>
<path style="fill-rule:nonzero;fill:rgb(82.745098%,82.745098%,82.745098%);fill-opacity:1;stroke-width:0.5;stroke-linecap:butt;stroke-linejoin:miter;stroke:rgb(0%,0%,0%);stroke-opacity:1;stroke-miterlimit:10;" d="M 185.914062 62.171875 C 185.914062 65.902344 180.3125 65.902344 180.3125 62.171875 C 180.3125 58.4375 185.914062 58.4375 185.914062 62.171875 "/>
<path style="fill-rule:nonzero;fill:rgb(82.745098%,82.745098%,82.745098%);fill-opacity:1;stroke-width:0.5;stroke-linecap:butt;stroke-linejoin:miter;stroke:rgb(0%,0%,0%);stroke-opacity:1;stroke-miterlimit:10;" d="M 213.667969 91.824219 C 213.667969 95.558594 208.070312 95.558594 208.070312 91.824219 C 208.070312 88.089844 213.667969 88.089844 213.667969 91.824219 "/>
<path style="fill-rule:nonzero;fill:rgb(82.745098%,82.745098%,82.745098%);fill-opacity:1;stroke-width:0.5;stroke-linecap:butt;stroke-linejoin:miter;stroke:rgb(0%,0%,0%);stroke-opacity:1;stroke-miterlimit:10;" d="M 568.929688 192.902344 C 568.929688 196.4375 563.628906 196.4375 563.628906 192.902344 C 563.628906 189.371094 568.929688 189.371094 568.929688 192.902344 "/>
<path style="fill-rule:nonzero;fill:rgb(82.745098%,82.745098%,82.745098%);fill-opacity:1;stroke-width:0.5;stroke-linecap:butt;stroke-linejoin:miter;stroke:rgb(0%,0%,0%);stroke-opacity:1;stroke-miterlimit:10;" d="M 576.832031 225.425781 C 576.832031 229.160156 571.230469 229.160156 571.230469 225.425781 C 571.230469 221.691406 576.832031 221.691406 576.832031 225.425781 "/>
<path style="fill-rule:nonzero;fill:rgb(82.745098%,82.745098%,82.745098%);fill-opacity:1;stroke-width:0.5;stroke-linecap:butt;stroke-linejoin:miter;stroke:rgb(0%,0%,0%);stroke-opacity:1;stroke-miterlimit:10;" d="M 244.921875 65.867188 C 244.921875 69.398438 239.625 69.398438 239.625 65.867188 C 239.625 62.332031 244.921875 62.332031 244.921875 65.867188 "/>
<path style="fill-rule:nonzero;fill:rgb(82.745098%,82.745098%,82.745098%);fill-opacity:1;stroke-width:0.5;stroke-linecap:butt;stroke-linejoin:miter;stroke:rgb(0%,0%,0%);stroke-opacity:1;stroke-miterlimit:10;" d="M 582.648438 258.402344 C 582.648438 261.933594 577.351562 261.933594 577.351562 258.402344 C 577.351562 254.867188 582.648438 254.867188 582.648438 258.402344 "/>
</g>
</svg>
