<?xml version="1.0" encoding="UTF-8"?>
<svg xmlns="http://www.w3.org/2000/svg" xmlns:xlink="http://www.w3.org/1999/xlink" width="600pt" height="600pt" viewBox="0 0 600 600" version="1.1">
<g id="surface1">
<rect x="0" y="0" width="600" height="600" style="fill:rgb(100%,100%,100%);fill-opacity:1;stroke:none;"/>
<path style="fill:none;stroke-width:1.01;stroke-linecap:butt;stroke-linejoin:miter;stroke:rgb(100%,0%,0%);stroke-opacity:1;stroke-miterlimit:10;" d="M 491.253906 143.898438 L 515.148438 298.800781 "/>
<path style=" stroke:none;fill-rule:nonzero;fill:rgb(100%,0%,0%);fill-opacity:1;" d="M 515.800781 303.027344 L 513.761719 299.015625 L 516.535156 298.585938 L 515.800781 303.027344 "/>
<path style="fill:none;stroke-width:1.01;stroke-linecap:butt;stroke-linejoin:miter;stroke:rgb(0%,0%,100%);stroke-opacity:1;stroke-miterlimit:10;" d="M 509.257812 489.074219 L 296.019531 576.503906 "/>
<path style=" stroke:none;fill-rule:nonzero;fill:rgb(0%,0%,100%);fill-opacity:1;" d="M 292.0625 578.125 L 295.488281 575.203125 L 296.550781 577.804688 L 292.0625 578.125 "/>
<path style="fill:none;stroke-width:1.01;stroke-linecap:butt;stroke-linejoin:miter;stroke:rgb(0%,0%,100%);stroke-opacity:1;stroke-miterlimit:10;" d="M 539.113281 252.070312 L 452.636719 301.136719 "/>
<path style=" stroke:none;fill-rule:nonzero;fill:rgb(0%,0%,100%);fill-opacity:1;" d="M 448.917969 303.246094 L 451.941406 299.914062 L 453.328125 302.359375 L 448.917969 303.246094 "/>
<path style="fill:none;stroke-width:1.01;stroke-linecap:butt;stroke-linejoin:miter;stroke:rgb(100%,0%,0%);stroke-opacity:1;stroke-miterlimit:10;" d="M 260.707031 84.9375 L 294.117188 26.269531 "/>
<path style=" stroke:none;fill-rule:nonzero;fill:rgb(100%,0%,0%);fill-opacity:1;" d="M 296.234375 22.554688 L 295.339844 26.964844 L 292.898438 25.574219 L 296.234375 22.554688 "/>
<path style="fill:none;stroke-width:1.01;stroke-linecap:butt;stroke-linejoin:miter;stroke:rgb(0%,0%,100%);stroke-opacity:1;stroke-miterlimit:10;" d="M 234.226562 31.796875 L 148.117188 70.601562 "/>
<path style=" stroke:none;fill-rule:nonzero;fill:rgb(0%,0%,100%);fill-opacity:1;" d="M 144.21875 72.355469 L 147.539062 69.320312 L 148.695312 71.878906 L 144.21875 72.355469 "/>
<path style="fill:none;stroke-width:1.01;stroke-linecap:butt;stroke-linejoin:miter;stroke:rgb(100%,0%,0%);stroke-opacity:1;stroke-miterlimit:10;" d="M 466.378906 499.390625 L 431.132812 530.792969 "/>
<path style=" stroke:none;fill-rule:nonzero;fill:rgb(100%,0%,0%);fill-opacity:1;" d="M 427.9375 533.640625 L 430.199219 529.746094 L 432.066406 531.84375 L 427.9375 533.640625 "/>
<path style="fill:none;stroke-width:1.01;stroke-linecap:butt;stroke-linejoin:miter;stroke:rgb(100%,0%,0%);stroke-opacity:1;stroke-miterlimit:10;" d="M 97.304688 465.386719 L 24.472656 379.21875 "/>
<path style=" stroke:none;fill-rule:nonzero;fill:rgb(100%,0%,0%);fill-opacity:1;" d="M 21.710938 375.953125 L 25.542969 378.3125 L 23.398438 380.125 L 21.710938 375.953125 "/>
<path style="fill:none;stroke-width:1.01;stroke-linecap:butt;stroke-linejoin:miter;stroke:rgb(100%,0%,0%);stroke-opacity:1;stroke-miterlimit:10;" d="M 485.933594 279.992188 L 529.070312 178.789062 "/>
<path style=" stroke:none;fill-rule:nonzero;fill:rgb(100%,0%,0%);fill-opacity:1;" d="M 530.746094 174.855469 L 530.363281 179.339844 L 527.777344 178.238281 L 530.746094 174.855469 "/>
<path style="fill:none;stroke-width:1.01;stroke-linecap:butt;stroke-linejoin:miter;stroke:rgb(0%,0%,100%);stroke-opacity:1;stroke-miterlimit:10;" d="M 224.277344 195.921875 L 126.605469 83.234375 "/>
<path style=" stroke:none;fill-rule:nonzero;fill:rgb(0%,0%,100%);fill-opacity:1;" d="M 123.804688 80.003906 L 127.667969 82.316406 L 125.542969 84.15625 L 123.804688 80.003906 "/>
<path style="fill:none;stroke-width:1.01;stroke-linecap:butt;stroke-linejoin:miter;stroke:rgb(100%,0%,0%);stroke-opacity:1;stroke-miterlimit:10;" d="M 57.71875 146.980469 L 89.777344 339.289062 "/>
<path style=" stroke:none;fill-rule:nonzero;fill:rgb(100%,0%,0%);fill-opacity:1;" d="M 90.480469 343.503906 L 88.390625 339.519531 L 91.160156 339.058594 L 90.480469 343.503906 "/>
<path style="fill:none;stroke-width:1.01;stroke-linecap:butt;stroke-linejoin:miter;stroke:rgb(100%,0%,0%);stroke-opacity:1;stroke-miterlimit:10;" d="M 90.941406 346.265625 L 202.964844 388.78125 "/>
<path style=" stroke:none;fill-rule:nonzero;fill:rgb(100%,0%,0%);fill-opacity:1;" d="M 206.964844 390.296875 L 202.46875 390.09375 L 203.464844 387.46875 L 206.964844 390.296875 "/>
<path style="fill:none;stroke-width:1.01;stroke-linecap:butt;stroke-linejoin:miter;stroke:rgb(0%,0%,100%);stroke-opacity:1;stroke-miterlimit:10;" d="M 100.300781 105.175781 L 32.644531 236.628906 "/>
<path style=" stroke:none;fill-rule:nonzero;fill:rgb(0%,0%,100%);fill-opacity:1;" d="M 30.6875 240.433594 L 31.394531 235.988281 L 33.890625 237.273438 L 30.6875 240.433594 "/>
<path style="fill:none;stroke-width:1.01;stroke-linecap:butt;stroke-linejoin:miter;stroke:rgb(0%,0%,100%);stroke-opacity:1;stroke-miterlimit:10;" d="M 486.6875 331.3125 L 524.722656 258.929688 "/>
<path style=" stroke:none;fill-rule:nonzero;fill:rgb(0%,0%,100%);fill-opacity:1;" d="M 526.714844 255.144531 L 525.96875 259.582031 L 523.480469 258.277344 L 526.714844 255.144531 "/>
<path style="fill:none;stroke-width:1.01;stroke-linecap:butt;stroke-linejoin:miter;stroke:rgb(100%,0%,0%);stroke-opacity:1;stroke-miterlimit:10;" d="M 228.863281 580 L 192.261719 504.886719 "/>
<path style=" stroke:none;fill-rule:nonzero;fill:rgb(100%,0%,0%);fill-opacity:1;" d="M 190.390625 501.042969 L 193.523438 504.273438 L 191 505.503906 L 190.390625 501.042969 "/>
<path style="fill:none;stroke-width:1.01;stroke-linecap:butt;stroke-linejoin:miter;stroke:rgb(0%,0%,100%);stroke-opacity:1;stroke-miterlimit:10;" d="M 421.964844 567.90625 L 393 422.578125 "/>
<path style=" stroke:none;fill-rule:nonzero;fill:rgb(0%,0%,100%);fill-opacity:1;" d="M 392.164062 418.382812 L 394.378906 422.300781 L 391.625 422.851562 L 392.164062 418.382812 "/>
<path style="fill:none;stroke-width:1.01;stroke-linecap:butt;stroke-linejoin:miter;stroke:rgb(100%,0%,0%);stroke-opacity:1;stroke-miterlimit:10;" d="M 214.894531 52.179688 L 228.855469 148.53125 "/>
<path style=" stroke:none;fill-rule:nonzero;fill:rgb(100%,0%,0%);fill-opacity:1;" d="M 229.46875 152.761719 L 227.464844 148.734375 L 230.246094 148.328125 L 229.46875 152.761719 "/>
<path style="fill:none;stroke-width:1.01;stroke-linecap:butt;stroke-linejoin:miter;stroke:rgb(100%,0%,0%);stroke-opacity:1;stroke-miterlimit:10;" d="M 232.933594 472.515625 L 287.058594 556.546875 "/>
<path style=" stroke:none;fill-rule:nonzero;fill:rgb(100%,0%,0%);fill-opacity:1;" d="M 289.371094 560.140625 L 285.875 557.308594 L 288.238281 555.789062 L 289.371094 560.140625 "/>
<path style="fill:none;stroke-width:1.01;stroke-linecap:butt;stroke-linejoin:miter;stroke:rgb(0%,0%,100%);stroke-opacity:1;stroke-miterlimit:10;" d="M 366.910156 44.339844 L 426.039062 66.707031 "/>
<path style=" stroke:none;fill-rule:nonzero;fill:rgb(0%,0%,100%);fill-opacity:1;" d="M 430.035156 68.222656 L 425.542969 68.023438 L 426.535156 65.394531 L 430.035156 68.222656 "/>
<path style="fill:none;stroke-width:1.01;stroke-linecap:butt;stroke-linejoin:miter;stroke:rgb(100%,0%,0%);stroke-opacity:1;stroke-miterlimit:10;" d="M 119.066406 492.226562 L 263.671875 502.769531 "/>
<path style=" stroke:none;fill-rule:nonzero;fill:rgb(100%,0%,0%);fill-opacity:1;" d="M 267.933594 503.078125 L 263.570312 504.167969 L 263.773438 501.367188 L 267.933594 503.078125 "/>
<path style="fill:none;stroke-width:1.01;stroke-linecap:butt;stroke-linejoin:miter;stroke:rgb(0%,0%,100%);stroke-opacity:1;stroke-miterlimit:10;" d="M 27.933594 287.9375 L 117.460938 188.195312 "/>
<path style=" stroke:none;fill-rule:nonzero;fill:rgb(0%,0%,100%);fill-opacity:1;" d="M 120.316406 185.015625 L 118.503906 189.136719 L 116.414062 187.257812 L 120.316406 185.015625 "/>
<path style="fill:none;stroke-width:1.01;stroke-linecap:butt;stroke-linejoin:miter;stroke:rgb(100%,0%,0%);stroke-opacity:1;stroke-miterlimit:10;" d="M 495.699219 78.976562 L 369.261719 167.8125 "/>
<path style=" stroke:none;fill-rule:nonzero;fill:rgb(100%,0%,0%);fill-opacity:1;" d="M 365.761719 170.269531 L 368.453125 166.664062 L 370.066406 168.960938 L 365.761719 170.269531 "/>
<path style="fill:none;stroke-width:1.01;stroke-linecap:butt;stroke-linejoin:miter;stroke:rgb(100%,0%,0%);stroke-opacity:1;stroke-miterlimit:10;" d="M 570.296875 329.078125 L 525.503906 415.222656 "/>
<path style=" stroke:none;fill-rule:nonzero;fill:rgb(100%,0%,0%);fill-opacity:1;" d="M 523.53125 419.015625 L 524.257812 414.574219 L 526.746094 415.871094 L 523.53125 419.015625 "/>
<path style="fill:none;stroke-width:1.01;stroke-linecap:butt;stroke-linejoin:miter;stroke:rgb(0%,0%,100%);stroke-opacity:1;stroke-miterlimit:10;" d="M 39.519531 259.730469 L 119.847656 133.136719 "/>
<path style=" stroke:none;fill-rule:nonzero;fill:rgb(0%,0%,100%);fill-opacity:1;" d="M 122.136719 129.527344 L 121.03125 133.890625 L 118.660156 132.386719 L 122.136719 129.527344 "/>
<path style="fill:none;stroke-width:1.01;stroke-linecap:butt;stroke-linejoin:miter;stroke:rgb(100%,0%,0%);stroke-opacity:1;stroke-miterlimit:10;" d="M 533.214844 150.484375 L 441.210938 155.808594 "/>
<path style=" stroke:none;fill-rule:nonzero;fill:rgb(100%,0%,0%);fill-opacity:1;" d="M 436.941406 156.054688 L 441.128906 154.40625 L 441.292969 157.207031 L 436.941406 156.054688 "/>
<path style="fill:none;stroke-width:1.01;stroke-linecap:butt;stroke-linejoin:miter;stroke:rgb(100%,0%,0%);stroke-opacity:1;stroke-miterlimit:10;" d="M 533.332031 456.179688 L 415.574219 468.335938 "/>
<path style=" stroke:none;fill-rule:nonzero;fill:rgb(100%,0%,0%);fill-opacity:1;" d="M 411.320312 468.777344 L 415.429688 466.941406 L 415.71875 469.734375 L 411.320312 468.777344 "/>
<path style="fill:none;stroke-width:1.01;stroke-linecap:butt;stroke-linejoin:miter;stroke:rgb(100%,0%,0%);stroke-opacity:1;stroke-miterlimit:10;" d="M 560.4375 210.84375 L 577.074219 349.914062 "/>
<path style=" stroke:none;fill-rule:nonzero;fill:rgb(100%,0%,0%);fill-opacity:1;" d="M 577.582031 354.160156 L 575.679688 350.082031 L 578.46875 349.746094 L 577.582031 354.160156 "/>
<path style="fill:none;stroke-width:1.01;stroke-linecap:butt;stroke-linejoin:miter;stroke:rgb(0%,0%,100%);stroke-opacity:1;stroke-miterlimit:10;" d="M 78.789062 203.96875 L 151.105469 61.945312 "/>
<path style=" stroke:none;fill-rule:nonzero;fill:rgb(0%,0%,100%);fill-opacity:1;" d="M 153.046875 58.132812 L 152.355469 62.582031 L 149.855469 61.308594 L 153.046875 58.132812 "/>
<path style="fill:none;stroke-width:1.01;stroke-linecap:butt;stroke-linejoin:miter;stroke:rgb(100%,0%,0%);stroke-opacity:1;stroke-miterlimit:10;" d="M 180.273438 302.742188 L 238.425781 187.347656 "/>
<path style=" stroke:none;fill-rule:nonzero;fill:rgb(100%,0%,0%);fill-opacity:1;" d="M 240.351562 183.527344 L 239.679688 187.980469 L 237.171875 186.714844 L 240.351562 183.527344 "/>
<path style="fill:none;stroke-width:1.01;stroke-linecap:butt;stroke-linejoin:miter;stroke:rgb(100%,0%,0%);stroke-opacity:1;stroke-miterlimit:10;" d="M 185.054688 77.347656 L 185.859375 142.316406 "/>
<path style=" stroke:none;fill-rule:nonzero;fill:rgb(100%,0%,0%);fill-opacity:1;" d="M 185.914062 146.59375 L 184.457031 142.335938 L 187.265625 142.300781 L 185.914062 146.59375 "/>
<path style="fill:none;stroke-width:1.01;stroke-linecap:butt;stroke-linejoin:miter;stroke:rgb(100%,0%,0%);stroke-opacity:1;stroke-miterlimit:10;" d="M 559.945312 394.519531 L 577.574219 273.597656 "/>
<path style=" stroke:none;fill-rule:nonzero;fill:rgb(100%,0%,0%);fill-opacity:1;" d="M 578.191406 269.367188 L 578.964844 273.800781 L 576.183594 273.394531 L 578.191406 269.367188 "/>
<path style="fill:none;stroke-width:1.01;stroke-linecap:butt;stroke-linejoin:miter;stroke:rgb(0%,0%,100%);stroke-opacity:1;stroke-miterlimit:10;" d="M 533.320312 144.328125 L 437.035156 117.808594 "/>
<path style=" stroke:none;fill-rule:nonzero;fill:rgb(0%,0%,100%);fill-opacity:1;" d="M 432.914062 116.671875 L 437.410156 116.453125 L 436.664062 119.160156 L 432.914062 116.671875 "/>
<path style="fill:none;stroke-width:1.01;stroke-linecap:butt;stroke-linejoin:miter;stroke:rgb(100%,0%,0%);stroke-opacity:1;stroke-miterlimit:10;" d="M 362.753906 476.523438 L 290.222656 169.695312 "/>
<path style=" stroke:none;fill-rule:nonzero;fill:rgb(100%,0%,0%);fill-opacity:1;" d="M 289.238281 165.535156 L 291.589844 169.371094 L 288.855469 170.019531 L 289.238281 165.535156 "/>
<path style="fill:none;stroke-width:1.01;stroke-linecap:butt;stroke-linejoin:miter;stroke:rgb(100%,0%,0%);stroke-opacity:1;stroke-miterlimit:10;" d="M 79.425781 304.175781 L 67.050781 179.933594 "/>
<path style=" stroke:none;fill-rule:nonzero;fill:rgb(100%,0%,0%);fill-opacity:1;" d="M 66.625 175.679688 L 68.449219 179.792969 L 65.652344 180.074219 L 66.625 175.679688 "/>
<path style="fill:none;stroke-width:1.01;stroke-linecap:butt;stroke-linejoin:miter;stroke:rgb(100%,0%,0%);stroke-opacity:1;stroke-miterlimit:10;" d="M 219.867188 53.117188 L 283.371094 57.4375 "/>
<path style=" stroke:none;fill-rule:nonzero;fill:rgb(100%,0%,0%);fill-opacity:1;" d="M 287.636719 57.726562 L 283.277344 58.839844 L 283.464844 56.035156 L 287.636719 57.726562 "/>
<path style="fill:none;stroke-width:1.01;stroke-linecap:butt;stroke-linejoin:miter;stroke:rgb(0%,0%,100%);stroke-opacity:1;stroke-miterlimit:10;" d="M 125.816406 318.378906 L 104.585938 491.929688 "/>
<path style=" stroke:none;fill-rule:nonzero;fill:rgb(0%,0%,100%);fill-opacity:1;" d="M 104.066406 496.175781 L 103.191406 491.761719 L 105.980469 492.101562 L 104.066406 496.175781 "/>
<path style="fill:none;stroke-width:1.01;stroke-linecap:butt;stroke-linejoin:miter;stroke:rgb(100%,0%,0%);stroke-opacity:1;stroke-miterlimit:10;" d="M 103.726562 498.953125 L 285.402344 394.800781 "/>
<path style=" stroke:none;fill-rule:nonzero;fill:rgb(100%,0%,0%);fill-opacity:1;" d="M 289.109375 392.671875 L 286.101562 396.019531 L 284.703125 393.582031 L 289.109375 392.671875 "/>
<path style="fill:none;stroke-width:1.01;stroke-linecap:butt;stroke-linejoin:miter;stroke:rgb(0%,0%,100%);stroke-opacity:1;stroke-miterlimit:10;" d="M 345.324219 408.765625 L 323.734375 562.988281 "/>
<path style=" stroke:none;fill-rule:nonzero;fill:rgb(0%,0%,100%);fill-opacity:1;" d="M 323.140625 567.222656 L 322.34375 562.796875 L 325.125 563.183594 L 323.140625 567.222656 "/>
<path style="fill:none;stroke-width:1.01;stroke-linecap:butt;stroke-linejoin:miter;stroke:rgb(100%,0%,0%);stroke-opacity:1;stroke-miterlimit:10;" d="M 368.839844 91.5625 L 354.660156 26.765625 "/>
<path style=" stroke:none;fill-rule:nonzero;fill:rgb(100%,0%,0%);fill-opacity:1;" d="M 353.746094 22.589844 L 356.03125 26.464844 L 353.289062 27.066406 L 353.746094 22.589844 "/>
<path style="fill:none;stroke-width:1.01;stroke-linecap:butt;stroke-linejoin:miter;stroke:rgb(100%,0%,0%);stroke-opacity:1;stroke-miterlimit:10;" d="M 92.667969 443.351562 L 170.691406 515.179688 "/>
<path style=" stroke:none;fill-rule:nonzero;fill:rgb(100%,0%,0%);fill-opacity:1;" d="M 173.839844 518.078125 L 169.742188 516.214844 L 171.644531 514.148438 L 173.839844 518.078125 "/>
<path style="fill:none;stroke-width:1.01;stroke-linecap:butt;stroke-linejoin:miter;stroke:rgb(0%,0%,100%);stroke-opacity:1;stroke-miterlimit:10;" d="M 40.441406 389.808594 L 136.472656 486.816406 "/>
<path style=" stroke:none;fill-rule:nonzero;fill:rgb(0%,0%,100%);fill-opacity:1;" d="M 139.480469 489.855469 L 135.472656 487.804688 L 137.46875 485.828125 L 139.480469 489.855469 "/>
<path style="fill:none;stroke-width:1.01;stroke-linecap:butt;stroke-linejoin:miter;stroke:rgb(0%,0%,100%);stroke-opacity:1;stroke-miterlimit:10;" d="M 35.570312 200.765625 L 83.382812 243.996094 "/>
<path style=" stroke:none;fill-rule:nonzero;fill:rgb(0%,0%,100%);fill-opacity:1;" d="M 86.554688 246.863281 L 82.441406 245.039062 L 84.324219 242.957031 L 86.554688 246.863281 "/>
<path style="fill:none;stroke-width:1.01;stroke-linecap:butt;stroke-linejoin:miter;stroke:rgb(0%,0%,100%);stroke-opacity:1;stroke-miterlimit:10;" d="M 363.90625 561.523438 L 495.078125 418.441406 "/>
<path style=" stroke:none;fill-rule:nonzero;fill:rgb(0%,0%,100%);fill-opacity:1;" d="M 497.96875 415.292969 L 496.113281 419.390625 L 494.042969 417.492188 L 497.96875 415.292969 "/>
<path style="fill:none;stroke-width:1.01;stroke-linecap:butt;stroke-linejoin:miter;stroke:rgb(100%,0%,0%);stroke-opacity:1;stroke-miterlimit:10;" d="M 401.316406 533.988281 L 267.929688 381.710938 "/>
<path style=" stroke:none;fill-rule:nonzero;fill:rgb(100%,0%,0%);fill-opacity:1;" d="M 265.113281 378.496094 L 268.988281 380.785156 L 266.875 382.636719 L 265.113281 378.496094 "/>
<path style="fill:none;stroke-width:1.01;stroke-linecap:butt;stroke-linejoin:miter;stroke:rgb(100%,0%,0%);stroke-opacity:1;stroke-miterlimit:10;" d="M 425.097656 471.214844 L 188.539062 553.859375 "/>
<path style=" stroke:none;fill-rule:nonzero;fill:rgb(100%,0%,0%);fill-opacity:1;" d="M 184.5 555.269531 L 188.074219 552.53125 L 189 555.183594 L 184.5 555.269531 "/>
<path style="fill:none;stroke-width:1.01;stroke-linecap:butt;stroke-linejoin:miter;stroke:rgb(100%,0%,0%);stroke-opacity:1;stroke-miterlimit:10;" d="M 373.066406 458.03125 L 479.929688 497.863281 "/>
<path style=" stroke:none;fill-rule:nonzero;fill:rgb(100%,0%,0%);fill-opacity:1;" d="M 483.9375 499.355469 L 479.4375 499.179688 L 480.421875 496.546875 L 483.9375 499.355469 "/>
<path style="fill:none;stroke-width:1.01;stroke-linecap:butt;stroke-linejoin:miter;stroke:rgb(100%,0%,0%);stroke-opacity:1;stroke-miterlimit:10;" d="M 137.914062 429.15625 L 244.71875 542.703125 "/>
<path style=" stroke:none;fill-rule:nonzero;fill:rgb(100%,0%,0%);fill-opacity:1;" d="M 247.648438 545.820312 L 243.695312 543.667969 L 245.742188 541.742188 L 247.648438 545.820312 "/>
<path style="fill:none;stroke-width:1.01;stroke-linecap:butt;stroke-linejoin:miter;stroke:rgb(100%,0%,0%);stroke-opacity:1;stroke-miterlimit:10;" d="M 487.347656 287.929688 L 407.78125 139.71875 "/>
<path style=" stroke:none;fill-rule:nonzero;fill:rgb(100%,0%,0%);fill-opacity:1;" d="M 405.761719 135.953125 L 409.019531 139.054688 L 406.546875 140.382812 L 405.761719 135.953125 "/>
<path style="fill:none;stroke-width:1.01;stroke-linecap:butt;stroke-linejoin:miter;stroke:rgb(100%,0%,0%);stroke-opacity:1;stroke-miterlimit:10;" d="M 316.738281 179.984375 L 115.285156 130.265625 "/>
<path style=" stroke:none;fill-rule:nonzero;fill:rgb(100%,0%,0%);fill-opacity:1;" d="M 111.132812 129.238281 L 115.621094 128.902344 L 114.949219 131.628906 L 111.132812 129.238281 "/>
<path style="fill:none;stroke-width:1.01;stroke-linecap:butt;stroke-linejoin:miter;stroke:rgb(100%,0%,0%);stroke-opacity:1;stroke-miterlimit:10;" d="M 364.71875 498.792969 L 466.476562 417.980469 "/>
<path style=" stroke:none;fill-rule:nonzero;fill:rgb(100%,0%,0%);fill-opacity:1;" d="M 469.824219 415.324219 L 467.347656 419.082031 L 465.601562 416.882812 L 469.824219 415.324219 "/>
<path style="fill:none;stroke-width:1.01;stroke-linecap:butt;stroke-linejoin:miter;stroke:rgb(100%,0%,0%);stroke-opacity:1;stroke-miterlimit:10;" d="M 149.921875 209.175781 L 150.5625 276.304688 "/>
<path style=" stroke:none;fill-rule:nonzero;fill:rgb(100%,0%,0%);fill-opacity:1;" d="M 150.601562 280.578125 L 149.15625 276.316406 L 151.964844 276.289062 L 150.601562 280.578125 "/>
<path style="fill:none;stroke-width:1.01;stroke-linecap:butt;stroke-linejoin:miter;stroke:rgb(100%,0%,0%);stroke-opacity:1;stroke-miterlimit:10;" d="M 211.109375 314.332031 L 53.007812 421.324219 "/>
<path style=" stroke:none;fill-rule:nonzero;fill:rgb(100%,0%,0%);fill-opacity:1;" d="M 49.46875 423.71875 L 52.222656 420.160156 L 53.792969 422.484375 L 49.46875 423.71875 "/>
<path style="fill:none;stroke-width:1.01;stroke-linecap:butt;stroke-linejoin:miter;stroke:rgb(100%,0%,0%);stroke-opacity:1;stroke-miterlimit:10;" d="M 312.207031 25.070312 L 388.90625 43.09375 "/>
<path style=" stroke:none;fill-rule:nonzero;fill:rgb(100%,0%,0%);fill-opacity:1;" d="M 393.066406 44.074219 L 388.585938 44.460938 L 389.226562 41.730469 L 393.066406 44.074219 "/>
<path style="fill:none;stroke-width:1.01;stroke-linecap:butt;stroke-linejoin:miter;stroke:rgb(0%,0%,100%);stroke-opacity:1;stroke-miterlimit:10;" d="M 317.371094 265.730469 L 264.859375 400.214844 "/>
<path style=" stroke:none;fill-rule:nonzero;fill:rgb(0%,0%,100%);fill-opacity:1;" d="M 263.300781 404.199219 L 263.550781 399.703125 L 266.164062 400.726562 L 263.300781 404.199219 "/>
<path style="fill:none;stroke-width:1.01;stroke-linecap:butt;stroke-linejoin:miter;stroke:rgb(100%,0%,0%);stroke-opacity:1;stroke-miterlimit:10;" d="M 71.667969 447.132812 L 315.070312 327.386719 "/>
<path style=" stroke:none;fill-rule:nonzero;fill:rgb(100%,0%,0%);fill-opacity:1;" d="M 318.90625 325.5 L 315.691406 328.648438 L 314.449219 326.128906 L 318.90625 325.5 "/>
<path style="fill:none;stroke-width:1.01;stroke-linecap:butt;stroke-linejoin:miter;stroke:rgb(0%,0%,100%);stroke-opacity:1;stroke-miterlimit:10;" d="M 192.972656 548.003906 L 311.753906 565.488281 "/>
<path style=" stroke:none;fill-rule:nonzero;fill:rgb(0%,0%,100%);fill-opacity:1;" d="M 315.984375 566.113281 L 311.550781 566.878906 L 311.957031 564.101562 L 315.984375 566.113281 "/>
<path style="fill:none;stroke-width:1.01;stroke-linecap:butt;stroke-linejoin:miter;stroke:rgb(0%,0%,100%);stroke-opacity:1;stroke-miterlimit:10;" d="M 477.332031 199.164062 L 332.996094 231.390625 "/>
<path style=" stroke:none;fill-rule:nonzero;fill:rgb(0%,0%,100%);fill-opacity:1;" d="M 328.824219 232.320312 L 332.691406 230.019531 L 333.300781 232.757812 L 328.824219 232.320312 "/>
<path style="fill:none;stroke-width:1.01;stroke-linecap:butt;stroke-linejoin:miter;stroke:rgb(100%,0%,0%);stroke-opacity:1;stroke-miterlimit:10;" d="M 177.09375 391.726562 L 276.328125 461.46875 "/>
<path style=" stroke:none;fill-rule:nonzero;fill:rgb(100%,0%,0%);fill-opacity:1;" d="M 279.828125 463.929688 L 275.519531 462.621094 L 277.136719 460.320312 L 279.828125 463.929688 "/>
<path style="fill:none;stroke-width:1.01;stroke-linecap:butt;stroke-linejoin:miter;stroke:rgb(0%,0%,100%);stroke-opacity:1;stroke-miterlimit:10;" d="M 44.800781 346.21875 L 158.769531 253.269531 "/>
<path style=" stroke:none;fill-rule:nonzero;fill:rgb(0%,0%,100%);fill-opacity:1;" d="M 162.082031 250.566406 L 159.65625 254.359375 L 157.882812 252.183594 L 162.082031 250.566406 "/>
<path style="fill:none;stroke-width:1.01;stroke-linecap:butt;stroke-linejoin:miter;stroke:rgb(0%,0%,100%);stroke-opacity:1;stroke-miterlimit:10;" d="M 407.269531 557.105469 L 390.792969 328.953125 "/>
<path style=" stroke:none;fill-rule:nonzero;fill:rgb(0%,0%,100%);fill-opacity:1;" d="M 390.488281 324.6875 L 392.195312 328.851562 L 389.394531 329.054688 L 390.488281 324.6875 "/>
<path style="fill:none;stroke-width:1.01;stroke-linecap:butt;stroke-linejoin:miter;stroke:rgb(0%,0%,100%);stroke-opacity:1;stroke-miterlimit:10;" d="M 407.011719 124.910156 L 311.960938 85.925781 "/>
<path style=" stroke:none;fill-rule:nonzero;fill:rgb(0%,0%,100%);fill-opacity:1;" d="M 308.003906 84.304688 L 312.492188 84.628906 L 311.429688 87.226562 L 308.003906 84.304688 "/>
<path style="fill:none;stroke-width:1.01;stroke-linecap:butt;stroke-linejoin:miter;stroke:rgb(100%,0%,0%);stroke-opacity:1;stroke-miterlimit:10;" d="M 525.429688 380.738281 L 566.464844 347.625 "/>
<path style=" stroke:none;fill-rule:nonzero;fill:rgb(100%,0%,0%);fill-opacity:1;" d="M 569.792969 344.9375 L 567.347656 348.71875 L 565.585938 346.53125 L 569.792969 344.9375 "/>
<path style="fill:none;stroke-width:1.01;stroke-linecap:butt;stroke-linejoin:miter;stroke:rgb(0%,0%,100%);stroke-opacity:1;stroke-miterlimit:10;" d="M 381.289062 359.242188 L 416.945312 225.476562 "/>
<path style=" stroke:none;fill-rule:nonzero;fill:rgb(0%,0%,100%);fill-opacity:1;" d="M 418.046875 221.34375 L 418.300781 225.835938 L 415.589844 225.113281 L 418.046875 221.34375 "/>
<path style="fill:none;stroke-width:1.01;stroke-linecap:butt;stroke-linejoin:miter;stroke:rgb(100%,0%,0%);stroke-opacity:1;stroke-miterlimit:10;" d="M 418.769531 218.640625 L 573.082031 225.273438 "/>
<path style=" stroke:none;fill-rule:nonzero;fill:rgb(100%,0%,0%);fill-opacity:1;" d="M 577.351562 225.457031 L 573.019531 226.675781 L 573.140625 223.871094 L 577.351562 225.457031 "/>
<path style="fill:none;stroke-width:1.01;stroke-linecap:butt;stroke-linejoin:miter;stroke:rgb(0%,0%,100%);stroke-opacity:1;stroke-miterlimit:10;" d="M 431.296875 57.292969 L 507.078125 117.699219 "/>
<path style=" stroke:none;fill-rule:nonzero;fill:rgb(0%,0%,100%);fill-opacity:1;" d="M 510.421875 120.363281 L 506.203125 118.796875 L 507.953125 116.601562 L 510.421875 120.363281 "/>
<path style="fill:none;stroke-width:1.01;stroke-linecap:butt;stroke-linejoin:miter;stroke:rgb(100%,0%,0%);stroke-opacity:1;stroke-miterlimit:10;" d="M 31.328125 328.746094 L 124.324219 384.414062 "/>
<path style=" stroke:none;fill-rule:nonzero;fill:rgb(100%,0%,0%);fill-opacity:1;" d="M 127.992188 386.613281 L 123.605469 385.621094 L 125.046875 383.210938 L 127.992188 386.613281 "/>
<path style="fill-rule:nonzero;fill:rgb(82.745098%,82.745098%,82.745098%);fill-opacity:1;stroke-width:0.5;stroke-linecap:butt;stroke-linejoin:miter;stroke:rgb(0%,0%,0%);stroke-opacity:1;stroke-miterlimit:10;" d="M 493.902344 143.898438 C 493.902344 147.433594 488.601562 147.433594 488.601562 143.898438 C 488.601562 140.367188 493.902344 140.367188 493.902344 143.898438 "/>
<path style="fill-rule:nonzero;fill:rgb(82.745098%,82.745098%,82.745098%);fill-opacity:1;stroke-width:0.5;stroke-linecap:butt;stroke-linejoin:miter;stroke:rgb(0%,0%,0%);stroke-opacity:1;stroke-miterlimit:10;" d="M 511.90625 489.074219 C 511.90625 492.609375 506.605469 492.609375 506.605469 489.074219 C 506.605469 485.542969 511.90625 485.542969 511.90625 489.074219 "/>
<path style="fill-rule:nonzero;fill:rgb(82.745098%,82.745098%,82.745098%);fill-opacity:1;stroke-width:0.5;stroke-linecap:butt;stroke-linejoin:miter;stroke:rgb(0%,0%,0%);stroke-opacity:1;stroke-miterlimit:10;" d="M 541.761719 252.070312 C 541.761719 255.601562 536.460938 255.601562 536.460938 252.070312 C 536.460938 248.535156 541.761719 248.535156 541.761719 252.070312 "/>
<path style="fill-rule:nonzero;fill:rgb(82.745098%,82.745098%,82.745098%);fill-opacity:1;stroke-width:0.5;stroke-linecap:butt;stroke-linejoin:miter;stroke:rgb(0%,0%,0%);stroke-opacity:1;stroke-miterlimit:10;" d="M 263.355469 84.9375 C 263.355469 88.46875 258.058594 88.46875 258.058594 84.9375 C 258.058594 81.402344 263.355469 81.402344 263.355469 84.9375 "/>
<path style="fill-rule:nonzero;fill:rgb(82.745098%,82.745098%,82.745098%);fill-opacity:1;stroke-width:0.5;stroke-linecap:butt;stroke-linejoin:miter;stroke:rgb(0%,0%,0%);stroke-opacity:1;stroke-miterlimit:10;" d="M 236.878906 31.796875 C 236.878906 35.328125 231.578125 35.328125 231.578125 31.796875 C 231.578125 28.261719 236.878906 28.261719 236.878906 31.796875 "/>
<path style="fill-rule:nonzero;fill:rgb(82.745098%,82.745098%,82.745098%);fill-opacity:1;stroke-width:0.5;stroke-linecap:butt;stroke-linejoin:miter;stroke:rgb(0%,0%,0%);stroke-opacity:1;stroke-miterlimit:10;" d="M 469.027344 499.390625 C 469.027344 502.925781 463.726562 502.925781 463.726562 499.390625 C 463.726562 495.859375 469.027344 495.859375 469.027344 499.390625 "/>
<path style="fill-rule:nonzero;fill:rgb(82.745098%,82.745098%,82.745098%);fill-opacity:1;stroke-width:0.5;stroke-linecap:butt;stroke-linejoin:miter;stroke:rgb(0%,0%,0%);stroke-opacity:1;stroke-miterlimit:10;" d="M 99.957031 465.386719 C 99.957031 468.917969 94.65625 468.917969 94.65625 465.386719 C 94.65625 461.851562 99.957031 461.851562 99.957031 465.386719 "/>
<path style="fill-rule:nonzero;fill:rgb(82.745098%,82.745098%,82.745098%);fill-opacity:1;stroke-width:0.5;stroke-linecap:butt;stroke-linejoin:miter;stroke:rgb(0%,0%,0%);stroke-opacity:1;stroke-miterlimit:10;" d="M 488.582031 279.992188 C 488.582031 283.527344 483.285156 283.527344 483.285156 279.992188 C 483.285156 276.460938 488.582031 276.460938 488.582031 279.992188 "/>
<path style="fill-rule:nonzero;fill:rgb(82.745098%,82.745098%,82.745098%);fill-opacity:1;stroke-width:0.5;stroke-linecap:butt;stroke-linejoin:miter;stroke:rgb(0%,0%,0%);stroke-opacity:1;stroke-miterlimit:10;" d="M 226.925781 195.921875 C 226.925781 199.457031 221.628906 199.457031 221.628906 195.921875 C 221.628906 192.390625 226.925781 192.390625 226.925781 195.921875 "/>
<path style="fill-rule:nonzero;fill:rgb(82.745098%,82.745098%,82.745098%);fill-opacity:1;stroke-width:0.5;stroke-linecap:butt;stroke-linejoin:miter;stroke:rgb(0%,0%,0%);stroke-opacity:1;stroke-miterlimit:10;" d="M 60.371094 146.980469 C 60.371094 150.511719 55.070312 150.511719 55.070312 146.980469 C 55.070312 143.445312 60.371094 143.445312 60.371094 146.980469 "/>
<path style="fill-rule:nonzero;fill:rgb(82.745098%,82.745098%,82.745098%);fill-opacity:1;stroke-width:0.5;stroke-linecap:butt;stroke-linejoin:miter;stroke:rgb(0%,0%,0%);stroke-opacity:1;stroke-miterlimit:10;" d="M 93.738281 346.265625 C 93.738281 350 88.140625 350 88.140625 346.265625 C 88.140625 342.535156 93.738281 342.535156 93.738281 346.265625 "/>
<path style="fill-rule:nonzero;fill:rgb(82.745098%,82.745098%,82.745098%);fill-opacity:1;stroke-width:0.5;stroke-linecap:butt;stroke-linejoin:miter;stroke:rgb(0%,0%,0%);stroke-opacity:1;stroke-miterlimit:10;" d="M 102.953125 105.175781 C 102.953125 108.710938 97.652344 108.710938 97.652344 105.175781 C 97.652344 101.644531 102.953125 101.644531 102.953125 105.175781 "/>
<path style="fill-rule:nonzero;fill:rgb(82.745098%,82.745098%,82.745098%);fill-opacity:1;stroke-width:0.5;stroke-linecap:butt;stroke-linejoin:miter;stroke:rgb(0%,0%,0%);stroke-opacity:1;stroke-miterlimit:10;" d="M 489.335938 331.3125 C 489.335938 334.847656 484.039062 334.847656 484.039062 331.3125 C 484.039062 327.78125 489.335938 327.78125 489.335938 331.3125 "/>
<path style="fill-rule:nonzero;fill:rgb(82.745098%,82.745098%,82.745098%);fill-opacity:1;stroke-width:0.5;stroke-linecap:butt;stroke-linejoin:miter;stroke:rgb(0%,0%,0%);stroke-opacity:1;stroke-miterlimit:10;" d="M 231.511719 580 C 231.511719 583.535156 226.210938 583.535156 226.210938 580 C 226.210938 576.464844 231.511719 576.464844 231.511719 580 "/>
<path style="fill-rule:nonzero;fill:rgb(82.745098%,82.745098%,82.745098%);fill-opacity:1;stroke-width:0.5;stroke-linecap:butt;stroke-linejoin:miter;stroke:rgb(0%,0%,0%);stroke-opacity:1;stroke-miterlimit:10;" d="M 424.613281 567.90625 C 424.613281 571.4375 419.316406 571.4375 419.316406 567.90625 C 419.316406 564.371094 424.613281 564.371094 424.613281 567.90625 "/>
<path style="fill-rule:nonzero;fill:rgb(82.745098%,82.745098%,82.745098%);fill-opacity:1;stroke-width:0.5;stroke-linecap:butt;stroke-linejoin:miter;stroke:rgb(0%,0%,0%);stroke-opacity:1;stroke-miterlimit:10;" d="M 217.542969 52.179688 C 217.542969 55.714844 212.242188 55.714844 212.242188 52.179688 C 212.242188 48.648438 217.542969 48.648438 217.542969 52.179688 "/>
<path style="fill-rule:nonzero;fill:rgb(82.745098%,82.745098%,82.745098%);fill-opacity:1;stroke-width:0.5;stroke-linecap:butt;stroke-linejoin:miter;stroke:rgb(0%,0%,0%);stroke-opacity:1;stroke-miterlimit:10;" d="M 235.582031 472.515625 C 235.582031 476.046875 230.28125 476.046875 230.28125 472.515625 C 230.28125 468.980469 235.582031 468.980469 235.582031 472.515625 "/>
<path style="fill-rule:nonzero;fill:rgb(82.745098%,82.745098%,82.745098%);fill-opacity:1;stroke-width:0.5;stroke-linecap:butt;stroke-linejoin:miter;stroke:rgb(0%,0%,0%);stroke-opacity:1;stroke-miterlimit:10;" d="M 369.558594 44.339844 C 369.558594 47.875 364.261719 47.875 364.261719 44.339844 C 364.261719 40.804688 369.558594 40.804688 369.558594 44.339844 "/>
<path style="fill-rule:nonzero;fill:rgb(82.745098%,82.745098%,82.745098%);fill-opacity:1;stroke-width:0.5;stroke-linecap:butt;stroke-linejoin:miter;stroke:rgb(0%,0%,0%);stroke-opacity:1;stroke-miterlimit:10;" d="M 121.714844 492.226562 C 121.714844 495.757812 116.417969 495.757812 116.417969 492.226562 C 116.417969 488.691406 121.714844 488.691406 121.714844 492.226562 "/>
<path style="fill-rule:nonzero;fill:rgb(82.745098%,82.745098%,82.745098%);fill-opacity:1;stroke-width:0.5;stroke-linecap:butt;stroke-linejoin:miter;stroke:rgb(0%,0%,0%);stroke-opacity:1;stroke-miterlimit:10;" d="M 30.582031 287.9375 C 30.582031 291.472656 25.285156 291.472656 25.285156 287.9375 C 25.285156 284.402344 30.582031 284.402344 30.582031 287.9375 "/>
<path style="fill-rule:nonzero;fill:rgb(82.745098%,82.745098%,82.745098%);fill-opacity:1;stroke-width:0.5;stroke-linecap:butt;stroke-linejoin:miter;stroke:rgb(0%,0%,0%);stroke-opacity:1;stroke-miterlimit:10;" d="M 498.351562 78.976562 C 498.351562 82.511719 493.050781 82.511719 493.050781 78.976562 C 493.050781 75.445312 498.351562 75.445312 498.351562 78.976562 "/>
<path style="fill-rule:nonzero;fill:rgb(82.745098%,82.745098%,82.745098%);fill-opacity:1;stroke-width:0.5;stroke-linecap:butt;stroke-linejoin:miter;stroke:rgb(0%,0%,0%);stroke-opacity:1;stroke-miterlimit:10;" d="M 572.945312 329.078125 C 572.945312 332.609375 567.644531 332.609375 567.644531 329.078125 C 567.644531 325.542969 572.945312 325.542969 572.945312 329.078125 "/>
<path style="fill-rule:nonzero;fill:rgb(82.745098%,82.745098%,82.745098%);fill-opacity:1;stroke-width:0.5;stroke-linecap:butt;stroke-linejoin:miter;stroke:rgb(0%,0%,0%);stroke-opacity:1;stroke-miterlimit:10;" d="M 42.167969 259.730469 C 42.167969 263.261719 36.871094 263.261719 36.871094 259.730469 C 36.871094 256.195312 42.167969 256.195312 42.167969 259.730469 "/>
<path style="fill-rule:nonzero;fill:rgb(82.745098%,82.745098%,82.745098%);fill-opacity:1;stroke-width:0.5;stroke-linecap:butt;stroke-linejoin:miter;stroke:rgb(0%,0%,0%);stroke-opacity:1;stroke-miterlimit:10;" d="M 535.863281 150.484375 C 535.863281 154.019531 530.5625 154.019531 530.5625 150.484375 C 530.5625 146.953125 535.863281 146.953125 535.863281 150.484375 "/>
<path style="fill-rule:nonzero;fill:rgb(82.745098%,82.745098%,82.745098%);fill-opacity:1;stroke-width:0.5;stroke-linecap:butt;stroke-linejoin:miter;stroke:rgb(0%,0%,0%);stroke-opacity:1;stroke-miterlimit:10;" d="M 535.984375 456.179688 C 535.984375 459.714844 530.683594 459.714844 530.683594 456.179688 C 530.683594 452.644531 535.984375 452.644531 535.984375 456.179688 "/>
<path style="fill-rule:nonzero;fill:rgb(82.745098%,82.745098%,82.745098%);fill-opacity:1;stroke-width:0.5;stroke-linecap:butt;stroke-linejoin:miter;stroke:rgb(0%,0%,0%);stroke-opacity:1;stroke-miterlimit:10;" d="M 563.089844 210.84375 C 563.089844 214.375 557.789062 214.375 557.789062 210.84375 C 557.789062 207.308594 563.089844 207.308594 563.089844 210.84375 "/>
<path style="fill-rule:nonzero;fill:rgb(82.745098%,82.745098%,82.745098%);fill-opacity:1;stroke-width:0.5;stroke-linecap:butt;stroke-linejoin:miter;stroke:rgb(0%,0%,0%);stroke-opacity:1;stroke-miterlimit:10;" d="M 81.4375 203.96875 C 81.4375 207.5 76.136719 207.5 76.136719 203.96875 C 76.136719 200.433594 81.4375 200.433594 81.4375 203.96875 "/>
<path style="fill-rule:nonzero;fill:rgb(82.745098%,82.745098%,82.745098%);fill-opacity:1;stroke-width:0.5;stroke-linecap:butt;stroke-linejoin:miter;stroke:rgb(0%,0%,0%);stroke-opacity:1;stroke-miterlimit:10;" d="M 182.921875 302.742188 C 182.921875 306.277344 177.621094 306.277344 177.621094 302.742188 C 177.621094 299.210938 182.921875 299.210938 182.921875 302.742188 "/>
<path style="fill-rule:nonzero;fill:rgb(82.745098%,82.745098%,82.745098%);fill-opacity:1;stroke-width:0.5;stroke-linecap:butt;stroke-linejoin:miter;stroke:rgb(0%,0%,0%);stroke-opacity:1;stroke-miterlimit:10;" d="M 187.707031 77.347656 C 187.707031 80.878906 182.40625 80.878906 182.40625 77.347656 C 182.40625 73.8125 187.707031 73.8125 187.707031 77.347656 "/>
<path style="fill-rule:nonzero;fill:rgb(82.745098%,82.745098%,82.745098%);fill-opacity:1;stroke-width:0.5;stroke-linecap:butt;stroke-linejoin:miter;stroke:rgb(0%,0%,0%);stroke-opacity:1;stroke-miterlimit:10;" d="M 562.59375 394.519531 C 562.59375 398.050781 557.292969 398.050781 557.292969 394.519531 C 557.292969 390.984375 562.59375 390.984375 562.59375 394.519531 "/>
<path style="fill-rule:nonzero;fill:rgb(82.745098%,82.745098%,82.745098%);fill-opacity:1;stroke-width:0.5;stroke-linecap:butt;stroke-linejoin:miter;stroke:rgb(0%,0%,0%);stroke-opacity:1;stroke-miterlimit:10;" d="M 535.96875 144.328125 C 535.96875 147.863281 530.667969 147.863281 530.667969 144.328125 C 530.667969 140.796875 535.96875 140.796875 535.96875 144.328125 "/>
<path style="fill-rule:nonzero;fill:rgb(82.745098%,82.745098%,82.745098%);fill-opacity:1;stroke-width:0.5;stroke-linecap:butt;stroke-linejoin:miter;stroke:rgb(0%,0%,0%);stroke-opacity:1;stroke-miterlimit:10;" d="M 365.402344 476.523438 C 365.402344 480.054688 360.105469 480.054688 360.105469 476.523438 C 360.105469 472.988281 365.402344 472.988281 365.402344 476.523438 "/>
<path style="fill-rule:nonzero;fill:rgb(82.745098%,82.745098%,82.745098%);fill-opacity:1;stroke-width:0.5;stroke-linecap:butt;stroke-linejoin:miter;stroke:rgb(0%,0%,0%);stroke-opacity:1;stroke-miterlimit:10;" d="M 82.078125 304.175781 C 82.078125 307.710938 76.777344 307.710938 76.777344 304.175781 C 76.777344 300.644531 82.078125 300.644531 82.078125 304.175781 "/>
<path style="fill-rule:nonzero;fill:rgb(82.745098%,82.745098%,82.745098%);fill-opacity:1;stroke-width:0.5;stroke-linecap:butt;stroke-linejoin:miter;stroke:rgb(0%,0%,0%);stroke-opacity:1;stroke-miterlimit:10;" d="M 222.515625 53.117188 C 222.515625 56.652344 217.21875 56.652344 217.21875 53.117188 C 217.21875 49.585938 222.515625 49.585938 222.515625 53.117188 "/>
<path style="fill-rule:nonzero;fill:rgb(82.745098%,82.745098%,82.745098%);fill-opacity:1;stroke-width:0.5;stroke-linecap:butt;stroke-linejoin:miter;stroke:rgb(0%,0%,0%);stroke-opacity:1;stroke-miterlimit:10;" d="M 128.46875 318.378906 C 128.46875 321.914062 123.167969 321.914062 123.167969 318.378906 C 123.167969 314.847656 128.46875 314.847656 128.46875 318.378906 "/>
<path style="fill-rule:nonzero;fill:rgb(82.745098%,82.745098%,82.745098%);fill-opacity:1;stroke-width:0.5;stroke-linecap:butt;stroke-linejoin:miter;stroke:rgb(0%,0%,0%);stroke-opacity:1;stroke-miterlimit:10;" d="M 106.527344 498.953125 C 106.527344 502.6875 100.925781 502.6875 100.925781 498.953125 C 100.925781 495.222656 106.527344 495.222656 106.527344 498.953125 "/>
<path style="fill-rule:nonzero;fill:rgb(82.745098%,82.745098%,82.745098%);fill-opacity:1;stroke-width:0.5;stroke-linecap:butt;stroke-linejoin:miter;stroke:rgb(0%,0%,0%);stroke-opacity:1;stroke-miterlimit:10;" d="M 347.972656 408.765625 C 347.972656 412.296875 342.671875 412.296875 342.671875 408.765625 C 342.671875 405.230469 347.972656 405.230469 347.972656 408.765625 "/>
<path style="fill-rule:nonzero;fill:rgb(82.745098%,82.745098%,82.745098%);fill-opacity:1;stroke-width:0.5;stroke-linecap:butt;stroke-linejoin:miter;stroke:rgb(0%,0%,0%);stroke-opacity:1;stroke-miterlimit:10;" d="M 371.492188 91.5625 C 371.492188 95.09375 366.191406 95.09375 366.191406 91.5625 C 366.191406 88.027344 371.492188 88.027344 371.492188 91.5625 "/>
<path style="fill-rule:nonzero;fill:rgb(82.745098%,82.745098%,82.745098%);fill-opacity:1;stroke-width:0.5;stroke-linecap:butt;stroke-linejoin:miter;stroke:rgb(0%,0%,0%);stroke-opacity:1;stroke-miterlimit:10;" d="M 95.316406 443.351562 C 95.316406 446.886719 90.019531 446.886719 90.019531 443.351562 C 90.019531 439.820312 95.316406 439.820312 95.316406 443.351562 "/>
<path style="fill-rule:nonzero;fill:rgb(82.745098%,82.745098%,82.745098%);fill-opacity:1;stroke-width:0.5;stroke-linecap:butt;stroke-linejoin:miter;stroke:rgb(0%,0%,0%);stroke-opacity:1;stroke-miterlimit:10;" d="M 43.089844 389.808594 C 43.089844 393.339844 37.789062 393.339844 37.789062 389.808594 C 37.789062 386.273438 43.089844 386.273438 43.089844 389.808594 "/>
<path style="fill-rule:nonzero;fill:rgb(82.745098%,82.745098%,82.745098%);fill-opacity:1;stroke-width:0.5;stroke-linecap:butt;stroke-linejoin:miter;stroke:rgb(0%,0%,0%);stroke-opacity:1;stroke-miterlimit:10;" d="M 38.21875 200.765625 C 38.21875 204.296875 32.917969 204.296875 32.917969 200.765625 C 32.917969 197.230469 38.21875 197.230469 38.21875 200.765625 "/>
<path style="fill-rule:nonzero;fill:rgb(82.745098%,82.745098%,82.745098%);fill-opacity:1;stroke-width:0.5;stroke-linecap:butt;stroke-linejoin:miter;stroke:rgb(0%,0%,0%);stroke-opacity:1;stroke-miterlimit:10;" d="M 366.554688 561.523438 C 366.554688 565.058594 361.253906 565.058594 361.253906 561.523438 C 361.253906 557.992188 366.554688 557.992188 366.554688 561.523438 "/>
<path style="fill-rule:nonzero;fill:rgb(82.745098%,82.745098%,82.745098%);fill-opacity:1;stroke-width:0.5;stroke-linecap:butt;stroke-linejoin:miter;stroke:rgb(0%,0%,0%);stroke-opacity:1;stroke-miterlimit:10;" d="M 403.964844 533.988281 C 403.964844 537.523438 398.664062 537.523438 398.664062 533.988281 C 398.664062 530.457031 403.964844 530.457031 403.964844 533.988281 "/>
<path style="fill-rule:nonzero;fill:rgb(82.745098%,82.745098%,82.745098%);fill-opacity:1;stroke-width:0.5;stroke-linecap:butt;stroke-linejoin:miter;stroke:rgb(0%,0%,0%);stroke-opacity:1;stroke-miterlimit:10;" d="M 427.75 471.214844 C 427.75 474.75 422.449219 474.75 422.449219 471.214844 C 422.449219 467.683594 427.75 467.683594 427.75 471.214844 "/>
<path style="fill-rule:nonzero;fill:rgb(82.745098%,82.745098%,82.745098%);fill-opacity:1;stroke-width:0.5;stroke-linecap:butt;stroke-linejoin:miter;stroke:rgb(0%,0%,0%);stroke-opacity:1;stroke-miterlimit:10;" d="M 375.71875 458.03125 C 375.71875 461.5625 370.417969 461.5625 370.417969 458.03125 C 370.417969 454.496094 375.71875 454.496094 375.71875 458.03125 "/>
<path style="fill-rule:nonzero;fill:rgb(82.745098%,82.745098%,82.745098%);fill-opacity:1;stroke-width:0.5;stroke-linecap:butt;stroke-linejoin:miter;stroke:rgb(0%,0%,0%);stroke-opacity:1;stroke-miterlimit:10;" d="M 140.5625 429.15625 C 140.5625 432.6875 135.261719 432.6875 135.261719 429.15625 C 135.261719 425.621094 140.5625 425.621094 140.5625 429.15625 "/>
<path style="fill-rule:nonzero;fill:rgb(82.745098%,82.745098%,82.745098%);fill-opacity:1;stroke-width:0.5;stroke-linecap:butt;stroke-linejoin:miter;stroke:rgb(0%,0%,0%);stroke-opacity:1;stroke-miterlimit:10;" d="M 489.996094 287.929688 C 489.996094 291.464844 484.699219 291.464844 484.699219 287.929688 C 484.699219 284.398438 489.996094 284.398438 489.996094 287.929688 "/>
<path style="fill-rule:nonzero;fill:rgb(82.745098%,82.745098%,82.745098%);fill-opacity:1;stroke-width:0.5;stroke-linecap:butt;stroke-linejoin:miter;stroke:rgb(0%,0%,0%);stroke-opacity:1;stroke-miterlimit:10;" d="M 319.390625 179.984375 C 319.390625 183.515625 314.089844 183.515625 314.089844 179.984375 C 314.089844 176.449219 319.390625 176.449219 319.390625 179.984375 "/>
<path style="fill-rule:nonzero;fill:rgb(82.745098%,82.745098%,82.745098%);fill-opacity:1;stroke-width:0.5;stroke-linecap:butt;stroke-linejoin:miter;stroke:rgb(0%,0%,0%);stroke-opacity:1;stroke-miterlimit:10;" d="M 367.367188 498.792969 C 367.367188 502.328125 362.066406 502.328125 362.066406 498.792969 C 362.066406 495.257812 367.367188 495.257812 367.367188 498.792969 "/>
<path style="fill-rule:nonzero;fill:rgb(82.745098%,82.745098%,82.745098%);fill-opacity:1;stroke-width:0.5;stroke-linecap:butt;stroke-linejoin:miter;stroke:rgb(0%,0%,0%);stroke-opacity:1;stroke-miterlimit:10;" d="M 152.570312 209.175781 C 152.570312 212.707031 147.269531 212.707031 147.269531 209.175781 C 147.269531 205.640625 152.570312 205.640625 152.570312 209.175781 "/>
<path style="fill-rule:nonzero;fill:rgb(82.745098%,82.745098%,82.745098%);fill-opacity:1;stroke-width:0.5;stroke-linecap:butt;stroke-linejoin:miter;stroke:rgb(0%,0%,0%);stroke-opacity:1;stroke-miterlimit:10;" d="M 213.757812 314.332031 C 213.757812 317.867188 208.457031 317.867188 208.457031 314.332031 C 208.457031 310.800781 213.757812 310.800781 213.757812 314.332031 "/>
<path style="fill-rule:nonzero;fill:rgb(82.745098%,82.745098%,82.745098%);fill-opacity:1;stroke-width:0.5;stroke-linecap:butt;stroke-linejoin:miter;stroke:rgb(0%,0%,0%);stroke-opacity:1;stroke-miterlimit:10;" d="M 314.855469 25.070312 C 314.855469 28.601562 309.554688 28.601562 309.554688 25.070312 C 309.554688 21.535156 314.855469 21.535156 314.855469 25.070312 "/>
<path style="fill-rule:nonzero;fill:rgb(82.745098%,82.745098%,82.745098%);fill-opacity:1;stroke-width:0.5;stroke-linecap:butt;stroke-linejoin:miter;stroke:rgb(0%,0%,0%);stroke-opacity:1;stroke-miterlimit:10;" d="M 320.019531 265.730469 C 320.019531 269.265625 314.722656 269.265625 314.722656 265.730469 C 314.722656 262.199219 320.019531 262.199219 320.019531 265.730469 "/>
<path style="fill-rule:nonzero;fill:rgb(82.745098%,82.745098%,82.745098%);fill-opacity:1;stroke-width:0.5;stroke-linecap:butt;stroke-linejoin:miter;stroke:rgb(0%,0%,0%);stroke-opacity:1;stroke-miterlimit:10;" d="M 74.316406 447.132812 C 74.316406 450.664062 69.015625 450.664062 69.015625 447.132812 C 69.015625 443.597656 74.316406 443.597656 74.316406 447.132812 "/>
<path style="fill-rule:nonzero;fill:rgb(82.745098%,82.745098%,82.745098%);fill-opacity:1;stroke-width:0.5;stroke-linecap:butt;stroke-linejoin:miter;stroke:rgb(0%,0%,0%);stroke-opacity:1;stroke-miterlimit:10;" d="M 195.625 548.003906 C 195.625 551.535156 190.324219 551.535156 190.324219 548.003906 C 190.324219 544.46875 195.625 544.46875 195.625 548.003906 "/>
<path style="fill-rule:nonzero;fill:rgb(82.745098%,82.745098%,82.745098%);fill-opacity:1;stroke-width:0.5;stroke-linecap:butt;stroke-linejoin:miter;stroke:rgb(0%,0%,0%);stroke-opacity:1;stroke-miterlimit:10;" d="M 479.980469 199.164062 C 479.980469 202.695312 474.679688 202.695312 474.679688 199.164062 C 474.679688 195.628906 479.980469 195.628906 479.980469 199.164062 "/>
<path style="fill-rule:nonzero;fill:rgb(82.745098%,82.745098%,82.745098%);fill-opacity:1;stroke-width:0.5;stroke-linecap:butt;stroke-linejoin:miter;stroke:rgb(0%,0%,0%);stroke-opacity:1;stroke-miterlimit:10;" d="M 179.742188 391.726562 C 179.742188 395.261719 174.441406 395.261719 174.441406 391.726562 C 174.441406 388.195312 179.742188 388.195312 179.742188 391.726562 "/>
<path style="fill-rule:nonzero;fill:rgb(82.745098%,82.745098%,82.745098%);fill-opacity:1;stroke-width:0.5;stroke-linecap:butt;stroke-linejoin:miter;stroke:rgb(0%,0%,0%);stroke-opacity:1;stroke-miterlimit:10;" d="M 47.449219 346.21875 C 47.449219 349.75 42.148438 349.75 42.148438 346.21875 C 42.148438 342.683594 47.449219 342.683594 47.449219 346.21875 "/>
<path style="fill-rule:nonzero;fill:rgb(82.745098%,82.745098%,82.745098%);fill-opacity:1;stroke-width:0.5;stroke-linecap:butt;stroke-linejoin:miter;stroke:rgb(0%,0%,0%);stroke-opacity:1;stroke-miterlimit:10;" d="M 409.921875 557.105469 C 409.921875 560.636719 404.621094 560.636719 404.621094 557.105469 C 404.621094 553.570312 409.921875 553.570312 409.921875 557.105469 "/>
<path style="fill-rule:nonzero;fill:rgb(82.745098%,82.745098%,82.745098%);fill-opacity:1;stroke-width:0.5;stroke-linecap:butt;stroke-linejoin:miter;stroke:rgb(0%,0%,0%);stroke-opacity:1;stroke-miterlimit:10;" d="M 409.664062 124.910156 C 409.664062 128.445312 404.363281 128.445312 404.363281 124.910156 C 404.363281 121.378906 409.664062 121.378906 409.664062 124.910156 "/>
<path style="fill-rule:nonzero;fill:rgb(82.745098%,82.745098%,82.745098%);fill-opacity:1;stroke-width:0.5;stroke-linecap:butt;stroke-linejoin:miter;stroke:rgb(0%,0%,0%);stroke-opacity:1;stroke-miterlimit:10;" d="M 528.082031 380.738281 C 528.082031 384.273438 522.78125 384.273438 522.78125 380.738281 C 522.78125 377.207031 528.082031 377.207031 528.082031 380.738281 "/>
<path style="fill-rule:nonzero;fill:rgb(82.745098%,82.745098%,82.745098%);fill-opacity:1;stroke-width:0.5;stroke-linecap:butt;stroke-linejoin:miter;stroke:rgb(0%,0%,0%);stroke-opacity:1;stroke-miterlimit:10;" d="M 383.9375 359.242188 C 383.9375 362.773438 378.640625 362.773438 378.640625 359.242188 C 378.640625 355.707031 383.9375 355.707031 383.9375 359.242188 "/>
<path style="fill-rule:nonzero;fill:rgb(82.745098%,82.745098%,82.745098%);fill-opacity:1;stroke-width:0.5;stroke-linecap:butt;stroke-linejoin:miter;stroke:rgb(0%,0%,0%);stroke-opacity:1;stroke-miterlimit:10;" d="M 421.566406 218.640625 C 421.566406 222.371094 415.96875 222.371094 415.96875 218.640625 C 415.96875 214.90625 421.566406 214.90625 421.566406 218.640625 "/>
<path style="fill-rule:nonzero;fill:rgb(82.745098%,82.745098%,82.745098%);fill-opacity:1;stroke-width:0.5;stroke-linecap:butt;stroke-linejoin:miter;stroke:rgb(0%,0%,0%);stroke-opacity:1;stroke-miterlimit:10;" d="M 433.945312 57.292969 C 433.945312 60.828125 428.644531 60.828125 428.644531 57.292969 C 428.644531 53.761719 433.945312 53.761719 433.945312 57.292969 "/>
<path style="fill-rule:nonzero;fill:rgb(82.745098%,82.745098%,82.745098%);fill-opacity:1;stroke-width:0.5;stroke-linecap:butt;stroke-linejoin:miter;stroke:rgb(0%,0%,0%);stroke-opacity:1;stroke-miterlimit:10;" d="M 33.976562 328.746094 C 33.976562 332.277344 28.679688 332.277344 28.679688 328.746094 C 28.679688 325.210938 33.976562 325.210938 33.976562 328.746094 "/>
<path style="fill-rule:nonzero;fill:rgb(82.745098%,82.745098%,82.745098%);fill-opacity:1;stroke-width:0.5;stroke-linecap:butt;stroke-linejoin:miter;stroke:rgb(0%,0%,0%);stroke-opacity:1;stroke-miterlimit:10;" d="M 518.855469 305.644531 C 518.855469 309.179688 513.554688 309.179688 513.554688 305.644531 C 513.554688 302.113281 518.855469 302.113281 518.855469 305.644531 "/>
<path style="fill-rule:nonzero;fill:rgb(82.745098%,82.745098%,82.745098%);fill-opacity:1;stroke-width:0.5;stroke-linecap:butt;stroke-linejoin:miter;stroke:rgb(0%,0%,0%);stroke-opacity:1;stroke-miterlimit:10;" d="M 292.261719 579.132812 C 292.261719 582.664062 286.960938 582.664062 286.960938 579.132812 C 286.960938 575.597656 292.261719 575.597656 292.261719 579.132812 "/>
<path style="fill-rule:nonzero;fill:rgb(82.745098%,82.745098%,82.745098%);fill-opacity:1;stroke-width:0.5;stroke-linecap:butt;stroke-linejoin:miter;stroke:rgb(0%,0%,0%);stroke-opacity:1;stroke-miterlimit:10;" d="M 449.261719 304.554688 C 449.261719 308.085938 443.960938 308.085938 443.960938 304.554688 C 443.960938 301.019531 449.261719 301.019531 449.261719 304.554688 "/>
<path style="fill-rule:nonzero;fill:rgb(0%,100%,0%);fill-opacity:1;stroke-width:0.5;stroke-linecap:butt;stroke-linejoin:miter;stroke:rgb(0%,0%,0%);stroke-opacity:1;stroke-miterlimit:10;" d="M 300.195312 20.25 C 300.195312 23.785156 294.894531 23.785156 294.894531 20.25 C 294.894531 16.71875 300.195312 16.71875 300.195312 20.25 "/>
<path style="fill-rule:nonzero;fill:rgb(82.745098%,82.745098%,82.745098%);fill-opacity:1;stroke-width:0.5;stroke-linecap:butt;stroke-linejoin:miter;stroke:rgb(0%,0%,0%);stroke-opacity:1;stroke-miterlimit:10;" d="M 144.453125 73.445312 C 144.453125 76.980469 139.152344 76.980469 139.152344 73.445312 C 139.152344 69.914062 144.453125 69.914062 144.453125 73.445312 "/>
<path style="fill-rule:nonzero;fill:rgb(82.745098%,82.745098%,82.745098%);fill-opacity:1;stroke-width:0.5;stroke-linecap:butt;stroke-linejoin:miter;stroke:rgb(0%,0%,0%);stroke-opacity:1;stroke-miterlimit:10;" d="M 428.609375 535.402344 C 428.609375 538.933594 423.3125 538.933594 423.3125 535.402344 C 423.3125 531.867188 428.609375 531.867188 428.609375 535.402344 "/>
<path style="fill-rule:nonzero;fill:rgb(0%,100%,0%);fill-opacity:1;stroke-width:0.5;stroke-linecap:butt;stroke-linejoin:miter;stroke:rgb(0%,0%,0%);stroke-opacity:1;stroke-miterlimit:10;" d="M 22.648438 373.929688 C 22.648438 377.464844 17.351562 377.464844 17.351562 373.929688 C 17.351562 370.398438 22.648438 370.398438 22.648438 373.929688 "/>
<path style="fill-rule:nonzero;fill:rgb(82.745098%,82.745098%,82.745098%);fill-opacity:1;stroke-width:0.5;stroke-linecap:butt;stroke-linejoin:miter;stroke:rgb(0%,0%,0%);stroke-opacity:1;stroke-miterlimit:10;" d="M 534.4375 172.417969 C 534.4375 175.949219 529.136719 175.949219 529.136719 172.417969 C 529.136719 168.882812 534.4375 168.882812 534.4375 172.417969 "/>
<path style="fill-rule:nonzero;fill:rgb(82.745098%,82.745098%,82.745098%);fill-opacity:1;stroke-width:0.5;stroke-linecap:butt;stroke-linejoin:miter;stroke:rgb(0%,0%,0%);stroke-opacity:1;stroke-miterlimit:10;" d="M 124.71875 78 C 124.71875 81.535156 119.417969 81.535156 119.417969 78 C 119.417969 74.46875 124.71875 74.46875 124.71875 78 "/>
<path style="fill-rule:nonzero;fill:rgb(82.745098%,82.745098%,82.745098%);fill-opacity:1;stroke-width:0.5;stroke-linecap:butt;stroke-linejoin:miter;stroke:rgb(0%,0%,0%);stroke-opacity:1;stroke-miterlimit:10;" d="M 212.089844 391.238281 C 212.089844 394.769531 206.789062 394.769531 206.789062 391.238281 C 206.789062 387.703125 212.089844 387.703125 212.089844 391.238281 "/>
<path style="fill-rule:nonzero;fill:rgb(82.745098%,82.745098%,82.745098%);fill-opacity:1;stroke-width:0.5;stroke-linecap:butt;stroke-linejoin:miter;stroke:rgb(0%,0%,0%);stroke-opacity:1;stroke-miterlimit:10;" d="M 32.125 242.789062 C 32.125 246.320312 26.824219 246.320312 26.824219 242.789062 C 26.824219 239.253906 32.125 239.253906 32.125 242.789062 "/>
<path style="fill-rule:nonzero;fill:rgb(82.745098%,82.745098%,82.745098%);fill-opacity:1;stroke-width:0.5;stroke-linecap:butt;stroke-linejoin:miter;stroke:rgb(0%,0%,0%);stroke-opacity:1;stroke-miterlimit:10;" d="M 530.597656 252.796875 C 530.597656 256.332031 525.296875 256.332031 525.296875 252.796875 C 525.296875 249.265625 530.597656 249.265625 530.597656 252.796875 "/>
<path style="fill-rule:nonzero;fill:rgb(82.745098%,82.745098%,82.745098%);fill-opacity:1;stroke-width:0.5;stroke-linecap:butt;stroke-linejoin:miter;stroke:rgb(0%,0%,0%);stroke-opacity:1;stroke-miterlimit:10;" d="M 191.878906 498.660156 C 191.878906 502.195312 186.578125 502.195312 186.578125 498.660156 C 186.578125 495.128906 191.878906 495.128906 191.878906 498.660156 "/>
<path style="fill-rule:nonzero;fill:rgb(82.745098%,82.745098%,82.745098%);fill-opacity:1;stroke-width:0.5;stroke-linecap:butt;stroke-linejoin:miter;stroke:rgb(0%,0%,0%);stroke-opacity:1;stroke-miterlimit:10;" d="M 394.296875 415.785156 C 394.296875 419.316406 388.996094 419.316406 388.996094 415.785156 C 388.996094 412.25 394.296875 412.25 394.296875 415.785156 "/>
<path style="fill-rule:nonzero;fill:rgb(82.745098%,82.745098%,82.745098%);fill-opacity:1;stroke-width:0.5;stroke-linecap:butt;stroke-linejoin:miter;stroke:rgb(0%,0%,0%);stroke-opacity:1;stroke-miterlimit:10;" d="M 232.5 155.386719 C 232.5 158.917969 227.199219 158.917969 227.199219 155.386719 C 227.199219 151.851562 232.5 151.851562 232.5 155.386719 "/>
<path style="fill-rule:nonzero;fill:rgb(82.745098%,82.745098%,82.745098%);fill-opacity:1;stroke-width:0.5;stroke-linecap:butt;stroke-linejoin:miter;stroke:rgb(0%,0%,0%);stroke-opacity:1;stroke-miterlimit:10;" d="M 293.457031 562.371094 C 293.457031 565.902344 288.15625 565.902344 288.15625 562.371094 C 288.15625 558.835938 293.457031 558.835938 293.457031 562.371094 "/>
<path style="fill-rule:nonzero;fill:rgb(82.745098%,82.745098%,82.745098%);fill-opacity:1;stroke-width:0.5;stroke-linecap:butt;stroke-linejoin:miter;stroke:rgb(0%,0%,0%);stroke-opacity:1;stroke-miterlimit:10;" d="M 435.164062 69.160156 C 435.164062 72.691406 429.867188 72.691406 429.867188 69.160156 C 429.867188 65.625 435.164062 65.625 435.164062 69.160156 "/>
<path style="fill-rule:nonzero;fill:rgb(82.745098%,82.745098%,82.745098%);fill-opacity:1;stroke-width:0.5;stroke-linecap:butt;stroke-linejoin:miter;stroke:rgb(0%,0%,0%);stroke-opacity:1;stroke-miterlimit:10;" d="M 273.226562 503.273438 C 273.226562 506.804688 267.929688 506.804688 267.929688 503.273438 C 267.929688 499.738281 273.226562 499.738281 273.226562 503.273438 "/>
<path style="fill-rule:nonzero;fill:rgb(82.745098%,82.745098%,82.745098%);fill-opacity:1;stroke-width:0.5;stroke-linecap:butt;stroke-linejoin:miter;stroke:rgb(0%,0%,0%);stroke-opacity:1;stroke-miterlimit:10;" d="M 124.734375 183.042969 C 124.734375 186.578125 119.4375 186.578125 119.4375 183.042969 C 119.4375 179.511719 124.734375 179.511719 124.734375 183.042969 "/>
<path style="fill-rule:nonzero;fill:rgb(82.745098%,82.745098%,82.745098%);fill-opacity:1;stroke-width:0.5;stroke-linecap:butt;stroke-linejoin:miter;stroke:rgb(0%,0%,0%);stroke-opacity:1;stroke-miterlimit:10;" d="M 366.242188 171.792969 C 366.242188 175.328125 360.945312 175.328125 360.945312 171.792969 C 360.945312 168.261719 366.242188 168.261719 366.242188 171.792969 "/>
<path style="fill-rule:nonzero;fill:rgb(82.745098%,82.745098%,82.745098%);fill-opacity:1;stroke-width:0.5;stroke-linecap:butt;stroke-linejoin:miter;stroke:rgb(0%,0%,0%);stroke-opacity:1;stroke-miterlimit:10;" d="M 524.957031 421.367188 C 524.957031 424.902344 519.65625 424.902344 519.65625 421.367188 C 519.65625 417.835938 524.957031 417.835938 524.957031 421.367188 "/>
<path style="fill-rule:nonzero;fill:rgb(82.745098%,82.745098%,82.745098%);fill-opacity:1;stroke-width:0.5;stroke-linecap:butt;stroke-linejoin:miter;stroke:rgb(0%,0%,0%);stroke-opacity:1;stroke-miterlimit:10;" d="M 126.207031 127.289062 C 126.207031 130.824219 120.90625 130.824219 120.90625 127.289062 C 120.90625 123.757812 126.207031 123.757812 126.207031 127.289062 "/>
<path style="fill-rule:nonzero;fill:rgb(82.745098%,82.745098%,82.745098%);fill-opacity:1;stroke-width:0.5;stroke-linecap:butt;stroke-linejoin:miter;stroke:rgb(0%,0%,0%);stroke-opacity:1;stroke-miterlimit:10;" d="M 436.945312 156.207031 C 436.945312 159.738281 431.648438 159.738281 431.648438 156.207031 C 431.648438 152.671875 436.945312 152.671875 436.945312 156.207031 "/>
<path style="fill-rule:nonzero;fill:rgb(82.745098%,82.745098%,82.745098%);fill-opacity:1;stroke-width:0.5;stroke-linecap:butt;stroke-linejoin:miter;stroke:rgb(0%,0%,0%);stroke-opacity:1;stroke-miterlimit:10;" d="M 411.335938 469.046875 C 411.335938 472.582031 406.035156 472.582031 406.035156 469.046875 C 406.035156 465.515625 411.335938 465.515625 411.335938 469.046875 "/>
<path style="fill-rule:nonzero;fill:rgb(82.745098%,82.745098%,82.745098%);fill-opacity:1;stroke-width:0.5;stroke-linecap:butt;stroke-linejoin:miter;stroke:rgb(0%,0%,0%);stroke-opacity:1;stroke-miterlimit:10;" d="M 580.546875 356.789062 C 580.546875 360.324219 575.246094 360.324219 575.246094 356.789062 C 575.246094 353.257812 580.546875 353.257812 580.546875 356.789062 "/>
<path style="fill-rule:nonzero;fill:rgb(82.745098%,82.745098%,82.745098%);fill-opacity:1;stroke-width:0.5;stroke-linecap:butt;stroke-linejoin:miter;stroke:rgb(0%,0%,0%);stroke-opacity:1;stroke-miterlimit:10;" d="M 156.898438 55.773438 C 156.898438 59.304688 151.597656 59.304688 151.597656 55.773438 C 151.597656 52.238281 156.898438 52.238281 156.898438 55.773438 "/>
<path style="fill-rule:nonzero;fill:rgb(82.745098%,82.745098%,82.745098%);fill-opacity:1;stroke-width:0.5;stroke-linecap:butt;stroke-linejoin:miter;stroke:rgb(0%,0%,0%);stroke-opacity:1;stroke-miterlimit:10;" d="M 244.191406 181.164062 C 244.191406 184.695312 238.894531 184.695312 238.894531 181.164062 C 238.894531 177.628906 244.191406 177.628906 244.191406 181.164062 "/>
<path style="fill-rule:nonzero;fill:rgb(82.745098%,82.745098%,82.745098%);fill-opacity:1;stroke-width:0.5;stroke-linecap:butt;stroke-linejoin:miter;stroke:rgb(0%,0%,0%);stroke-opacity:1;stroke-miterlimit:10;" d="M 188.597656 149.242188 C 188.597656 152.773438 183.296875 152.773438 183.296875 149.242188 C 183.296875 145.707031 188.597656 145.707031 188.597656 149.242188 "/>
<path style="fill-rule:nonzero;fill:rgb(82.745098%,82.745098%,82.745098%);fill-opacity:1;stroke-width:0.5;stroke-linecap:butt;stroke-linejoin:miter;stroke:rgb(0%,0%,0%);stroke-opacity:1;stroke-miterlimit:10;" d="M 581.222656 266.746094 C 581.222656 270.277344 575.921875 270.277344 575.921875 266.746094 C 575.921875 263.210938 581.222656 263.210938 581.222656 266.746094 "/>
<path style="fill-rule:nonzero;fill:rgb(82.745098%,82.745098%,82.745098%);fill-opacity:1;stroke-width:0.5;stroke-linecap:butt;stroke-linejoin:miter;stroke:rgb(0%,0%,0%);stroke-opacity:1;stroke-miterlimit:10;" d="M 433.011719 115.96875 C 433.011719 119.5 427.710938 119.5 427.710938 115.96875 C 427.710938 112.433594 433.011719 112.433594 433.011719 115.96875 "/>
<path style="fill-rule:nonzero;fill:rgb(82.745098%,82.745098%,82.745098%);fill-opacity:1;stroke-width:0.5;stroke-linecap:butt;stroke-linejoin:miter;stroke:rgb(0%,0%,0%);stroke-opacity:1;stroke-miterlimit:10;" d="M 291.277344 162.957031 C 291.277344 166.488281 285.980469 166.488281 285.980469 162.957031 C 285.980469 159.421875 291.277344 159.421875 291.277344 162.957031 "/>
<path style="fill-rule:nonzero;fill:rgb(82.745098%,82.745098%,82.745098%);fill-opacity:1;stroke-width:0.5;stroke-linecap:butt;stroke-linejoin:miter;stroke:rgb(0%,0%,0%);stroke-opacity:1;stroke-miterlimit:10;" d="M 69.015625 173.042969 C 69.015625 176.574219 63.714844 176.574219 63.714844 173.042969 C 63.714844 169.507812 69.015625 169.507812 69.015625 173.042969 "/>
<path style="fill-rule:nonzero;fill:rgb(82.745098%,82.745098%,82.745098%);fill-opacity:1;stroke-width:0.5;stroke-linecap:butt;stroke-linejoin:miter;stroke:rgb(0%,0%,0%);stroke-opacity:1;stroke-miterlimit:10;" d="M 292.929688 57.90625 C 292.929688 61.441406 287.628906 61.441406 287.628906 57.90625 C 287.628906 54.375 292.929688 54.375 292.929688 57.90625 "/>
<path style="fill-rule:nonzero;fill:rgb(82.745098%,82.745098%,82.745098%);fill-opacity:1;stroke-width:0.5;stroke-linecap:butt;stroke-linejoin:miter;stroke:rgb(0%,0%,0%);stroke-opacity:1;stroke-miterlimit:10;" d="M 294.058594 391.355469 C 294.058594 394.886719 288.757812 394.886719 288.757812 391.355469 C 288.757812 387.820312 294.058594 387.820312 294.058594 391.355469 "/>
<path style="fill-rule:nonzero;fill:rgb(82.745098%,82.745098%,82.745098%);fill-opacity:1;stroke-width:0.5;stroke-linecap:butt;stroke-linejoin:miter;stroke:rgb(0%,0%,0%);stroke-opacity:1;stroke-miterlimit:10;" d="M 325.421875 569.847656 C 325.421875 573.382812 320.125 573.382812 320.125 569.847656 C 320.125 566.316406 325.421875 566.316406 325.421875 569.847656 "/>
<path style="fill-rule:nonzero;fill:rgb(82.745098%,82.745098%,82.745098%);fill-opacity:1;stroke-width:0.5;stroke-linecap:butt;stroke-linejoin:miter;stroke:rgb(0%,0%,0%);stroke-opacity:1;stroke-miterlimit:10;" d="M 355.828125 20 C 355.828125 23.535156 350.53125 23.535156 350.53125 20 C 350.53125 16.464844 355.828125 16.464844 355.828125 20 "/>
<path style="fill-rule:nonzero;fill:rgb(82.745098%,82.745098%,82.745098%);fill-opacity:1;stroke-width:0.5;stroke-linecap:butt;stroke-linejoin:miter;stroke:rgb(0%,0%,0%);stroke-opacity:1;stroke-miterlimit:10;" d="M 178.4375 519.871094 C 178.4375 523.40625 173.136719 523.40625 173.136719 519.871094 C 173.136719 516.339844 178.4375 516.339844 178.4375 519.871094 "/>
<path style="fill-rule:nonzero;fill:rgb(82.745098%,82.745098%,82.745098%);fill-opacity:1;stroke-width:0.5;stroke-linecap:butt;stroke-linejoin:miter;stroke:rgb(0%,0%,0%);stroke-opacity:1;stroke-miterlimit:10;" d="M 143.992188 491.738281 C 143.992188 495.269531 138.691406 495.269531 138.691406 491.738281 C 138.691406 488.203125 143.992188 488.203125 143.992188 491.738281 "/>
<path style="fill-rule:nonzero;fill:rgb(82.745098%,82.745098%,82.745098%);fill-opacity:1;stroke-width:0.5;stroke-linecap:butt;stroke-linejoin:miter;stroke:rgb(0%,0%,0%);stroke-opacity:1;stroke-miterlimit:10;" d="M 91.171875 248.640625 C 91.171875 252.175781 85.871094 252.175781 85.871094 248.640625 C 85.871094 245.109375 91.171875 245.109375 91.171875 248.640625 "/>
<path style="fill-rule:nonzero;fill:rgb(82.745098%,82.745098%,82.745098%);fill-opacity:1;stroke-width:0.5;stroke-linecap:butt;stroke-linejoin:miter;stroke:rgb(0%,0%,0%);stroke-opacity:1;stroke-miterlimit:10;" d="M 502.410156 413.339844 C 502.410156 416.871094 497.109375 416.871094 497.109375 413.339844 C 497.109375 409.804688 502.410156 409.804688 502.410156 413.339844 "/>
<path style="fill-rule:nonzero;fill:rgb(82.745098%,82.745098%,82.745098%);fill-opacity:1;stroke-width:0.5;stroke-linecap:butt;stroke-linejoin:miter;stroke:rgb(0%,0%,0%);stroke-opacity:1;stroke-miterlimit:10;" d="M 266.019531 376.5 C 266.019531 380.035156 260.71875 380.035156 260.71875 376.5 C 260.71875 372.96875 266.019531 372.96875 266.019531 376.5 "/>
<path style="fill-rule:nonzero;fill:rgb(82.745098%,82.745098%,82.745098%);fill-opacity:1;stroke-width:0.5;stroke-linecap:butt;stroke-linejoin:miter;stroke:rgb(0%,0%,0%);stroke-opacity:1;stroke-miterlimit:10;" d="M 184.648438 556.140625 C 184.648438 559.675781 179.351562 559.675781 179.351562 556.140625 C 179.351562 552.609375 184.648438 552.609375 184.648438 556.140625 "/>
<path style="fill-rule:nonzero;fill:rgb(82.745098%,82.745098%,82.745098%);fill-opacity:1;stroke-width:0.5;stroke-linecap:butt;stroke-linejoin:miter;stroke:rgb(0%,0%,0%);stroke-opacity:1;stroke-miterlimit:10;" d="M 489.070312 500.28125 C 489.070312 503.816406 483.769531 503.816406 483.769531 500.28125 C 483.769531 496.75 489.070312 496.75 489.070312 500.28125 "/>
<path style="fill-rule:nonzero;fill:rgb(82.745098%,82.745098%,82.745098%);fill-opacity:1;stroke-width:0.5;stroke-linecap:butt;stroke-linejoin:miter;stroke:rgb(0%,0%,0%);stroke-opacity:1;stroke-miterlimit:10;" d="M 252.113281 547.75 C 252.113281 551.28125 246.8125 551.28125 246.8125 547.75 C 246.8125 544.214844 252.113281 544.214844 252.113281 547.75 "/>
<path style="fill-rule:nonzero;fill:rgb(82.745098%,82.745098%,82.745098%);fill-opacity:1;stroke-width:0.5;stroke-linecap:butt;stroke-linejoin:miter;stroke:rgb(0%,0%,0%);stroke-opacity:1;stroke-miterlimit:10;" d="M 407.15625 133.617188 C 407.15625 137.152344 401.855469 137.152344 401.855469 133.617188 C 401.855469 130.085938 407.15625 130.085938 407.15625 133.617188 "/>
<path style="fill-rule:nonzero;fill:rgb(82.745098%,82.745098%,82.745098%);fill-opacity:1;stroke-width:0.5;stroke-linecap:butt;stroke-linejoin:miter;stroke:rgb(0%,0%,0%);stroke-opacity:1;stroke-miterlimit:10;" d="M 111.210938 128.605469 C 111.210938 132.136719 105.910156 132.136719 105.910156 128.605469 C 105.910156 125.070312 111.210938 125.070312 111.210938 128.605469 "/>
<path style="fill-rule:nonzero;fill:rgb(82.745098%,82.745098%,82.745098%);fill-opacity:1;stroke-width:0.5;stroke-linecap:butt;stroke-linejoin:miter;stroke:rgb(0%,0%,0%);stroke-opacity:1;stroke-miterlimit:10;" d="M 474.550781 413.675781 C 474.550781 417.207031 469.25 417.207031 469.25 413.675781 C 469.25 410.140625 474.550781 410.140625 474.550781 413.675781 "/>
<path style="fill-rule:nonzero;fill:rgb(82.745098%,82.745098%,82.745098%);fill-opacity:1;stroke-width:0.5;stroke-linecap:butt;stroke-linejoin:miter;stroke:rgb(0%,0%,0%);stroke-opacity:1;stroke-miterlimit:10;" d="M 153.277344 283.230469 C 153.277344 286.761719 147.976562 286.761719 147.976562 283.230469 C 147.976562 279.695312 153.277344 279.695312 153.277344 283.230469 "/>
<path style="fill-rule:nonzero;fill:rgb(82.745098%,82.745098%,82.745098%);fill-opacity:1;stroke-width:0.5;stroke-linecap:butt;stroke-linejoin:miter;stroke:rgb(0%,0%,0%);stroke-opacity:1;stroke-miterlimit:10;" d="M 49.921875 425.203125 C 49.921875 428.738281 44.621094 428.738281 44.621094 425.203125 C 44.621094 421.671875 49.921875 421.671875 49.921875 425.203125 "/>
<path style="fill-rule:nonzero;fill:rgb(82.745098%,82.745098%,82.745098%);fill-opacity:1;stroke-width:0.5;stroke-linecap:butt;stroke-linejoin:miter;stroke:rgb(0%,0%,0%);stroke-opacity:1;stroke-miterlimit:10;" d="M 398.296875 44.679688 C 398.296875 48.214844 392.996094 48.214844 392.996094 44.679688 C 392.996094 41.148438 398.296875 41.148438 398.296875 44.679688 "/>
<path style="fill-rule:nonzero;fill:rgb(82.745098%,82.745098%,82.745098%);fill-opacity:1;stroke-width:0.5;stroke-linecap:butt;stroke-linejoin:miter;stroke:rgb(0%,0%,0%);stroke-opacity:1;stroke-miterlimit:10;" d="M 264.988281 406.667969 C 264.988281 410.199219 259.6875 410.199219 259.6875 406.667969 C 259.6875 403.132812 264.988281 403.132812 264.988281 406.667969 "/>
<path style="fill-rule:nonzero;fill:rgb(82.745098%,82.745098%,82.745098%);fill-opacity:1;stroke-width:0.5;stroke-linecap:butt;stroke-linejoin:miter;stroke:rgb(0%,0%,0%);stroke-opacity:1;stroke-miterlimit:10;" d="M 323.933594 324.332031 C 323.933594 327.863281 318.632812 327.863281 318.632812 324.332031 C 318.632812 320.796875 323.933594 320.796875 323.933594 324.332031 "/>
<path style="fill-rule:nonzero;fill:rgb(82.745098%,82.745098%,82.745098%);fill-opacity:1;stroke-width:0.5;stroke-linecap:butt;stroke-linejoin:miter;stroke:rgb(0%,0%,0%);stroke-opacity:1;stroke-miterlimit:10;" d="M 321.253906 566.5 C 321.253906 570.03125 315.957031 570.03125 315.957031 566.5 C 315.957031 562.964844 321.253906 562.964844 321.253906 566.5 "/>
<path style="fill-rule:nonzero;fill:rgb(82.745098%,82.745098%,82.745098%);fill-opacity:1;stroke-width:0.5;stroke-linecap:butt;stroke-linejoin:miter;stroke:rgb(0%,0%,0%);stroke-opacity:1;stroke-miterlimit:10;" d="M 328.886719 232.898438 C 328.886719 236.429688 323.585938 236.429688 323.585938 232.898438 C 323.585938 229.363281 328.886719 229.363281 328.886719 232.898438 "/>
<path style="fill-rule:nonzero;fill:rgb(82.745098%,82.745098%,82.745098%);fill-opacity:1;stroke-width:0.5;stroke-linecap:butt;stroke-linejoin:miter;stroke:rgb(0%,0%,0%);stroke-opacity:1;stroke-miterlimit:10;" d="M 284.644531 465.453125 C 284.644531 468.984375 279.34375 468.984375 279.34375 465.453125 C 279.34375 461.917969 284.644531 461.917969 284.644531 465.453125 "/>
<path style="fill-rule:nonzero;fill:rgb(82.745098%,82.745098%,82.745098%);fill-opacity:1;stroke-width:0.5;stroke-linecap:butt;stroke-linejoin:miter;stroke:rgb(0%,0%,0%);stroke-opacity:1;stroke-miterlimit:10;" d="M 166.785156 248.894531 C 166.785156 252.425781 161.484375 252.425781 161.484375 248.894531 C 161.484375 245.359375 166.785156 245.359375 166.785156 248.894531 "/>
<path style="fill-rule:nonzero;fill:rgb(82.745098%,82.745098%,82.745098%);fill-opacity:1;stroke-width:0.5;stroke-linecap:butt;stroke-linejoin:miter;stroke:rgb(0%,0%,0%);stroke-opacity:1;stroke-miterlimit:10;" d="M 392.945312 322.042969 C 392.945312 325.578125 387.644531 325.578125 387.644531 322.042969 C 387.644531 318.511719 392.945312 318.511719 392.945312 322.042969 "/>
<path style="fill-rule:nonzero;fill:rgb(82.745098%,82.745098%,82.745098%);fill-opacity:1;stroke-width:0.5;stroke-linecap:butt;stroke-linejoin:miter;stroke:rgb(0%,0%,0%);stroke-opacity:1;stroke-miterlimit:10;" d="M 308.203125 83.296875 C 308.203125 86.832031 302.902344 86.832031 302.902344 83.296875 C 302.902344 79.765625 308.203125 79.765625 308.203125 83.296875 "/>
<path style="fill-rule:nonzero;fill:rgb(82.745098%,82.745098%,82.745098%);fill-opacity:1;stroke-width:0.5;stroke-linecap:butt;stroke-linejoin:miter;stroke:rgb(0%,0%,0%);stroke-opacity:1;stroke-miterlimit:10;" d="M 574.503906 343.273438 C 574.503906 346.808594 569.207031 346.808594 569.207031 343.273438 C 569.207031 339.742188 574.503906 339.742188 574.503906 343.273438 "/>
<path style="fill-rule:nonzero;fill:rgb(82.745098%,82.745098%,82.745098%);fill-opacity:1;stroke-width:0.5;stroke-linecap:butt;stroke-linejoin:miter;stroke:rgb(0%,0%,0%);stroke-opacity:1;stroke-miterlimit:10;" d="M 582.648438 225.570312 C 582.648438 229.101562 577.351562 229.101562 577.351562 225.570312 C 577.351562 222.035156 582.648438 222.035156 582.648438 225.570312 "/>
<path style="fill-rule:nonzero;fill:rgb(82.745098%,82.745098%,82.745098%);fill-opacity:1;stroke-width:0.5;stroke-linecap:butt;stroke-linejoin:miter;stroke:rgb(0%,0%,0%);stroke-opacity:1;stroke-miterlimit:10;" d="M 515.144531 122.015625 C 515.144531 125.550781 509.84375 125.550781 509.84375 122.015625 C 509.84375 118.484375 515.144531 118.484375 515.144531 122.015625 "/>
<path style="fill-rule:nonzero;fill:rgb(82.745098%,82.745098%,82.745098%);fill-opacity:1;stroke-width:0.5;stroke-linecap:butt;stroke-linejoin:miter;stroke:rgb(0%,0%,0%);stroke-opacity:1;stroke-miterlimit:10;" d="M 132.917969 387.972656 C 132.917969 391.503906 127.617188 391.503906 127.617188 387.972656 C 127.617188 384.4375 132.917969 384.4375 132.917969 387.972656 "/>
</g>
</svg>
