<?xml version="1.0" encoding="utf-8" standalone="no"?>
<!DOCTYPE svg PUBLIC "-//W3C//DTD SVG 1.1//EN"
  "http://www.w3.org/Graphics/SVG/1.1/DTD/svg11.dtd">
<svg xmlns:xlink="http://www.w3.org/1999/xlink" width="457.92pt" height="457.92pt" viewBox="0 0 457.92 457.92" xmlns="http://www.w3.org/2000/svg" version="1.1">
 <metadata>
  <rdf:RDF xmlns:dc="http://purl.org/dc/elements/1.1/" xmlns:cc="http://creativecommons.org/ns#" xmlns:rdf="http://www.w3.org/1999/02/22-rdf-syntax-ns#">
   <cc:Work>
    <dc:type rdf:resource="http://purl.org/dc/dcmitype/StillImage"/>
    <dc:date>2023-03-17T17:34:05.942906</dc:date>
    <dc:format>image/svg+xml</dc:format>
    <dc:creator>
     <cc:Agent>
      <dc:title>Matplotlib v3.5.3, https://matplotlib.org/</dc:title>
     </cc:Agent>
    </dc:creator>
   </cc:Work>
  </rdf:RDF>
 </metadata>
 <defs>
  <style type="text/css">*{stroke-linejoin: round; stroke-linecap: butt}</style>
 </defs>
 <g id="figure_1">
  <g id="patch_1">
   <path d="M 0 457.92 
L 457.92 457.92 
L 457.92 0 
L 0 0 
z
" style="fill: #ffffff"/>
  </g>
  <g id="patch_2">
   <path d="M 7.2 450.72 
L 450.72 450.72 
L 450.72 7.2 
L 7.2 7.2 
z
" style="fill: #ffffff"/>
  </g>
  <g id="pane3d_1">
   <g id="patch_3">
    <path d="M 283.099126 305.582973 
L 44.882892 322.486616 
L 43.429694 113.740038 
L 283.446962 108.206228 
" style="fill: none; opacity: 0.5; stroke: #000000; stroke-linejoin: miter"/>
   </g>
  </g>
  <g id="pane3d_2">
   <g id="patch_4">
    <path d="M 433.424481 336.154908 
L 283.099126 305.582973 
L 283.446962 108.206228 
L 435.009504 118.218062 
" style="fill: none; opacity: 0.5; stroke: #000000; stroke-linejoin: miter"/>
   </g>
  </g>
  <g id="pane3d_3">
   <g id="patch_5">
    <path d="M 433.424481 336.154908 
L 283.099126 305.582973 
L 44.882892 322.486616 
L 178.356458 356.904016 
" style="fill: none; opacity: 0.5; stroke: #000000; stroke-linejoin: miter"/>
   </g>
  </g>
  <g id="axis3d_1">
   <g id="line2d_1">
    <path d="M 44.882892 322.486616 
L 178.356458 356.904016 
" style="fill: none; stroke: #000000; stroke-width: 0.8; stroke-linecap: square"/>
   </g>
  </g>
  <g id="axis3d_2">
   <g id="line2d_2">
    <path d="M 433.424481 336.154908 
L 178.356458 356.904016 
" style="fill: none; stroke: #000000; stroke-width: 0.8; stroke-linecap: square"/>
   </g>
  </g>
  <g id="axis3d_3">
   <g id="line2d_3">
    <path d="M 433.424481 336.154908 
L 435.009504 118.218062 
" style="fill: none; stroke: #000000; stroke-width: 0.8; stroke-linecap: square"/>
   </g>
  </g>
  <g id="axes_1">
   <g id="line2d_4">
    <path d="M 166.741242 313.262723 
L 139.320166 267.012684 
" clip-path="url(#pab516b84fd)" style="fill: none; stroke: #ff0000; stroke-width: 1.005; stroke-linecap: square"/>
   </g>
   <g id="line2d_5">
    <path d="M 289.199042 304.672584 
L 300.895995 213.930535 
" clip-path="url(#pab516b84fd)" style="fill: none; stroke: #0000ff; stroke-width: 1.005; stroke-linecap: square"/>
   </g>
   <g id="line2d_6">
    <path d="M 317.925791 321.391547 
L 351.345249 228.452593 
" clip-path="url(#pab516b84fd)" style="fill: none; stroke: #0000ff; stroke-width: 1.005; stroke-linecap: square"/>
   </g>
   <g id="line2d_7">
    <path d="M 305.190976 226.055209 
L 341.815404 132.338583 
" clip-path="url(#pab516b84fd)" style="fill: none; stroke: #ff0000; stroke-width: 1.005; stroke-linecap: square"/>
   </g>
   <g id="line2d_8">
    <path d="M 236.418441 325.550298 
L 236.162079 234.66766 
" clip-path="url(#pab516b84fd)" style="fill: none; stroke: #0000ff; stroke-width: 1.005; stroke-linecap: square"/>
   </g>
   <g id="line2d_9">
    <path d="M 262.649197 214.975658 
L 272.590898 168.11129 
" clip-path="url(#pab516b84fd)" style="fill: none; stroke: #ff0000; stroke-width: 1.005; stroke-linecap: square"/>
   </g>
   <g id="line2d_10">
    <path d="M 218.865059 169.609768 
L 217.600444 124.383851 
" clip-path="url(#pab516b84fd)" style="fill: none; stroke: #ff0000; stroke-width: 1.005; stroke-linecap: square"/>
   </g>
   <g id="line2d_11">
    <path d="M 134.321935 310.257228 
L 109.99152 218.502241 
" clip-path="url(#pab516b84fd)" style="fill: none; stroke: #ff0000; stroke-width: 1.005; stroke-linecap: square"/>
   </g>
   <g id="line2d_12">
    <path d="M 266.18673 303.353155 
L 268.086298 258.486733 
" clip-path="url(#pab516b84fd)" style="fill: none; stroke: #0000ff; stroke-width: 1.005; stroke-linecap: square"/>
   </g>
   <g id="line2d_13">
    <path d="M 168.321621 311.676303 
L 157.358215 288.248377 
" clip-path="url(#pab516b84fd)" style="fill: none; stroke: #ff0000; stroke-width: 1.005; stroke-linecap: square"/>
   </g>
   <g id="line2d_14">
    <path d="M 157.358215 288.248377 
L 153.631823 265.23715 
" clip-path="url(#pab516b84fd)" style="fill: none; stroke: #ff0000; stroke-width: 1.005; stroke-linecap: square"/>
   </g>
   <g id="line2d_15">
    <path d="M 186.417675 279.699753 
L 179.287195 232.819248 
" clip-path="url(#pab516b84fd)" style="fill: none; stroke: #0000ff; stroke-width: 1.005; stroke-linecap: square"/>
   </g>
   <g id="line2d_16">
    <path d="M 153.966825 324.791897 
L 137.529447 278.900382 
" clip-path="url(#pab516b84fd)" style="fill: none; stroke: #0000ff; stroke-width: 1.005; stroke-linecap: square"/>
   </g>
   <g id="line2d_17">
    <path d="M 192.552403 321.050479 
L 186.11187 298.300832 
" clip-path="url(#pab516b84fd)" style="fill: none; stroke: #ff0000; stroke-width: 1.005; stroke-linecap: square"/>
   </g>
   <g id="line2d_18">
    <path d="M 117.173891 313.197063 
L 121.995235 267.321399 
" clip-path="url(#pab516b84fd)" style="fill: none; stroke: #0000ff; stroke-width: 1.005; stroke-linecap: square"/>
   </g>
   <g id="line2d_19">
    <path d="M 142.12084 317.98225 
L 116.731059 272.265126 
" clip-path="url(#pab516b84fd)" style="fill: none; stroke: #ff0000; stroke-width: 1.005; stroke-linecap: square"/>
   </g>
   <g id="line2d_20">
    <path d="M 178.347946 279.556598 
L 173.160443 231.976281 
" clip-path="url(#pab516b84fd)" style="fill: none; stroke: #ff0000; stroke-width: 1.005; stroke-linecap: square"/>
   </g>
   <g id="line2d_21">
    <path d="M 199.948091 313.337297 
L 190.233883 221.030685 
" clip-path="url(#pab516b84fd)" style="fill: none; stroke: #0000ff; stroke-width: 1.005; stroke-linecap: square"/>
   </g>
   <g id="line2d_22">
    <path d="M 235.20786 324.579173 
L 237.487049 230.303429 
" clip-path="url(#pab516b84fd)" style="fill: none; stroke: #ff0000; stroke-width: 1.005; stroke-linecap: square"/>
   </g>
   <g id="line2d_23">
    <path d="M 238.88169 330.622944 
L 239.356284 307.638712 
" clip-path="url(#pab516b84fd)" style="fill: none; stroke: #0000ff; stroke-width: 1.005; stroke-linecap: square"/>
   </g>
   <g id="line2d_24">
    <path d="M 310.271492 298.35041 
L 327.265668 276.040222 
" clip-path="url(#pab516b84fd)" style="fill: none; stroke: #ff0000; stroke-width: 1.005; stroke-linecap: square"/>
   </g>
   <g id="line2d_25">
    <path d="M 207.930797 302.674914 
L 203.585354 256.809312 
" clip-path="url(#pab516b84fd)" style="fill: none; stroke: #ff0000; stroke-width: 1.005; stroke-linecap: square"/>
   </g>
   <g id="line2d_26">
    <path d="M 287.692005 306.830368 
L 297.012523 216.033299 
" clip-path="url(#pab516b84fd)" style="fill: none; stroke: #0000ff; stroke-width: 1.005; stroke-linecap: square"/>
   </g>
   <g id="line2d_27">
    <path d="M 190.271577 308.569362 
L 173.714678 261.509991 
" clip-path="url(#pab516b84fd)" style="fill: none; stroke: #ff0000; stroke-width: 1.005; stroke-linecap: square"/>
   </g>
   <g id="line2d_28">
    <path d="M 279.296942 314.513916 
L 315.496763 291.578886 
" clip-path="url(#pab516b84fd)" style="fill: none; stroke: #ff0000; stroke-width: 1.005; stroke-linecap: square"/>
   </g>
   <g id="line2d_29">
    <path d="M 141.387721 293.334071 
L 129.908134 270.392074 
" clip-path="url(#pab516b84fd)" style="fill: none; stroke: #ff0000; stroke-width: 1.005; stroke-linecap: square"/>
   </g>
   <g id="line2d_30">
    <path d="M 141.159811 317.191479 
L 109.99337 294.881958 
" clip-path="url(#pab516b84fd)" style="fill: none; stroke: #0000ff; stroke-width: 1.005; stroke-linecap: square"/>
   </g>
   <g id="line2d_31">
    <path d="M 213.79133 317.539905 
L 209.657927 294.72024 
" clip-path="url(#pab516b84fd)" style="fill: none; stroke: #ff0000; stroke-width: 1.005; stroke-linecap: square"/>
   </g>
   <g id="line2d_32">
    <path d="M 334.564221 314.100999 
L 357.10812 290.944338 
" clip-path="url(#pab516b84fd)" style="fill: none; stroke: #ff0000; stroke-width: 1.005; stroke-linecap: square"/>
   </g>
   <g id="line2d_33">
    <path d="M 280.828073 324.796389 
L 287.894638 278.333223 
" clip-path="url(#pab516b84fd)" style="fill: none; stroke: #ff0000; stroke-width: 1.005; stroke-linecap: square"/>
   </g>
   <g id="line2d_34">
    <path d="M 297.29293 306.782858 
L 317.763457 282.334091 
" clip-path="url(#pab516b84fd)" style="fill: none; stroke: #0000ff; stroke-width: 1.005; stroke-linecap: square"/>
   </g>
   <g id="line2d_35">
    <path d="M 333.549601 316.733997 
L 350.703139 270.508146 
" clip-path="url(#pab516b84fd)" style="fill: none; stroke: #ff0000; stroke-width: 1.005; stroke-linecap: square"/>
   </g>
   <g id="line2d_36">
    <path d="M 291.735063 312.812863 
L 296.38327 266.825035 
" clip-path="url(#pab516b84fd)" style="fill: none; stroke: #ff0000; stroke-width: 1.005; stroke-linecap: square"/>
   </g>
   <g id="line2d_37">
    <path d="M 128.875622 320.738772 
L 126.829046 297.671392 
" clip-path="url(#pab516b84fd)" style="fill: none; stroke: #ff0000; stroke-width: 1.005; stroke-linecap: square"/>
   </g>
   <g id="line2d_38">
    <path d="M 272.058469 301.945076 
L 282.089231 280.331619 
" clip-path="url(#pab516b84fd)" style="fill: none; stroke: #0000ff; stroke-width: 1.005; stroke-linecap: square"/>
   </g>
   <g id="line2d_39">
    <path d="M 282.089231 280.331619 
L 289.406057 233.382497 
" clip-path="url(#pab516b84fd)" style="fill: none; stroke: #ff0000; stroke-width: 1.005; stroke-linecap: square"/>
   </g>
   <g id="line2d_40">
    <path d="M 267.187858 325.119136 
L 278.253901 279.954056 
" clip-path="url(#pab516b84fd)" style="fill: none; stroke: #0000ff; stroke-width: 1.005; stroke-linecap: square"/>
   </g>
   <g id="line2d_41">
    <path d="M 240.336049 303.756818 
L 240.024291 258.340858 
" clip-path="url(#pab516b84fd)" style="fill: none; stroke: #ff0000; stroke-width: 1.005; stroke-linecap: square"/>
   </g>
   <g id="line2d_42">
    <path d="M 209.702303 328.006667 
L 206.767896 305.60144 
" clip-path="url(#pab516b84fd)" style="fill: none; stroke: #ff0000; stroke-width: 1.005; stroke-linecap: square"/>
   </g>
   <g id="line2d_43">
    <path d="M 309.7713 319.687728 
L 336.293134 297.645852 
" clip-path="url(#pab516b84fd)" style="fill: none; stroke: #0000ff; stroke-width: 1.005; stroke-linecap: square"/>
   </g>
   <g id="line2d_44">
    <path d="M 229.473546 304.94903 
L 230.638551 280.594168 
" clip-path="url(#pab516b84fd)" style="fill: none; stroke: #0000ff; stroke-width: 1.005; stroke-linecap: square"/>
   </g>
   <g id="line2d_45">
    <path d="M 215.932138 296.275788 
L 210.527556 274.174305 
" clip-path="url(#pab516b84fd)" style="fill: none; stroke: #0000ff; stroke-width: 1.005; stroke-linecap: square"/>
   </g>
   <g id="line2d_46">
    <path d="M 153.993737 308.654327 
L 125.208334 216.648218 
" clip-path="url(#pab516b84fd)" style="fill: none; stroke: #ff0000; stroke-width: 1.005; stroke-linecap: square"/>
   </g>
   <g id="line2d_47">
    <path d="M 318.0535 326.126674 
L 323.087443 278.389352 
" clip-path="url(#pab516b84fd)" style="fill: none; stroke: #ff0000; stroke-width: 1.005; stroke-linecap: square"/>
   </g>
   <g id="line2d_48">
    <path d="M 295.184047 317.761211 
L 308.525116 295.326659 
" clip-path="url(#pab516b84fd)" style="fill: none; stroke: #ff0000; stroke-width: 1.005; stroke-linecap: square"/>
   </g>
   <g id="line2d_49">
    <path d="M 222.63943 302.424874 
L 221.338928 279.286828 
" clip-path="url(#pab516b84fd)" style="fill: none; stroke: #ff0000; stroke-width: 1.005; stroke-linecap: square"/>
   </g>
   <g id="line2d_50">
    <path d="M 213.266039 310.360479 
L 207.395021 218.588567 
" clip-path="url(#pab516b84fd)" style="fill: none; stroke: #ff0000; stroke-width: 1.005; stroke-linecap: square"/>
   </g>
   <g id="line2d_51">
    <path d="M 149.609764 309.770735 
L 136.183153 286.344218 
" clip-path="url(#pab516b84fd)" style="fill: none; stroke: #ff0000; stroke-width: 1.005; stroke-linecap: square"/>
   </g>
   <g id="line2d_52">
    <path d="M 282.985084 284.312801 
L 287.320411 261.34032 
" clip-path="url(#pab516b84fd)" style="fill: none; stroke: #ff0000; stroke-width: 1.005; stroke-linecap: square"/>
   </g>
   <g id="line2d_53">
    <path d="M 190.35453 260.925439 
L 179.199158 214.351555 
" clip-path="url(#pab516b84fd)" style="fill: none; stroke: #ff0000; stroke-width: 1.005; stroke-linecap: square"/>
   </g>
   <g id="line2d_54">
    <path d="M 194.957472 315.246131 
L 191.377241 268.927279 
" clip-path="url(#pab516b84fd)" style="fill: none; stroke: #ff0000; stroke-width: 1.005; stroke-linecap: square"/>
   </g>
   <g id="line2d_55">
    <path d="M 134.502058 269.802372 
L 117.200109 246.783071 
" clip-path="url(#pab516b84fd)" style="fill: none; stroke: #ff0000; stroke-width: 1.005; stroke-linecap: square"/>
   </g>
   <g id="line2d_56">
    <path d="M 268.980129 305.837135 
L 282.887765 257.942613 
" clip-path="url(#pab516b84fd)" style="fill: none; stroke: #0000ff; stroke-width: 1.005; stroke-linecap: square"/>
   </g>
   <g id="line2d_57">
    <path d="M 318.027346 263.218884 
L 334.177265 217.264701 
" clip-path="url(#pab516b84fd)" style="fill: none; stroke: #ff0000; stroke-width: 1.005; stroke-linecap: square"/>
   </g>
   <g id="line2d_58">
    <path d="M 248.968392 317.932602 
L 253.556189 224.916479 
" clip-path="url(#pab516b84fd)" style="fill: none; stroke: #0000ff; stroke-width: 1.005; stroke-linecap: square"/>
   </g>
   <g id="line2d_59">
    <path d="M 231.078877 308.887445 
L 231.089539 217.342758 
" clip-path="url(#pab516b84fd)" style="fill: none; stroke: #0000ff; stroke-width: 1.005; stroke-linecap: square"/>
   </g>
   <g id="line2d_60">
    <path d="M 326.733944 312.434753 
L 344.739598 266.323114 
" clip-path="url(#pab516b84fd)" style="fill: none; stroke: #ff0000; stroke-width: 1.005; stroke-linecap: square"/>
   </g>
   <g id="line2d_61">
    <path d="M 209.993367 278.758912 
L 210.359473 230.56416 
" clip-path="url(#pab516b84fd)" style="fill: none; stroke: #0000ff; stroke-width: 1.005; stroke-linecap: square"/>
   </g>
   <g id="line2d_62">
    <path d="M 291.671769 306.770761 
L 316.405256 281.279409 
" clip-path="url(#pab516b84fd)" style="fill: none; stroke: #0000ff; stroke-width: 1.005; stroke-linecap: square"/>
   </g>
   <g id="line2d_63">
    <path d="M 247.402703 324.835704 
L 252.006099 231.917057 
" clip-path="url(#pab516b84fd)" style="fill: none; stroke: #0000ff; stroke-width: 1.005; stroke-linecap: square"/>
   </g>
   <g id="line2d_64">
    <path d="M 182.871213 308.374992 
L 167.985357 284.094576 
" clip-path="url(#pab516b84fd)" style="fill: none; stroke: #ff0000; stroke-width: 1.005; stroke-linecap: square"/>
   </g>
   <g id="line2d_65">
    <path d="M 278.899178 311.02483 
L 275.135043 265.289481 
" clip-path="url(#pab516b84fd)" style="fill: none; stroke: #0000ff; stroke-width: 1.005; stroke-linecap: square"/>
   </g>
   <g id="line2d_66">
    <path d="M 275.135043 265.289481 
L 275.550874 219.321799 
" clip-path="url(#pab516b84fd)" style="fill: none; stroke: #ff0000; stroke-width: 1.005; stroke-linecap: square"/>
   </g>
   <g id="line2d_67">
    <path d="M 231.438451 307.854221 
L 229.256377 259.401831 
" clip-path="url(#pab516b84fd)" style="fill: none; stroke: #0000ff; stroke-width: 1.005; stroke-linecap: square"/>
   </g>
   <g id="line2d_68">
    <path d="M 143.70142 260.546406 
L 140.714329 216.007866 
" clip-path="url(#pab516b84fd)" style="fill: none; stroke: #ff0000; stroke-width: 1.005; stroke-linecap: square"/>
   </g>
   <g id="Path3DCollection_1">
    <path d="M 203.585354 258.809312 
C 204.11576 258.809312 204.624514 258.59858 204.999567 258.223526 
C 205.374621 257.848472 205.585354 257.339718 205.585354 256.809312 
C 205.585354 256.278906 205.374621 255.770152 204.999567 255.395099 
C 204.624514 255.020045 204.11576 254.809312 203.585354 254.809312 
C 203.054948 254.809312 202.546194 255.020045 202.17114 255.395099 
C 201.796086 255.770152 201.585354 256.278906 201.585354 256.809312 
C 201.585354 257.339718 201.796086 257.848472 202.17114 258.223526 
C 202.546194 258.59858 203.054948 258.809312 203.585354 258.809312 
z
" clip-path="url(#pab516b84fd)" style="fill: #d3d3d3; stroke: #000000"/>
    <path d="M 221.338928 281.286828 
C 221.869334 281.286828 222.378087 281.076096 222.753141 280.701042 
C 223.128195 280.325988 223.338928 279.817234 223.338928 279.286828 
C 223.338928 278.756422 223.128195 278.247668 222.753141 277.872615 
C 222.378087 277.497561 221.869334 277.286828 221.338928 277.286828 
C 220.808521 277.286828 220.299768 277.497561 219.924714 277.872615 
C 219.54966 278.247668 219.338928 278.756422 219.338928 279.286828 
C 219.338928 279.817234 219.54966 280.325988 219.924714 280.701042 
C 220.299768 281.076096 220.808521 281.286828 221.338928 281.286828 
z
" clip-path="url(#pab516b84fd)" style="fill: #d3d3d3; stroke: #000000"/>
    <path d="M 272.590898 170.11129 
C 273.121305 170.11129 273.630058 169.900557 274.005112 169.525503 
C 274.380166 169.150449 274.590898 168.641696 274.590898 168.11129 
C 274.590898 167.580883 274.380166 167.07213 274.005112 166.697076 
C 273.630058 166.322022 273.121305 166.11129 272.590898 166.11129 
C 272.060492 166.11129 271.551739 166.322022 271.176685 166.697076 
C 270.801631 167.07213 270.590898 167.580883 270.590898 168.11129 
C 270.590898 168.641696 270.801631 169.150449 271.176685 169.525503 
C 271.551739 169.900557 272.060492 170.11129 272.590898 170.11129 
z
" clip-path="url(#pab516b84fd)" style="fill: #d3d3d3; stroke: #000000"/>
    <path d="M 222.63943 304.424874 
C 223.169836 304.424874 223.678589 304.214141 224.053643 303.839087 
C 224.428697 303.464033 224.63943 302.95528 224.63943 302.424874 
C 224.63943 301.894467 224.428697 301.385714 224.053643 301.01066 
C 223.678589 300.635606 223.169836 300.424874 222.63943 300.424874 
C 222.109023 300.424874 221.60027 300.635606 221.225216 301.01066 
C 220.850162 301.385714 220.63943 301.894467 220.63943 302.424874 
C 220.63943 302.95528 220.850162 303.464033 221.225216 303.839087 
C 221.60027 304.214141 222.109023 304.424874 222.63943 304.424874 
z
" clip-path="url(#pab516b84fd)" style="fill: #d3d3d3; stroke: #000000"/>
    <path d="M 282.887765 259.942613 
C 283.418171 259.942613 283.926925 259.73188 284.301979 259.356826 
C 284.677032 258.981773 284.887765 258.473019 284.887765 257.942613 
C 284.887765 257.412207 284.677032 256.903453 284.301979 256.528399 
C 283.926925 256.153345 283.418171 255.942613 282.887765 255.942613 
C 282.357359 255.942613 281.848605 256.153345 281.473551 256.528399 
C 281.098498 256.903453 280.887765 257.412207 280.887765 257.942613 
C 280.887765 258.473019 281.098498 258.981773 281.473551 259.356826 
C 281.848605 259.73188 282.357359 259.942613 282.887765 259.942613 
z
" clip-path="url(#pab516b84fd)" style="fill: #d3d3d3; stroke: #000000"/>
    <path d="M 207.930797 304.674914 
C 208.461204 304.674914 208.969957 304.464181 209.345011 304.089128 
C 209.720065 303.714074 209.930797 303.20532 209.930797 302.674914 
C 209.930797 302.144508 209.720065 301.635754 209.345011 301.2607 
C 208.969957 300.885647 208.461204 300.674914 207.930797 300.674914 
C 207.400391 300.674914 206.891638 300.885647 206.516584 301.2607 
C 206.14153 301.635754 205.930797 302.144508 205.930797 302.674914 
C 205.930797 303.20532 206.14153 303.714074 206.516584 304.089128 
C 206.891638 304.464181 207.400391 304.674914 207.930797 304.674914 
z
" clip-path="url(#pab516b84fd)" style="fill: #d3d3d3; stroke: #000000"/>
    <path d="M 230.638551 282.594168 
C 231.168957 282.594168 231.677711 282.383436 232.052765 282.008382 
C 232.427818 281.633328 232.638551 281.124575 232.638551 280.594168 
C 232.638551 280.063762 232.427818 279.555009 232.052765 279.179955 
C 231.677711 278.804901 231.168957 278.594168 230.638551 278.594168 
C 230.108145 278.594168 229.599391 278.804901 229.224337 279.179955 
C 228.849284 279.555009 228.638551 280.063762 228.638551 280.594168 
C 228.638551 281.124575 228.849284 281.633328 229.224337 282.008382 
C 229.599391 282.383436 230.108145 282.594168 230.638551 282.594168 
z
" clip-path="url(#pab516b84fd)" style="fill: #d3d3d3; stroke: #000000"/>
    <path d="M 240.024291 260.340858 
C 240.554697 260.340858 241.063451 260.130125 241.438505 259.755072 
C 241.813558 259.380018 242.024291 258.871264 242.024291 258.340858 
C 242.024291 257.810452 241.813558 257.301698 241.438505 256.926645 
C 241.063451 256.551591 240.554697 256.340858 240.024291 256.340858 
C 239.493885 256.340858 238.985131 256.551591 238.610077 256.926645 
C 238.235024 257.301698 238.024291 257.810452 238.024291 258.340858 
C 238.024291 258.871264 238.235024 259.380018 238.610077 259.755072 
C 238.985131 260.130125 239.493885 260.340858 240.024291 260.340858 
z
" clip-path="url(#pab516b84fd)" style="fill: #d3d3d3; stroke: #000000"/>
    <path d="M 268.086298 260.486733 
C 268.616704 260.486733 269.125457 260.276 269.500511 259.900946 
C 269.875565 259.525892 270.086298 259.017139 270.086298 258.486733 
C 270.086298 257.956327 269.875565 257.447573 269.500511 257.072519 
C 269.125457 256.697465 268.616704 256.486733 268.086298 256.486733 
C 267.555892 256.486733 267.047138 256.697465 266.672084 257.072519 
C 266.29703 257.447573 266.086298 257.956327 266.086298 258.486733 
C 266.086298 259.017139 266.29703 259.525892 266.672084 259.900946 
C 267.047138 260.276 267.555892 260.486733 268.086298 260.486733 
z
" clip-path="url(#pab516b84fd)" style="fill: #d3d3d3; stroke: #000000"/>
    <path d="M 266.18673 305.353155 
C 266.717136 305.353155 267.225889 305.142422 267.600943 304.767368 
C 267.975997 304.392314 268.18673 303.883561 268.18673 303.353155 
C 268.18673 302.822748 267.975997 302.313995 267.600943 301.938941 
C 267.225889 301.563887 266.717136 301.353155 266.18673 301.353155 
C 265.656324 301.353155 265.14757 301.563887 264.772516 301.938941 
C 264.397462 302.313995 264.18673 302.822748 264.18673 303.353155 
C 264.18673 303.883561 264.397462 304.392314 264.772516 304.767368 
C 265.14757 305.142422 265.656324 305.353155 266.18673 305.353155 
z
" clip-path="url(#pab516b84fd)" style="fill: #d3d3d3; stroke: #000000"/>
    <path d="M 300.895995 215.930535 
C 301.426401 215.930535 301.935154 215.719803 302.310208 215.344749 
C 302.685262 214.969695 302.895995 214.460942 302.895995 213.930535 
C 302.895995 213.400129 302.685262 212.891376 302.310208 212.516322 
C 301.935154 212.141268 301.426401 211.930535 300.895995 211.930535 
C 300.365589 211.930535 299.856835 212.141268 299.481781 212.516322 
C 299.106727 212.891376 298.895995 213.400129 298.895995 213.930535 
C 298.895995 214.460942 299.106727 214.969695 299.481781 215.344749 
C 299.856835 215.719803 300.365589 215.930535 300.895995 215.930535 
z
" clip-path="url(#pab516b84fd)" style="fill: #d3d3d3; stroke: #000000"/>
    <path d="M 316.405256 283.279409 
C 316.935662 283.279409 317.444416 283.068676 317.819469 282.693622 
C 318.194523 282.318569 318.405256 281.809815 318.405256 281.279409 
C 318.405256 280.749003 318.194523 280.240249 317.819469 279.865195 
C 317.444416 279.490141 316.935662 279.279409 316.405256 279.279409 
C 315.87485 279.279409 315.366096 279.490141 314.991042 279.865195 
C 314.615988 280.240249 314.405256 280.749003 314.405256 281.279409 
C 314.405256 281.809815 314.615988 282.318569 314.991042 282.693622 
C 315.366096 283.068676 315.87485 283.279409 316.405256 283.279409 
z
" clip-path="url(#pab516b84fd)" style="fill: #d3d3d3; stroke: #000000"/>
    <path d="M 240.336049 305.756818 
C 240.866456 305.756818 241.375209 305.546085 241.750263 305.171031 
C 242.125317 304.795978 242.336049 304.287224 242.336049 303.756818 
C 242.336049 303.226412 242.125317 302.717658 241.750263 302.342604 
C 241.375209 301.96755 240.866456 301.756818 240.336049 301.756818 
C 239.805643 301.756818 239.29689 301.96755 238.921836 302.342604 
C 238.546782 302.717658 238.336049 303.226412 238.336049 303.756818 
C 238.336049 304.287224 238.546782 304.795978 238.921836 305.171031 
C 239.29689 305.546085 239.805643 305.756818 240.336049 305.756818 
z
" clip-path="url(#pab516b84fd)" style="fill: #d3d3d3; stroke: #000000"/>
    <path d="M 217.600444 126.383851 
C 218.13085 126.383851 218.639604 126.173119 219.014658 125.798065 
C 219.389711 125.423011 219.600444 124.914258 219.600444 124.383851 
C 219.600444 123.853445 219.389711 123.344692 219.014658 122.969638 
C 218.639604 122.594584 218.13085 122.383851 217.600444 122.383851 
C 217.070038 122.383851 216.561284 122.594584 216.18623 122.969638 
C 215.811177 123.344692 215.600444 123.853445 215.600444 124.383851 
C 215.600444 124.914258 215.811177 125.423011 216.18623 125.798065 
C 216.561284 126.173119 217.070038 126.383851 217.600444 126.383851 
z
" clip-path="url(#pab516b84fd)" style="fill: #00ff00; stroke: #000000"/>
    <path d="M 179.199158 216.351555 
C 179.729565 216.351555 180.238318 216.140823 180.613372 215.765769 
C 180.988426 215.390715 181.199158 214.881961 181.199158 214.351555 
C 181.199158 213.821149 180.988426 213.312395 180.613372 212.937342 
C 180.238318 212.562288 179.729565 212.351555 179.199158 212.351555 
C 178.668752 212.351555 178.159999 212.562288 177.784945 212.937342 
C 177.409891 213.312395 177.199158 213.821149 177.199158 214.351555 
C 177.199158 214.881961 177.409891 215.390715 177.784945 215.765769 
C 178.159999 216.140823 178.668752 216.351555 179.199158 216.351555 
z
" clip-path="url(#pab516b84fd)" style="fill: #d3d3d3; stroke: #000000"/>
    <path d="M 229.256377 261.401831 
C 229.786783 261.401831 230.295537 261.191099 230.67059 260.816045 
C 231.045644 260.440991 231.256377 259.932237 231.256377 259.401831 
C 231.256377 258.871425 231.045644 258.362671 230.67059 257.987618 
C 230.295537 257.612564 229.786783 257.401831 229.256377 257.401831 
C 228.725971 257.401831 228.217217 257.612564 227.842163 257.987618 
C 227.46711 258.362671 227.256377 258.871425 227.256377 259.401831 
C 227.256377 259.932237 227.46711 260.440991 227.842163 260.816045 
C 228.217217 261.191099 228.725971 261.401831 229.256377 261.401831 
z
" clip-path="url(#pab516b84fd)" style="fill: #d3d3d3; stroke: #000000"/>
    <path d="M 218.865059 171.609768 
C 219.395465 171.609768 219.904218 171.399035 220.279272 171.023981 
C 220.654326 170.648927 220.865059 170.140174 220.865059 169.609768 
C 220.865059 169.079361 220.654326 168.570608 220.279272 168.195554 
C 219.904218 167.8205 219.395465 167.609768 218.865059 167.609768 
C 218.334652 167.609768 217.825899 167.8205 217.450845 168.195554 
C 217.075791 168.570608 216.865059 169.079361 216.865059 169.609768 
C 216.865059 170.140174 217.075791 170.648927 217.450845 171.023981 
C 217.825899 171.399035 218.334652 171.609768 218.865059 171.609768 
z
" clip-path="url(#pab516b84fd)" style="fill: #d3d3d3; stroke: #000000"/>
    <path d="M 289.199042 306.672584 
C 289.729448 306.672584 290.238201 306.461851 290.613255 306.086797 
C 290.988309 305.711743 291.199042 305.20299 291.199042 304.672584 
C 291.199042 304.142177 290.988309 303.633424 290.613255 303.25837 
C 290.238201 302.883316 289.729448 302.672584 289.199042 302.672584 
C 288.668635 302.672584 288.159882 302.883316 287.784828 303.25837 
C 287.409774 303.633424 287.199042 304.142177 287.199042 304.672584 
C 287.199042 305.20299 287.409774 305.711743 287.784828 306.086797 
C 288.159882 306.461851 288.668635 306.672584 289.199042 306.672584 
z
" clip-path="url(#pab516b84fd)" style="fill: #d3d3d3; stroke: #000000"/>
    <path d="M 317.763457 284.334091 
C 318.293864 284.334091 318.802617 284.123358 319.177671 283.748304 
C 319.552725 283.37325 319.763457 282.864497 319.763457 282.334091 
C 319.763457 281.803685 319.552725 281.294931 319.177671 280.919877 
C 318.802617 280.544823 318.293864 280.334091 317.763457 280.334091 
C 317.233051 280.334091 316.724298 280.544823 316.349244 280.919877 
C 315.97419 281.294931 315.763457 281.803685 315.763457 282.334091 
C 315.763457 282.864497 315.97419 283.37325 316.349244 283.748304 
C 316.724298 284.123358 317.233051 284.334091 317.763457 284.334091 
z
" clip-path="url(#pab516b84fd)" style="fill: #d3d3d3; stroke: #000000"/>
    <path d="M 229.473546 306.94903 
C 230.003952 306.94903 230.512705 306.738297 230.887759 306.363243 
C 231.262813 305.98819 231.473546 305.479436 231.473546 304.94903 
C 231.473546 304.418624 231.262813 303.90987 230.887759 303.534816 
C 230.512705 303.159762 230.003952 302.94903 229.473546 302.94903 
C 228.943139 302.94903 228.434386 303.159762 228.059332 303.534816 
C 227.684278 303.90987 227.473546 304.418624 227.473546 304.94903 
C 227.473546 305.479436 227.684278 305.98819 228.059332 306.363243 
C 228.434386 306.738297 228.943139 306.94903 229.473546 306.94903 
z
" clip-path="url(#pab516b84fd)" style="fill: #d3d3d3; stroke: #000000"/>
    <path d="M 262.649197 216.975658 
C 263.179603 216.975658 263.688357 216.764925 264.06341 216.389871 
C 264.438464 216.014818 264.649197 215.506064 264.649197 214.975658 
C 264.649197 214.445252 264.438464 213.936498 264.06341 213.561444 
C 263.688357 213.18639 263.179603 212.975658 262.649197 212.975658 
C 262.118791 212.975658 261.610037 213.18639 261.234983 213.561444 
C 260.85993 213.936498 260.649197 214.445252 260.649197 214.975658 
C 260.649197 215.506064 260.85993 216.014818 261.234983 216.389871 
C 261.610037 216.764925 262.118791 216.975658 262.649197 216.975658 
z
" clip-path="url(#pab516b84fd)" style="fill: #d3d3d3; stroke: #000000"/>
    <path d="M 143.70142 262.546406 
C 144.231826 262.546406 144.740579 262.335673 145.115633 261.960619 
C 145.490687 261.585566 145.70142 261.076812 145.70142 260.546406 
C 145.70142 260.016 145.490687 259.507246 145.115633 259.132192 
C 144.740579 258.757139 144.231826 258.546406 143.70142 258.546406 
C 143.171013 258.546406 142.66226 258.757139 142.287206 259.132192 
C 141.912152 259.507246 141.70142 260.016 141.70142 260.546406 
C 141.70142 261.076812 141.912152 261.585566 142.287206 261.960619 
C 142.66226 262.335673 143.171013 262.546406 143.70142 262.546406 
z
" clip-path="url(#pab516b84fd)" style="fill: #d3d3d3; stroke: #000000"/>
    <path d="M 268.980129 307.837135 
C 269.510535 307.837135 270.019289 307.626403 270.394343 307.251349 
C 270.769397 306.876295 270.980129 306.367542 270.980129 305.837135 
C 270.980129 305.306729 270.769397 304.797976 270.394343 304.422922 
C 270.019289 304.047868 269.510535 303.837135 268.980129 303.837135 
C 268.449723 303.837135 267.940969 304.047868 267.565916 304.422922 
C 267.190862 304.797976 266.980129 305.306729 266.980129 305.837135 
C 266.980129 306.367542 267.190862 306.876295 267.565916 307.251349 
C 267.940969 307.626403 268.449723 307.837135 268.980129 307.837135 
z
" clip-path="url(#pab516b84fd)" style="fill: #d3d3d3; stroke: #000000"/>
    <path d="M 190.35453 262.925439 
C 190.884936 262.925439 191.393689 262.714706 191.768743 262.339652 
C 192.143797 261.964598 192.35453 261.455845 192.35453 260.925439 
C 192.35453 260.395033 192.143797 259.886279 191.768743 259.511225 
C 191.393689 259.136171 190.884936 258.925439 190.35453 258.925439 
C 189.824123 258.925439 189.31537 259.136171 188.940316 259.511225 
C 188.565262 259.886279 188.35453 260.395033 188.35453 260.925439 
C 188.35453 261.455845 188.565262 261.964598 188.940316 262.339652 
C 189.31537 262.714706 189.824123 262.925439 190.35453 262.925439 
z
" clip-path="url(#pab516b84fd)" style="fill: #d3d3d3; stroke: #000000"/>
    <path d="M 140.714329 218.007866 
C 141.244735 218.007866 141.753489 217.797134 142.128542 217.42208 
C 142.503596 217.047026 142.714329 216.538273 142.714329 216.007866 
C 142.714329 215.47746 142.503596 214.968707 142.128542 214.593653 
C 141.753489 214.218599 141.244735 214.007866 140.714329 214.007866 
C 140.183923 214.007866 139.675169 214.218599 139.300115 214.593653 
C 138.925061 214.968707 138.714329 215.47746 138.714329 216.007866 
C 138.714329 216.538273 138.925061 217.047026 139.300115 217.42208 
C 139.675169 217.797134 140.183923 218.007866 140.714329 218.007866 
z
" clip-path="url(#pab516b84fd)" style="fill: #d3d3d3; stroke: #000000"/>
    <path d="M 287.320411 263.34032 
C 287.850817 263.34032 288.359571 263.129587 288.734625 262.754533 
C 289.109679 262.37948 289.320411 261.870726 289.320411 261.34032 
C 289.320411 260.809914 289.109679 260.30116 288.734625 259.926106 
C 288.359571 259.551053 287.850817 259.34032 287.320411 259.34032 
C 286.790005 259.34032 286.281251 259.551053 285.906198 259.926106 
C 285.531144 260.30116 285.320411 260.809914 285.320411 261.34032 
C 285.320411 261.870726 285.531144 262.37948 285.906198 262.754533 
C 286.281251 263.129587 286.790005 263.34032 287.320411 263.34032 
z
" clip-path="url(#pab516b84fd)" style="fill: #d3d3d3; stroke: #000000"/>
    <path d="M 297.012523 218.033299 
C 297.542929 218.033299 298.051683 217.822567 298.426737 217.447513 
C 298.80179 217.072459 299.012523 216.563705 299.012523 216.033299 
C 299.012523 215.502893 298.80179 214.994139 298.426737 214.619086 
C 298.051683 214.244032 297.542929 214.033299 297.012523 214.033299 
C 296.482117 214.033299 295.973363 214.244032 295.598309 214.619086 
C 295.223256 214.994139 295.012523 215.502893 295.012523 216.033299 
C 295.012523 216.563705 295.223256 217.072459 295.598309 217.447513 
C 295.973363 217.822567 296.482117 218.033299 297.012523 218.033299 
z
" clip-path="url(#pab516b84fd)" style="fill: #d3d3d3; stroke: #000000"/>
    <path d="M 167.985357 286.094576 
C 168.515763 286.094576 169.024516 285.883843 169.39957 285.508789 
C 169.774624 285.133736 169.985357 284.624982 169.985357 284.094576 
C 169.985357 283.56417 169.774624 283.055416 169.39957 282.680362 
C 169.024516 282.305308 168.515763 282.094576 167.985357 282.094576 
C 167.45495 282.094576 166.946197 282.305308 166.571143 282.680362 
C 166.196089 283.055416 165.985357 283.56417 165.985357 284.094576 
C 165.985357 284.624982 166.196089 285.133736 166.571143 285.508789 
C 166.946197 285.883843 167.45495 286.094576 167.985357 286.094576 
z
" clip-path="url(#pab516b84fd)" style="fill: #d3d3d3; stroke: #000000"/>
    <path d="M 291.671769 308.770761 
C 292.202175 308.770761 292.710928 308.560028 293.085982 308.184974 
C 293.461036 307.80992 293.671769 307.301167 293.671769 306.770761 
C 293.671769 306.240354 293.461036 305.731601 293.085982 305.356547 
C 292.710928 304.981493 292.202175 304.770761 291.671769 304.770761 
C 291.141362 304.770761 290.632609 304.981493 290.257555 305.356547 
C 289.882501 305.731601 289.671769 306.240354 289.671769 306.770761 
C 289.671769 307.301167 289.882501 307.80992 290.257555 308.184974 
C 290.632609 308.560028 291.141362 308.770761 291.671769 308.770761 
z
" clip-path="url(#pab516b84fd)" style="fill: #d3d3d3; stroke: #000000"/>
    <path d="M 297.29293 308.782858 
C 297.823336 308.782858 298.33209 308.572126 298.707143 308.197072 
C 299.082197 307.822018 299.29293 307.313264 299.29293 306.782858 
C 299.29293 306.252452 299.082197 305.743699 298.707143 305.368645 
C 298.33209 304.993591 297.823336 304.782858 297.29293 304.782858 
C 296.762524 304.782858 296.25377 304.993591 295.878716 305.368645 
C 295.503663 305.743699 295.29293 306.252452 295.29293 306.782858 
C 295.29293 307.313264 295.503663 307.822018 295.878716 308.197072 
C 296.25377 308.572126 296.762524 308.782858 297.29293 308.782858 
z
" clip-path="url(#pab516b84fd)" style="fill: #d3d3d3; stroke: #000000"/>
    <path d="M 287.692005 308.830368 
C 288.222412 308.830368 288.731165 308.619635 289.106219 308.244582 
C 289.481273 307.869528 289.692005 307.360774 289.692005 306.830368 
C 289.692005 306.299962 289.481273 305.791208 289.106219 305.416154 
C 288.731165 305.041101 288.222412 304.830368 287.692005 304.830368 
C 287.161599 304.830368 286.652846 305.041101 286.277792 305.416154 
C 285.902738 305.791208 285.692005 306.299962 285.692005 306.830368 
C 285.692005 307.360774 285.902738 307.869528 286.277792 308.244582 
C 286.652846 308.619635 287.161599 308.830368 287.692005 308.830368 
z
" clip-path="url(#pab516b84fd)" style="fill: #d3d3d3; stroke: #000000"/>
    <path d="M 173.714678 263.509991 
C 174.245085 263.509991 174.753838 263.299259 175.128892 262.924205 
C 175.503946 262.549151 175.714678 262.040398 175.714678 261.509991 
C 175.714678 260.979585 175.503946 260.470832 175.128892 260.095778 
C 174.753838 259.720724 174.245085 259.509991 173.714678 259.509991 
C 173.184272 259.509991 172.675519 259.720724 172.300465 260.095778 
C 171.925411 260.470832 171.714678 260.979585 171.714678 261.509991 
C 171.714678 262.040398 171.925411 262.549151 172.300465 262.924205 
C 172.675519 263.299259 173.184272 263.509991 173.714678 263.509991 
z
" clip-path="url(#pab516b84fd)" style="fill: #d3d3d3; stroke: #000000"/>
    <path d="M 282.985084 286.312801 
C 283.51549 286.312801 284.024244 286.102068 284.399297 285.727014 
C 284.774351 285.351961 284.985084 284.843207 284.985084 284.312801 
C 284.985084 283.782395 284.774351 283.273641 284.399297 282.898587 
C 284.024244 282.523534 283.51549 282.312801 282.985084 282.312801 
C 282.454678 282.312801 281.945924 282.523534 281.57087 282.898587 
C 281.195817 283.273641 280.985084 283.782395 280.985084 284.312801 
C 280.985084 284.843207 281.195817 285.351961 281.57087 285.727014 
C 281.945924 286.102068 282.454678 286.312801 282.985084 286.312801 
z
" clip-path="url(#pab516b84fd)" style="fill: #d3d3d3; stroke: #000000"/>
    <path d="M 125.208334 218.648218 
C 125.73874 218.648218 126.247493 218.437485 126.622547 218.062432 
C 126.997601 217.687378 127.208334 217.178624 127.208334 216.648218 
C 127.208334 216.117812 126.997601 215.609058 126.622547 215.234005 
C 126.247493 214.858951 125.73874 214.648218 125.208334 214.648218 
C 124.677927 214.648218 124.169174 214.858951 123.79412 215.234005 
C 123.419066 215.609058 123.208334 216.117812 123.208334 216.648218 
C 123.208334 217.178624 123.419066 217.687378 123.79412 218.062432 
C 124.169174 218.437485 124.677927 218.648218 125.208334 218.648218 
z
" clip-path="url(#pab516b84fd)" style="fill: #d3d3d3; stroke: #000000"/>
    <path d="M 231.438451 309.854221 
C 231.968857 309.854221 232.477611 309.643489 232.852665 309.268435 
C 233.227719 308.893381 233.438451 308.384627 233.438451 307.854221 
C 233.438451 307.323815 233.227719 306.815061 232.852665 306.440008 
C 232.477611 306.064954 231.968857 305.854221 231.438451 305.854221 
C 230.908045 305.854221 230.399292 306.064954 230.024238 306.440008 
C 229.649184 306.815061 229.438451 307.323815 229.438451 307.854221 
C 229.438451 308.384627 229.649184 308.893381 230.024238 309.268435 
C 230.399292 309.643489 230.908045 309.854221 231.438451 309.854221 
z
" clip-path="url(#pab516b84fd)" style="fill: #d3d3d3; stroke: #000000"/>
    <path d="M 182.871213 310.374992 
C 183.401619 310.374992 183.910373 310.16426 184.285426 309.789206 
C 184.66048 309.414152 184.871213 308.905399 184.871213 308.374992 
C 184.871213 307.844586 184.66048 307.335833 184.285426 306.960779 
C 183.910373 306.585725 183.401619 306.374992 182.871213 306.374992 
C 182.340807 306.374992 181.832053 306.585725 181.456999 306.960779 
C 181.081945 307.335833 180.871213 307.844586 180.871213 308.374992 
C 180.871213 308.905399 181.081945 309.414152 181.456999 309.789206 
C 181.832053 310.16426 182.340807 310.374992 182.871213 310.374992 
z
" clip-path="url(#pab516b84fd)" style="fill: #d3d3d3; stroke: #000000"/>
    <path d="M 334.177265 219.264701 
C 334.707671 219.264701 335.216425 219.053969 335.591479 218.678915 
C 335.966533 218.303861 336.177265 217.795107 336.177265 217.264701 
C 336.177265 216.734295 335.966533 216.225542 335.591479 215.850488 
C 335.216425 215.475434 334.707671 215.264701 334.177265 215.264701 
C 333.646859 215.264701 333.138106 215.475434 332.763052 215.850488 
C 332.387998 216.225542 332.177265 216.734295 332.177265 217.264701 
C 332.177265 217.795107 332.387998 218.303861 332.763052 218.678915 
C 333.138106 219.053969 333.646859 219.264701 334.177265 219.264701 
z
" clip-path="url(#pab516b84fd)" style="fill: #d3d3d3; stroke: #000000"/>
    <path d="M 190.271577 310.569362 
C 190.801983 310.569362 191.310736 310.35863 191.68579 309.983576 
C 192.060844 309.608522 192.271577 309.099768 192.271577 308.569362 
C 192.271577 308.038956 192.060844 307.530202 191.68579 307.155149 
C 191.310736 306.780095 190.801983 306.569362 190.271577 306.569362 
C 189.74117 306.569362 189.232417 306.780095 188.857363 307.155149 
C 188.482309 307.530202 188.271577 308.038956 188.271577 308.569362 
C 188.271577 309.099768 188.482309 309.608522 188.857363 309.983576 
C 189.232417 310.35863 189.74117 310.569362 190.271577 310.569362 
z
" clip-path="url(#pab516b84fd)" style="fill: #d3d3d3; stroke: #000000"/>
    <path d="M 231.089539 219.342758 
C 231.619945 219.342758 232.128699 219.132025 232.503752 218.756971 
C 232.878806 218.381918 233.089539 217.873164 233.089539 217.342758 
C 233.089539 216.812352 232.878806 216.303598 232.503752 215.928544 
C 232.128699 215.55349 231.619945 215.342758 231.089539 215.342758 
C 230.559133 215.342758 230.050379 215.55349 229.675325 215.928544 
C 229.300272 216.303598 229.089539 216.812352 229.089539 217.342758 
C 229.089539 217.873164 229.300272 218.381918 229.675325 218.756971 
C 230.050379 219.132025 230.559133 219.342758 231.089539 219.342758 
z
" clip-path="url(#pab516b84fd)" style="fill: #d3d3d3; stroke: #000000"/>
    <path d="M 153.993737 310.654327 
C 154.524143 310.654327 155.032897 310.443595 155.407951 310.068541 
C 155.783004 309.693487 155.993737 309.184734 155.993737 308.654327 
C 155.993737 308.123921 155.783004 307.615168 155.407951 307.240114 
C 155.032897 306.86506 154.524143 306.654327 153.993737 306.654327 
C 153.463331 306.654327 152.954577 306.86506 152.579524 307.240114 
C 152.20447 307.615168 151.993737 308.123921 151.993737 308.654327 
C 151.993737 309.184734 152.20447 309.693487 152.579524 310.068541 
C 152.954577 310.443595 153.463331 310.654327 153.993737 310.654327 
z
" clip-path="url(#pab516b84fd)" style="fill: #d3d3d3; stroke: #000000"/>
    <path d="M 231.078877 310.887445 
C 231.609283 310.887445 232.118037 310.676712 232.493091 310.301658 
C 232.868144 309.926604 233.078877 309.417851 233.078877 308.887445 
C 233.078877 308.357038 232.868144 307.848285 232.493091 307.473231 
C 232.118037 307.098177 231.609283 306.887445 231.078877 306.887445 
C 230.548471 306.887445 230.039717 307.098177 229.664664 307.473231 
C 229.28961 307.848285 229.078877 308.357038 229.078877 308.887445 
C 229.078877 309.417851 229.28961 309.926604 229.664664 310.301658 
C 230.039717 310.676712 230.548471 310.887445 231.078877 310.887445 
z
" clip-path="url(#pab516b84fd)" style="fill: #d3d3d3; stroke: #000000"/>
    <path d="M 318.027346 265.218884 
C 318.557753 265.218884 319.066506 265.008152 319.44156 264.633098 
C 319.816614 264.258044 320.027346 263.74929 320.027346 263.218884 
C 320.027346 262.688478 319.816614 262.179724 319.44156 261.804671 
C 319.066506 261.429617 318.557753 261.218884 318.027346 261.218884 
C 317.49694 261.218884 316.988187 261.429617 316.613133 261.804671 
C 316.238079 262.179724 316.027346 262.688478 316.027346 263.218884 
C 316.027346 263.74929 316.238079 264.258044 316.613133 264.633098 
C 316.988187 265.008152 317.49694 265.218884 318.027346 265.218884 
z
" clip-path="url(#pab516b84fd)" style="fill: #d3d3d3; stroke: #000000"/>
    <path d="M 136.183153 288.344218 
C 136.713559 288.344218 137.222313 288.133485 137.597366 287.758432 
C 137.97242 287.383378 138.183153 286.874624 138.183153 286.344218 
C 138.183153 285.813812 137.97242 285.305058 137.597366 284.930005 
C 137.222313 284.554951 136.713559 284.344218 136.183153 284.344218 
C 135.652747 284.344218 135.143993 284.554951 134.768939 284.930005 
C 134.393886 285.305058 134.183153 285.813812 134.183153 286.344218 
C 134.183153 286.874624 134.393886 287.383378 134.768939 287.758432 
C 135.143993 288.133485 135.652747 288.344218 136.183153 288.344218 
z
" clip-path="url(#pab516b84fd)" style="fill: #d3d3d3; stroke: #000000"/>
    <path d="M 149.609764 311.770735 
C 150.14017 311.770735 150.648924 311.560002 151.023978 311.184948 
C 151.399032 310.809895 151.609764 310.301141 151.609764 309.770735 
C 151.609764 309.240329 151.399032 308.731575 151.023978 308.356521 
C 150.648924 307.981467 150.14017 307.770735 149.609764 307.770735 
C 149.079358 307.770735 148.570604 307.981467 148.195551 308.356521 
C 147.820497 308.731575 147.609764 309.240329 147.609764 309.770735 
C 147.609764 310.301141 147.820497 310.809895 148.195551 311.184948 
C 148.570604 311.560002 149.079358 311.770735 149.609764 311.770735 
z
" clip-path="url(#pab516b84fd)" style="fill: #d3d3d3; stroke: #000000"/>
    <path d="M 134.321935 312.257228 
C 134.852341 312.257228 135.361095 312.046495 135.736149 311.671442 
C 136.111202 311.296388 136.321935 310.787634 136.321935 310.257228 
C 136.321935 309.726822 136.111202 309.218068 135.736149 308.843014 
C 135.361095 308.467961 134.852341 308.257228 134.321935 308.257228 
C 133.791529 308.257228 133.282775 308.467961 132.907721 308.843014 
C 132.532668 309.218068 132.321935 309.726822 132.321935 310.257228 
C 132.321935 310.787634 132.532668 311.296388 132.907721 311.671442 
C 133.282775 312.046495 133.791529 312.257228 134.321935 312.257228 
z
" clip-path="url(#pab516b84fd)" style="fill: #d3d3d3; stroke: #000000"/>
    <path d="M 109.99152 220.502241 
C 110.521926 220.502241 111.03068 220.291508 111.405734 219.916454 
C 111.780787 219.541401 111.99152 219.032647 111.99152 218.502241 
C 111.99152 217.971835 111.780787 217.463081 111.405734 217.088027 
C 111.03068 216.712973 110.521926 216.502241 109.99152 216.502241 
C 109.461114 216.502241 108.95236 216.712973 108.577306 217.088027 
C 108.202253 217.463081 107.99152 217.971835 107.99152 218.502241 
C 107.99152 219.032647 108.202253 219.541401 108.577306 219.916454 
C 108.95236 220.291508 109.461114 220.502241 109.99152 220.502241 
z
" clip-path="url(#pab516b84fd)" style="fill: #d3d3d3; stroke: #000000"/>
    <path d="M 213.266039 312.360479 
C 213.796445 312.360479 214.305199 312.149747 214.680252 311.774693 
C 215.055306 311.399639 215.266039 310.890886 215.266039 310.360479 
C 215.266039 309.830073 215.055306 309.32132 214.680252 308.946266 
C 214.305199 308.571212 213.796445 308.360479 213.266039 308.360479 
C 212.735633 308.360479 212.226879 308.571212 211.851825 308.946266 
C 211.476771 309.32132 211.266039 309.830073 211.266039 310.360479 
C 211.266039 310.890886 211.476771 311.399639 211.851825 311.774693 
C 212.226879 312.149747 212.735633 312.360479 213.266039 312.360479 
z
" clip-path="url(#pab516b84fd)" style="fill: #d3d3d3; stroke: #000000"/>
    <path d="M 207.395021 220.588567 
C 207.925428 220.588567 208.434181 220.377835 208.809235 220.002781 
C 209.184289 219.627727 209.395021 219.118973 209.395021 218.588567 
C 209.395021 218.058161 209.184289 217.549407 208.809235 217.174354 
C 208.434181 216.7993 207.925428 216.588567 207.395021 216.588567 
C 206.864615 216.588567 206.355862 216.7993 205.980808 217.174354 
C 205.605754 217.549407 205.395021 218.058161 205.395021 218.588567 
C 205.395021 219.118973 205.605754 219.627727 205.980808 220.002781 
C 206.355862 220.377835 206.864615 220.588567 207.395021 220.588567 
z
" clip-path="url(#pab516b84fd)" style="fill: #d3d3d3; stroke: #000000"/>
    <path d="M 278.899178 313.02483 
C 279.429584 313.02483 279.938338 312.814097 280.313392 312.439043 
C 280.688445 312.063989 280.899178 311.555236 280.899178 311.02483 
C 280.899178 310.494423 280.688445 309.98567 280.313392 309.610616 
C 279.938338 309.235562 279.429584 309.02483 278.899178 309.02483 
C 278.368772 309.02483 277.860018 309.235562 277.484964 309.610616 
C 277.109911 309.98567 276.899178 310.494423 276.899178 311.02483 
C 276.899178 311.555236 277.109911 312.063989 277.484964 312.439043 
C 277.860018 312.814097 278.368772 313.02483 278.899178 313.02483 
z
" clip-path="url(#pab516b84fd)" style="fill: #d3d3d3; stroke: #000000"/>
    <path d="M 157.358215 290.30993 
C 157.904945 290.30993 158.429356 290.092712 158.815953 289.706115 
C 159.20255 289.319519 159.419768 288.795107 159.419768 288.248377 
C 159.419768 287.701647 159.20255 287.177236 158.815953 286.790639 
C 158.429356 286.404043 157.904945 286.186824 157.358215 286.186824 
C 156.811485 286.186824 156.287074 286.404043 155.900477 286.790639 
C 155.51388 287.177236 155.296662 287.701647 155.296662 288.248377 
C 155.296662 288.795107 155.51388 289.319519 155.900477 289.706115 
C 156.287074 290.092712 156.811485 290.30993 157.358215 290.30993 
z
" clip-path="url(#pab516b84fd)" style="fill: #d3d3d3; stroke: #000000"/>
    <path d="M 153.631823 267.23715 
C 154.16223 267.23715 154.670983 267.026417 155.046037 266.651363 
C 155.421091 266.27631 155.631823 265.767556 155.631823 265.23715 
C 155.631823 264.706744 155.421091 264.19799 155.046037 263.822936 
C 154.670983 263.447883 154.16223 263.23715 153.631823 263.23715 
C 153.101417 263.23715 152.592664 263.447883 152.21761 263.822936 
C 151.842556 264.19799 151.631823 264.706744 151.631823 265.23715 
C 151.631823 265.767556 151.842556 266.27631 152.21761 266.651363 
C 152.592664 267.026417 153.101417 267.23715 153.631823 267.23715 
z
" clip-path="url(#pab516b84fd)" style="fill: #d3d3d3; stroke: #000000"/>
    <path d="M 275.135043 267.351034 
C 275.681774 267.351034 276.206185 267.133816 276.592781 266.747219 
C 276.979378 266.360622 277.196596 265.836211 277.196596 265.289481 
C 277.196596 264.742751 276.979378 264.21834 276.592781 263.831743 
C 276.206185 263.445146 275.681774 263.227928 275.135043 263.227928 
C 274.588313 263.227928 274.063902 263.445146 273.677306 263.831743 
C 273.290709 264.21834 273.073491 264.742751 273.073491 265.289481 
C 273.073491 265.836211 273.290709 266.360622 273.677306 266.747219 
C 274.063902 267.133816 274.588313 267.351034 275.135043 267.351034 
z
" clip-path="url(#pab516b84fd)" style="fill: #d3d3d3; stroke: #000000"/>
    <path d="M 275.550874 221.321799 
C 276.081281 221.321799 276.590034 221.111066 276.965088 220.736013 
C 277.340142 220.360959 277.550874 219.852205 277.550874 219.321799 
C 277.550874 218.791393 277.340142 218.282639 276.965088 217.907585 
C 276.590034 217.532532 276.081281 217.321799 275.550874 217.321799 
C 275.020468 217.321799 274.511715 217.532532 274.136661 217.907585 
C 273.761607 218.282639 273.550874 218.791393 273.550874 219.321799 
C 273.550874 219.852205 273.761607 220.360959 274.136661 220.736013 
C 274.511715 221.111066 275.020468 221.321799 275.550874 221.321799 
z
" clip-path="url(#pab516b84fd)" style="fill: #d3d3d3; stroke: #000000"/>
    <path d="M 168.321621 313.676303 
C 168.852028 313.676303 169.360781 313.465571 169.735835 313.090517 
C 170.110889 312.715463 170.321621 312.206709 170.321621 311.676303 
C 170.321621 311.145897 170.110889 310.637144 169.735835 310.26209 
C 169.360781 309.887036 168.852028 309.676303 168.321621 309.676303 
C 167.791215 309.676303 167.282462 309.887036 166.907408 310.26209 
C 166.532354 310.637144 166.321621 311.145897 166.321621 311.676303 
C 166.321621 312.206709 166.532354 312.715463 166.907408 313.090517 
C 167.282462 313.465571 167.791215 313.676303 168.321621 313.676303 
z
" clip-path="url(#pab516b84fd)" style="fill: #d3d3d3; stroke: #000000"/>
    <path d="M 326.733944 314.434753 
C 327.264351 314.434753 327.773104 314.224021 328.148158 313.848967 
C 328.523212 313.473913 328.733944 312.965159 328.733944 312.434753 
C 328.733944 311.904347 328.523212 311.395593 328.148158 311.02054 
C 327.773104 310.645486 327.264351 310.434753 326.733944 310.434753 
C 326.203538 310.434753 325.694785 310.645486 325.319731 311.02054 
C 324.944677 311.395593 324.733944 311.904347 324.733944 312.434753 
C 324.733944 312.965159 324.944677 313.473913 325.319731 313.848967 
C 325.694785 314.224021 326.203538 314.434753 326.733944 314.434753 
z
" clip-path="url(#pab516b84fd)" style="fill: #d3d3d3; stroke: #000000"/>
    <path d="M 344.739598 268.323114 
C 345.270004 268.323114 345.778757 268.112381 346.153811 267.737327 
C 346.528865 267.362273 346.739598 266.85352 346.739598 266.323114 
C 346.739598 265.792707 346.528865 265.283954 346.153811 264.9089 
C 345.778757 264.533846 345.270004 264.323114 344.739598 264.323114 
C 344.209191 264.323114 343.700438 264.533846 343.325384 264.9089 
C 342.95033 265.283954 342.739598 265.792707 342.739598 266.323114 
C 342.739598 266.85352 342.95033 267.362273 343.325384 267.737327 
C 343.700438 268.112381 344.209191 268.323114 344.739598 268.323114 
z
" clip-path="url(#pab516b84fd)" style="fill: #d3d3d3; stroke: #000000"/>
    <path d="M 291.735063 314.812863 
C 292.265469 314.812863 292.774223 314.602131 293.149276 314.227077 
C 293.52433 313.852023 293.735063 313.34327 293.735063 312.812863 
C 293.735063 312.282457 293.52433 311.773704 293.149276 311.39865 
C 292.774223 311.023596 292.265469 310.812863 291.735063 310.812863 
C 291.204657 310.812863 290.695903 311.023596 290.320849 311.39865 
C 289.945795 311.773704 289.735063 312.282457 289.735063 312.812863 
C 289.735063 313.34327 289.945795 313.852023 290.320849 314.227077 
C 290.695903 314.602131 291.204657 314.812863 291.735063 314.812863 
z
" clip-path="url(#pab516b84fd)" style="fill: #d3d3d3; stroke: #000000"/>
    <path d="M 296.38327 268.825035 
C 296.913676 268.825035 297.422429 268.614303 297.797483 268.239249 
C 298.172537 267.864195 298.38327 267.355442 298.38327 266.825035 
C 298.38327 266.294629 298.172537 265.785876 297.797483 265.410822 
C 297.422429 265.035768 296.913676 264.825035 296.38327 264.825035 
C 295.852864 264.825035 295.34411 265.035768 294.969056 265.410822 
C 294.594002 265.785876 294.38327 266.294629 294.38327 266.825035 
C 294.38327 267.355442 294.594002 267.864195 294.969056 268.239249 
C 295.34411 268.614303 295.852864 268.825035 296.38327 268.825035 
z
" clip-path="url(#pab516b84fd)" style="fill: #d3d3d3; stroke: #000000"/>
    <path d="M 117.173891 315.197063 
C 117.704297 315.197063 118.213051 314.98633 118.588105 314.611276 
C 118.963159 314.236223 119.173891 313.727469 119.173891 313.197063 
C 119.173891 312.666657 118.963159 312.157903 118.588105 311.782849 
C 118.213051 311.407795 117.704297 311.197063 117.173891 311.197063 
C 116.643485 311.197063 116.134731 311.407795 115.759678 311.782849 
C 115.384624 312.157903 115.173891 312.666657 115.173891 313.197063 
C 115.173891 313.727469 115.384624 314.236223 115.759678 314.611276 
C 116.134731 314.98633 116.643485 315.197063 117.173891 315.197063 
z
" clip-path="url(#pab516b84fd)" style="fill: #d3d3d3; stroke: #000000"/>
    <path d="M 166.741242 315.262723 
C 167.271649 315.262723 167.780402 315.05199 168.155456 314.676936 
C 168.53051 314.301882 168.741242 313.793129 168.741242 313.262723 
C 168.741242 312.732317 168.53051 312.223563 168.155456 311.848509 
C 167.780402 311.473455 167.271649 311.262723 166.741242 311.262723 
C 166.210836 311.262723 165.702083 311.473455 165.327029 311.848509 
C 164.951975 312.223563 164.741242 312.732317 164.741242 313.262723 
C 164.741242 313.793129 164.951975 314.301882 165.327029 314.676936 
C 165.702083 315.05199 166.210836 315.262723 166.741242 315.262723 
z
" clip-path="url(#pab516b84fd)" style="fill: #d3d3d3; stroke: #000000"/>
    <path d="M 199.948091 315.337297 
C 200.478497 315.337297 200.98725 315.126565 201.362304 314.751511 
C 201.737358 314.376457 201.948091 313.867703 201.948091 313.337297 
C 201.948091 312.806891 201.737358 312.298137 201.362304 311.923084 
C 200.98725 311.54803 200.478497 311.337297 199.948091 311.337297 
C 199.417684 311.337297 198.908931 311.54803 198.533877 311.923084 
C 198.158823 312.298137 197.948091 312.806891 197.948091 313.337297 
C 197.948091 313.867703 198.158823 314.376457 198.533877 314.751511 
C 198.908931 315.126565 199.417684 315.337297 199.948091 315.337297 
z
" clip-path="url(#pab516b84fd)" style="fill: #d3d3d3; stroke: #000000"/>
    <path d="M 139.320166 269.012684 
C 139.850573 269.012684 140.359326 268.801951 140.73438 268.426898 
C 141.109434 268.051844 141.320166 267.54309 141.320166 267.012684 
C 141.320166 266.482278 141.109434 265.973524 140.73438 265.598471 
C 140.359326 265.223417 139.850573 265.012684 139.320166 265.012684 
C 138.78976 265.012684 138.281007 265.223417 137.905953 265.598471 
C 137.530899 265.973524 137.320166 266.482278 137.320166 267.012684 
C 137.320166 267.54309 137.530899 268.051844 137.905953 268.426898 
C 138.281007 268.801951 138.78976 269.012684 139.320166 269.012684 
z
" clip-path="url(#pab516b84fd)" style="fill: #d3d3d3; stroke: #000000"/>
    <path d="M 121.995235 269.321399 
C 122.525641 269.321399 123.034395 269.110667 123.409449 268.735613 
C 123.784503 268.360559 123.995235 267.851805 123.995235 267.321399 
C 123.995235 266.790993 123.784503 266.282239 123.409449 265.907186 
C 123.034395 265.532132 122.525641 265.321399 121.995235 265.321399 
C 121.464829 265.321399 120.956076 265.532132 120.581022 265.907186 
C 120.205968 266.282239 119.995235 266.790993 119.995235 267.321399 
C 119.995235 267.851805 120.205968 268.360559 120.581022 268.735613 
C 120.956076 269.110667 121.464829 269.321399 121.995235 269.321399 
z
" clip-path="url(#pab516b84fd)" style="fill: #d3d3d3; stroke: #000000"/>
    <path d="M 190.233883 223.030685 
C 190.764289 223.030685 191.273043 222.819952 191.648097 222.444898 
C 192.02315 222.069845 192.233883 221.561091 192.233883 221.030685 
C 192.233883 220.500279 192.02315 219.991525 191.648097 219.616471 
C 191.273043 219.241417 190.764289 219.030685 190.233883 219.030685 
C 189.703477 219.030685 189.194723 219.241417 188.819669 219.616471 
C 188.444616 219.991525 188.233883 220.500279 188.233883 221.030685 
C 188.233883 221.561091 188.444616 222.069845 188.819669 222.444898 
C 189.194723 222.819952 189.703477 223.030685 190.233883 223.030685 
z
" clip-path="url(#pab516b84fd)" style="fill: #d3d3d3; stroke: #000000"/>
    <path d="M 334.564221 316.100999 
C 335.094627 316.100999 335.603381 315.890266 335.978435 315.515213 
C 336.353488 315.140159 336.564221 314.631405 336.564221 314.100999 
C 336.564221 313.570593 336.353488 313.061839 335.978435 312.686786 
C 335.603381 312.311732 335.094627 312.100999 334.564221 312.100999 
C 334.033815 312.100999 333.525061 312.311732 333.150007 312.686786 
C 332.774954 313.061839 332.564221 313.570593 332.564221 314.100999 
C 332.564221 314.631405 332.774954 315.140159 333.150007 315.515213 
C 333.525061 315.890266 334.033815 316.100999 334.564221 316.100999 
z
" clip-path="url(#pab516b84fd)" style="fill: #d3d3d3; stroke: #000000"/>
    <path d="M 357.10812 292.944338 
C 357.638526 292.944338 358.147279 292.733606 358.522333 292.358552 
C 358.897387 291.983498 359.10812 291.474744 359.10812 290.944338 
C 359.10812 290.413932 358.897387 289.905179 358.522333 289.530125 
C 358.147279 289.155071 357.638526 288.944338 357.10812 288.944338 
C 356.577713 288.944338 356.06896 289.155071 355.693906 289.530125 
C 355.318852 289.905179 355.10812 290.413932 355.10812 290.944338 
C 355.10812 291.474744 355.318852 291.983498 355.693906 292.358552 
C 356.06896 292.733606 356.577713 292.944338 357.10812 292.944338 
z
" clip-path="url(#pab516b84fd)" style="fill: #d3d3d3; stroke: #000000"/>
    <path d="M 279.296942 316.513916 
C 279.827348 316.513916 280.336102 316.303183 280.711155 315.928129 
C 281.086209 315.553076 281.296942 315.044322 281.296942 314.513916 
C 281.296942 313.98351 281.086209 313.474756 280.711155 313.099702 
C 280.336102 312.724648 279.827348 312.513916 279.296942 312.513916 
C 278.766536 312.513916 278.257782 312.724648 277.882728 313.099702 
C 277.507674 313.474756 277.296942 313.98351 277.296942 314.513916 
C 277.296942 315.044322 277.507674 315.553076 277.882728 315.928129 
C 278.257782 316.303183 278.766536 316.513916 279.296942 316.513916 
z
" clip-path="url(#pab516b84fd)" style="fill: #d3d3d3; stroke: #000000"/>
    <path d="M 315.496763 293.578886 
C 316.027169 293.578886 316.535923 293.368153 316.910977 292.993099 
C 317.286031 292.618045 317.496763 292.109292 317.496763 291.578886 
C 317.496763 291.048479 317.286031 290.539726 316.910977 290.164672 
C 316.535923 289.789618 316.027169 289.578886 315.496763 289.578886 
C 314.966357 289.578886 314.457603 289.789618 314.08255 290.164672 
C 313.707496 290.539726 313.496763 291.048479 313.496763 291.578886 
C 313.496763 292.109292 313.707496 292.618045 314.08255 292.993099 
C 314.457603 293.368153 314.966357 293.578886 315.496763 293.578886 
z
" clip-path="url(#pab516b84fd)" style="fill: #d3d3d3; stroke: #000000"/>
    <path d="M 194.957472 317.246131 
C 195.487878 317.246131 195.996632 317.035398 196.371686 316.660344 
C 196.74674 316.285291 196.957472 315.776537 196.957472 315.246131 
C 196.957472 314.715725 196.74674 314.206971 196.371686 313.831917 
C 195.996632 313.456863 195.487878 313.246131 194.957472 313.246131 
C 194.427066 313.246131 193.918313 313.456863 193.543259 313.831917 
C 193.168205 314.206971 192.957472 314.715725 192.957472 315.246131 
C 192.957472 315.776537 193.168205 316.285291 193.543259 316.660344 
C 193.918313 317.035398 194.427066 317.246131 194.957472 317.246131 
z
" clip-path="url(#pab516b84fd)" style="fill: #d3d3d3; stroke: #000000"/>
    <path d="M 191.377241 270.927279 
C 191.907647 270.927279 192.4164 270.716547 192.791454 270.341493 
C 193.166508 269.966439 193.377241 269.457685 193.377241 268.927279 
C 193.377241 268.396873 193.166508 267.88812 192.791454 267.513066 
C 192.4164 267.138012 191.907647 266.927279 191.377241 266.927279 
C 190.846835 266.927279 190.338081 267.138012 189.963027 267.513066 
C 189.587973 267.88812 189.377241 268.396873 189.377241 268.927279 
C 189.377241 269.457685 189.587973 269.966439 189.963027 270.341493 
C 190.338081 270.716547 190.846835 270.927279 191.377241 270.927279 
z
" clip-path="url(#pab516b84fd)" style="fill: #d3d3d3; stroke: #000000"/>
    <path d="M 134.502058 271.802372 
C 135.032464 271.802372 135.541218 271.59164 135.916272 271.216586 
C 136.291325 270.841532 136.502058 270.332779 136.502058 269.802372 
C 136.502058 269.271966 136.291325 268.763213 135.916272 268.388159 
C 135.541218 268.013105 135.032464 267.802372 134.502058 267.802372 
C 133.971652 267.802372 133.462898 268.013105 133.087844 268.388159 
C 132.712791 268.763213 132.502058 269.271966 132.502058 269.802372 
C 132.502058 270.332779 132.712791 270.841532 133.087844 271.216586 
C 133.462898 271.59164 133.971652 271.802372 134.502058 271.802372 
z
" clip-path="url(#pab516b84fd)" style="fill: #d3d3d3; stroke: #000000"/>
    <path d="M 333.549601 318.733997 
C 334.080007 318.733997 334.58876 318.523265 334.963814 318.148211 
C 335.338868 317.773157 335.549601 317.264403 335.549601 316.733997 
C 335.549601 316.203591 335.338868 315.694837 334.963814 315.319784 
C 334.58876 314.94473 334.080007 314.733997 333.549601 314.733997 
C 333.019194 314.733997 332.510441 314.94473 332.135387 315.319784 
C 331.760333 315.694837 331.549601 316.203591 331.549601 316.733997 
C 331.549601 317.264403 331.760333 317.773157 332.135387 318.148211 
C 332.510441 318.523265 333.019194 318.733997 333.549601 318.733997 
z
" clip-path="url(#pab516b84fd)" style="fill: #d3d3d3; stroke: #000000"/>
    <path d="M 141.387721 295.334071 
C 141.918127 295.334071 142.42688 295.123339 142.801934 294.748285 
C 143.176988 294.373231 143.387721 293.864478 143.387721 293.334071 
C 143.387721 292.803665 143.176988 292.294912 142.801934 291.919858 
C 142.42688 291.544804 141.918127 291.334071 141.387721 291.334071 
C 140.857314 291.334071 140.348561 291.544804 139.973507 291.919858 
C 139.598453 292.294912 139.387721 292.803665 139.387721 293.334071 
C 139.387721 293.864478 139.598453 294.373231 139.973507 294.748285 
C 140.348561 295.123339 140.857314 295.334071 141.387721 295.334071 
z
" clip-path="url(#pab516b84fd)" style="fill: #d3d3d3; stroke: #000000"/>
    <path d="M 141.159811 319.191479 
C 141.690217 319.191479 142.19897 318.980746 142.574024 318.605693 
C 142.949078 318.230639 143.159811 317.721885 143.159811 317.191479 
C 143.159811 316.661073 142.949078 316.152319 142.574024 315.777265 
C 142.19897 315.402212 141.690217 315.191479 141.159811 315.191479 
C 140.629404 315.191479 140.120651 315.402212 139.745597 315.777265 
C 139.370543 316.152319 139.159811 316.661073 139.159811 317.191479 
C 139.159811 317.721885 139.370543 318.230639 139.745597 318.605693 
C 140.120651 318.980746 140.629404 319.191479 141.159811 319.191479 
z
" clip-path="url(#pab516b84fd)" style="fill: #d3d3d3; stroke: #000000"/>
    <path d="M 117.200109 248.783071 
C 117.730515 248.783071 118.239269 248.572339 118.614322 248.197285 
C 118.989376 247.822231 119.200109 247.313478 119.200109 246.783071 
C 119.200109 246.252665 118.989376 245.743912 118.614322 245.368858 
C 118.239269 244.993804 117.730515 244.783071 117.200109 244.783071 
C 116.669703 244.783071 116.160949 244.993804 115.785895 245.368858 
C 115.410842 245.743912 115.200109 246.252665 115.200109 246.783071 
C 115.200109 247.313478 115.410842 247.822231 115.785895 248.197285 
C 116.160949 248.572339 116.669703 248.783071 117.200109 248.783071 
z
" clip-path="url(#pab516b84fd)" style="fill: #d3d3d3; stroke: #000000"/>
    <path d="M 129.908134 272.392074 
C 130.43854 272.392074 130.947294 272.181342 131.322348 271.806288 
C 131.697401 271.431234 131.908134 270.92248 131.908134 270.392074 
C 131.908134 269.861668 131.697401 269.352914 131.322348 268.977861 
C 130.947294 268.602807 130.43854 268.392074 129.908134 268.392074 
C 129.377728 268.392074 128.868974 268.602807 128.49392 268.977861 
C 128.118867 269.352914 127.908134 269.861668 127.908134 270.392074 
C 127.908134 270.92248 128.118867 271.431234 128.49392 271.806288 
C 128.868974 272.181342 129.377728 272.392074 129.908134 272.392074 
z
" clip-path="url(#pab516b84fd)" style="fill: #d3d3d3; stroke: #000000"/>
    <path d="M 350.703139 272.508146 
C 351.233545 272.508146 351.742298 272.297413 352.117352 271.922359 
C 352.492406 271.547305 352.703139 271.038552 352.703139 270.508146 
C 352.703139 269.977739 352.492406 269.468986 352.117352 269.093932 
C 351.742298 268.718878 351.233545 268.508146 350.703139 268.508146 
C 350.172732 268.508146 349.663979 268.718878 349.288925 269.093932 
C 348.913871 269.468986 348.703139 269.977739 348.703139 270.508146 
C 348.703139 271.038552 348.913871 271.547305 349.288925 271.922359 
C 349.663979 272.297413 350.172732 272.508146 350.703139 272.508146 
z
" clip-path="url(#pab516b84fd)" style="fill: #d3d3d3; stroke: #000000"/>
    <path d="M 213.79133 319.539905 
C 214.321736 319.539905 214.830489 319.329172 215.205543 318.954119 
C 215.580597 318.579065 215.79133 318.070311 215.79133 317.539905 
C 215.79133 317.009499 215.580597 316.500745 215.205543 316.125692 
C 214.830489 315.750638 214.321736 315.539905 213.79133 315.539905 
C 213.260923 315.539905 212.75217 315.750638 212.377116 316.125692 
C 212.002062 316.500745 211.79133 317.009499 211.79133 317.539905 
C 211.79133 318.070311 212.002062 318.579065 212.377116 318.954119 
C 212.75217 319.329172 213.260923 319.539905 213.79133 319.539905 
z
" clip-path="url(#pab516b84fd)" style="fill: #d3d3d3; stroke: #000000"/>
    <path d="M 295.184047 319.761211 
C 295.714453 319.761211 296.223207 319.550479 296.598261 319.175425 
C 296.973315 318.800371 297.184047 318.291618 297.184047 317.761211 
C 297.184047 317.230805 296.973315 316.722052 296.598261 316.346998 
C 296.223207 315.971944 295.714453 315.761211 295.184047 315.761211 
C 294.653641 315.761211 294.144887 315.971944 293.769834 316.346998 
C 293.39478 316.722052 293.184047 317.230805 293.184047 317.761211 
C 293.184047 318.291618 293.39478 318.800371 293.769834 319.175425 
C 294.144887 319.550479 294.653641 319.761211 295.184047 319.761211 
z
" clip-path="url(#pab516b84fd)" style="fill: #d3d3d3; stroke: #000000"/>
    <path d="M 248.968392 319.932602 
C 249.498798 319.932602 250.007552 319.721869 250.382605 319.346815 
C 250.757659 318.971762 250.968392 318.463008 250.968392 317.932602 
C 250.968392 317.402196 250.757659 316.893442 250.382605 316.518388 
C 250.007552 316.143335 249.498798 315.932602 248.968392 315.932602 
C 248.437986 315.932602 247.929232 316.143335 247.554178 316.518388 
C 247.179124 316.893442 246.968392 317.402196 246.968392 317.932602 
C 246.968392 318.463008 247.179124 318.971762 247.554178 319.346815 
C 247.929232 319.721869 248.437986 319.932602 248.968392 319.932602 
z
" clip-path="url(#pab516b84fd)" style="fill: #d3d3d3; stroke: #000000"/>
    <path d="M 142.12084 319.98225 
C 142.651247 319.98225 143.16 319.771517 143.535054 319.396464 
C 143.910108 319.02141 144.12084 318.512656 144.12084 317.98225 
C 144.12084 317.451844 143.910108 316.94309 143.535054 316.568036 
C 143.16 316.192983 142.651247 315.98225 142.12084 315.98225 
C 141.590434 315.98225 141.081681 316.192983 140.706627 316.568036 
C 140.331573 316.94309 140.12084 317.451844 140.12084 317.98225 
C 140.12084 318.512656 140.331573 319.02141 140.706627 319.396464 
C 141.081681 319.771517 141.590434 319.98225 142.12084 319.98225 
z
" clip-path="url(#pab516b84fd)" style="fill: #d3d3d3; stroke: #000000"/>
    <path d="M 209.657927 296.72024 
C 210.188333 296.72024 210.697086 296.509507 211.07214 296.134453 
C 211.447194 295.759399 211.657927 295.250646 211.657927 294.72024 
C 211.657927 294.189833 211.447194 293.68108 211.07214 293.306026 
C 210.697086 292.930972 210.188333 292.72024 209.657927 292.72024 
C 209.12752 292.72024 208.618767 292.930972 208.243713 293.306026 
C 207.868659 293.68108 207.657927 294.189833 207.657927 294.72024 
C 207.657927 295.250646 207.868659 295.759399 208.243713 296.134453 
C 208.618767 296.509507 209.12752 296.72024 209.657927 296.72024 
z
" clip-path="url(#pab516b84fd)" style="fill: #d3d3d3; stroke: #000000"/>
    <path d="M 109.99337 296.881958 
C 110.523777 296.881958 111.03253 296.671225 111.407584 296.296171 
C 111.782638 295.921118 111.99337 295.412364 111.99337 294.881958 
C 111.99337 294.351552 111.782638 293.842798 111.407584 293.467744 
C 111.03253 293.092691 110.523777 292.881958 109.99337 292.881958 
C 109.462964 292.881958 108.954211 293.092691 108.579157 293.467744 
C 108.204103 293.842798 107.99337 294.351552 107.99337 294.881958 
C 107.99337 295.412364 108.204103 295.921118 108.579157 296.296171 
C 108.954211 296.671225 109.462964 296.881958 109.99337 296.881958 
z
" clip-path="url(#pab516b84fd)" style="fill: #d3d3d3; stroke: #000000"/>
    <path d="M 308.525116 297.326659 
C 309.055522 297.326659 309.564275 297.115926 309.939329 296.740872 
C 310.314383 296.365819 310.525116 295.857065 310.525116 295.326659 
C 310.525116 294.796253 310.314383 294.287499 309.939329 293.912445 
C 309.564275 293.537391 309.055522 293.326659 308.525116 293.326659 
C 307.994709 293.326659 307.485956 293.537391 307.110902 293.912445 
C 306.735848 294.287499 306.525116 294.796253 306.525116 295.326659 
C 306.525116 295.857065 306.735848 296.365819 307.110902 296.740872 
C 307.485956 297.115926 307.994709 297.326659 308.525116 297.326659 
z
" clip-path="url(#pab516b84fd)" style="fill: #d3d3d3; stroke: #000000"/>
    <path d="M 253.556189 226.916479 
C 254.086595 226.916479 254.595348 226.705746 254.970402 226.330692 
C 255.345456 225.955639 255.556189 225.446885 255.556189 224.916479 
C 255.556189 224.386073 255.345456 223.877319 254.970402 223.502265 
C 254.595348 223.127211 254.086595 222.916479 253.556189 222.916479 
C 253.025782 222.916479 252.517029 223.127211 252.141975 223.502265 
C 251.766921 223.877319 251.556189 224.386073 251.556189 224.916479 
C 251.556189 225.446885 251.766921 225.955639 252.141975 226.330692 
C 252.517029 226.705746 253.025782 226.916479 253.556189 226.916479 
z
" clip-path="url(#pab516b84fd)" style="fill: #d3d3d3; stroke: #000000"/>
    <path d="M 116.731059 274.265126 
C 117.261465 274.265126 117.770219 274.054394 118.145272 273.67934 
C 118.520326 273.304286 118.731059 272.795532 118.731059 272.265126 
C 118.731059 271.73472 118.520326 271.225966 118.145272 270.850913 
C 117.770219 270.475859 117.261465 270.265126 116.731059 270.265126 
C 116.200653 270.265126 115.691899 270.475859 115.316845 270.850913 
C 114.941791 271.225966 114.731059 271.73472 114.731059 272.265126 
C 114.731059 272.795532 114.941791 273.304286 115.316845 273.67934 
C 115.691899 274.054394 116.200653 274.265126 116.731059 274.265126 
z
" clip-path="url(#pab516b84fd)" style="fill: #d3d3d3; stroke: #000000"/>
    <path d="M 309.7713 321.687728 
C 310.301706 321.687728 310.810459 321.476995 311.185513 321.101941 
C 311.560567 320.726887 311.7713 320.218134 311.7713 319.687728 
C 311.7713 319.157321 311.560567 318.648568 311.185513 318.273514 
C 310.810459 317.89846 310.301706 317.687728 309.7713 317.687728 
C 309.240893 317.687728 308.73214 317.89846 308.357086 318.273514 
C 307.982032 318.648568 307.7713 319.157321 307.7713 319.687728 
C 307.7713 320.218134 307.982032 320.726887 308.357086 321.101941 
C 308.73214 321.476995 309.240893 321.687728 309.7713 321.687728 
z
" clip-path="url(#pab516b84fd)" style="fill: #d3d3d3; stroke: #000000"/>
    <path d="M 215.932138 298.275788 
C 216.462545 298.275788 216.971298 298.065055 217.346352 297.690002 
C 217.721406 297.314948 217.932138 296.806194 217.932138 296.275788 
C 217.932138 295.745382 217.721406 295.236628 217.346352 294.861574 
C 216.971298 294.486521 216.462545 294.275788 215.932138 294.275788 
C 215.401732 294.275788 214.892979 294.486521 214.517925 294.861574 
C 214.142871 295.236628 213.932138 295.745382 213.932138 296.275788 
C 213.932138 296.806194 214.142871 297.314948 214.517925 297.690002 
C 214.892979 298.065055 215.401732 298.275788 215.932138 298.275788 
z
" clip-path="url(#pab516b84fd)" style="fill: #d3d3d3; stroke: #000000"/>
    <path d="M 128.875622 322.738772 
C 129.406028 322.738772 129.914781 322.528039 130.289835 322.152985 
C 130.664889 321.777931 130.875622 321.269178 130.875622 320.738772 
C 130.875622 320.208365 130.664889 319.699612 130.289835 319.324558 
C 129.914781 318.949504 129.406028 318.738772 128.875622 318.738772 
C 128.345215 318.738772 127.836462 318.949504 127.461408 319.324558 
C 127.086354 319.699612 126.875622 320.208365 126.875622 320.738772 
C 126.875622 321.269178 127.086354 321.777931 127.461408 322.152985 
C 127.836462 322.528039 128.345215 322.738772 128.875622 322.738772 
z
" clip-path="url(#pab516b84fd)" style="fill: #d3d3d3; stroke: #000000"/>
    <path d="M 192.552403 323.050479 
C 193.08281 323.050479 193.591563 322.839746 193.966617 322.464692 
C 194.341671 322.089638 194.552403 321.580885 194.552403 321.050479 
C 194.552403 320.520073 194.341671 320.011319 193.966617 319.636265 
C 193.591563 319.261211 193.08281 319.050479 192.552403 319.050479 
C 192.021997 319.050479 191.513244 319.261211 191.13819 319.636265 
C 190.763136 320.011319 190.552403 320.520073 190.552403 321.050479 
C 190.552403 321.580885 190.763136 322.089638 191.13819 322.464692 
C 191.513244 322.839746 192.021997 323.050479 192.552403 323.050479 
z
" clip-path="url(#pab516b84fd)" style="fill: #d3d3d3; stroke: #000000"/>
    <path d="M 305.190976 228.055209 
C 305.721383 228.055209 306.230136 227.844476 306.60519 227.469423 
C 306.980244 227.094369 307.190976 226.585615 307.190976 226.055209 
C 307.190976 225.524803 306.980244 225.016049 306.60519 224.640996 
C 306.230136 224.265942 305.721383 224.055209 305.190976 224.055209 
C 304.66057 224.055209 304.151817 224.265942 303.776763 224.640996 
C 303.401709 225.016049 303.190976 225.524803 303.190976 226.055209 
C 303.190976 226.585615 303.401709 227.094369 303.776763 227.469423 
C 304.151817 227.844476 304.66057 228.055209 305.190976 228.055209 
z
" clip-path="url(#pab516b84fd)" style="fill: #d3d3d3; stroke: #000000"/>
    <path d="M 317.925791 323.391547 
C 318.456198 323.391547 318.964951 323.180814 319.340005 322.80576 
C 319.715059 322.430707 319.925791 321.921953 319.925791 321.391547 
C 319.925791 320.861141 319.715059 320.352387 319.340005 319.977333 
C 318.964951 319.602279 318.456198 319.391547 317.925791 319.391547 
C 317.395385 319.391547 316.886632 319.602279 316.511578 319.977333 
C 316.136524 320.352387 315.925791 320.861141 315.925791 321.391547 
C 315.925791 321.921953 316.136524 322.430707 316.511578 322.80576 
C 316.886632 323.180814 317.395385 323.391547 317.925791 323.391547 
z
" clip-path="url(#pab516b84fd)" style="fill: #d3d3d3; stroke: #000000"/>
    <path d="M 336.293134 299.645852 
C 336.82354 299.645852 337.332294 299.435119 337.707347 299.060065 
C 338.082401 298.685011 338.293134 298.176258 338.293134 297.645852 
C 338.293134 297.115445 338.082401 296.606692 337.707347 296.231638 
C 337.332294 295.856584 336.82354 295.645852 336.293134 295.645852 
C 335.762728 295.645852 335.253974 295.856584 334.87892 296.231638 
C 334.503867 296.606692 334.293134 297.115445 334.293134 297.645852 
C 334.293134 298.176258 334.503867 298.685011 334.87892 299.060065 
C 335.253974 299.435119 335.762728 299.645852 336.293134 299.645852 
z
" clip-path="url(#pab516b84fd)" style="fill: #d3d3d3; stroke: #000000"/>
    <path d="M 126.829046 299.671392 
C 127.359452 299.671392 127.868206 299.460659 128.243259 299.085605 
C 128.618313 298.710551 128.829046 298.201798 128.829046 297.671392 
C 128.829046 297.140985 128.618313 296.632232 128.243259 296.257178 
C 127.868206 295.882124 127.359452 295.671392 126.829046 295.671392 
C 126.29864 295.671392 125.789886 295.882124 125.414832 296.257178 
C 125.039778 296.632232 124.829046 297.140985 124.829046 297.671392 
C 124.829046 298.201798 125.039778 298.710551 125.414832 299.085605 
C 125.789886 299.460659 126.29864 299.671392 126.829046 299.671392 
z
" clip-path="url(#pab516b84fd)" style="fill: #d3d3d3; stroke: #000000"/>
    <path d="M 210.527556 276.174305 
C 211.057962 276.174305 211.566716 275.963573 211.94177 275.588519 
C 212.316823 275.213465 212.527556 274.704711 212.527556 274.174305 
C 212.527556 273.643899 212.316823 273.135145 211.94177 272.760092 
C 211.566716 272.385038 211.057962 272.174305 210.527556 272.174305 
C 209.99715 272.174305 209.488396 272.385038 209.113342 272.760092 
C 208.738289 273.135145 208.527556 273.643899 208.527556 274.174305 
C 208.527556 274.704711 208.738289 275.213465 209.113342 275.588519 
C 209.488396 275.963573 209.99715 276.174305 210.527556 276.174305 
z
" clip-path="url(#pab516b84fd)" style="fill: #d3d3d3; stroke: #000000"/>
    <path d="M 186.11187 300.300832 
C 186.642276 300.300832 187.15103 300.090099 187.526083 299.715045 
C 187.901137 299.339992 188.11187 298.831238 188.11187 298.300832 
C 188.11187 297.770426 187.901137 297.261672 187.526083 296.886618 
C 187.15103 296.511565 186.642276 296.300832 186.11187 296.300832 
C 185.581464 296.300832 185.07271 296.511565 184.697656 296.886618 
C 184.322602 297.261672 184.11187 297.770426 184.11187 298.300832 
C 184.11187 298.831238 184.322602 299.339992 184.697656 299.715045 
C 185.07271 300.090099 185.581464 300.300832 186.11187 300.300832 
z
" clip-path="url(#pab516b84fd)" style="fill: #d3d3d3; stroke: #000000"/>
    <path d="M 310.271492 300.35041 
C 310.801898 300.35041 311.310652 300.139678 311.685705 299.764624 
C 312.060759 299.38957 312.271492 298.880817 312.271492 298.35041 
C 312.271492 297.820004 312.060759 297.311251 311.685705 296.936197 
C 311.310652 296.561143 310.801898 296.35041 310.271492 296.35041 
C 309.741086 296.35041 309.232332 296.561143 308.857278 296.936197 
C 308.482224 297.311251 308.271492 297.820004 308.271492 298.35041 
C 308.271492 298.880817 308.482224 299.38957 308.857278 299.764624 
C 309.232332 300.139678 309.741086 300.35041 310.271492 300.35041 
z
" clip-path="url(#pab516b84fd)" style="fill: #d3d3d3; stroke: #000000"/>
    <path d="M 327.265668 278.040222 
C 327.796074 278.040222 328.304828 277.829489 328.679881 277.454436 
C 329.054935 277.079382 329.265668 276.570628 329.265668 276.040222 
C 329.265668 275.509816 329.054935 275.001062 328.679881 274.626008 
C 328.304828 274.250955 327.796074 274.040222 327.265668 274.040222 
C 326.735262 274.040222 326.226508 274.250955 325.851454 274.626008 
C 325.4764 275.001062 325.265668 275.509816 325.265668 276.040222 
C 325.265668 276.570628 325.4764 277.079382 325.851454 277.454436 
C 326.226508 277.829489 326.735262 278.040222 327.265668 278.040222 
z
" clip-path="url(#pab516b84fd)" style="fill: #d3d3d3; stroke: #000000"/>
    <path d="M 235.20786 326.579173 
C 235.738267 326.579173 236.24702 326.36844 236.622074 325.993387 
C 236.997128 325.618333 237.20786 325.109579 237.20786 324.579173 
C 237.20786 324.048767 236.997128 323.540013 236.622074 323.16496 
C 236.24702 322.789906 235.738267 322.579173 235.20786 322.579173 
C 234.677454 322.579173 234.168701 322.789906 233.793647 323.16496 
C 233.418593 323.540013 233.20786 324.048767 233.20786 324.579173 
C 233.20786 325.109579 233.418593 325.618333 233.793647 325.993387 
C 234.168701 326.36844 234.677454 326.579173 235.20786 326.579173 
z
" clip-path="url(#pab516b84fd)" style="fill: #d3d3d3; stroke: #000000"/>
    <path d="M 351.345249 230.452593 
C 351.875655 230.452593 352.384408 230.241861 352.759462 229.866807 
C 353.134516 229.491753 353.345249 228.982999 353.345249 228.452593 
C 353.345249 227.922187 353.134516 227.413433 352.759462 227.03838 
C 352.384408 226.663326 351.875655 226.452593 351.345249 226.452593 
C 350.814842 226.452593 350.306089 226.663326 349.931035 227.03838 
C 349.555981 227.413433 349.345249 227.922187 349.345249 228.452593 
C 349.345249 228.982999 349.555981 229.491753 349.931035 229.866807 
C 350.306089 230.241861 350.814842 230.452593 351.345249 230.452593 
z
" clip-path="url(#pab516b84fd)" style="fill: #d3d3d3; stroke: #000000"/>
    <path d="M 153.966825 326.791897 
C 154.497231 326.791897 155.005985 326.581164 155.381038 326.20611 
C 155.756092 325.831057 155.966825 325.322303 155.966825 324.791897 
C 155.966825 324.261491 155.756092 323.752737 155.381038 323.377683 
C 155.005985 323.002629 154.497231 322.791897 153.966825 322.791897 
C 153.436419 322.791897 152.927665 323.002629 152.552611 323.377683 
C 152.177558 323.752737 151.966825 324.261491 151.966825 324.791897 
C 151.966825 325.322303 152.177558 325.831057 152.552611 326.20611 
C 152.927665 326.581164 153.436419 326.791897 153.966825 326.791897 
z
" clip-path="url(#pab516b84fd)" style="fill: #d3d3d3; stroke: #000000"/>
    <path d="M 280.828073 326.796389 
C 281.358479 326.796389 281.867233 326.585657 282.242287 326.210603 
C 282.617341 325.835549 282.828073 325.326796 282.828073 324.796389 
C 282.828073 324.265983 282.617341 323.75723 282.242287 323.382176 
C 281.867233 323.007122 281.358479 322.796389 280.828073 322.796389 
C 280.297667 322.796389 279.788913 323.007122 279.41386 323.382176 
C 279.038806 323.75723 278.828073 324.265983 278.828073 324.796389 
C 278.828073 325.326796 279.038806 325.835549 279.41386 326.210603 
C 279.788913 326.585657 280.297667 326.796389 280.828073 326.796389 
z
" clip-path="url(#pab516b84fd)" style="fill: #d3d3d3; stroke: #000000"/>
    <path d="M 247.402703 326.835704 
C 247.93311 326.835704 248.441863 326.624971 248.816917 326.249917 
C 249.191971 325.874863 249.402703 325.36611 249.402703 324.835704 
C 249.402703 324.305297 249.191971 323.796544 248.816917 323.42149 
C 248.441863 323.046436 247.93311 322.835704 247.402703 322.835704 
C 246.872297 322.835704 246.363544 323.046436 245.98849 323.42149 
C 245.613436 323.796544 245.402703 324.305297 245.402703 324.835704 
C 245.402703 325.36611 245.613436 325.874863 245.98849 326.249917 
C 246.363544 326.624971 246.872297 326.835704 247.402703 326.835704 
z
" clip-path="url(#pab516b84fd)" style="fill: #d3d3d3; stroke: #000000"/>
    <path d="M 341.815404 134.338583 
C 342.345811 134.338583 342.854564 134.127851 343.229618 133.752797 
C 343.604672 133.377743 343.815404 132.86899 343.815404 132.338583 
C 343.815404 131.808177 343.604672 131.299424 343.229618 130.92437 
C 342.854564 130.549316 342.345811 130.338583 341.815404 130.338583 
C 341.284998 130.338583 340.776245 130.549316 340.401191 130.92437 
C 340.026137 131.299424 339.815404 131.808177 339.815404 132.338583 
C 339.815404 132.86899 340.026137 133.377743 340.401191 133.752797 
C 340.776245 134.127851 341.284998 134.338583 341.815404 134.338583 
z
" clip-path="url(#pab516b84fd)" style="fill: #00ff00; stroke: #000000"/>
    <path d="M 267.187858 327.119136 
C 267.718264 327.119136 268.227018 326.908404 268.602071 326.53335 
C 268.977125 326.158296 269.187858 325.649543 269.187858 325.119136 
C 269.187858 324.58873 268.977125 324.079977 268.602071 323.704923 
C 268.227018 323.329869 267.718264 323.119136 267.187858 323.119136 
C 266.657452 323.119136 266.148698 323.329869 265.773644 323.704923 
C 265.39859 324.079977 265.187858 324.58873 265.187858 325.119136 
C 265.187858 325.649543 265.39859 326.158296 265.773644 326.53335 
C 266.148698 326.908404 266.657452 327.119136 267.187858 327.119136 
z
" clip-path="url(#pab516b84fd)" style="fill: #d3d3d3; stroke: #000000"/>
    <path d="M 236.418441 327.550298 
C 236.948847 327.550298 237.457601 327.339565 237.832655 326.964511 
C 238.207709 326.589458 238.418441 326.080704 238.418441 325.550298 
C 238.418441 325.019892 238.207709 324.511138 237.832655 324.136084 
C 237.457601 323.76103 236.948847 323.550298 236.418441 323.550298 
C 235.888035 323.550298 235.379281 323.76103 235.004228 324.136084 
C 234.629174 324.511138 234.418441 325.019892 234.418441 325.550298 
C 234.418441 326.080704 234.629174 326.589458 235.004228 326.964511 
C 235.379281 327.339565 235.888035 327.550298 236.418441 327.550298 
z
" clip-path="url(#pab516b84fd)" style="fill: #d3d3d3; stroke: #000000"/>
    <path d="M 272.058469 303.945076 
C 272.588875 303.945076 273.097628 303.734344 273.472682 303.35929 
C 273.847736 302.984236 274.058469 302.475483 274.058469 301.945076 
C 274.058469 301.41467 273.847736 300.905917 273.472682 300.530863 
C 273.097628 300.155809 272.588875 299.945076 272.058469 299.945076 
C 271.528062 299.945076 271.019309 300.155809 270.644255 300.530863 
C 270.269201 300.905917 270.058469 301.41467 270.058469 301.945076 
C 270.058469 302.475483 270.269201 302.984236 270.644255 303.35929 
C 271.019309 303.734344 271.528062 303.945076 272.058469 303.945076 
z
" clip-path="url(#pab516b84fd)" style="fill: #d3d3d3; stroke: #000000"/>
    <path d="M 318.0535 328.126674 
C 318.583906 328.126674 319.09266 327.915942 319.467714 327.540888 
C 319.842768 327.165834 320.0535 326.657081 320.0535 326.126674 
C 320.0535 325.596268 319.842768 325.087515 319.467714 324.712461 
C 319.09266 324.337407 318.583906 324.126674 318.0535 324.126674 
C 317.523094 324.126674 317.01434 324.337407 316.639287 324.712461 
C 316.264233 325.087515 316.0535 325.596268 316.0535 326.126674 
C 316.0535 326.657081 316.264233 327.165834 316.639287 327.540888 
C 317.01434 327.915942 317.523094 328.126674 318.0535 328.126674 
z
" clip-path="url(#pab516b84fd)" style="fill: #d3d3d3; stroke: #000000"/>
    <path d="M 287.894638 280.333223 
C 288.425044 280.333223 288.933798 280.12249 289.308852 279.747437 
C 289.683905 279.372383 289.894638 278.863629 289.894638 278.333223 
C 289.894638 277.802817 289.683905 277.294063 289.308852 276.919009 
C 288.933798 276.543956 288.425044 276.333223 287.894638 276.333223 
C 287.364232 276.333223 286.855478 276.543956 286.480424 276.919009 
C 286.105371 277.294063 285.894638 277.802817 285.894638 278.333223 
C 285.894638 278.863629 286.105371 279.372383 286.480424 279.747437 
C 286.855478 280.12249 287.364232 280.333223 287.894638 280.333223 
z
" clip-path="url(#pab516b84fd)" style="fill: #d3d3d3; stroke: #000000"/>
    <path d="M 323.087443 280.389352 
C 323.617849 280.389352 324.126602 280.178619 324.501656 279.803565 
C 324.87671 279.428512 325.087443 278.919758 325.087443 278.389352 
C 325.087443 277.858946 324.87671 277.350192 324.501656 276.975138 
C 324.126602 276.600084 323.617849 276.389352 323.087443 276.389352 
C 322.557036 276.389352 322.048283 276.600084 321.673229 276.975138 
C 321.298175 277.350192 321.087443 277.858946 321.087443 278.389352 
C 321.087443 278.919758 321.298175 279.428512 321.673229 279.803565 
C 322.048283 280.178619 322.557036 280.389352 323.087443 280.389352 
z
" clip-path="url(#pab516b84fd)" style="fill: #d3d3d3; stroke: #000000"/>
    <path d="M 209.993367 280.758912 
C 210.523773 280.758912 211.032527 280.54818 211.40758 280.173126 
C 211.782634 279.798072 211.993367 279.289319 211.993367 278.758912 
C 211.993367 278.228506 211.782634 277.719753 211.40758 277.344699 
C 211.032527 276.969645 210.523773 276.758912 209.993367 276.758912 
C 209.462961 276.758912 208.954207 276.969645 208.579153 277.344699 
C 208.2041 277.719753 207.993367 278.228506 207.993367 278.758912 
C 207.993367 279.289319 208.2041 279.798072 208.579153 280.173126 
C 208.954207 280.54818 209.462961 280.758912 209.993367 280.758912 
z
" clip-path="url(#pab516b84fd)" style="fill: #d3d3d3; stroke: #000000"/>
    <path d="M 237.487049 232.303429 
C 238.017455 232.303429 238.526209 232.092696 238.901263 231.717642 
C 239.276316 231.342588 239.487049 230.833835 239.487049 230.303429 
C 239.487049 229.773022 239.276316 229.264269 238.901263 228.889215 
C 238.526209 228.514161 238.017455 228.303429 237.487049 228.303429 
C 236.956643 228.303429 236.447889 228.514161 236.072835 228.889215 
C 235.697782 229.264269 235.487049 229.773022 235.487049 230.303429 
C 235.487049 230.833835 235.697782 231.342588 236.072835 231.717642 
C 236.447889 232.092696 236.956643 232.303429 237.487049 232.303429 
z
" clip-path="url(#pab516b84fd)" style="fill: #d3d3d3; stroke: #000000"/>
    <path d="M 137.529447 280.900382 
C 138.059853 280.900382 138.568607 280.68965 138.94366 280.314596 
C 139.318714 279.939542 139.529447 279.430789 139.529447 278.900382 
C 139.529447 278.369976 139.318714 277.861223 138.94366 277.486169 
C 138.568607 277.111115 138.059853 276.900382 137.529447 276.900382 
C 136.999041 276.900382 136.490287 277.111115 136.115233 277.486169 
C 135.740179 277.861223 135.529447 278.369976 135.529447 278.900382 
C 135.529447 279.430789 135.740179 279.939542 136.115233 280.314596 
C 136.490287 280.68965 136.999041 280.900382 137.529447 280.900382 
z
" clip-path="url(#pab516b84fd)" style="fill: #d3d3d3; stroke: #000000"/>
    <path d="M 210.359473 232.56416 
C 210.889879 232.56416 211.398633 232.353427 211.773687 231.978373 
C 212.14874 231.60332 212.359473 231.094566 212.359473 230.56416 
C 212.359473 230.033754 212.14874 229.525 211.773687 229.149946 
C 211.398633 228.774892 210.889879 228.56416 210.359473 228.56416 
C 209.829067 228.56416 209.320313 228.774892 208.94526 229.149946 
C 208.570206 229.525 208.359473 230.033754 208.359473 230.56416 
C 208.359473 231.094566 208.570206 231.60332 208.94526 231.978373 
C 209.320313 232.353427 209.829067 232.56416 210.359473 232.56416 
z
" clip-path="url(#pab516b84fd)" style="fill: #d3d3d3; stroke: #000000"/>
    <path d="M 209.702303 330.006667 
C 210.23271 330.006667 210.741463 329.795934 211.116517 329.42088 
C 211.491571 329.045827 211.702303 328.537073 211.702303 328.006667 
C 211.702303 327.476261 211.491571 326.967507 211.116517 326.592453 
C 210.741463 326.217399 210.23271 326.006667 209.702303 326.006667 
C 209.171897 326.006667 208.663144 326.217399 208.28809 326.592453 
C 207.913036 326.967507 207.702303 327.476261 207.702303 328.006667 
C 207.702303 328.537073 207.913036 329.045827 208.28809 329.42088 
C 208.663144 329.795934 209.171897 330.006667 209.702303 330.006667 
z
" clip-path="url(#pab516b84fd)" style="fill: #d3d3d3; stroke: #000000"/>
    <path d="M 178.347946 281.556598 
C 178.878352 281.556598 179.387106 281.345865 179.762159 280.970811 
C 180.137213 280.595757 180.347946 280.087004 180.347946 279.556598 
C 180.347946 279.026191 180.137213 278.517438 179.762159 278.142384 
C 179.387106 277.76733 178.878352 277.556598 178.347946 277.556598 
C 177.81754 277.556598 177.308786 277.76733 176.933732 278.142384 
C 176.558678 278.517438 176.347946 279.026191 176.347946 279.556598 
C 176.347946 280.087004 176.558678 280.595757 176.933732 280.970811 
C 177.308786 281.345865 177.81754 281.556598 178.347946 281.556598 
z
" clip-path="url(#pab516b84fd)" style="fill: #d3d3d3; stroke: #000000"/>
    <path d="M 186.417675 281.699753 
C 186.948081 281.699753 187.456835 281.48902 187.831889 281.113967 
C 188.206943 280.738913 188.417675 280.230159 188.417675 279.699753 
C 188.417675 279.169347 188.206943 278.660593 187.831889 278.285539 
C 187.456835 277.910486 186.948081 277.699753 186.417675 277.699753 
C 185.887269 277.699753 185.378516 277.910486 185.003462 278.285539 
C 184.628408 278.660593 184.417675 279.169347 184.417675 279.699753 
C 184.417675 280.230159 184.628408 280.738913 185.003462 281.113967 
C 185.378516 281.48902 185.887269 281.699753 186.417675 281.699753 
z
" clip-path="url(#pab516b84fd)" style="fill: #d3d3d3; stroke: #000000"/>
    <path d="M 278.253901 281.954056 
C 278.784307 281.954056 279.29306 281.743323 279.668114 281.368269 
C 280.043168 280.993215 280.253901 280.484462 280.253901 279.954056 
C 280.253901 279.423649 280.043168 278.914896 279.668114 278.539842 
C 279.29306 278.164788 278.784307 277.954056 278.253901 277.954056 
C 277.723494 277.954056 277.214741 278.164788 276.839687 278.539842 
C 276.464633 278.914896 276.253901 279.423649 276.253901 279.954056 
C 276.253901 280.484462 276.464633 280.993215 276.839687 281.368269 
C 277.214741 281.743323 277.723494 281.954056 278.253901 281.954056 
z
" clip-path="url(#pab516b84fd)" style="fill: #d3d3d3; stroke: #000000"/>
    <path d="M 282.089231 282.393171 
C 282.635961 282.393171 283.160373 282.175953 283.546969 281.789357 
C 283.933566 281.40276 284.150784 280.878349 284.150784 280.331619 
C 284.150784 279.784888 283.933566 279.260477 283.546969 278.873881 
C 283.160373 278.487284 282.635961 278.270066 282.089231 278.270066 
C 281.542501 278.270066 281.01809 278.487284 280.631493 278.873881 
C 280.244897 279.260477 280.027678 279.784888 280.027678 280.331619 
C 280.027678 280.878349 280.244897 281.40276 280.631493 281.789357 
C 281.01809 282.175953 281.542501 282.393171 282.089231 282.393171 
z
" clip-path="url(#pab516b84fd)" style="fill: #d3d3d3; stroke: #000000"/>
    <path d="M 252.006099 233.917057 
C 252.536506 233.917057 253.045259 233.706324 253.420313 233.33127 
C 253.795367 232.956217 254.006099 232.447463 254.006099 231.917057 
C 254.006099 231.386651 253.795367 230.877897 253.420313 230.502843 
C 253.045259 230.12779 252.536506 229.917057 252.006099 229.917057 
C 251.475693 229.917057 250.96694 230.12779 250.591886 230.502843 
C 250.216832 230.877897 250.006099 231.386651 250.006099 231.917057 
C 250.006099 232.447463 250.216832 232.956217 250.591886 233.33127 
C 250.96694 233.706324 251.475693 233.917057 252.006099 233.917057 
z
" clip-path="url(#pab516b84fd)" style="fill: #d3d3d3; stroke: #000000"/>
    <path d="M 173.160443 233.976281 
C 173.690849 233.976281 174.199603 233.765548 174.574657 233.390495 
C 174.94971 233.015441 175.160443 232.506687 175.160443 231.976281 
C 175.160443 231.445875 174.94971 230.937121 174.574657 230.562067 
C 174.199603 230.187014 173.690849 229.976281 173.160443 229.976281 
C 172.630037 229.976281 172.121283 230.187014 171.74623 230.562067 
C 171.371176 230.937121 171.160443 231.445875 171.160443 231.976281 
C 171.160443 232.506687 171.371176 233.015441 171.74623 233.390495 
C 172.121283 233.765548 172.630037 233.976281 173.160443 233.976281 
z
" clip-path="url(#pab516b84fd)" style="fill: #d3d3d3; stroke: #000000"/>
    <path d="M 206.767896 307.60144 
C 207.298302 307.60144 207.807055 307.390707 208.182109 307.015653 
C 208.557163 306.640599 208.767896 306.131846 208.767896 305.60144 
C 208.767896 305.071034 208.557163 304.56228 208.182109 304.187226 
C 207.807055 303.812172 207.298302 303.60144 206.767896 303.60144 
C 206.237489 303.60144 205.728736 303.812172 205.353682 304.187226 
C 204.978628 304.56228 204.767896 305.071034 204.767896 305.60144 
C 204.767896 306.131846 204.978628 306.640599 205.353682 307.015653 
C 205.728736 307.390707 206.237489 307.60144 206.767896 307.60144 
z
" clip-path="url(#pab516b84fd)" style="fill: #d3d3d3; stroke: #000000"/>
    <path d="M 238.88169 332.622944 
C 239.412096 332.622944 239.92085 332.412212 240.295904 332.037158 
C 240.670957 331.662104 240.88169 331.153351 240.88169 330.622944 
C 240.88169 330.092538 240.670957 329.583785 240.295904 329.208731 
C 239.92085 328.833677 239.412096 328.622944 238.88169 328.622944 
C 238.351284 328.622944 237.84253 328.833677 237.467476 329.208731 
C 237.092423 329.583785 236.88169 330.092538 236.88169 330.622944 
C 236.88169 331.153351 237.092423 331.662104 237.467476 332.037158 
C 237.84253 332.412212 238.351284 332.622944 238.88169 332.622944 
z
" clip-path="url(#pab516b84fd)" style="fill: #d3d3d3; stroke: #000000"/>
    <path d="M 179.287195 234.819248 
C 179.817601 234.819248 180.326355 234.608515 180.701409 234.233461 
C 181.076463 233.858407 181.287195 233.349654 181.287195 232.819248 
C 181.287195 232.288841 181.076463 231.780088 180.701409 231.405034 
C 180.326355 231.02998 179.817601 230.819248 179.287195 230.819248 
C 178.756789 230.819248 178.248035 231.02998 177.872982 231.405034 
C 177.497928 231.780088 177.287195 232.288841 177.287195 232.819248 
C 177.287195 233.349654 177.497928 233.858407 177.872982 234.233461 
C 178.248035 234.608515 178.756789 234.819248 179.287195 234.819248 
z
" clip-path="url(#pab516b84fd)" style="fill: #d3d3d3; stroke: #000000"/>
    <path d="M 289.406057 235.382497 
C 289.936463 235.382497 290.445217 235.171765 290.820271 234.796711 
C 291.195324 234.421657 291.406057 233.912903 291.406057 233.382497 
C 291.406057 232.852091 291.195324 232.343337 290.820271 231.968284 
C 290.445217 231.59323 289.936463 231.382497 289.406057 231.382497 
C 288.875651 231.382497 288.366897 231.59323 287.991843 231.968284 
C 287.61679 232.343337 287.406057 232.852091 287.406057 233.382497 
C 287.406057 233.912903 287.61679 234.421657 287.991843 234.796711 
C 288.366897 235.171765 288.875651 235.382497 289.406057 235.382497 
z
" clip-path="url(#pab516b84fd)" style="fill: #d3d3d3; stroke: #000000"/>
    <path d="M 239.356284 309.638712 
C 239.886691 309.638712 240.395444 309.42798 240.770498 309.052926 
C 241.145552 308.677872 241.356284 308.169118 241.356284 307.638712 
C 241.356284 307.108306 241.145552 306.599552 240.770498 306.224499 
C 240.395444 305.849445 239.886691 305.638712 239.356284 305.638712 
C 238.825878 305.638712 238.317125 305.849445 237.942071 306.224499 
C 237.567017 306.599552 237.356284 307.108306 237.356284 307.638712 
C 237.356284 308.169118 237.567017 308.677872 237.942071 309.052926 
C 238.317125 309.42798 238.825878 309.638712 239.356284 309.638712 
z
" clip-path="url(#pab516b84fd)" style="fill: #d3d3d3; stroke: #000000"/>
    <path d="M 236.162079 236.66766 
C 236.692486 236.66766 237.201239 236.456927 237.576293 236.081873 
C 237.951347 235.70682 238.162079 235.198066 238.162079 234.66766 
C 238.162079 234.137254 237.951347 233.6285 237.576293 233.253446 
C 237.201239 232.878392 236.692486 232.66766 236.162079 232.66766 
C 235.631673 232.66766 235.12292 232.878392 234.747866 233.253446 
C 234.372812 233.6285 234.162079 234.137254 234.162079 234.66766 
C 234.162079 235.198066 234.372812 235.70682 234.747866 236.081873 
C 235.12292 236.456927 235.631673 236.66766 236.162079 236.66766 
z
" clip-path="url(#pab516b84fd)" style="fill: #d3d3d3; stroke: #000000"/>
   </g>
  </g>
 </g>
 <defs>
  <clipPath id="pab516b84fd">
   <rect x="7.2" y="7.2" width="443.52" height="443.52"/>
  </clipPath>
 </defs>
</svg>
